<?xml version="1.0" encoding="utf-8"?>
<!-- Generator: Adobe Illustrator 19.2.1, SVG Export Plug-In . SVG Version: 6.00 Build 0)  -->
<svg version="1.1" id="Layer_1" xmlns="http://www.w3.org/2000/svg" xmlns:xlink="http://www.w3.org/1999/xlink" x="0px" y="0px"
	 viewBox="0 0 160 100" enable-background="new 0 0 160 100" xml:space="preserve">
<g>
	<polygon fill="#EC1C2E" points="111.87,98.05 114.35,97.99 116.79,97.8 119.19,97.5 121.56,97.07 123.9,96.54 126.19,95.89 
		128.42,95.13 130.61,94.26 132.74,93.3 134.81,92.24 136.83,91.09 138.78,89.83 140.67,88.48 142.49,87.06 144.24,85.55 
		145.91,83.95 147.49,82.28 149.01,80.53 150.45,78.71 151.79,76.83 153.04,74.87 154.19,72.85 155.26,70.78 156.23,68.65 
		157.08,66.45 157.84,64.23 158.48,61.94 159.02,59.62 159.45,57.23 159.75,54.83 159.94,52.38 160,49.91 159.94,47.44 
		159.75,45.01 159.45,42.63 159.02,40.26 158.48,37.95 157.84,35.68 157.08,33.45 156.23,31.27 155.26,29.16 154.19,27.09 
		153.04,25.08 151.79,23.12 150.45,21.24 149.01,19.43 147.49,17.69 145.91,16.02 144.24,14.44 142.49,12.92 140.67,11.5 
		138.78,10.16 136.83,8.91 134.81,7.76 132.74,6.68 130.61,5.72 128.42,4.87 126.19,4.11 123.9,3.46 121.56,2.93 119.19,2.5 
		116.79,2.2 114.35,2.01 111.87,1.95 109.39,2.01 106.94,2.2 104.54,2.5 102.17,2.93 99.83,3.46 97.56,4.11 95.32,4.87 93.14,5.72 
		91.01,6.68 88.94,7.76 86.93,8.91 84.97,10.16 83.1,11.5 81.28,12.92 79.54,14.44 77.88,16.02 76.29,17.69 74.77,19.43 
		73.35,21.24 72.01,23.12 70.76,25.08 69.61,27.09 68.55,29.16 67.6,31.27 66.73,33.45 65.98,35.68 65.35,37.95 64.81,40.26 
		64.38,42.63 64.08,45.01 63.89,47.44 63.83,49.91 63.89,52.38 64.08,54.83 64.38,57.23 64.81,59.62 65.35,61.94 65.98,64.23 
		66.73,66.45 67.6,68.65 68.55,70.78 69.61,72.85 70.76,74.87 72.01,76.83 73.35,78.71 74.77,80.53 76.29,82.28 77.88,83.95 
		79.54,85.55 81.28,87.06 83.1,88.48 84.97,89.83 86.93,91.09 88.94,92.24 91.01,93.3 93.14,94.26 95.32,95.13 97.56,95.89 
		99.83,96.54 102.17,97.07 104.54,97.5 106.94,97.8 109.39,97.99 	"/>
	<polygon fill="#0084C4" points="48.13,98.05 50.61,97.99 53.06,97.8 55.46,97.5 57.83,97.07 60.17,96.54 62.44,95.89 64.68,95.13 
		66.86,94.26 68.99,93.3 71.06,92.24 73.07,91.09 75.03,89.83 76.9,88.48 78.72,87.06 80.46,85.55 82.13,83.95 83.71,82.28 
		85.23,80.53 86.65,78.71 87.99,76.83 89.24,74.87 90.39,72.85 91.45,70.78 92.41,68.65 93.26,66.45 94.02,64.23 94.65,61.94 
		95.19,59.62 95.62,57.23 95.92,54.83 96.11,52.38 96.17,49.91 96.11,47.44 95.92,45.01 95.62,42.63 95.19,40.26 94.65,37.95 
		94.02,35.68 93.26,33.45 92.41,31.27 91.45,29.16 90.39,27.09 89.24,25.08 87.99,23.12 86.65,21.24 85.23,19.43 83.71,17.69 
		82.13,16.02 80.46,14.44 78.72,12.92 76.9,11.5 75.03,10.16 73.07,8.91 71.06,7.76 68.99,6.68 66.86,5.72 64.68,4.87 62.44,4.11 
		60.17,3.46 57.83,2.93 55.46,2.5 53.06,2.2 50.61,2.01 48.13,1.95 45.65,2.01 43.21,2.2 40.81,2.5 38.44,2.93 36.1,3.46 
		33.81,4.11 31.58,4.87 29.39,5.72 27.26,6.68 25.19,7.76 23.17,8.91 21.22,10.16 19.33,11.5 17.51,12.92 15.76,14.44 14.1,16.02 
		12.51,17.69 10.99,19.43 9.55,21.24 8.21,23.12 6.96,25.08 5.81,27.09 4.74,29.16 3.77,31.27 2.92,33.45 2.16,35.68 1.52,37.95 
		0.98,40.26 0.55,42.63 0.25,45.01 0.06,47.44 0,49.91 0.06,52.38 0.25,54.83 0.55,57.23 0.98,59.62 1.52,61.94 2.16,64.23 
		2.92,66.45 3.77,68.65 4.74,70.78 5.81,72.85 6.96,74.87 8.21,76.83 9.55,78.71 10.99,80.53 12.51,82.28 14.1,83.95 15.76,85.55 
		17.51,87.06 19.33,88.48 21.22,89.83 23.17,91.09 25.19,92.24 27.26,93.3 29.39,94.26 31.58,95.13 33.81,95.89 36.1,96.54 
		38.44,97.07 40.81,97.5 43.21,97.8 45.65,97.99 	"/>
	<polygon fill="#EC1C2E" points="74.08,20.25 98.44,20.25 98.44,17.56 76.43,17.56 	"/>
	<polygon fill="#EC1C2E" points="70.26,25.93 98.44,25.93 98.44,23.26 71.96,23.26 	"/>
	<polygon fill="#EC1C2E" points="67.4,31.71 98.44,31.71 98.44,29.03 68.71,29.03 	"/>
	<polygon fill="#EC1C2E" points="65.53,37.4 98.44,37.4 98.44,34.73 66.36,34.73 	"/>
	<polygon fill="#EC1C2E" points="64.32,43.1 98.44,43.1 98.44,40.41 64.81,40.41 	"/>
	<polygon fill="#EC1C2E" points="64.07,54.14 98.44,54.14 98.44,51.45 63.83,51.45 	"/>
	<polygon fill="#EC1C2E" points="64.89,60.15 98.44,60.15 98.44,57.47 64.4,57.47 	"/>
	<polygon fill="#EC1C2E" points="66.51,65.03 98.44,65.03 98.44,62.35 65.69,62.35 	"/>
	<polygon fill="#EC1C2E" points="68.95,70.97 98.44,70.97 98.44,68.29 67.65,68.29 	"/>
	<polygon fill="#EC1C2E" points="72.37,76.99 98.44,76.99 98.44,74.3 70.57,74.3 	"/>
	<polygon fill="#EC1C2E" points="76.67,82.77 98.21,82.77 98.21,80.08 74.31,80.08 	"/>
	<g>
		<g>
			<polygon fill="#EC1C2E" points="152.09,79.42 152.23,78.99 152.47,78.6 152.77,78.25 153.11,77.97 153.51,77.75 153.94,77.6 
				154.39,77.56 154.87,77.6 155.31,77.75 155.7,77.97 156.05,78.25 156.34,78.6 156.56,78.99 156.7,79.42 156.21,79.42 
				156.12,79.12 155.94,78.79 155.72,78.5 155.45,78.28 155.14,78.11 154.77,78 154.39,77.97 154.01,78 153.65,78.11 153.34,78.28 
				153.05,78.5 152.83,78.79 152.66,79.12 152.56,79.42 			"/>
			<polygon fill="#EC1C2E" points="153.57,79.42 153.57,78.85 154.47,78.85 154.68,78.87 154.85,78.88 155.01,78.93 155.14,78.99 
				155.23,79.07 155.31,79.17 155.36,79.28 155.37,79.42 154.96,79.42 154.96,79.42 154.95,79.34 154.92,79.28 154.87,79.21 
				154.8,79.17 154.73,79.14 154.65,79.12 154.57,79.1 154.47,79.1 153.98,79.1 153.98,79.42 			"/>
			<polygon fill="#EC1C2E" points="152.06,79.83 152.09,79.44 152.09,79.42 152.56,79.42 152.55,79.5 152.51,79.83 			"/>
			<polygon fill="#EC1C2E" points="153.57,79.83 153.57,79.42 153.98,79.42 153.98,79.75 154.39,79.75 154.54,79.75 154.66,79.75 
				154.76,79.74 154.84,79.7 154.88,79.67 154.93,79.61 154.96,79.53 154.96,79.42 155.37,79.42 155.37,79.42 155.36,79.56 
				155.33,79.69 155.28,79.78 155.23,79.83 			"/>
			<polygon fill="#EC1C2E" points="156.26,79.83 156.23,79.5 156.21,79.42 156.7,79.42 156.7,79.44 156.75,79.83 			"/>
			<polygon fill="#EC1C2E" points="152.06,79.83 152.04,79.91 152.09,80.38 152.23,80.83 152.47,81.2 152.77,81.55 153.11,81.82 
				153.51,82.03 153.94,82.15 154.39,82.2 154.87,82.15 155.31,82.03 155.7,81.82 156.05,81.55 156.34,81.2 156.56,80.83 
				156.7,80.38 156.75,79.91 156.75,79.83 156.26,79.83 156.26,79.91 156.23,80.32 156.12,80.7 155.94,81.03 155.72,81.31 
				155.45,81.55 155.14,81.73 154.77,81.84 154.39,81.87 154.01,81.84 153.65,81.73 153.34,81.55 153.05,81.31 152.83,81.03 
				152.66,80.7 152.55,80.32 152.51,79.91 152.51,79.83 			"/>
			<polygon fill="#EC1C2E" points="153.57,79.83 153.57,80.81 153.98,80.81 153.98,80 154.39,80 154.88,80.81 155.29,80.81 
				154.71,80 154.85,79.99 154.99,79.97 155.1,79.93 155.2,79.86 155.23,79.83 			"/>
		</g>
	</g>
	<polygon fill="#FFFFFF" points="101.46,45.86 101.14,45.85 100.83,45.82 100.54,45.77 100.26,45.74 99.98,45.69 99.69,45.64 
		99.39,45.59 99.08,45.55 98.74,45.52 98.4,45.48 98,45.45 97.58,45.44 97.1,45.44 96.58,45.45 96,45.48 95.37,45.53 94.91,45.59 
		94.48,45.69 94.09,45.82 93.74,45.96 93.42,46.13 93.14,46.32 92.9,46.54 92.71,46.76 92.57,47.02 92.48,47.28 92.43,47.55 
		92.43,47.84 92.49,48.14 92.6,48.44 92.78,48.74 93,49.04 93.45,49.45 93.99,49.78 94.62,50.06 95.3,50.3 96.01,50.54 96.75,50.77 
		97.51,51.04 98.24,51.36 98.92,51.74 99.57,52.2 100.13,52.78 100.61,53.47 100.97,54.33 101.21,55.34 101.29,56.54 101.21,57.96 
		101.03,59.02 100.75,59.96 100.39,60.82 99.93,61.58 99.39,62.24 98.81,62.81 98.16,63.3 97.47,63.72 96.74,64.07 95.98,64.35 
		95.21,64.59 94.43,64.77 93.66,64.89 92.9,64.97 92.18,65.02 91.46,65.03 90.49,65.03 89.6,65.02 88.8,65 88.05,64.99 87.37,64.95 
		86.77,64.92 86.21,64.88 85.7,64.81 85.23,64.75 84.78,64.67 84.37,64.59 83.96,64.48 83.58,64.37 83.21,64.26 82.83,64.12 
		82.43,63.98 83.41,59.02 83.63,59.06 83.9,59.14 84.23,59.22 84.6,59.32 85.02,59.4 85.5,59.51 86,59.6 86.54,59.7 87.11,59.77 
		87.71,59.85 88.32,59.92 88.97,59.98 89.62,60.01 90.28,60.03 90.94,60.03 91.62,60 92.25,59.89 92.78,59.71 93.17,59.46 
		93.49,59.18 93.72,58.84 93.9,58.5 94.04,58.15 94.13,57.8 94.18,57.44 94.16,57.12 94.09,56.82 93.96,56.57 93.79,56.32 
		93.56,56.1 93.3,55.89 93,55.7 92.66,55.53 92.3,55.35 91.91,55.18 91.5,55.02 91.09,54.86 90.64,54.69 90.2,54.52 89.74,54.33 
		89.3,54.14 88.86,53.93 88.42,53.7 87.99,53.44 87.58,53.17 87.2,52.87 86.84,52.53 86.51,52.16 86.21,51.75 85.94,51.31 
		85.72,50.82 85.53,50.3 85.4,49.72 85.32,49.08 85.31,48.39 85.35,47.65 85.4,47.19 85.46,46.75 85.53,46.32 85.62,45.91 
		85.72,45.52 85.83,45.12 85.97,44.76 86.11,44.39 86.28,44.06 86.46,43.73 86.66,43.43 86.89,43.13 87.12,42.85 87.37,42.58 
		87.64,42.33 87.94,42.09 88.26,41.87 88.59,41.66 88.95,41.47 89.33,41.28 89.73,41.13 90.15,40.97 90.6,40.84 91.07,40.71 
		91.58,40.6 92.1,40.51 92.63,40.43 93.2,40.37 93.8,40.32 94.43,40.29 95.08,40.26 95.76,40.26 96.6,40.26 97.35,40.27 
		98.03,40.29 98.67,40.32 99.22,40.35 99.72,40.38 100.18,40.43 100.58,40.46 100.94,40.51 101.26,40.56 101.56,40.59 101.81,40.64 
		102.03,40.67 102.23,40.7 102.42,40.73 102.6,40.75 	"/>
	<g>
		<g>
			<polyline fill="none" stroke="#FFFFFF" stroke-width="0.215" points="101.46,45.86 101.46,45.86 101.14,45.85 100.83,45.82 
				100.54,45.77 100.26,45.74 99.98,45.69 99.69,45.64 99.39,45.59 99.08,45.55 98.74,45.52 98.4,45.48 98,45.45 97.58,45.44 
				97.1,45.44 96.58,45.45 96,45.48 95.37,45.53 95.37,45.53 94.91,45.59 94.48,45.69 94.09,45.82 93.74,45.96 93.42,46.13 
				93.14,46.32 92.9,46.54 92.71,46.76 92.57,47.02 92.48,47.28 92.43,47.55 92.43,47.84 92.49,48.14 92.6,48.44 92.78,48.74 
				93,49.04 93,49.04 93.45,49.45 93.99,49.78 94.62,50.06 95.3,50.3 96.01,50.54 96.75,50.77 97.51,51.04 98.24,51.36 98.92,51.74 
				99.57,52.2 100.13,52.78 100.61,53.47 100.97,54.33 101.21,55.34 101.29,56.54 101.21,57.96 101.21,57.96 101.03,59.02 
				100.75,59.96 100.39,60.82 99.93,61.58 99.39,62.24 98.81,62.81 98.16,63.3 97.47,63.72 96.74,64.07 95.98,64.35 95.21,64.59 
				94.43,64.77 93.66,64.89 92.9,64.97 92.18,65.02 91.46,65.03 91.46,65.03 90.49,65.03 89.6,65.02 88.8,65 88.05,64.99 
				87.37,64.95 86.77,64.92 86.21,64.88 85.7,64.81 85.23,64.75 84.78,64.67 84.37,64.59 83.96,64.48 83.58,64.37 83.21,64.26 
				82.83,64.12 82.43,63.98 83.41,59.02 83.41,59.02 83.63,59.06 83.9,59.14 84.23,59.22 84.6,59.32 85.02,59.4 85.5,59.51 86,59.6 
				86.54,59.7 87.11,59.77 87.71,59.85 88.32,59.92 88.97,59.98 89.62,60.01 90.28,60.03 90.94,60.03 91.62,60 91.62,60 
				92.25,59.89 92.78,59.71 93.17,59.46 93.49,59.18 93.72,58.84 93.9,58.5 94.04,58.15 94.13,57.8 94.13,57.8 94.18,57.44 
				94.16,57.12 94.09,56.82 93.96,56.57 93.79,56.32 93.56,56.1 93.3,55.89 93,55.7 92.66,55.53 92.3,55.35 91.91,55.18 91.5,55.02 
				91.09,54.86 90.64,54.69 90.2,54.52 89.74,54.33 89.3,54.14 88.86,53.93 88.42,53.7 87.99,53.44 87.58,53.17 87.2,52.87 
				86.84,52.53 86.51,52.16 86.21,51.75 85.94,51.31 85.72,50.82 85.53,50.3 85.4,49.72 85.32,49.08 85.31,48.39 85.35,47.65 
				85.35,47.65 85.4,47.19 85.46,46.75 85.53,46.32 85.62,45.91 85.72,45.52 85.83,45.12 85.97,44.76 86.11,44.39 86.28,44.06 
				86.46,43.73 86.66,43.43 86.89,43.13 87.12,42.85 87.37,42.58 87.64,42.33 87.94,42.09 88.26,41.87 88.59,41.66 88.95,41.47 
				89.33,41.28 89.73,41.13 90.15,40.97 90.6,40.84 91.07,40.71 91.58,40.6 92.1,40.51 92.63,40.43 93.2,40.37 93.8,40.32 
				94.43,40.29 95.08,40.26 95.76,40.26 95.76,40.26 96.6,40.26 97.35,40.27 98.03,40.29 98.67,40.32 99.22,40.35 99.72,40.38 
				100.18,40.43 100.58,40.46 100.94,40.51 101.26,40.56 101.56,40.59 101.81,40.64 102.03,40.67 102.23,40.7 102.42,40.73 
				102.6,40.75 101.46,45.86 			"/>
		</g>
	</g>
	<polygon fill="#FFFFFF" points="106.66,35.3 113,35.3 112.03,40.83 115.93,40.83 115.04,45.86 111.05,45.78 108.95,58.37 
		108.91,58.64 108.91,58.87 108.95,59.08 109.01,59.27 109.1,59.43 109.21,59.59 109.36,59.71 109.51,59.81 109.7,59.9 
		109.89,59.98 110.11,60.04 110.34,60.08 110.59,60.12 110.84,60.14 111.11,60.15 111.38,60.15 111.88,60.15 112.33,60.12 
		112.74,60.06 113.08,59.98 113.35,59.9 113.56,59.82 113.68,59.76 113.73,59.74 113.08,64.05 112.93,64.15 112.75,64.23 
		112.58,64.31 112.4,64.39 112.23,64.45 112.04,64.51 111.85,64.58 111.63,64.64 111.41,64.7 111.17,64.75 110.9,64.8 110.62,64.84 
		110.32,64.89 110,64.94 109.64,64.99 109.26,65.03 107.56,65.03 106.66,64.97 105.85,64.88 105.14,64.75 104.52,64.58 104,64.39 
		103.56,64.15 103.2,63.88 102.9,63.58 102.66,63.25 102.49,62.89 102.38,62.49 102.31,62.05 102.3,61.59 102.31,61.09 
		102.36,60.56 102.44,60 	"/>
	<g>
		<g>
			<polyline fill="none" stroke="#FFFFFF" stroke-width="0.215" points="106.66,35.3 113,35.3 112.03,40.83 115.93,40.83 
				115.04,45.86 111.05,45.78 108.95,58.37 108.95,58.37 108.91,58.64 108.91,58.87 108.95,59.08 109.01,59.27 109.1,59.43 
				109.21,59.59 109.36,59.71 109.51,59.81 109.7,59.9 109.89,59.98 110.11,60.04 110.34,60.08 110.59,60.12 110.84,60.14 
				111.11,60.15 111.38,60.15 111.38,60.15 111.88,60.15 112.33,60.12 112.74,60.06 113.08,59.98 113.35,59.9 113.56,59.82 
				113.68,59.76 113.73,59.74 113.08,64.05 113.08,64.05 112.93,64.15 112.75,64.23 112.58,64.31 112.4,64.39 112.23,64.45 
				112.04,64.51 111.85,64.58 111.63,64.64 111.41,64.7 111.17,64.75 110.9,64.8 110.62,64.84 110.32,64.89 110,64.94 109.64,64.99 
				109.26,65.03 107.56,65.03 107.56,65.03 106.66,64.97 105.85,64.88 105.14,64.75 104.52,64.58 104,64.39 103.56,64.15 
				103.2,63.88 102.9,63.58 102.66,63.25 102.49,62.89 102.38,62.49 102.31,62.05 102.3,61.59 102.31,61.09 102.36,60.56 102.44,60 
				106.66,35.3 			"/>
		</g>
	</g>
	<polygon fill="#FFFFFF" points="68.06,54.47 67.98,54.86 67.97,55.26 68,55.69 68.09,56.1 68.22,56.52 68.41,56.95 68.63,57.36 
		68.9,57.75 69.2,58.13 69.55,58.5 69.91,58.81 70.3,59.11 70.73,59.36 71.17,59.57 71.65,59.73 72.12,59.84 72.69,59.92 73.26,60 
		73.84,60.06 74.43,60.09 75.03,60.11 75.61,60.11 76.23,60.08 76.83,60.03 77.44,59.93 78.07,59.82 78.7,59.66 79.34,59.46 
		79.97,59.22 80.63,58.94 81.28,58.59 81.94,58.21 80.96,63.82 80.6,64.01 80.24,64.18 79.91,64.32 79.56,64.45 79.21,64.58 
		78.86,64.67 78.5,64.75 78.1,64.83 77.69,64.88 77.25,64.92 76.76,64.97 76.24,64.99 75.67,65.02 75.04,65.02 74.35,65.03 
		73.59,65.03 73.04,65.03 72.47,65 71.91,64.97 71.35,64.91 70.76,64.83 70.19,64.73 69.62,64.61 69.06,64.48 68.5,64.31 
		67.95,64.13 67.41,63.93 66.88,63.69 66.36,63.42 65.85,63.14 65.38,62.82 64.9,62.48 64.46,62.1 64.03,61.69 63.62,61.24 
		63.26,60.77 62.91,60.25 62.6,59.71 62.31,59.13 62.06,58.51 61.84,57.85 61.67,57.15 61.52,56.43 61.43,55.64 61.37,54.82 
		61.37,53.96 61.4,53.05 61.48,52.1 61.52,51.77 61.57,51.39 61.63,51.01 61.71,50.6 61.79,50.17 61.9,49.73 62.03,49.27 
		62.16,48.8 62.31,48.31 62.49,47.84 62.69,47.35 62.91,46.86 63.17,46.37 63.43,45.88 63.73,45.39 64.05,44.92 64.41,44.46 
		64.79,44 65.2,43.56 65.66,43.15 66.13,42.74 66.66,42.36 67.21,42.01 67.81,41.68 68.44,41.39 69.12,41.13 69.83,40.89 
		70.59,40.7 71.39,40.54 72.25,40.43 73.13,40.37 74.08,40.34 74.52,40.34 74.96,40.37 75.42,40.4 75.88,40.45 76.34,40.51 
		76.81,40.6 77.27,40.71 77.73,40.84 78.18,40.98 78.64,41.16 79.08,41.35 79.51,41.57 79.92,41.82 80.33,42.09 80.71,42.4 
		81.09,42.74 81.44,43.1 81.77,43.49 82.07,43.94 82.34,44.39 82.59,44.9 82.81,45.44 83,46.02 83.14,46.64 83.27,47.3 83.35,47.99 
		83.38,48.74 83.38,49.53 83.33,50.36 83.25,51.25 83.11,52.18 82.92,53.16 82.67,54.55 66.26,54.55 67.24,50.16 77.08,50.16 
		77.13,49.56 77.13,49.01 77.09,48.48 77,48.01 76.87,47.58 76.72,47.19 76.51,46.84 76.27,46.53 76,46.24 75.7,46 75.39,45.82 
		75.06,45.66 74.69,45.53 74.31,45.44 73.92,45.39 73.51,45.37 73.07,45.37 72.66,45.44 72.25,45.52 71.87,45.64 71.5,45.82 
		71.16,46.02 70.82,46.26 70.52,46.53 70.24,46.84 69.99,47.17 69.75,47.54 69.53,47.93 69.34,48.34 69.18,48.78 69.06,49.26 
		68.95,49.75 	"/>
	<g>
		<g>
			<polyline fill="none" stroke="#FFFFFF" stroke-width="0.215" points="68.06,54.47 68.06,54.47 67.98,54.86 67.97,55.26 68,55.69 
				68.09,56.1 68.22,56.52 68.41,56.95 68.63,57.36 68.9,57.75 69.2,58.13 69.55,58.5 69.91,58.81 70.3,59.11 70.73,59.36 
				71.17,59.57 71.65,59.73 72.12,59.84 72.12,59.84 72.69,59.92 73.26,60 73.84,60.06 74.43,60.09 75.03,60.11 75.61,60.11 
				76.23,60.08 76.83,60.03 77.44,59.93 78.07,59.82 78.7,59.66 79.34,59.46 79.97,59.22 80.63,58.94 81.28,58.59 81.94,58.21 
				80.96,63.82 80.96,63.82 80.6,64.01 80.24,64.18 79.91,64.32 79.56,64.45 79.21,64.58 78.86,64.67 78.5,64.75 78.1,64.83 
				77.69,64.88 77.25,64.92 76.76,64.97 76.24,64.99 75.67,65.02 75.04,65.02 74.35,65.03 73.59,65.03 73.59,65.03 73.04,65.03 
				72.47,65 71.91,64.97 71.35,64.91 70.76,64.83 70.19,64.73 69.62,64.61 69.06,64.48 68.5,64.31 67.95,64.13 67.41,63.93 
				66.88,63.69 66.36,63.42 65.85,63.14 65.38,62.82 64.9,62.48 64.46,62.1 64.03,61.69 63.62,61.24 63.26,60.77 62.91,60.25 
				62.6,59.71 62.31,59.13 62.06,58.51 61.84,57.85 61.67,57.15 61.52,56.43 61.43,55.64 61.37,54.82 61.37,53.96 61.4,53.05 
				61.48,52.1 61.48,52.1 61.52,51.77 61.57,51.39 61.63,51.01 61.71,50.6 61.79,50.17 61.9,49.73 62.03,49.27 62.16,48.8 
				62.31,48.31 62.49,47.84 62.69,47.35 62.91,46.86 63.17,46.37 63.43,45.88 63.73,45.39 64.05,44.92 64.41,44.46 64.79,44 
				65.2,43.56 65.66,43.15 66.13,42.74 66.66,42.36 67.21,42.01 67.81,41.68 68.44,41.39 69.12,41.13 69.83,40.89 70.59,40.7 
				71.39,40.54 72.25,40.43 73.13,40.37 74.08,40.34 74.08,40.34 74.52,40.34 74.96,40.37 75.42,40.4 75.88,40.45 76.34,40.51 
				76.81,40.6 77.27,40.71 77.73,40.84 78.18,40.98 78.64,41.16 79.08,41.35 79.51,41.57 79.92,41.82 80.33,42.09 80.71,42.4 
				81.09,42.74 81.44,43.1 81.77,43.49 82.07,43.94 82.34,44.39 82.59,44.9 82.81,45.44 83,46.02 83.14,46.64 83.27,47.3 
				83.35,47.99 83.38,48.74 83.38,49.53 83.33,50.36 83.25,51.25 83.11,52.18 82.92,53.16 82.67,54.55 66.26,54.55 67.24,50.16 
				77.08,50.16 77.08,50.16 77.13,49.56 77.13,49.01 77.09,48.48 77,48.01 76.87,47.58 76.72,47.19 76.51,46.84 76.27,46.53 
				76,46.24 75.7,46 75.39,45.82 75.06,45.66 74.69,45.53 74.31,45.44 73.92,45.39 73.51,45.37 73.51,45.37 73.07,45.37 
				72.66,45.44 72.25,45.52 71.87,45.64 71.5,45.82 71.16,46.02 70.82,46.26 70.52,46.53 70.24,46.84 69.99,47.17 69.75,47.54 
				69.53,47.93 69.34,48.34 69.18,48.78 69.06,49.26 68.95,49.75 68.06,54.47 			"/>
		</g>
	</g>
	<polygon fill="#FFFFFF" points="59.28,60 58.38,65.03 52.68,65.03 52.74,64.56 52.81,64.09 52.87,63.66 52.93,63.27 53,62.93 
		53.04,62.65 53.11,62.46 53.17,62.35 52.87,62.7 52.49,63.04 52.06,63.38 51.58,63.69 51.05,63.99 50.49,64.28 49.89,64.53 
		49.27,64.77 48.62,64.97 47.96,65.14 47.3,65.27 46.63,65.37 45.97,65.41 45.32,65.43 44.69,65.38 44.07,65.29 43.27,65.1 
		42.56,64.84 41.91,64.54 41.34,64.21 40.84,63.85 40.41,63.44 40.03,63.01 39.72,62.54 39.45,62.06 39.23,61.58 39.05,61.07 
		38.91,60.55 38.82,60.04 38.75,59.52 38.72,59.02 38.7,58.53 38.77,57.64 38.91,56.81 39.12,56 39.42,55.24 39.78,54.53 
		40.19,53.87 40.68,53.25 41.2,52.67 41.78,52.15 42.4,51.69 43.06,51.26 43.76,50.9 44.48,50.58 45.23,50.33 45.98,50.14 46.76,50 
		46.79,50 46.9,49.98 47.07,49.97 47.31,49.94 47.58,49.91 47.9,49.87 48.24,49.83 48.62,49.79 49,49.76 49.38,49.72 49.77,49.68 
		50.15,49.65 50.5,49.62 50.83,49.61 51.13,49.59 51.39,49.59 51.65,49.59 51.92,49.59 52.19,49.59 52.48,49.61 52.74,49.61 
		53,49.62 53.25,49.62 53.5,49.62 53.72,49.64 53.93,49.64 54.1,49.65 54.26,49.65 54.39,49.67 54.48,49.67 54.54,49.67 
		54.56,49.67 54.61,49.51 54.72,49.13 54.8,48.69 54.8,48.29 54.76,48.01 54.72,47.74 54.64,47.49 54.53,47.25 54.4,47.03 
		54.24,46.83 54.09,46.64 53.9,46.45 53.69,46.29 53.49,46.16 53.25,46.04 53.01,45.93 52.76,45.85 52.49,45.78 52.22,45.74 
		51.95,45.7 51.31,45.69 50.63,45.7 49.92,45.72 49.19,45.77 48.46,45.82 47.74,45.88 47.01,45.96 46.3,46.04 45.62,46.15 
		44.97,46.24 44.39,46.35 43.84,46.48 43.35,46.6 42.94,46.73 42.61,46.86 42.37,47 44,41.63 44.47,41.41 44.97,41.2 45.48,41.03 
		46.02,40.89 46.57,40.78 47.14,40.68 47.74,40.6 48.35,40.54 48.99,40.51 49.63,40.48 50.3,40.46 50.99,40.46 51.72,40.46 
		52.44,40.46 53.2,40.48 53.99,40.49 54.64,40.56 55.32,40.65 56.03,40.83 56.74,41.03 57.45,41.3 58.16,41.63 58.82,42.01 
		59.46,42.45 60.04,42.96 60.56,43.51 61,44.13 61.35,44.8 61.6,45.55 61.75,46.35 61.76,47.21 61.63,48.14 	"/>
	<g>
		<g>
			<polyline fill="none" stroke="#FFFFFF" stroke-width="0.215" points="59.28,60 58.38,65.03 52.68,65.03 52.68,65.03 52.74,64.56 
				52.81,64.09 52.87,63.66 52.93,63.27 53,62.93 53.04,62.65 53.11,62.46 53.17,62.35 53.17,62.35 52.87,62.7 52.49,63.04 
				52.06,63.38 51.58,63.69 51.05,63.99 50.49,64.28 49.89,64.53 49.27,64.77 48.62,64.97 47.96,65.14 47.3,65.27 46.63,65.37 
				45.97,65.41 45.32,65.43 44.69,65.38 44.07,65.29 44.07,65.29 43.27,65.1 42.56,64.84 41.91,64.54 41.34,64.21 40.84,63.85 
				40.41,63.44 40.03,63.01 39.72,62.54 39.45,62.06 39.23,61.58 39.05,61.07 38.91,60.55 38.82,60.04 38.75,59.52 38.72,59.02 
				38.7,58.53 38.7,58.53 38.77,57.64 38.91,56.81 39.12,56 39.42,55.24 39.78,54.53 40.19,53.87 40.68,53.25 41.2,52.67 
				41.78,52.15 42.4,51.69 43.06,51.26 43.76,50.9 44.48,50.58 45.23,50.33 45.98,50.14 46.76,50 46.76,50 46.79,50 46.9,49.98 
				47.07,49.97 47.31,49.94 47.58,49.91 47.9,49.87 48.24,49.83 48.62,49.79 49,49.76 49.38,49.72 49.77,49.68 50.15,49.65 
				50.5,49.62 50.83,49.61 51.13,49.59 51.39,49.59 51.39,49.59 51.65,49.59 51.92,49.59 52.19,49.59 52.48,49.61 52.74,49.61 
				53,49.62 53.25,49.62 53.5,49.62 53.72,49.64 53.93,49.64 54.1,49.65 54.26,49.65 54.39,49.67 54.48,49.67 54.54,49.67 
				54.56,49.67 54.56,49.67 54.61,49.51 54.72,49.13 54.8,48.69 54.8,48.29 54.8,48.29 54.76,48.01 54.72,47.74 54.64,47.49 
				54.53,47.25 54.4,47.03 54.24,46.83 54.09,46.64 53.9,46.45 53.69,46.29 53.49,46.16 53.25,46.04 53.01,45.93 52.76,45.85 
				52.49,45.78 52.22,45.74 51.95,45.7 51.95,45.7 51.31,45.69 50.63,45.7 49.92,45.72 49.19,45.77 48.46,45.82 47.74,45.88 
				47.01,45.96 46.3,46.04 45.62,46.15 44.97,46.24 44.39,46.35 43.84,46.48 43.35,46.6 42.94,46.73 42.61,46.86 42.37,47 44,41.63 
				44,41.63 44.47,41.41 44.97,41.2 45.48,41.03 46.02,40.89 46.57,40.78 47.14,40.68 47.74,40.6 48.35,40.54 48.99,40.51 
				49.63,40.48 50.3,40.46 50.99,40.46 51.72,40.46 52.44,40.46 53.2,40.48 53.99,40.49 53.99,40.49 54.64,40.56 55.32,40.65 
				56.03,40.83 56.74,41.03 57.45,41.3 58.16,41.63 58.82,42.01 59.46,42.45 60.04,42.96 60.56,43.51 61,44.13 61.35,44.8 
				61.6,45.55 61.75,46.35 61.76,47.21 61.63,48.14 59.28,60 			"/>
		</g>
	</g>
	<polygon fill="#0084C4" points="53.83,54.06 53.82,53.93 53.72,53.84 53.56,53.76 53.36,53.71 53.09,53.68 52.81,53.66 
		52.48,53.66 52.13,53.66 51.76,53.7 51.39,53.74 51.02,53.79 50.66,53.85 50.31,53.92 49.98,53.98 49.7,54.06 49.44,54.14 
		49.3,54.17 49.11,54.23 48.87,54.31 48.62,54.42 48.35,54.53 48.05,54.67 47.75,54.85 47.45,55.02 47.15,55.24 46.87,55.48 
		46.6,55.73 46.36,56.02 46.14,56.32 45.98,56.65 45.86,57.01 45.78,57.39 45.75,58.16 45.86,58.76 46.05,59.24 46.33,59.59 
		46.68,59.82 47.04,59.98 47.44,60.06 47.82,60.08 48.51,60.06 49.13,60 49.71,59.89 50.23,59.74 50.71,59.59 51.13,59.4 
		51.51,59.18 51.84,58.94 52.14,58.7 52.4,58.43 52.62,58.18 52.81,57.91 52.96,57.64 53.09,57.39 53.19,57.14 53.26,56.9 
		53.34,56.55 53.42,56.19 53.5,55.81 53.58,55.42 53.64,55.04 53.71,54.69 53.77,54.36 	"/>
	<polygon fill="#FFFFFF" points="11.62,65.03 5.45,65.03 10.64,35.3 21.38,35.3 22.44,53 29.75,35.3 40.9,35.3 35.69,65.03 
		29.51,65.03 33.41,42.77 33.18,42.77 23.99,65.03 17.07,65.03 17.01,64.1 16.87,61.62 16.66,58.12 16.42,54.09 16.19,50.03 
		15.98,46.45 15.84,43.86 15.78,42.77 15.76,42.77 15.7,42.77 15.63,42.77 15.55,42.77 15.49,42.77 15.46,42.77 15.46,42.77 
		15.52,42.77 	"/>
	<g>
		<g>
			<polyline fill="none" stroke="#FFFFFF" stroke-width="0.215" points="11.62,65.03 5.45,65.03 10.64,35.3 21.38,35.3 22.44,53 
				29.75,35.3 40.9,35.3 35.69,65.03 29.51,65.03 33.41,42.77 33.18,42.77 23.99,65.03 17.07,65.03 17.07,65.03 17.01,64.1 
				16.87,61.62 16.66,58.12 16.42,54.09 16.19,50.03 15.98,46.45 15.84,43.86 15.78,42.77 15.78,42.77 15.76,42.77 15.7,42.77 
				15.63,42.77 15.55,42.77 15.49,42.77 15.46,42.77 15.46,42.77 15.52,42.77 11.62,65.03 			"/>
		</g>
	</g>
	<polygon fill="#FFFFFF" points="114.79,65.03 121.22,65.03 121.22,65.03 123.41,52.2 123.51,51.69 123.62,51.2 123.74,50.71 
		123.9,50.25 124.07,49.79 124.3,49.37 124.56,48.96 124.86,48.56 125.23,48.22 125.64,47.9 126.13,47.62 126.66,47.36 127.3,47.16 
		128.01,47 128.8,46.9 129.68,46.84 129.76,46.84 129.85,46.86 129.98,46.87 130.11,46.87 130.22,46.89 130.31,46.9 130.38,46.92 
		130.41,46.92 130.42,46.83 130.49,46.56 130.56,46.15 130.69,45.63 130.85,45.04 131.02,44.41 131.23,43.78 131.46,43.18 
		131.64,42.74 131.84,42.31 132.05,41.88 132.27,41.49 132.46,41.16 132.62,40.89 132.73,40.71 132.76,40.65 132.73,40.65 
		132.65,40.62 132.54,40.6 132.38,40.57 132.22,40.54 132.03,40.53 131.86,40.49 131.7,40.49 131.01,40.54 130.38,40.62 
		129.79,40.75 129.25,40.89 128.75,41.08 128.29,41.28 127.85,41.54 127.45,41.8 127.06,42.1 126.7,42.44 126.36,42.78 
		126.02,43.16 125.68,43.56 125.37,43.98 125.04,44.43 124.71,44.88 125.45,40.83 119.02,40.75 114.79,65.03 	"/>
	<g>
		<g>
			<polyline fill="none" stroke="#FFFFFF" stroke-width="0.215" points="114.79,65.03 121.22,65.03 121.22,65.03 123.41,52.2 
				123.41,52.2 123.51,51.69 123.62,51.2 123.74,50.71 123.9,50.25 124.07,49.79 124.3,49.37 124.56,48.96 124.86,48.56 
				125.23,48.22 125.64,47.9 126.13,47.62 126.66,47.36 127.3,47.16 128.01,47 128.8,46.9 129.68,46.84 129.68,46.84 129.76,46.84 
				129.85,46.86 129.98,46.87 130.11,46.87 130.22,46.89 130.31,46.9 130.38,46.92 130.41,46.92 130.41,46.92 130.42,46.83 
				130.49,46.56 130.56,46.15 130.69,45.63 130.85,45.04 131.02,44.41 131.23,43.78 131.46,43.18 131.46,43.18 131.64,42.74 
				131.84,42.31 132.05,41.88 132.27,41.49 132.46,41.16 132.62,40.89 132.73,40.71 132.76,40.65 132.76,40.65 132.73,40.65 
				132.65,40.62 132.54,40.6 132.38,40.57 132.22,40.54 132.03,40.53 131.86,40.49 131.7,40.49 131.7,40.49 131.01,40.54 
				130.38,40.62 129.79,40.75 129.25,40.89 128.75,41.08 128.29,41.28 127.85,41.54 127.45,41.8 127.06,42.1 126.7,42.44 
				126.36,42.78 126.02,43.16 125.68,43.56 125.37,43.98 125.04,44.43 124.71,44.88 125.45,40.83 119.02,40.75 114.79,65.03 
				114.79,65.03 			"/>
		</g>
	</g>
	<polygon fill="#FFFFFF" points="142.6,40.49 143.31,40.51 144,40.56 144.68,40.62 145.35,40.71 145.98,40.84 146.59,41 
		147.18,41.17 147.76,41.38 148.31,41.61 148.84,41.87 149.36,42.14 149.83,42.44 150.3,42.77 150.75,43.11 151.16,43.48 
		151.55,43.87 151.93,44.28 152.28,44.73 152.59,45.17 152.89,45.64 153.18,46.13 153.41,46.65 153.65,47.17 153.84,47.73 
		154.01,48.28 154.16,48.86 154.28,49.46 154.38,50.08 154.44,50.69 154.47,51.34 154.49,52.01 154.47,52.67 154.43,53.47 
		154.33,54.25 154.22,54.99 154.08,55.72 153.92,56.41 153.71,57.07 153.49,57.72 153.26,58.34 152.97,58.92 152.69,59.49 
		152.36,60.03 152.03,60.53 151.66,61.02 151.27,61.48 150.86,61.91 150.43,62.32 149.99,62.7 149.53,63.06 149.04,63.39 
		148.55,63.69 148.03,63.98 147.49,64.23 146.96,64.47 146.39,64.67 145.82,64.86 145.22,65.02 144.62,65.14 144.02,65.25 
		143.39,65.33 142.76,65.4 142.11,65.43 141.46,65.44 140.81,65.43 140.17,65.4 139.55,65.33 138.93,65.24 138.33,65.13 137.73,65 
		137.17,64.84 136.61,64.65 136.06,64.45 135.54,64.21 135.03,63.96 134.54,63.68 134.07,63.38 133.63,63.04 133.19,62.7 
		132.78,62.32 132.4,61.92 132.02,61.5 131.69,61.05 131.35,60.58 131.07,60.09 130.79,59.57 130.55,59.03 130.33,58.48 
		130.14,57.9 129.96,57.28 129.82,56.65 129.71,56 129.63,55.32 129.59,54.63 129.57,53.9 129.59,53.16 129.63,52.4 129.71,51.67 
		129.82,50.96 129.96,50.28 130.12,49.62 130.31,48.97 130.52,48.36 130.75,47.76 131.01,47.17 131.29,46.62 131.61,46.1 
		131.94,45.58 132.29,45.1 132.66,44.63 133.06,44.2 133.47,43.78 133.91,43.38 134.37,43.02 134.84,42.67 135.33,42.36 
		135.85,42.07 136.39,41.79 136.94,41.55 137.5,41.33 138.08,41.14 138.68,40.97 139.3,40.83 139.93,40.7 140.58,40.62 
		141.24,40.54 141.92,40.51 	"/>
	<g>
		<g>
			<polyline fill="none" stroke="#FFFFFF" stroke-width="0.215" points="142.6,40.49 142.6,40.49 143.31,40.51 144,40.56 
				144.68,40.62 145.35,40.71 145.98,40.84 146.59,41 147.18,41.17 147.76,41.38 148.31,41.61 148.84,41.87 149.36,42.14 
				149.83,42.44 150.3,42.77 150.75,43.11 151.16,43.48 151.55,43.87 151.93,44.28 152.28,44.73 152.59,45.17 152.89,45.64 
				153.18,46.13 153.41,46.65 153.65,47.17 153.84,47.73 154.01,48.28 154.16,48.86 154.28,49.46 154.38,50.08 154.44,50.69 
				154.47,51.34 154.49,52.01 154.47,52.67 154.47,52.67 154.43,53.47 154.33,54.25 154.22,54.99 154.08,55.72 153.92,56.41 
				153.71,57.07 153.49,57.72 153.26,58.34 152.97,58.92 152.69,59.49 152.36,60.03 152.03,60.53 151.66,61.02 151.27,61.48 
				150.86,61.91 150.43,62.32 149.99,62.7 149.53,63.06 149.04,63.39 148.55,63.69 148.03,63.98 147.49,64.23 146.96,64.47 
				146.39,64.67 145.82,64.86 145.22,65.02 144.62,65.14 144.02,65.25 143.39,65.33 142.76,65.4 142.11,65.43 141.46,65.44 
				141.46,65.44 140.81,65.43 140.17,65.4 139.55,65.33 138.93,65.24 138.33,65.13 137.73,65 137.17,64.84 136.61,64.65 
				136.06,64.45 135.54,64.21 135.03,63.96 134.54,63.68 134.07,63.38 133.63,63.04 133.19,62.7 132.78,62.32 132.4,61.92 
				132.02,61.5 131.69,61.05 131.35,60.58 131.07,60.09 130.79,59.57 130.55,59.03 130.33,58.48 130.14,57.9 129.96,57.28 
				129.82,56.65 129.71,56 129.63,55.32 129.59,54.63 129.57,53.9 129.59,53.16 129.59,53.16 129.63,52.4 129.71,51.67 
				129.82,50.96 129.96,50.28 130.12,49.62 130.31,48.97 130.52,48.36 130.75,47.76 131.01,47.17 131.29,46.62 131.61,46.1 
				131.94,45.58 132.29,45.1 132.66,44.63 133.06,44.2 133.47,43.78 133.91,43.38 134.37,43.02 134.84,42.67 135.33,42.36 
				135.85,42.07 136.39,41.79 136.94,41.55 137.5,41.33 138.08,41.14 138.68,40.97 139.3,40.83 139.93,40.7 140.58,40.62 
				141.24,40.54 141.92,40.51 142.6,40.49 			"/>
		</g>
	</g>
	<polygon fill="#FFFFFF" points="152.04,63.82 153.9,63.82 153.9,64.05 153.18,64.05 153.18,65.6 152.77,65.6 152.77,64.05 
		152.04,64.05 	"/>
	<g>
		<g>
			<polyline fill="none" stroke="#FFFFFF" stroke-width="0.215" points="152.04,63.82 153.9,63.82 153.9,64.05 153.18,64.05 
				153.18,65.6 152.77,65.6 152.77,64.05 152.04,64.05 152.04,63.82 			"/>
		</g>
	</g>
	<polygon fill="#FFFFFF" points="154.14,63.82 154.71,63.82 155.37,65.19 155.37,65.19 156.02,63.82 156.59,63.82 156.59,65.6 
		156.18,65.6 156.18,64.23 156.18,64.23 155.53,65.6 155.2,65.6 154.55,64.23 154.55,64.23 154.55,65.6 154.14,65.6 	"/>
	<g>
		<g>
			<polyline fill="none" stroke="#FFFFFF" stroke-width="0.215" points="154.14,63.82 154.71,63.82 155.37,65.19 155.37,65.19 
				156.02,63.82 156.59,63.82 156.59,65.6 156.18,65.6 156.18,64.23 156.18,64.23 155.53,65.6 155.2,65.6 154.55,64.23 
				154.55,64.23 154.55,65.6 154.14,65.6 154.14,63.82 			"/>
		</g>
	</g>
	<polygon fill="#EC1C2E" points="137.56,52.1 137.47,52.98 137.42,53.81 137.42,54.55 137.47,55.24 137.56,55.87 137.7,56.43 
		137.88,56.93 138.1,57.39 138.37,57.79 138.67,58.12 139,58.4 139.36,58.62 139.76,58.8 140.2,58.92 140.66,58.99 141.14,59.02 
		141.68,59 142.2,58.94 142.69,58.83 143.17,58.65 143.61,58.43 144.03,58.15 144.43,57.82 144.81,57.42 145.14,56.98 145.46,56.47 
		145.76,55.91 146.01,55.29 146.25,54.61 146.45,53.87 146.61,53.06 146.75,52.2 146.83,51.52 146.88,50.87 146.88,50.24 
		146.83,49.64 146.75,49.08 146.62,48.55 146.45,48.06 146.25,47.6 145.99,47.19 145.71,46.84 145.38,46.53 145.01,46.27 
		144.6,46.07 144.16,45.94 143.69,45.86 143.17,45.86 142.52,45.91 141.92,46.02 141.37,46.21 140.84,46.45 140.37,46.76 
		139.93,47.11 139.53,47.51 139.19,47.95 138.86,48.42 138.57,48.93 138.32,49.43 138.11,49.97 137.92,50.51 137.77,51.04 
		137.65,51.58 	"/>
</g>
</svg>
