<?xml version="1.0" encoding="utf-8"?>
<!-- Generator: Adobe Illustrator 19.2.1, SVG Export Plug-In . SVG Version: 6.00 Build 0)  -->
<svg version="1.1" id="Layer_1" xmlns="http://www.w3.org/2000/svg" xmlns:xlink="http://www.w3.org/1999/xlink" x="0px" y="0px"
	 viewBox="0 0 160 100" enable-background="new 0 0 160 100" xml:space="preserve">
<g>
	<polygon fill="#FBB131" points="112.03,97.88 114.5,97.82 116.94,97.64 119.33,97.33 121.7,96.91 124.01,96.38 126.29,95.73 
		128.52,94.98 130.7,94.12 132.83,93.15 134.9,92.1 136.9,90.94 138.86,89.69 140.73,88.35 142.54,86.93 144.28,85.43 145.95,83.83 
		147.55,82.17 149.05,80.42 150.47,78.61 151.81,76.74 153.05,74.79 154.22,72.78 155.27,70.71 156.24,68.58 157.09,66.4 
		157.85,64.17 158.5,61.9 159.03,59.59 159.45,57.21 159.76,54.82 159.94,52.38 160,49.91 159.94,47.46 159.76,45.03 159.45,42.64 
		159.03,40.3 158.5,37.99 157.85,35.73 157.09,33.5 156.24,31.34 155.27,29.22 154.22,27.15 153.05,25.17 151.81,23.21 
		150.47,21.34 149.05,19.55 147.55,17.8 145.95,16.14 144.28,14.55 142.54,13.05 140.73,11.63 138.86,10.29 136.9,9.05 134.9,7.9 
		132.83,6.85 130.7,5.88 128.52,5.03 126.29,4.27 124.01,3.62 121.7,3.09 119.33,2.67 116.94,2.36 114.5,2.18 112.03,2.12 
		109.57,2.18 107.13,2.36 104.74,2.67 102.39,3.09 100.08,3.62 97.8,4.27 95.59,5.03 93.41,5.88 91.29,6.85 89.24,7.9 87.24,9.05 
		85.3,10.29 83.42,11.63 81.62,13.05 79.89,14.55 78.22,16.14 76.64,17.8 75.14,19.55 73.72,21.34 72.39,23.21 71.15,25.17 
		70,27.15 68.94,29.22 67.98,31.34 67.13,33.5 66.38,35.73 65.74,37.99 65.21,40.3 64.78,42.64 64.48,45.03 64.3,47.46 64.24,49.91 
		64.3,52.38 64.48,54.82 64.78,57.21 65.21,59.59 65.74,61.9 66.38,64.17 67.13,66.4 67.98,68.58 68.94,70.71 70,72.78 71.15,74.79 
		72.39,76.74 73.72,78.61 75.14,80.42 76.64,82.17 78.22,83.83 79.89,85.43 81.62,86.93 83.42,88.35 85.3,89.69 87.24,90.94 
		89.24,92.1 91.29,93.15 93.41,94.12 95.59,94.98 97.8,95.73 100.08,96.38 102.39,96.91 104.74,97.33 107.13,97.64 109.57,97.82 	
		"/>
	<polygon fill="#EC1C2E" points="47.97,97.88 50.43,97.82 52.86,97.64 55.26,97.33 57.61,96.91 59.92,96.38 62.2,95.73 64.41,94.98 
		66.59,94.12 68.71,93.15 70.76,92.1 72.76,90.94 74.7,89.69 76.58,88.35 78.38,86.93 80.11,85.43 81.78,83.83 83.36,82.17 
		84.86,80.42 86.28,78.61 87.61,76.74 88.85,74.79 90,72.78 91.06,70.71 92.02,68.58 92.87,66.4 93.62,64.17 94.26,61.9 
		94.79,59.59 95.21,57.21 95.52,54.82 95.7,52.38 95.76,49.91 95.7,47.46 95.52,45.03 95.21,42.64 94.79,40.3 94.26,37.99 
		93.62,35.73 92.87,33.5 92.02,31.34 91.06,29.22 90,27.15 88.85,25.17 87.61,23.21 86.28,21.34 84.86,19.55 83.36,17.8 
		81.78,16.14 80.11,14.55 78.38,13.05 76.58,11.63 74.7,10.29 72.76,9.05 70.76,7.9 68.71,6.85 66.59,5.88 64.41,5.03 62.2,4.27 
		59.92,3.62 57.61,3.09 55.26,2.67 52.86,2.36 50.43,2.18 47.97,2.12 45.5,2.18 43.06,2.36 40.67,2.67 38.3,3.09 35.99,3.62 
		33.71,4.27 31.48,5.03 29.3,5.88 27.17,6.85 25.1,7.9 23.1,9.05 21.14,10.29 19.27,11.63 17.46,13.05 15.72,14.55 14.05,16.14 
		12.45,17.8 10.95,19.55 9.53,21.34 8.19,23.21 6.95,25.17 5.78,27.15 4.73,29.22 3.76,31.34 2.91,33.5 2.15,35.73 1.5,37.99 
		0.97,40.3 0.55,42.64 0.24,45.03 0.06,47.46 0,49.91 0.06,52.38 0.24,54.82 0.55,57.21 0.97,59.59 1.5,61.9 2.15,64.17 2.91,66.4 
		3.76,68.58 4.73,70.71 5.78,72.78 6.95,74.79 8.19,76.74 9.53,78.61 10.95,80.42 12.45,82.17 14.05,83.83 15.72,85.43 17.46,86.93 
		19.27,88.35 21.14,89.69 23.1,90.94 25.1,92.1 27.17,93.15 29.3,94.12 31.48,94.98 33.71,95.73 35.99,96.38 38.3,96.91 
		40.67,97.33 43.06,97.64 45.5,97.82 	"/>
	<polygon fill="#FBB131" points="74.4,20.48 99.83,20.48 99.83,17.88 76.59,17.88 	"/>
	<polygon fill="#FBB131" points="70.58,26.27 99.83,26.27 99.83,23.66 72.12,23.66 	"/>
	<polygon fill="#FBB131" points="67.74,32.03 99.83,32.03 99.83,29.43 68.87,29.43 	"/>
	<polygon fill="#FBB131" points="65.79,37.81 99.83,37.81 99.83,35.21 66.59,35.21 	"/>
	<polygon fill="#FBB131" points="66.92,65.76 99.92,65.76 99.92,63.16 66.11,63.16 	"/>
	<polygon fill="#FBB131" points="69.36,71.54 99.92,71.54 99.92,68.94 68.14,68.94 	"/>
	<polygon fill="#FBB131" points="72.78,77.3 99.92,77.3 99.92,74.7 71.15,74.7 	"/>
	<polygon fill="#FBB131" points="77.5,83.09 99.92,83.09 99.92,80.47 75.22,80.47 	"/>
	<polygon fill="#FBB131" points="64.64,43.58 99.83,43.58 99.83,40.98 65.14,40.98 	"/>
	<polygon fill="#FBB131" points="86.09,59.99 99.51,59.99 99.51,57.39 86.57,57.39 	"/>
	<polygon fill="#FBB131" points="87.16,54.22 99.51,54.22 99.51,51.61 87.64,51.61 	"/>
	<polygon fill="#FBB131" points="63.75,51.61 67.24,51.61 67.24,54.22 63.91,54.22 	"/>
	<polygon fill="#FFFFFF" points="57.24,48.46 57.02,48.44 56.79,48.41 56.58,48.38 56.37,48.34 56.18,48.31 55.97,48.28 
		55.76,48.25 55.53,48.22 55.3,48.18 55.05,48.17 54.75,48.15 54.45,48.13 54.11,48.13 53.74,48.15 53.32,48.18 52.85,48.22 
		52.53,48.26 52.22,48.31 51.94,48.41 51.7,48.51 51.48,48.62 51.27,48.75 51.1,48.91 50.96,49.06 50.86,49.23 50.78,49.41 
		50.75,49.6 50.75,49.8 50.8,50.01 50.86,50.22 50.99,50.43 51.15,50.64 51.48,50.95 51.86,51.19 52.32,51.4 52.8,51.58 
		53.32,51.74 53.85,51.91 54.38,52.11 54.9,52.32 55.38,52.59 55.84,52.93 56.24,53.34 56.58,53.84 56.84,54.45 57,55.18 
		57.06,56.05 57,57.07 56.89,57.83 56.69,58.49 56.43,59.1 56.11,59.63 55.74,60.1 55.32,60.51 54.87,60.86 54.37,61.17 
		53.85,61.41 53.32,61.62 52.77,61.78 52.2,61.91 51.65,62.01 51.12,62.06 50.59,62.09 50.09,62.11 49.39,62.11 48.75,62.09 
		48.18,62.09 47.65,62.07 47.16,62.06 46.73,62.03 46.34,61.99 45.97,61.94 45.63,61.91 45.32,61.85 45.01,61.8 44.74,61.72 
		44.47,61.65 44.21,61.56 43.95,61.46 43.67,61.36 44.4,57.79 44.55,57.83 44.72,57.87 44.95,57.94 45.22,58 45.52,58.07 
		45.84,58.13 46.19,58.21 46.58,58.28 46.99,58.34 47.41,58.41 47.84,58.46 48.29,58.5 48.76,58.52 49.23,58.54 49.7,58.54 
		50.17,58.52 50.64,58.42 51.01,58.29 51.3,58.12 51.52,57.89 51.69,57.66 51.81,57.41 51.9,57.15 51.96,56.91 51.99,56.44 
		51.85,56.03 51.57,55.71 51.17,55.44 50.68,55.19 50.12,54.95 49.49,54.72 48.86,54.47 48.21,54.18 47.6,53.84 47.03,53.42 
		46.52,52.92 46.11,52.3 45.82,51.58 45.68,50.7 45.69,49.67 45.77,49.04 45.89,48.44 46.05,47.89 46.24,47.38 46.5,46.89 
		46.79,46.47 47.13,46.07 47.53,45.71 48,45.41 48.52,45.15 49.1,44.9 49.75,44.73 50.47,44.58 51.27,44.47 52.14,44.4 53.09,44.39 
		53.69,44.39 54.24,44.4 54.74,44.42 55.19,44.44 55.59,44.47 55.97,44.5 56.29,44.53 56.58,44.57 56.85,44.6 57.08,44.65 
		57.29,44.68 57.48,44.71 57.65,44.74 57.79,44.76 57.94,44.79 58.07,44.81 	"/>
	<g>
		<g>
			<polyline fill="none" stroke="#FFFFFF" stroke-width="0.215" points="57.24,48.46 57.24,48.46 57.02,48.44 56.79,48.41 
				56.58,48.38 56.37,48.34 56.18,48.31 55.97,48.28 55.76,48.25 55.53,48.22 55.3,48.18 55.05,48.17 54.75,48.15 54.45,48.13 
				54.11,48.13 53.74,48.15 53.32,48.18 52.85,48.22 52.85,48.22 52.53,48.26 52.22,48.31 51.94,48.41 51.7,48.51 51.48,48.62 
				51.27,48.75 51.1,48.91 50.96,49.06 50.86,49.23 50.78,49.41 50.75,49.6 50.75,49.8 50.8,50.01 50.86,50.22 50.99,50.43 
				51.15,50.64 51.15,50.64 51.48,50.95 51.86,51.19 52.32,51.4 52.8,51.58 53.32,51.74 53.85,51.91 54.38,52.11 54.9,52.32 
				55.38,52.59 55.84,52.93 56.24,53.34 56.58,53.84 56.84,54.45 57,55.18 57.06,56.05 57,57.07 57,57.07 56.89,57.83 56.69,58.49 
				56.43,59.1 56.11,59.63 55.74,60.1 55.32,60.51 54.87,60.86 54.37,61.17 53.85,61.41 53.32,61.62 52.77,61.78 52.2,61.91 
				51.65,62.01 51.12,62.06 50.59,62.09 50.09,62.11 50.09,62.11 49.39,62.11 48.75,62.09 48.18,62.09 47.65,62.07 47.16,62.06 
				46.73,62.03 46.34,61.99 45.97,61.94 45.63,61.91 45.32,61.85 45.01,61.8 44.74,61.72 44.47,61.65 44.21,61.56 43.95,61.46 
				43.67,61.36 44.4,57.79 44.4,57.79 44.55,57.83 44.72,57.87 44.95,57.94 45.22,58 45.52,58.07 45.84,58.13 46.19,58.21 
				46.58,58.28 46.99,58.34 47.41,58.41 47.84,58.46 48.29,58.5 48.76,58.52 49.23,58.54 49.7,58.54 50.17,58.52 50.17,58.52 
				50.64,58.42 51.01,58.29 51.3,58.12 51.52,57.89 51.69,57.66 51.81,57.41 51.9,57.15 51.96,56.91 51.96,56.91 51.99,56.44 
				51.85,56.03 51.57,55.71 51.17,55.44 50.68,55.19 50.12,54.95 49.49,54.72 48.86,54.47 48.21,54.18 47.6,53.84 47.03,53.42 
				46.52,52.92 46.11,52.3 45.82,51.58 45.68,50.7 45.69,49.67 45.69,49.67 45.77,49.04 45.89,48.44 46.05,47.89 46.24,47.38 
				46.5,46.89 46.79,46.47 47.13,46.07 47.53,45.71 48,45.41 48.52,45.15 49.1,44.9 49.75,44.73 50.47,44.58 51.27,44.47 
				52.14,44.4 53.09,44.39 53.09,44.39 53.69,44.39 54.24,44.4 54.74,44.42 55.19,44.44 55.59,44.47 55.97,44.5 56.29,44.53 
				56.58,44.57 56.85,44.6 57.08,44.65 57.29,44.68 57.48,44.71 57.65,44.74 57.79,44.76 57.94,44.79 58.07,44.81 57.24,48.46 			
				"/>
		</g>
	</g>
	<polygon fill="#FFFFFF" points="61.07,40.82 65.54,40.82 64.88,44.73 67.58,44.73 67,48.38 64.15,48.3 62.6,57.31 62.59,57.63 
		62.67,57.91 62.83,58.12 63.04,58.29 63.33,58.41 63.65,58.5 64.01,58.57 64.4,58.6 64.75,58.58 65.08,58.55 65.37,58.5 
		65.62,58.44 65.83,58.37 65.98,58.33 66.08,58.29 66.11,58.28 65.54,61.28 65.43,61.36 65.32,61.43 65.21,61.49 65.09,61.56 
		64.98,61.61 64.85,61.65 64.7,61.7 64.56,61.75 64.4,61.8 64.24,61.83 64.04,61.86 63.85,61.9 63.64,61.93 63.4,61.96 63.14,61.99 
		62.86,62.03 61.64,62.03 60.99,61.98 60.42,61.91 59.91,61.82 59.47,61.7 59.1,61.56 58.79,61.4 58.52,61.2 58.31,60.99 
		58.15,60.77 58.03,60.49 57.95,60.22 57.9,59.91 57.89,59.57 57.89,59.21 57.94,58.84 57.98,58.44 	"/>
	<g>
		<g>
			<polyline fill="none" stroke="#FFFFFF" stroke-width="0.215" points="61.07,40.82 65.54,40.82 64.88,44.73 67.58,44.73 67,48.38 
				64.15,48.3 62.6,57.31 62.6,57.31 62.59,57.63 62.67,57.91 62.83,58.12 63.04,58.29 63.33,58.41 63.65,58.5 64.01,58.57 
				64.4,58.6 64.4,58.6 64.75,58.58 65.08,58.55 65.37,58.5 65.62,58.44 65.83,58.37 65.98,58.33 66.08,58.29 66.11,58.28 
				65.54,61.28 65.54,61.28 65.43,61.36 65.32,61.43 65.21,61.49 65.09,61.56 64.98,61.61 64.85,61.65 64.7,61.7 64.56,61.75 
				64.4,61.8 64.24,61.83 64.04,61.86 63.85,61.9 63.64,61.93 63.4,61.96 63.14,61.99 62.86,62.03 61.64,62.03 61.64,62.03 
				60.99,61.98 60.42,61.91 59.91,61.82 59.47,61.7 59.1,61.56 58.79,61.4 58.52,61.2 58.31,60.99 58.15,60.77 58.03,60.49 
				57.95,60.22 57.9,59.91 57.89,59.57 57.89,59.21 57.94,58.84 57.98,58.44 61.07,40.82 			"/>
		</g>
	</g>
	<polygon fill="#FFFFFF" points="71.15,54.47 71.1,54.74 71.08,55.03 71.12,55.34 71.18,55.65 71.29,55.95 71.42,56.24 71.6,56.55 
		71.79,56.82 72.02,57.1 72.26,57.34 72.52,57.58 72.81,57.78 73.1,57.96 73.43,58.1 73.75,58.21 74.07,58.28 74.49,58.34 
		74.9,58.39 75.32,58.44 75.74,58.47 76.16,58.49 76.59,58.49 77.01,58.47 77.45,58.44 77.88,58.37 78.32,58.29 78.77,58.2 
		79.21,58.05 79.66,57.87 80.13,57.68 80.58,57.42 81.05,57.15 80.4,61.12 80.15,61.25 79.89,61.38 79.63,61.48 79.39,61.57 
		79.14,61.65 78.89,61.73 78.63,61.8 78.35,61.85 78.06,61.9 77.74,61.93 77.4,61.96 77.03,61.99 76.61,62.01 76.17,62.01 
		75.67,62.03 75.14,62.03 74.35,62.01 73.54,61.93 72.73,61.82 71.92,61.62 71.13,61.38 70.37,61.07 69.65,60.67 68.97,60.2 
		68.34,59.65 67.79,58.99 67.32,58.25 66.93,57.39 66.66,56.44 66.48,55.35 66.43,54.16 66.51,52.83 66.58,52.32 66.67,51.72 
		66.8,51.09 66.98,50.41 67.22,49.72 67.51,49.02 67.89,48.31 68.34,47.63 68.86,46.99 69.49,46.37 70.2,45.82 71,45.34 
		71.94,44.94 72.99,44.65 74.15,44.45 75.46,44.39 76.09,44.4 76.75,44.47 77.42,44.58 78.08,44.74 78.72,44.99 79.35,45.28 
		79.94,45.66 80.47,46.12 80.95,46.66 81.36,47.31 81.68,48.05 81.91,48.91 82.04,49.88 82.05,50.98 81.94,52.2 81.7,53.56 
		81.62,54.55 69.84,54.55 70.58,51.37 77.66,51.37 77.69,50.96 77.67,50.57 77.64,50.22 77.58,49.9 77.46,49.59 77.35,49.31 
		77.19,49.07 77.03,48.85 76.83,48.65 76.62,48.49 76.38,48.34 76.14,48.22 75.88,48.12 75.62,48.05 75.35,48.01 75.06,47.97 
		74.75,47.99 74.46,48.04 74.19,48.1 73.91,48.2 73.64,48.33 73.39,48.47 73.15,48.65 72.94,48.85 72.73,49.07 72.54,49.31 
		72.36,49.57 72.21,49.85 72.07,50.14 71.96,50.46 71.86,50.78 71.79,51.12 	"/>
	<g>
		<g>
			<polyline fill="none" stroke="#FFFFFF" stroke-width="0.215" points="71.15,54.47 71.15,54.47 71.1,54.74 71.08,55.03 
				71.12,55.34 71.18,55.65 71.29,55.95 71.42,56.24 71.6,56.55 71.79,56.82 72.02,57.1 72.26,57.34 72.52,57.58 72.81,57.78 
				73.1,57.96 73.43,58.1 73.75,58.21 74.07,58.28 74.07,58.28 74.49,58.34 74.9,58.39 75.32,58.44 75.74,58.47 76.16,58.49 
				76.59,58.49 77.01,58.47 77.45,58.44 77.88,58.37 78.32,58.29 78.77,58.2 79.21,58.05 79.66,57.87 80.13,57.68 80.58,57.42 
				81.05,57.15 80.4,61.12 80.4,61.12 80.15,61.25 79.89,61.38 79.63,61.48 79.39,61.57 79.14,61.65 78.89,61.73 78.63,61.8 
				78.35,61.85 78.06,61.9 77.74,61.93 77.4,61.96 77.03,61.99 76.61,62.01 76.17,62.01 75.67,62.03 75.14,62.03 75.14,62.03 
				74.35,62.01 73.54,61.93 72.73,61.82 71.92,61.62 71.13,61.38 70.37,61.07 69.65,60.67 68.97,60.2 68.34,59.65 67.79,58.99 
				67.32,58.25 66.93,57.39 66.66,56.44 66.48,55.35 66.43,54.16 66.51,52.83 66.51,52.83 66.58,52.32 66.67,51.72 66.8,51.09 
				66.98,50.41 67.22,49.72 67.51,49.02 67.89,48.31 68.34,47.63 68.86,46.99 69.49,46.37 70.2,45.82 71,45.34 71.94,44.94 
				72.99,44.65 74.15,44.45 75.46,44.39 75.46,44.39 76.09,44.4 76.75,44.47 77.42,44.58 78.08,44.74 78.72,44.99 79.35,45.28 
				79.94,45.66 80.47,46.12 80.95,46.66 81.36,47.31 81.68,48.05 81.91,48.91 82.04,49.88 82.05,50.98 81.94,52.2 81.7,53.56 
				81.62,54.55 69.84,54.55 70.58,51.37 77.66,51.37 77.66,51.37 77.69,50.96 77.67,50.57 77.64,50.22 77.58,49.9 77.46,49.59 
				77.35,49.31 77.19,49.07 77.03,48.85 76.83,48.65 76.62,48.49 76.38,48.34 76.14,48.22 75.88,48.12 75.62,48.05 75.35,48.01 
				75.06,47.97 75.06,47.97 74.75,47.99 74.46,48.04 74.19,48.1 73.91,48.2 73.64,48.33 73.39,48.47 73.15,48.65 72.94,48.85 
				72.73,49.07 72.54,49.31 72.36,49.57 72.21,49.85 72.07,50.14 71.96,50.46 71.86,50.78 71.79,51.12 71.15,54.47 			"/>
		</g>
	</g>
	<polygon fill="#FFFFFF" points="109.67,45.7 109.46,45.58 109.25,45.49 109.02,45.37 108.78,45.26 108.54,45.16 108.27,45.07 
		107.99,44.97 107.7,44.87 107.39,44.79 107.09,44.73 106.75,44.66 106.41,44.61 106.04,44.58 105.67,44.55 105.28,44.55 
		104.87,44.55 104.47,44.55 104.05,44.58 103.61,44.63 103.16,44.71 102.71,44.84 102.26,45.02 101.8,45.24 101.35,45.53 
		100.92,45.89 100.5,46.31 100.09,46.83 99.71,47.42 99.35,48.13 99.01,48.94 98.7,49.85 98.45,50.88 98.35,51.46 98.28,52.03 
		98.25,52.59 98.27,53.14 98.32,53.69 98.43,54.21 98.57,54.69 98.75,55.18 98.99,55.61 99.29,56.03 99.62,56.4 100.01,56.74 
		100.45,57.03 100.95,57.28 101.5,57.49 102.11,57.63 102.32,57.68 102.56,57.73 102.85,57.76 103.18,57.79 103.53,57.83 
		103.9,57.83 104.31,57.83 104.71,57.79 105.13,57.75 105.55,57.66 105.96,57.55 106.36,57.42 106.76,57.24 107.13,57.03 
		107.47,56.78 107.8,56.49 107.07,60.8 106.97,60.88 106.88,60.98 106.75,61.09 106.6,61.19 106.42,61.31 106.2,61.43 105.94,61.54 
		105.65,61.64 105.28,61.75 104.86,61.83 104.37,61.9 103.81,61.96 103.18,61.99 102.45,62.01 101.63,61.99 100.72,61.94 
		99.98,61.86 99.24,61.7 98.49,61.46 97.75,61.14 97.04,60.75 96.36,60.26 95.72,59.7 95.12,59.05 94.59,58.33 94.13,57.52 
		93.75,56.61 93.45,55.63 93.26,54.55 93.2,53.4 93.23,52.14 93.41,50.8 93.54,50.14 93.68,49.49 93.84,48.86 94,48.26 94.18,47.7 
		94.39,47.13 94.6,46.6 94.83,46.1 95.07,45.6 95.31,45.13 95.59,44.68 95.88,44.26 96.17,43.85 96.49,43.47 96.81,43.11 
		97.15,42.77 97.52,42.45 97.9,42.14 98.28,41.87 98.69,41.61 99.12,41.37 99.56,41.16 100.01,40.96 100.48,40.79 100.98,40.62 
		101.48,40.49 102,40.38 102.55,40.28 103.1,40.2 103.68,40.14 104.26,40.11 104.87,40.09 105.39,40.11 105.89,40.14 106.38,40.19 
		106.86,40.25 107.31,40.32 107.75,40.41 108.17,40.49 108.56,40.59 108.93,40.69 109.25,40.79 109.56,40.88 109.82,40.98 
		110.04,41.06 110.24,41.12 110.38,41.19 110.48,41.22 	"/>
	<g>
		<g>
			<polyline fill="none" stroke="#FFFFFF" stroke-width="0.215" points="109.67,45.7 109.67,45.7 109.46,45.58 109.25,45.49 
				109.02,45.37 108.78,45.26 108.54,45.16 108.27,45.07 107.99,44.97 107.7,44.87 107.39,44.79 107.09,44.73 106.75,44.66 
				106.41,44.61 106.04,44.58 105.67,44.55 105.28,44.55 104.87,44.55 104.87,44.55 104.47,44.55 104.05,44.58 103.61,44.63 
				103.16,44.71 102.71,44.84 102.26,45.02 101.8,45.24 101.35,45.53 100.92,45.89 100.5,46.31 100.09,46.83 99.71,47.42 
				99.35,48.13 99.01,48.94 98.7,49.85 98.45,50.88 98.45,50.88 98.35,51.46 98.28,52.03 98.25,52.59 98.27,53.14 98.32,53.69 
				98.43,54.21 98.57,54.69 98.75,55.18 98.99,55.61 99.29,56.03 99.62,56.4 100.01,56.74 100.45,57.03 100.95,57.28 101.5,57.49 
				102.11,57.63 102.11,57.63 102.32,57.68 102.56,57.73 102.85,57.76 103.18,57.79 103.53,57.83 103.9,57.83 104.31,57.83 
				104.71,57.79 105.13,57.75 105.55,57.66 105.96,57.55 106.36,57.42 106.76,57.24 107.13,57.03 107.47,56.78 107.8,56.49 
				107.07,60.8 107.07,60.8 106.97,60.88 106.88,60.98 106.75,61.09 106.6,61.19 106.42,61.31 106.2,61.43 105.94,61.54 
				105.65,61.64 105.28,61.75 104.86,61.83 104.37,61.9 103.81,61.96 103.18,61.99 102.45,62.01 101.63,61.99 100.72,61.94 
				100.72,61.94 99.98,61.86 99.24,61.7 98.49,61.46 97.75,61.14 97.04,60.75 96.36,60.26 95.72,59.7 95.12,59.05 94.59,58.33 
				94.13,57.52 93.75,56.61 93.45,55.63 93.26,54.55 93.2,53.4 93.23,52.14 93.41,50.8 93.41,50.8 93.54,50.14 93.68,49.49 
				93.84,48.86 94,48.26 94.18,47.7 94.39,47.13 94.6,46.6 94.83,46.1 95.07,45.6 95.31,45.13 95.59,44.68 95.88,44.26 96.17,43.85 
				96.49,43.47 96.81,43.11 97.15,42.77 97.52,42.45 97.9,42.14 98.28,41.87 98.69,41.61 99.12,41.37 99.56,41.16 100.01,40.96 
				100.48,40.79 100.98,40.62 101.48,40.49 102,40.38 102.55,40.28 103.1,40.2 103.68,40.14 104.26,40.11 104.87,40.09 
				104.87,40.09 105.39,40.11 105.89,40.14 106.38,40.19 106.86,40.25 107.31,40.32 107.75,40.41 108.17,40.49 108.56,40.59 
				108.93,40.69 109.25,40.79 109.56,40.88 109.82,40.98 110.04,41.06 110.24,41.12 110.38,41.19 110.48,41.22 109.67,45.7 			"/>
		</g>
	</g>
	<polygon fill="#FFFFFF" points="149.44,62.03 144.96,62.03 145.29,60.23 145.29,60.07 145.03,60.39 144.75,60.68 144.48,60.94 
		144.19,61.17 143.9,61.38 143.61,61.56 143.32,61.7 143.01,61.85 142.7,61.96 142.39,62.04 142.09,62.12 141.76,62.17 
		141.44,62.22 141.13,62.25 140.81,62.27 140.49,62.27 139.65,62.2 138.87,62.03 138.16,61.75 137.52,61.38 136.94,60.91 
		136.42,60.36 135.97,59.76 135.58,59.09 135.26,58.36 135,57.6 134.82,56.81 134.69,55.98 134.64,55.16 134.66,54.32 134.74,53.5 
		134.88,52.67 135.13,51.72 135.42,50.82 135.76,49.99 136.16,49.22 136.58,48.49 137.06,47.84 137.57,47.26 138.1,46.73 
		138.66,46.26 139.26,45.86 139.88,45.5 140.49,45.23 141.13,45 141.78,44.86 142.43,44.76 143.09,44.73 143.56,44.74 144.01,44.79 
		144.43,44.87 144.82,44.99 145.19,45.11 145.51,45.26 145.83,45.44 146.13,45.61 146.38,45.81 146.63,46.02 146.84,46.23 
		147.03,46.44 147.19,46.65 147.34,46.86 147.47,47.05 147.56,47.25 147.56,47.25 148.69,40.9 153.09,40.9 	"/>
	<g>
		<g>
			<polyline fill="none" stroke="#FFFFFF" stroke-width="0.215" points="149.44,62.03 144.96,62.03 145.29,60.23 145.29,60.07 
				145.29,60.07 145.03,60.39 144.75,60.68 144.48,60.94 144.19,61.17 143.9,61.38 143.61,61.56 143.32,61.7 143.01,61.85 
				142.7,61.96 142.39,62.04 142.09,62.12 141.76,62.17 141.44,62.22 141.13,62.25 140.81,62.27 140.49,62.27 140.49,62.27 
				139.65,62.2 138.87,62.03 138.16,61.75 137.52,61.38 136.94,60.91 136.42,60.36 135.97,59.76 135.58,59.09 135.26,58.36 
				135,57.6 134.82,56.81 134.69,55.98 134.64,55.16 134.66,54.32 134.74,53.5 134.88,52.67 134.88,52.67 135.13,51.72 
				135.42,50.82 135.76,49.99 136.16,49.22 136.58,48.49 137.06,47.84 137.57,47.26 138.1,46.73 138.66,46.26 139.26,45.86 
				139.88,45.5 140.49,45.23 141.13,45 141.78,44.86 142.43,44.76 143.09,44.73 143.09,44.73 143.56,44.74 144.01,44.79 
				144.43,44.87 144.82,44.99 145.19,45.11 145.51,45.26 145.83,45.44 146.13,45.61 146.38,45.81 146.63,46.02 146.84,46.23 
				147.03,46.44 147.19,46.65 147.34,46.86 147.47,47.05 147.56,47.25 147.56,47.25 148.69,40.9 153.09,40.9 149.44,62.03 			"/>
		</g>
	</g>
	<polygon fill="#FBB131" points="142.12,58.12 142.57,58.08 142.99,57.99 143.38,57.87 143.75,57.7 144.09,57.5 144.41,57.26 
		144.72,56.99 144.99,56.7 145.24,56.37 145.46,56.02 145.67,55.65 145.85,55.26 146.01,54.85 146.14,54.43 146.25,54 146.34,53.56 
		146.42,53.11 146.46,52.64 146.46,52.2 146.45,51.75 146.4,51.33 146.34,50.93 146.22,50.54 146.09,50.17 145.93,49.85 
		145.74,49.54 145.53,49.28 145.29,49.06 145.01,48.86 144.72,48.73 144.41,48.65 144.07,48.62 143.64,48.65 143.23,48.72 
		142.86,48.85 142.49,49.01 142.17,49.22 141.85,49.48 141.57,49.75 141.3,50.06 141.05,50.41 140.83,50.78 140.62,51.17 
		140.44,51.59 140.28,52.03 140.15,52.46 140.02,52.93 139.92,53.4 139.84,54.11 139.88,54.89 139.99,55.68 140.2,56.44 
		140.52,57.1 140.94,57.63 141.47,57.99 	"/>
	<polygon fill="#FFFFFF" points="42.93,58.44 42.29,62.03 38.22,62.03 38.33,61.36 38.41,60.77 38.47,60.31 38.54,60.07 
		38.31,60.33 38.05,60.59 37.75,60.83 37.41,61.06 37.02,61.28 36.62,61.48 36.2,61.67 35.76,61.83 35.29,61.98 34.82,62.09 
		34.35,62.19 33.87,62.25 33.4,62.28 32.93,62.3 32.48,62.25 32.05,62.19 31.48,62.04 30.96,61.88 30.51,61.67 30.11,61.43 
		29.75,61.17 29.43,60.88 29.17,60.57 28.94,60.25 28.75,59.91 28.59,59.55 28.46,59.2 28.36,58.84 28.3,58.47 28.25,58.1 
		28.22,57.75 28.22,57.39 28.27,56.76 28.36,56.16 28.52,55.6 28.73,55.05 28.99,54.53 29.28,54.06 29.62,53.61 30.01,53.21 
		30.41,52.83 30.87,52.5 31.33,52.19 31.82,51.93 32.34,51.7 32.87,51.53 33.42,51.38 33.98,51.28 34.02,51.28 34.1,51.27 
		34.21,51.25 34.39,51.24 34.58,51.2 34.81,51.19 35.05,51.16 35.32,51.12 35.6,51.09 35.87,51.06 36.16,51.04 36.42,51.01 
		36.68,50.99 36.92,50.98 37.15,50.96 37.33,50.96 37.7,50.96 38.09,50.98 38.44,50.99 38.8,50.99 39.09,51.01 39.31,51.03 
		39.47,51.04 39.52,51.04 39.56,50.93 39.65,50.64 39.73,50.3 39.77,49.99 39.7,49.64 39.56,49.31 39.36,49.02 39.1,48.78 
		38.8,48.57 38.46,48.43 38.07,48.33 37.65,48.3 37.2,48.28 36.71,48.26 36.21,48.26 35.7,48.28 35.16,48.31 34.65,48.36 
		34.13,48.41 33.63,48.47 33.14,48.54 32.67,48.62 32.26,48.7 31.87,48.78 31.51,48.88 31.22,48.97 31,49.09 30.82,49.18 
		31.96,45.29 32.32,45.15 32.67,45.02 33.06,44.9 33.45,44.82 33.84,44.74 34.26,44.68 34.68,44.61 35.11,44.58 35.57,44.55 
		36.03,44.53 36.52,44.52 37.02,44.52 37.54,44.52 38.07,44.52 38.64,44.53 39.2,44.55 39.65,44.58 40.14,44.66 40.64,44.78 
		41.15,44.92 41.66,45.11 42.14,45.34 42.62,45.61 43.08,45.92 43.48,46.28 43.84,46.66 44.16,47.1 44.4,47.59 44.56,48.1 
		44.66,48.65 44.66,49.27 44.56,49.91 	"/>
	<g>
		<g>
			<polyline fill="none" stroke="#FFFFFF" stroke-width="0.215" points="42.93,58.44 42.29,62.03 38.22,62.03 38.22,62.03 
				38.33,61.36 38.41,60.77 38.47,60.31 38.54,60.07 38.54,60.07 38.31,60.33 38.05,60.59 37.75,60.83 37.41,61.06 37.02,61.28 
				36.62,61.48 36.2,61.67 35.76,61.83 35.29,61.98 34.82,62.09 34.35,62.19 33.87,62.25 33.4,62.28 32.93,62.3 32.48,62.25 
				32.05,62.19 32.05,62.19 31.48,62.04 30.96,61.88 30.51,61.67 30.11,61.43 29.75,61.17 29.43,60.88 29.17,60.57 28.94,60.25 
				28.75,59.91 28.59,59.55 28.46,59.2 28.36,58.84 28.3,58.47 28.25,58.1 28.22,57.75 28.22,57.39 28.22,57.39 28.27,56.76 
				28.36,56.16 28.52,55.6 28.73,55.05 28.99,54.53 29.28,54.06 29.62,53.61 30.01,53.21 30.41,52.83 30.87,52.5 31.33,52.19 
				31.82,51.93 32.34,51.7 32.87,51.53 33.42,51.38 33.98,51.28 33.98,51.28 34.02,51.28 34.1,51.27 34.21,51.25 34.39,51.24 
				34.58,51.2 34.81,51.19 35.05,51.16 35.32,51.12 35.6,51.09 35.87,51.06 36.16,51.04 36.42,51.01 36.68,50.99 36.92,50.98 
				37.15,50.96 37.33,50.96 37.33,50.96 37.7,50.96 38.09,50.98 38.44,50.99 38.8,50.99 39.09,51.01 39.31,51.03 39.47,51.04 
				39.52,51.04 39.52,51.04 39.56,50.93 39.65,50.64 39.73,50.3 39.77,49.99 39.77,49.99 39.7,49.64 39.56,49.31 39.36,49.02 
				39.1,48.78 38.8,48.57 38.46,48.43 38.07,48.33 37.65,48.3 37.65,48.3 37.2,48.28 36.71,48.26 36.21,48.26 35.7,48.28 
				35.16,48.31 34.65,48.36 34.13,48.41 33.63,48.47 33.14,48.54 32.67,48.62 32.26,48.7 31.87,48.78 31.51,48.88 31.22,48.97 
				31,49.09 30.82,49.18 31.96,45.29 31.96,45.29 32.32,45.15 32.67,45.02 33.06,44.9 33.45,44.82 33.84,44.74 34.26,44.68 
				34.68,44.61 35.11,44.58 35.57,44.55 36.03,44.53 36.52,44.52 37.02,44.52 37.54,44.52 38.07,44.52 38.64,44.53 39.2,44.55 
				39.2,44.55 39.65,44.58 40.14,44.66 40.64,44.78 41.15,44.92 41.66,45.11 42.14,45.34 42.62,45.61 43.08,45.92 43.48,46.28 
				43.84,46.66 44.16,47.1 44.4,47.59 44.56,48.1 44.66,48.65 44.66,49.27 44.56,49.91 42.93,58.44 			"/>
		</g>
	</g>
	<polygon fill="#EC1C2E" points="39.04,54.22 39.02,54.14 38.96,54.06 38.86,54.01 38.7,53.98 38.52,53.95 38.31,53.93 38.07,53.93 
		37.83,53.93 37.57,53.95 37.29,53.98 37.04,54.01 36.78,54.05 36.54,54.08 36.31,54.13 36.12,54.18 35.94,54.22 35.82,54.26 
		35.7,54.3 35.52,54.37 35.34,54.45 35.13,54.55 34.92,54.66 34.69,54.77 34.48,54.9 34.26,55.06 34.05,55.23 33.85,55.42 
		33.68,55.61 33.51,55.82 33.4,56.05 33.3,56.31 33.26,56.57 33.24,57.12 33.32,57.55 33.48,57.87 33.69,58.12 33.93,58.28 
		34.21,58.37 34.47,58.42 34.73,58.44 35.21,58.42 35.65,58.37 36.07,58.31 36.44,58.21 36.76,58.1 37.07,57.96 37.34,57.81 
		37.59,57.63 37.8,57.47 37.99,57.28 38.15,57.1 38.28,56.91 38.39,56.71 38.49,56.52 38.57,56.34 38.62,56.16 38.75,55.69 
		38.86,55.16 38.96,54.64 	"/>
	<polygon fill="#FFFFFF" points="8.95,62.03 4.55,62.03 8.22,40.82 15.86,40.82 16.59,53.4 21.87,40.82 29.85,40.82 26.1,62.03 
		21.71,62.03 24.49,46.18 24.31,46.18 17.73,62.03 12.78,62.03 12.74,61.36 12.63,59.6 12.49,57.1 12.32,54.22 12.16,51.33 
		12.02,48.8 11.9,46.96 11.87,46.18 11.82,46.18 11.73,46.18 11.63,46.18 11.63,46.18 	"/>
	<g>
		<g>
			<polyline fill="none" stroke="#FFFFFF" stroke-width="0.215" points="8.95,62.03 4.55,62.03 8.22,40.82 15.86,40.82 16.59,53.4 
				21.87,40.82 29.85,40.82 26.1,62.03 21.71,62.03 24.49,46.18 24.31,46.18 17.73,62.03 12.78,62.03 12.78,62.03 12.74,61.36 
				12.63,59.6 12.49,57.1 12.32,54.22 12.16,51.33 12.02,48.8 11.9,46.96 11.87,46.18 11.87,46.18 11.82,46.18 11.73,46.18 
				11.63,46.18 11.63,46.18 8.95,62.03 			"/>
		</g>
	</g>
	<polygon fill="#FFFFFF" points="123.09,58.44 122.43,62.03 118.38,62.03 118.41,61.36 118.43,60.78 118.43,60.35 118.46,60.15 
		118.25,60.39 118.01,60.64 117.71,60.86 117.39,61.09 117.05,61.3 116.66,61.49 116.26,61.69 115.86,61.85 115.42,61.98 
		114.97,62.11 114.52,62.19 114.06,62.25 113.6,62.28 113.14,62.3 112.71,62.25 112.27,62.19 111.69,62.04 111.17,61.88 
		110.72,61.67 110.3,61.43 109.95,61.17 109.64,60.88 109.38,60.57 109.15,60.25 108.96,59.91 108.81,59.55 108.69,59.2 
		108.6,58.84 108.54,58.47 108.49,58.1 108.46,57.75 108.46,57.39 108.49,56.76 108.59,56.16 108.73,55.6 108.94,55.05 
		109.19,54.53 109.49,54.06 109.83,53.61 110.2,53.21 110.62,52.83 111.06,52.5 111.53,52.19 112.03,51.93 112.53,51.7 
		113.06,51.53 113.6,51.38 114.14,51.28 114.18,51.28 114.26,51.27 114.37,51.25 114.53,51.24 114.74,51.2 114.97,51.19 
		115.21,51.16 115.47,51.12 115.74,51.09 116.03,51.06 116.31,51.04 116.58,51.01 116.84,50.99 117.07,50.98 117.29,50.96 
		117.47,50.96 117.86,50.96 118.25,50.98 118.62,50.99 118.97,50.99 119.28,51.01 119.54,51.03 119.69,51.04 119.75,51.04 
		119.78,50.93 119.83,50.64 119.88,50.3 119.91,49.99 119.85,49.64 119.72,49.31 119.51,49.02 119.27,48.78 118.97,48.57 
		118.64,48.43 118.28,48.33 117.89,48.3 117.44,48.28 116.96,48.26 116.45,48.26 115.94,48.28 115.4,48.31 114.89,48.36 
		114.37,48.41 113.87,48.47 113.39,48.54 112.92,48.62 112.5,48.7 112.11,48.78 111.75,48.88 111.46,48.97 111.24,49.09 
		111.06,49.18 112.19,45.29 112.55,45.15 112.92,45.02 113.29,44.9 113.68,44.82 114.08,44.74 114.48,44.68 114.9,44.61 
		115.34,44.58 115.79,44.55 116.26,44.53 116.73,44.52 117.23,44.52 117.73,44.52 118.25,44.52 118.8,44.53 119.35,44.55 
		119.8,44.58 120.28,44.66 120.78,44.78 121.3,44.92 121.8,45.11 122.3,45.34 122.79,45.61 123.24,45.92 123.64,46.28 124.01,46.66 
		124.34,47.1 124.58,47.59 124.76,48.1 124.87,48.65 124.87,49.27 124.79,49.91 	"/>
	<polygon fill="#FFFFFF" points="122.43,62.14 122.53,62.04 123.19,58.46 123,58.42 122.33,62.01 122.43,61.91 122.43,62.14 
		122.51,62.12 122.53,62.04 	"/>
	<polygon fill="#FFFFFF" points="118.28,62.03 118.38,62.14 122.43,62.14 122.43,61.91 118.38,61.91 118.47,62.03 118.28,62.03 
		118.26,62.14 118.38,62.14 	"/>
	<polygon fill="#FFFFFF" points="118.54,60.22 118.39,60.09 118.33,60.35 118.31,60.78 118.31,61.36 118.28,62.03 118.47,62.03 
		118.51,61.36 118.54,60.78 118.52,60.35 118.52,60.22 118.38,60.09 	"/>
	<polygon fill="#FFFFFF" points="112.26,62.28 112.26,62.28 112.71,62.35 113.14,62.4 113.6,62.38 114.06,62.35 114.53,62.28 
		114.99,62.2 115.44,62.07 115.89,61.94 116.29,61.78 116.71,61.59 117.1,61.4 117.44,61.17 117.78,60.94 118.07,60.72 
		118.33,60.46 118.54,60.22 118.38,60.09 118.17,60.33 117.94,60.56 117.65,60.78 117.34,61.01 117,61.2 116.62,61.4 116.23,61.59 
		115.82,61.75 115.4,61.88 114.95,62.01 114.5,62.09 114.06,62.15 113.6,62.19 113.14,62.2 112.71,62.15 112.29,62.09 112.29,62.09 
			"/>
	<polygon fill="#FFFFFF" points="108.35,57.39 108.35,57.39 108.36,57.75 108.39,58.1 108.44,58.49 108.51,58.86 108.59,59.21 
		108.72,59.59 108.86,59.96 109.07,60.3 109.3,60.64 109.56,60.94 109.88,61.25 110.25,61.51 110.67,61.77 111.14,61.98 
		111.67,62.14 112.26,62.28 112.29,62.09 111.71,61.94 111.21,61.78 110.77,61.57 110.35,61.35 110.01,61.09 109.72,60.81 
		109.46,60.51 109.23,60.2 109.06,59.86 108.91,59.52 108.78,59.18 108.7,58.83 108.64,58.46 108.59,58.1 108.56,57.75 
		108.57,57.39 108.57,57.39 	"/>
	<polygon fill="#FFFFFF" points="114.14,51.19 114.14,51.19 113.58,51.28 113.03,51.43 112.5,51.61 111.98,51.83 111.48,52.09 
		111,52.41 110.56,52.75 110.14,53.14 109.75,53.55 109.41,54 109.09,54.48 108.85,55.02 108.64,55.56 108.49,56.15 108.39,56.76 
		108.35,57.39 108.57,57.39 108.59,56.76 108.69,56.18 108.83,55.63 109.04,55.08 109.28,54.58 109.57,54.13 109.91,53.67 
		110.27,53.27 110.69,52.92 111.12,52.58 111.58,52.29 112.08,52.03 112.56,51.8 113.1,51.62 113.61,51.48 114.14,51.38 
		114.14,51.38 	"/>
	<polygon fill="#FFFFFF" points="117.47,50.85 117.47,50.85 117.29,50.85 117.07,50.88 116.84,50.9 116.58,50.91 116.31,50.95 
		116.03,50.96 115.74,50.99 115.47,51.03 115.21,51.06 114.97,51.09 114.74,51.11 114.53,51.14 114.37,51.16 114.24,51.17 
		114.18,51.19 114.14,51.19 114.14,51.38 114.18,51.38 114.27,51.37 114.37,51.35 114.53,51.33 114.74,51.3 114.97,51.28 
		115.21,51.25 115.47,51.22 115.74,51.19 116.03,51.16 116.31,51.14 116.58,51.11 116.84,51.09 117.07,51.07 117.29,51.07 
		117.47,51.07 117.47,51.07 	"/>
	<polygon fill="#FFFFFF" points="119.65,51.03 119.75,50.95 119.69,50.95 119.54,50.93 119.28,50.91 118.97,50.88 118.62,50.88 
		118.25,50.88 117.86,50.85 117.47,50.85 117.47,51.07 117.86,51.07 118.25,51.07 118.62,51.11 118.97,51.11 119.28,51.11 
		119.54,51.12 119.69,51.14 119.75,51.14 119.85,51.06 119.75,51.14 119.83,51.16 119.85,51.06 	"/>
	<polygon fill="#FFFFFF" points="119.81,49.99 119.8,49.99 119.78,50.3 119.73,50.62 119.69,50.91 119.65,51.03 119.85,51.06 
		119.88,50.95 119.93,50.65 119.98,50.3 120.02,49.99 120.01,49.99 	"/>
	<polygon fill="#FFFFFF" points="117.89,48.39 117.89,48.41 118.26,48.43 118.6,48.52 118.93,48.67 119.2,48.86 119.43,49.09 
		119.62,49.36 119.75,49.65 119.81,49.99 120.01,49.99 119.94,49.62 119.81,49.27 119.59,48.96 119.33,48.7 119.02,48.47 
		118.67,48.33 118.3,48.23 117.89,48.18 117.89,48.2 	"/>
	<polygon fill="#FFFFFF" points="110.96,49.17 111.12,49.27 111.29,49.18 111.5,49.07 111.77,48.97 112.13,48.88 112.51,48.8 
		112.93,48.72 113.4,48.64 113.87,48.57 114.37,48.51 114.89,48.46 115.4,48.41 115.94,48.38 116.45,48.38 116.96,48.38 
		117.44,48.38 117.89,48.39 117.89,48.2 117.44,48.18 116.96,48.15 116.45,48.15 115.94,48.18 115.4,48.22 114.89,48.26 
		114.37,48.31 113.87,48.38 113.37,48.44 112.9,48.52 112.48,48.6 112.09,48.68 111.74,48.78 111.43,48.88 111.19,48.99 111,49.1 
		111.16,49.2 	"/>
	<polygon fill="#FFFFFF" points="112.16,45.2 112.09,45.28 110.96,49.17 111.16,49.2 112.29,45.31 112.22,45.39 112.16,45.2 
		112.11,45.21 112.09,45.28 	"/>
	<polygon fill="#FFFFFF" points="119.35,44.45 119.35,44.45 118.8,44.42 118.25,44.4 117.73,44.4 117.23,44.4 116.73,44.4 
		116.26,44.44 115.79,44.45 115.34,44.48 114.9,44.52 114.47,44.58 114.06,44.65 113.66,44.73 113.27,44.81 112.89,44.92 
		112.51,45.05 112.16,45.2 112.22,45.39 112.58,45.24 112.95,45.11 113.31,45 113.69,44.92 114.1,44.84 114.5,44.78 114.9,44.71 
		115.34,44.68 115.79,44.65 116.26,44.63 116.73,44.63 117.23,44.63 117.73,44.63 118.25,44.63 118.8,44.65 119.35,44.65 
		119.35,44.65 	"/>
	<polygon fill="#FFFFFF" points="124.89,49.93 124.89,49.93 124.97,49.27 124.97,48.65 124.85,48.09 124.68,47.55 124.42,47.05 
		124.09,46.6 123.71,46.2 123.3,45.84 122.83,45.53 122.35,45.24 121.83,45.02 121.33,44.82 120.8,44.68 120.3,44.57 119.8,44.48 
		119.35,44.45 119.35,44.65 119.8,44.68 120.27,44.76 120.77,44.87 121.27,45.02 121.77,45.21 122.25,45.44 122.74,45.7 123.17,46 
		123.58,46.36 123.93,46.73 124.26,47.15 124.48,47.62 124.66,48.12 124.77,48.65 124.77,49.27 124.69,49.9 124.69,49.9 	"/>
	<polygon fill="#FFFFFF" points="123.19,58.46 123.19,58.46 124.89,49.93 124.69,49.9 123,58.42 123,58.42 	"/>
	<polygon fill="#FBB131" points="119.18,54.22 119.15,54.13 119.09,54.05 118.97,54 118.81,53.95 118.64,53.93 118.43,53.92 
		118.18,53.92 117.94,53.93 117.68,53.97 117.42,54 117.17,54.03 116.92,54.06 116.68,54.11 116.47,54.14 116.26,54.19 116.1,54.22 
		115.99,54.24 115.86,54.29 115.7,54.34 115.52,54.4 115.31,54.5 115.11,54.6 114.89,54.71 114.68,54.85 114.47,55 114.26,55.18 
		114.08,55.35 113.9,55.56 113.76,55.79 113.64,56.03 113.55,56.29 113.5,56.57 113.48,57.12 113.56,57.55 113.69,57.87 
		113.89,58.12 114.13,58.28 114.4,58.37 114.68,58.42 114.95,58.44 115.44,58.42 115.89,58.37 116.31,58.29 116.68,58.18 
		117.04,58.05 117.34,57.91 117.63,57.75 117.89,57.55 118.12,57.37 118.31,57.16 118.49,56.97 118.64,56.76 118.75,56.57 
		118.83,56.37 118.89,56.18 118.94,56 119.01,55.55 119.09,55.08 119.15,54.63 	"/>
	<g>
		<g>
			<polygon fill="#FFFFFF" points="152.46,59.81 152.49,59.44 152.62,59 152.84,58.62 153.12,58.28 153.46,58 153.85,57.81 
				154.27,57.68 154.72,57.63 155.17,57.68 155.59,57.81 155.98,58 156.32,58.28 156.59,58.62 156.82,59 156.95,59.44 156.98,59.81 
				156.5,59.81 156.48,59.52 156.38,59.17 156.22,58.84 156.01,58.57 155.75,58.34 155.45,58.18 155.09,58.07 154.72,58.04 
				154.35,58.07 153.99,58.18 153.68,58.34 153.43,58.57 153.22,58.84 153.05,59.17 152.96,59.52 152.93,59.81 			"/>
			<polygon fill="#FFFFFF" points="153.91,59.81 153.91,58.84 154.8,58.84 154.99,58.86 155.17,58.89 155.3,58.94 155.41,59 
				155.49,59.1 155.56,59.2 155.59,59.31 155.61,59.42 155.59,59.57 155.56,59.68 155.51,59.78 155.48,59.81 154.8,59.81 
				154.86,59.8 154.98,59.78 155.07,59.75 155.15,59.72 155.22,59.67 155.25,59.62 155.28,59.54 155.28,59.42 155.27,59.34 
				155.24,59.28 155.19,59.25 155.14,59.21 155.06,59.2 154.98,59.18 154.9,59.18 154.8,59.18 154.31,59.18 154.31,59.81 			"/>
			<polygon fill="#FFFFFF" points="152.46,59.81 152.44,59.91 152.49,60.38 152.62,60.81 152.84,61.2 153.12,61.52 153.46,61.8 
				153.85,62.01 154.27,62.14 154.72,62.19 155.17,62.14 155.59,62.01 155.98,61.8 156.32,61.52 156.59,61.2 156.82,60.81 
				156.95,60.38 157,59.91 156.98,59.81 156.5,59.81 156.51,59.91 156.48,60.3 156.38,60.65 156.22,60.96 156.01,61.23 
				155.75,61.46 155.45,61.64 155.09,61.75 154.72,61.78 154.35,61.75 153.99,61.64 153.68,61.46 153.43,61.23 153.22,60.96 
				153.05,60.65 152.96,60.3 152.93,59.91 152.93,59.81 			"/>
			<polygon fill="#FFFFFF" points="153.91,59.81 153.91,60.8 154.31,60.8 154.31,59.99 154.72,59.99 155.2,60.8 155.53,60.8 
				155.04,59.99 155.15,59.99 155.27,59.96 155.36,59.93 155.45,59.86 155.48,59.81 154.8,59.81 154.72,59.83 154.31,59.83 
				154.31,59.81 			"/>
		</g>
	</g>
	<g>
		<g>
			<polyline fill="none" stroke="#FFFFFF" stroke-width="0.215" points="152.44,59.91 152.44,59.91 152.49,59.44 152.62,59 
				152.84,58.62 153.12,58.28 153.46,58 153.85,57.81 154.27,57.68 154.72,57.63 154.72,57.63 155.17,57.68 155.59,57.81 155.98,58 
				156.32,58.28 156.59,58.62 156.82,59 156.95,59.44 157,59.91 157,59.91 156.95,60.38 156.82,60.81 156.59,61.2 156.32,61.52 
				155.98,61.8 155.59,62.01 155.17,62.14 154.72,62.19 154.72,62.19 154.27,62.14 153.85,62.01 153.46,61.8 153.12,61.52 
				152.84,61.2 152.62,60.81 152.49,60.38 152.44,59.91 			"/>
		</g>
	</g>
	<g>
		<g>
			<polyline fill="none" stroke="#FFFFFF" stroke-width="0.215" points="154.31,60.8 153.91,60.8 153.91,58.84 154.8,58.84 
				154.8,58.84 154.99,58.86 155.17,58.89 155.3,58.94 155.41,59 155.49,59.1 155.56,59.2 155.59,59.31 155.61,59.42 155.61,59.42 
				155.59,59.57 155.56,59.68 155.51,59.78 155.45,59.86 155.36,59.93 155.27,59.96 155.15,59.99 155.04,59.99 155.53,60.8 
				155.2,60.8 154.72,59.99 154.31,59.99 154.31,60.8 			"/>
		</g>
	</g>
	<g>
		<g>
			<polyline fill="none" stroke="#FFFFFF" stroke-width="0.215" points="154.72,59.83 154.72,59.83 154.86,59.8 154.98,59.78 
				155.07,59.75 155.15,59.72 155.22,59.67 155.25,59.62 155.28,59.54 155.28,59.42 155.28,59.42 155.27,59.34 155.24,59.28 
				155.19,59.25 155.14,59.21 155.06,59.2 154.98,59.18 154.9,59.18 154.8,59.18 154.31,59.18 154.31,59.83 154.72,59.83 			"/>
		</g>
	</g>
	<g>
		<g>
			<polyline fill="none" stroke="#FFFFFF" stroke-width="0.215" points="154.72,61.78 154.72,61.78 155.09,61.75 155.45,61.64 
				155.75,61.46 156.01,61.23 156.22,60.96 156.38,60.65 156.48,60.3 156.51,59.91 156.51,59.91 156.48,59.52 156.38,59.17 
				156.22,58.84 156.01,58.57 155.75,58.34 155.45,58.18 155.09,58.07 154.72,58.04 154.72,58.04 154.35,58.07 153.99,58.18 
				153.68,58.34 153.43,58.57 153.22,58.84 153.05,59.17 152.96,59.52 152.93,59.91 152.93,59.91 152.96,60.3 153.05,60.65 
				153.22,60.96 153.43,61.23 153.68,61.46 153.99,61.64 154.35,61.75 154.72,61.78 			"/>
		</g>
	</g>
	<polygon fill="#FFFFFF" points="124.3,62.03 128.86,62.03 128.86,62.03 130.49,52.83 130.56,52.48 130.65,52.12 130.75,51.77 
		130.88,51.41 131.04,51.06 131.23,50.72 131.44,50.4 131.7,50.09 131.99,49.81 132.32,49.56 132.69,49.31 133.11,49.12 
		133.58,48.96 134.09,48.83 134.66,48.73 135.29,48.7 135.51,48.7 135.64,48.7 135.69,48.7 135.69,48.7 136.42,44.55 135.97,44.58 
		135.53,44.63 135.13,44.71 134.74,44.82 134.38,44.95 134.04,45.11 133.72,45.29 133.41,45.49 133.12,45.71 132.85,45.94 
		132.59,46.2 132.33,46.45 132.09,46.73 131.85,47.04 131.61,47.33 131.38,47.65 131.86,44.73 127.32,44.73 124.3,62.03 	"/>
	<g>
		<g>
			<polyline fill="none" stroke="#FFFFFF" stroke-width="0.215" points="124.3,62.03 128.86,62.03 128.86,62.03 130.49,52.83 
				130.49,52.83 130.56,52.48 130.65,52.12 130.75,51.77 130.88,51.41 131.04,51.06 131.23,50.72 131.44,50.4 131.7,50.09 
				131.99,49.81 132.32,49.56 132.69,49.31 133.11,49.12 133.58,48.96 134.09,48.83 134.66,48.73 135.29,48.7 135.29,48.7 
				135.51,48.7 135.64,48.7 135.69,48.7 135.69,48.7 136.42,44.55 136.42,44.55 135.97,44.58 135.53,44.63 135.13,44.71 
				134.74,44.82 134.38,44.95 134.04,45.11 133.72,45.29 133.41,45.49 133.12,45.71 132.85,45.94 132.59,46.2 132.33,46.45 
				132.09,46.73 131.85,47.04 131.61,47.33 131.38,47.65 131.86,44.73 127.32,44.73 124.3,62.03 124.3,62.03 			"/>
		</g>
	</g>
	<polygon fill="#FFFFFF" points="81.53,62.03 86.09,62.03 86.17,62.03 87.72,52.83 87.79,52.48 87.87,52.14 87.95,51.8 88.06,51.48 
		88.19,51.16 88.35,50.85 88.54,50.56 88.77,50.28 89.03,50.04 89.32,49.8 89.67,49.6 90.06,49.43 90.51,49.28 91.02,49.15 
		91.56,49.07 92.19,49.02 92.24,49.02 92.31,49.04 92.39,49.06 92.47,49.06 92.55,49.07 92.61,49.09 92.66,49.1 92.68,49.1 
		92.7,49.04 92.74,48.85 92.81,48.55 92.89,48.2 93,47.78 93.12,47.33 93.26,46.87 93.41,46.42 93.54,46.12 93.7,45.81 93.86,45.5 
		94.02,45.23 94.17,44.99 94.28,44.79 94.36,44.68 94.39,44.63 94.38,44.63 94.31,44.61 94.23,44.6 94.12,44.58 94,44.58 
		93.87,44.57 93.76,44.55 93.65,44.55 93.15,44.58 92.7,44.63 92.28,44.71 91.89,44.81 91.52,44.94 91.18,45.1 90.87,45.26 
		90.58,45.45 90.3,45.66 90.05,45.91 89.8,46.15 89.56,46.42 89.32,46.7 89.09,47 88.85,47.33 88.61,47.65 89.19,44.73 84.55,44.73 
		81.53,62.03 	"/>
	<g>
		<g>
			<polyline fill="none" stroke="#FFFFFF" stroke-width="0.215" points="81.53,62.03 86.09,62.03 86.17,62.03 87.72,52.83 
				87.72,52.83 87.79,52.48 87.87,52.14 87.95,51.8 88.06,51.48 88.19,51.16 88.35,50.85 88.54,50.56 88.77,50.28 89.03,50.04 
				89.32,49.8 89.67,49.6 90.06,49.43 90.51,49.28 91.02,49.15 91.56,49.07 92.19,49.02 92.19,49.02 92.24,49.02 92.31,49.04 
				92.39,49.06 92.47,49.06 92.55,49.07 92.61,49.09 92.66,49.1 92.68,49.1 92.68,49.1 92.7,49.04 92.74,48.85 92.81,48.55 
				92.89,48.2 93,47.78 93.12,47.33 93.26,46.87 93.41,46.42 93.41,46.42 93.54,46.12 93.7,45.81 93.86,45.5 94.02,45.23 
				94.17,44.99 94.28,44.79 94.36,44.68 94.39,44.63 94.39,44.63 94.38,44.63 94.31,44.61 94.23,44.6 94.12,44.58 94,44.58 
				93.87,44.57 93.76,44.55 93.65,44.55 93.65,44.55 93.15,44.58 92.7,44.63 92.28,44.71 91.89,44.81 91.52,44.94 91.18,45.1 
				90.87,45.26 90.58,45.45 90.3,45.66 90.05,45.91 89.8,46.15 89.56,46.42 89.32,46.7 89.09,47 88.85,47.33 88.61,47.65 
				89.19,44.73 84.55,44.73 81.53,62.03 81.53,62.03 			"/>
		</g>
	</g>
	<g>
		<g>
			<polygon fill="#FBB131" points="152.49,79.02 152.49,78.95 152.62,78.53 152.84,78.16 153.12,77.84 153.46,77.58 153.85,77.39 
				154.27,77.27 154.72,77.22 155.17,77.27 155.59,77.39 155.98,77.58 156.32,77.84 156.59,78.16 156.82,78.53 156.95,78.95 
				156.95,79.02 156.48,79.02 156.38,78.68 156.22,78.37 156.01,78.1 155.75,77.87 155.45,77.69 155.09,77.58 154.72,77.55 
				154.35,77.58 153.99,77.69 153.68,77.87 153.43,78.1 153.22,78.37 153.05,78.68 152.96,79.02 			"/>
			<polygon fill="#FBB131" points="153.91,79.02 153.91,78.45 154.8,78.45 154.99,78.45 155.17,78.48 155.3,78.52 155.41,78.58 
				155.49,78.66 155.56,78.76 155.59,78.87 155.61,79.02 155.28,79.02 155.28,78.94 155.27,78.86 155.24,78.79 155.19,78.76 
				155.14,78.73 155.06,78.71 154.98,78.69 154.9,78.69 154.8,78.69 154.31,78.69 154.31,79.02 			"/>
			<polygon fill="#FBB131" points="152.44,79.37 152.49,79.02 152.96,79.02 152.96,79.03 152.93,79.37 			"/>
			<polygon fill="#FBB131" points="153.91,79.37 153.91,79.02 154.31,79.02 154.31,79.34 154.72,79.34 154.86,79.31 154.98,79.29 
				155.07,79.26 155.15,79.23 155.22,79.18 155.25,79.13 155.28,79.05 155.28,79.02 155.61,79.02 155.61,79.02 155.59,79.13 
				155.56,79.23 155.51,79.31 155.45,79.37 			"/>
			<polygon fill="#FBB131" points="156.51,79.37 156.48,79.03 156.48,79.02 156.95,79.02 157,79.37 			"/>
			<polygon fill="#FBB131" points="152.44,79.37 152.44,79.42 152.49,79.89 152.62,80.33 152.84,80.71 153.12,81.05 153.46,81.33 
				153.85,81.52 154.27,81.65 154.72,81.7 155.17,81.65 155.59,81.52 155.98,81.33 156.32,81.05 156.59,80.71 156.82,80.33 
				156.95,79.89 157,79.42 157,79.37 156.51,79.37 156.51,79.42 156.48,79.81 156.38,80.16 156.22,80.47 156.01,80.75 155.75,80.97 
				155.45,81.15 155.09,81.26 154.72,81.29 154.35,81.26 153.99,81.15 153.68,80.97 153.43,80.75 153.22,80.47 153.05,80.16 
				152.96,79.81 152.93,79.42 152.93,79.37 			"/>
			<polygon fill="#FBB131" points="153.91,79.37 153.91,80.31 154.31,80.31 154.31,79.5 154.72,79.5 155.2,80.31 155.53,80.31 
				155.04,79.5 155.15,79.5 155.27,79.47 155.36,79.44 155.45,79.37 155.45,79.37 			"/>
		</g>
	</g>
</g>
</svg>
