<svg id="Layer_1" data-name="Layer 1" xmlns="http://www.w3.org/2000/svg" viewBox="0 0 187.09 117.06"><title>visa_electron</title><polygon points="0 0 0 117.06 187.09 117.06 187.09 0 0 0 0 0" fill="#005a9c" fill-rule="evenodd"/><polygon points="184.9 2.19 184.9 114.87 2.19 114.87 2.19 2.19 184.9 2.19 184.9 2.19" fill="#fff" fill-rule="evenodd"/><polygon points="179.08 109.97 179.08 7.65 7.64 7.65 7.64 109.97 179.08 109.97 179.08 109.97" fill="#005a9c" fill-rule="evenodd"/><path d="M857.17-55.55c18.18-7.79,43.68-14.85,77.46-7.78L935-71.9c-35.64-3.89-61.21,7.46-77.81,15.5v0.85h0Z" transform="translate(-802.62 125.01)" fill="#fbaa29" fill-rule="evenodd"/><polygon points="21.74 75.76 38.87 75.76 38.87 80.92 28.23 80.92 28.16 85.68 38.76 85.68 38.76 90.63 28.12 90.63 28.16 95.39 38.66 95.39 38.66 100.56 21.75 100.56 21.74 75.76 21.74 75.76" fill="#fff" fill-rule="evenodd"/><polygon points="43.17 73.68 49.41 73.68 49.43 100.56 43.19 100.56 43.17 73.68 43.17 73.68" fill="#fff" fill-rule="evenodd"/><path d="M873.47-26.5a13.19,13.19,0,0,1-8.21,2.69c-6.56,0-9.53-4.66-9.53-9.28a9.8,9.8,0,0,1,9.71-10.07c6.88,0,9,4.87,9,11.07H862c0,1.4.9,3.76,4.34,3.76a8,8,0,0,0,5.09-1.79l2.08,3.62h0Zm-4.59-9.25c0-1.86-.9-3.55-3-3.55A4.3,4.3,0,0,0,862-35.74h6.84Z" transform="translate(-802.62 125.01)" fill="#fff" fill-rule="evenodd"/><path d="M893.4-25.68a14.18,14.18,0,0,1-6.63,1.86c-5.73,0-9.85-3.3-9.85-9.25S881-43.16,887.16-43.16a12.8,12.8,0,0,1,6.13,1.58l-2,4.08a7.71,7.71,0,0,0-2.94-.72c-3.12,0-5.2,1.86-5.2,4.84a4.57,4.57,0,0,0,4.66,4.62,7.88,7.88,0,0,0,3.37-1l2.22,4.12h0Z" transform="translate(-802.62 125.01)" fill="#fff" fill-rule="evenodd"/><path d="M895.7-42.52h2.82l0-6.13h6l-0.14,6.13h5.12L909.39-38h-5.12c0,2.51-.18,5.16-0.18,6.7S904.48-29,905.88-29a4.5,4.5,0,0,0,2.29-.86l1.36,4.23a12.19,12.19,0,0,1-6.16,1.79c-5.05,0-5.3-3.19-5.3-7.35,0-2.22.18-4.44,0.18-6.84h-2.69l0.14-4.51h0Z" transform="translate(-802.62 125.01)" fill="#fff" fill-rule="evenodd"/><path d="M912.69-42.52h6.24V-40H919c0.93-1.54,2.15-3,4.59-3a9.65,9.65,0,0,1,2,.21l-0.82,6.16a7.4,7.4,0,0,0-2.22-.36,4.41,4.41,0,0,0-3.69,2.11l-0.11,10.43h-6.23l0.14-18.06h0Z" transform="translate(-802.62 125.01)" fill="#fff" fill-rule="evenodd"/><path d="M936.92-43.16c6.67,0,10.11,4.23,10.11,9.67s-3.44,9.68-10.11,9.68S926.82-28,926.82-33.49s3.44-9.67,10.11-9.67h0Zm0,14.62c3,0,3.87-2.58,3.87-4.95s-0.9-4.94-3.87-4.94-3.87,2.58-3.87,4.94,0.9,4.95,3.87,4.95h0Z" transform="translate(-802.62 125.01)" fill="#fff" fill-rule="evenodd"/><path d="M950.42-42.52h6.23v2a8.84,8.84,0,0,1,5.84-2.62c3.83,0,5.91,2.11,5.91,7.06,0,3.69,0,7.67-.07,11.65H962.1c0-3.48.07-7,.07-10.71,0-1.47-.39-2.62-2.26-2.62a5.81,5.81,0,0,0-3.26,1.65l0,11.68h-6.35l0.14-18.06h0Z" transform="translate(-802.62 125.01)" fill="#fff" fill-rule="evenodd"/><polygon points="73.03 45.29 80.91 19.32 87.94 19.32 80.06 45.29 73.03 45.29 73.03 45.29" fill="#fff" fill-rule="evenodd"/><path d="M872.51-105.69l-6.32,11c-1.61,2.89-2.55,4.34-3,6.16h-0.1c0.11-2.31-.21-5.15-0.24-6.75l-0.7-10.42H850.31l-0.12.7c3,0,4.84,1.53,5.34,4.65l2.31,20.62h7.28l14.72-26h-7.34Z" transform="translate(-802.62 125.01)" fill="#fff" fill-rule="evenodd"/><path d="M927.17-79.72L927-83.58H918.2l-1.79,3.87h-7.63l13.83-25.92H932l2.34,25.92h-7.15ZM926.36-95a59,59,0,0,1,0-6.1h-0.1c-0.43,1.29-2.27,5.16-3.07,7.07l-2.62,5.69h6.16L926.36-95h0Z" transform="translate(-802.62 125.01)" fill="#fff" fill-rule="evenodd"/><path d="M897.94-79a19.64,19.64,0,0,1-10.61-3l3.35-5.11c2.11,1.18,3.77,2.54,7.58,2.54A3.26,3.26,0,0,0,901.34-86c1-1.69-.22-2.6-3-4.15L897-91c-4.07-2.78-5.83-5.42-3.92-10,1.23-2.95,4.46-5.18,9.8-5.18a15.73,15.73,0,0,1,9.14,3.15l-3.85,4.51c-2-1.59-3.59-2.39-5.45-2.39a3.27,3.27,0,0,0-3,1.34c-0.73,1.45.24,2.44,2.37,3.77l1.61,1c4.94,3.12,6.12,6.38,4.88,9.44-2.13,5.26-6.3,6.43-10.67,6.43h0Z" transform="translate(-802.62 125.01)" fill="#fff" fill-rule="evenodd"/></svg>