<?xml version="1.0" encoding="utf-8"?>
<!-- Generator: Adobe Illustrator 19.2.1, SVG Export Plug-In . SVG Version: 6.00 Build 0)  -->
<svg version="1.1" id="Layer_1" xmlns="http://www.w3.org/2000/svg" xmlns:xlink="http://www.w3.org/1999/xlink" x="0px" y="0px"
	 viewBox="0 0 842.05 100" enable-background="new 0 0 842.05 100" xml:space="preserve">
<g>
	<polygon fill="#EC1C2E" points="116.07,99.85 118.64,99.79 121.17,99.59 123.66,99.28 126.12,98.84 128.55,98.29 130.92,97.61 
		133.24,96.82 135.51,95.92 137.72,94.92 139.87,93.82 141.96,92.63 143.98,91.32 145.95,89.92 147.83,88.45 149.65,86.88 
		151.38,85.22 153.02,83.49 154.6,81.67 156.09,79.79 157.48,77.84 158.78,75.8 159.97,73.71 161.08,71.56 162.09,69.35 
		162.97,67.07 163.76,64.76 164.42,62.39 164.98,59.98 165.43,57.5 165.74,55.01 165.94,52.47 166,49.91 165.94,47.34 165.74,44.82 
		165.43,42.35 164.98,39.89 164.42,37.5 163.76,35.14 162.97,32.83 162.09,30.57 161.08,28.38 159.97,26.23 158.78,24.15 
		157.48,22.11 156.09,20.16 154.6,18.28 153.02,16.48 151.38,14.75 149.65,13.11 147.83,11.53 145.95,10.06 143.98,8.67 
		141.96,7.37 139.87,6.18 137.72,5.06 135.51,4.06 133.24,3.18 130.92,2.39 128.55,1.71 126.12,1.16 123.66,0.72 121.17,0.41 
		118.64,0.21 116.07,0.15 113.49,0.21 110.95,0.41 108.46,0.72 106,1.16 103.57,1.71 101.22,2.39 98.89,3.18 96.63,4.06 94.42,5.06 
		92.28,6.18 90.19,7.37 88.16,8.67 86.22,10.06 84.33,11.53 82.52,13.11 80.8,14.75 79.15,16.48 77.57,18.28 76.1,20.16 
		74.71,22.11 73.41,24.15 72.22,26.23 71.12,28.38 70.14,30.57 69.23,32.83 68.45,35.14 67.8,37.5 67.24,39.89 66.79,42.35 
		66.48,44.82 66.29,47.34 66.22,49.91 66.29,52.47 66.48,55.01 66.79,57.5 67.24,59.98 67.8,62.39 68.45,64.76 69.23,67.07 
		70.14,69.35 71.12,71.56 72.22,73.71 73.41,75.8 74.71,77.84 76.1,79.79 77.57,81.67 79.15,83.49 80.8,85.22 82.52,86.88 
		84.33,88.45 86.22,89.92 88.16,91.32 90.19,92.63 92.28,93.82 94.42,94.92 96.63,95.92 98.89,96.82 101.22,97.61 103.57,98.29 
		106,98.84 108.46,99.28 110.95,99.59 113.49,99.79 	"/>
	<polygon fill="#0084C4" points="49.93,99.85 52.51,99.79 55.05,99.59 57.54,99.28 60,98.84 62.43,98.29 64.78,97.61 67.11,96.82 
		69.37,95.92 71.58,94.92 73.72,93.82 75.81,92.63 77.84,91.32 79.78,89.92 81.67,88.45 83.48,86.88 85.21,85.22 86.85,83.49 
		88.43,81.67 89.9,79.79 91.29,77.84 92.59,75.8 93.78,73.71 94.88,71.56 95.88,69.35 96.76,67.07 97.55,64.76 98.2,62.39 
		98.76,59.98 99.21,57.5 99.52,55.01 99.71,52.47 99.78,49.91 99.71,47.34 99.52,44.82 99.21,42.35 98.76,39.89 98.2,37.5 
		97.55,35.14 96.76,32.83 95.88,30.57 94.88,28.38 93.78,26.23 92.59,24.15 91.29,22.11 89.9,20.16 88.43,18.28 86.85,16.48 
		85.21,14.75 83.48,13.11 81.67,11.53 79.78,10.06 77.84,8.67 75.81,7.37 73.72,6.18 71.58,5.06 69.37,4.06 67.11,3.18 64.78,2.39 
		62.43,1.71 60,1.16 57.54,0.72 55.05,0.41 52.51,0.21 49.93,0.15 47.36,0.21 44.83,0.41 42.34,0.72 39.88,1.16 37.45,1.71 
		35.08,2.39 32.76,3.18 30.49,4.06 28.28,5.06 26.13,6.18 24.04,7.37 22.02,8.67 20.05,10.06 18.17,11.53 16.35,13.11 14.63,14.75 
		12.98,16.48 11.4,18.28 9.91,20.16 8.52,22.11 7.22,24.15 6.03,26.23 4.92,28.38 3.91,30.57 3.03,32.83 2.24,35.14 1.58,37.5 
		1.02,39.89 0.57,42.35 0.26,44.82 0.06,47.34 0,49.91 0.06,52.47 0.26,55.01 0.57,57.5 1.02,59.98 1.58,62.39 2.24,64.76 
		3.03,67.07 3.91,69.35 4.92,71.56 6.03,73.71 7.22,75.8 8.52,77.84 9.91,79.79 11.4,81.67 12.98,83.49 14.63,85.22 16.35,86.88 
		18.17,88.45 20.05,89.92 22.02,91.32 24.04,92.63 26.13,93.82 28.28,94.92 30.49,95.92 32.76,96.82 35.08,97.61 37.45,98.29 
		39.88,98.84 42.34,99.28 44.83,99.59 47.36,99.79 	"/>
	<polygon fill="#EC1C2E" points="76.86,19.13 102.13,19.13 102.13,16.34 79.3,16.34 	"/>
	<polygon fill="#EC1C2E" points="72.89,25.03 102.13,25.03 102.13,22.26 74.66,22.26 	"/>
	<polygon fill="#EC1C2E" points="69.93,31.02 102.13,31.02 102.13,28.24 71.29,28.24 	"/>
	<polygon fill="#EC1C2E" points="67.99,36.93 102.13,36.93 102.13,34.16 68.85,34.16 	"/>
	<polygon fill="#EC1C2E" points="66.73,42.84 102.13,42.84 102.13,40.05 67.24,40.05 	"/>
	<polygon fill="#EC1C2E" points="66.47,54.3 102.13,54.3 102.13,51.5 66.22,51.5 	"/>
	<polygon fill="#EC1C2E" points="67.32,60.53 102.13,60.53 102.13,57.75 66.82,57.75 	"/>
	<polygon fill="#EC1C2E" points="69,65.59 102.13,65.59 102.13,62.81 68.15,62.81 	"/>
	<polygon fill="#EC1C2E" points="71.54,71.76 102.13,71.76 102.13,68.98 70.19,68.98 	"/>
	<polygon fill="#EC1C2E" points="75.08,78 102.13,78 102.13,75.21 73.22,75.21 	"/>
	<polygon fill="#EC1C2E" points="79.55,84 101.89,84 101.89,81.21 77.1,81.21 	"/>
	<g>
		<g>
			<polygon fill="#EC1C2E" points="157.79,80.52 157.94,80.08 158.19,79.67 158.5,79.31 158.85,79.02 159.27,78.79 159.71,78.63 
				160.18,78.59 160.68,78.63 161.13,78.79 161.54,79.02 161.9,79.31 162.2,79.67 162.43,80.08 162.58,80.52 162.07,80.52 
				161.97,80.21 161.79,79.87 161.56,79.57 161.28,79.34 160.96,79.16 160.57,79.05 160.18,79.02 159.79,79.05 159.41,79.16 
				159.09,79.34 158.79,79.57 158.56,79.87 158.38,80.21 158.28,80.52 			"/>
			<polygon fill="#EC1C2E" points="159.33,80.52 159.33,79.93 160.26,79.93 160.48,79.95 160.66,79.96 160.82,80.01 160.96,80.08 
				161.05,80.16 161.13,80.26 161.19,80.38 161.2,80.52 160.77,80.52 160.77,80.52 160.76,80.44 160.73,80.38 160.68,80.31 
				160.6,80.26 160.53,80.23 160.45,80.21 160.37,80.19 160.26,80.19 159.75,80.19 159.75,80.52 			"/>
			<polygon fill="#EC1C2E" points="157.76,80.95 157.79,80.54 157.79,80.52 158.28,80.52 158.27,80.61 158.23,80.95 			"/>
			<polygon fill="#EC1C2E" points="159.33,80.95 159.33,80.52 159.75,80.52 159.75,80.87 160.18,80.87 160.34,80.87 160.46,80.87 
				160.56,80.86 160.65,80.81 160.69,80.78 160.74,80.72 160.77,80.64 160.77,80.52 161.2,80.52 161.2,80.52 161.19,80.67 
				161.15,80.8 161.1,80.9 161.05,80.95 			"/>
			<polygon fill="#EC1C2E" points="162.12,80.95 162.09,80.61 162.07,80.52 162.58,80.52 162.58,80.54 162.63,80.95 			"/>
			<polygon fill="#EC1C2E" points="157.76,80.95 157.74,81.03 157.79,81.52 157.94,81.99 158.19,82.37 158.5,82.73 158.85,83.01 
				159.27,83.23 159.71,83.36 160.18,83.41 160.68,83.36 161.13,83.23 161.54,83.01 161.9,82.73 162.2,82.37 162.43,81.99 
				162.58,81.52 162.63,81.03 162.63,80.95 162.12,80.95 162.12,81.03 162.09,81.46 161.97,81.85 161.79,82.19 161.56,82.48 
				161.28,82.73 160.96,82.92 160.57,83.03 160.18,83.07 159.79,83.03 159.41,82.92 159.09,82.73 158.79,82.48 158.56,82.19 
				158.38,81.85 158.27,81.46 158.23,81.03 158.23,80.95 			"/>
			<polygon fill="#EC1C2E" points="159.33,80.95 159.33,81.97 159.75,81.97 159.75,81.13 160.18,81.13 160.69,81.97 161.11,81.97 
				160.51,81.13 160.66,81.11 160.8,81.09 160.92,81.05 161.02,80.98 161.05,80.95 			"/>
		</g>
	</g>
	<polygon fill="#FFFFFF" points="105.26,45.7 104.93,45.69 104.61,45.66 104.31,45.61 104.02,45.58 103.73,45.53 103.43,45.48 
		103.12,45.42 102.8,45.38 102.44,45.35 102.09,45.31 101.68,45.28 101.24,45.27 100.74,45.27 100.2,45.28 99.6,45.31 98.95,45.36 
		98.47,45.42 98.02,45.53 97.62,45.66 97.26,45.81 96.92,45.98 96.63,46.18 96.38,46.41 96.19,46.64 96.04,46.91 95.95,47.18 
		95.9,47.46 95.9,47.76 95.96,48.07 96.07,48.38 96.26,48.69 96.49,49 96.95,49.43 97.51,49.77 98.17,50.06 98.87,50.31 
		99.61,50.56 100.38,50.8 101.17,51.08 101.92,51.41 102.63,51.81 103.3,52.28 103.88,52.88 104.38,53.6 104.76,54.49 105.01,55.54 
		105.09,56.79 105.01,58.26 104.82,59.36 104.53,60.33 104.15,61.23 103.68,62.01 103.12,62.7 102.52,63.29 101.84,63.8 
		101.13,64.23 100.37,64.6 99.58,64.89 98.78,65.14 97.97,65.32 97.17,65.45 96.38,65.53 95.64,65.58 94.89,65.59 93.88,65.59 
		92.96,65.58 92.13,65.56 91.35,65.55 90.65,65.51 90.02,65.48 89.44,65.44 88.91,65.37 88.43,65.3 87.96,65.22 87.53,65.14 
		87.11,65.02 86.71,64.91 86.33,64.79 85.94,64.65 85.52,64.5 86.54,59.36 86.77,59.4 87.05,59.48 87.39,59.57 87.77,59.67 
		88.21,59.75 88.71,59.87 89.22,59.96 89.79,60.06 90.38,60.14 91,60.22 91.63,60.29 92.31,60.35 92.98,60.39 93.67,60.41 
		94.35,60.41 95.06,60.38 95.71,60.26 96.26,60.07 96.66,59.81 97,59.52 97.23,59.17 97.42,58.82 97.57,58.46 97.66,58.09 
		97.71,57.72 97.69,57.39 97.62,57.08 97.48,56.82 97.31,56.56 97.07,56.33 96.8,56.11 96.49,55.91 96.13,55.74 95.76,55.55 
		95.36,55.37 94.93,55.21 94.51,55.04 94.04,54.87 93.58,54.69 93.11,54.49 92.65,54.3 92.19,54.08 91.74,53.84 91.29,53.57 
		90.86,53.29 90.47,52.98 90.1,52.62 89.75,52.24 89.44,51.82 89.16,51.36 88.93,50.85 88.74,50.31 88.6,49.71 88.52,49.05 
		88.51,48.33 88.55,47.56 88.6,47.08 88.66,46.63 88.74,46.18 88.83,45.76 88.93,45.35 89.05,44.94 89.19,44.56 89.34,44.18 
		89.52,43.84 89.7,43.49 89.91,43.18 90.15,42.87 90.39,42.58 90.65,42.3 90.93,42.04 91.24,41.79 91.57,41.57 91.91,41.35 
		92.29,41.15 92.68,40.95 93.09,40.8 93.53,40.63 94,40.5 94.49,40.36 95.01,40.25 95.55,40.15 96.1,40.07 96.69,40.01 97.32,39.96 
		97.97,39.93 98.65,39.89 99.35,39.89 100.22,39.89 101,39.91 101.71,39.93 102.37,39.96 102.94,39.99 103.46,40.02 103.94,40.07 
		104.35,40.1 104.73,40.15 105.06,40.21 105.37,40.24 105.63,40.29 105.86,40.32 106.06,40.35 106.26,40.38 106.45,40.4 	"/>
	<g>
		<g>
			<polyline fill="none" stroke="#FFFFFF" stroke-width="0.215" points="105.26,45.7 105.26,45.7 104.93,45.69 104.61,45.66 
				104.31,45.61 104.02,45.58 103.73,45.53 103.43,45.48 103.12,45.42 102.8,45.38 102.44,45.35 102.09,45.31 101.68,45.28 
				101.24,45.27 100.74,45.27 100.2,45.28 99.6,45.31 98.95,45.36 98.95,45.36 98.47,45.42 98.02,45.53 97.62,45.66 97.26,45.81 
				96.92,45.98 96.63,46.18 96.38,46.41 96.19,46.64 96.04,46.91 95.95,47.18 95.9,47.46 95.9,47.76 95.96,48.07 96.07,48.38 
				96.26,48.69 96.49,49 96.49,49 96.95,49.43 97.51,49.77 98.17,50.06 98.87,50.31 99.61,50.56 100.38,50.8 101.17,51.08 
				101.92,51.41 102.63,51.81 103.3,52.28 103.88,52.88 104.38,53.6 104.76,54.49 105.01,55.54 105.09,56.79 105.01,58.26 
				105.01,58.26 104.82,59.36 104.53,60.33 104.15,61.23 103.68,62.01 103.12,62.7 102.52,63.29 101.84,63.8 101.13,64.23 
				100.37,64.6 99.58,64.89 98.78,65.14 97.97,65.32 97.17,65.45 96.38,65.53 95.64,65.58 94.89,65.59 94.89,65.59 93.88,65.59 
				92.96,65.58 92.13,65.56 91.35,65.55 90.65,65.51 90.02,65.48 89.44,65.44 88.91,65.37 88.43,65.3 87.96,65.22 87.53,65.14 
				87.11,65.02 86.71,64.91 86.33,64.79 85.94,64.65 85.52,64.5 86.54,59.36 86.54,59.36 86.77,59.4 87.05,59.48 87.39,59.57 
				87.77,59.67 88.21,59.75 88.71,59.87 89.22,59.96 89.79,60.06 90.38,60.14 91,60.22 91.63,60.29 92.31,60.35 92.98,60.39 
				93.67,60.41 94.35,60.41 95.06,60.38 95.06,60.38 95.71,60.26 96.26,60.07 96.66,59.81 97,59.52 97.23,59.17 97.42,58.82 
				97.57,58.46 97.66,58.09 97.66,58.09 97.71,57.72 97.69,57.39 97.62,57.08 97.48,56.82 97.31,56.56 97.07,56.33 96.8,56.11 
				96.49,55.91 96.13,55.74 95.76,55.55 95.36,55.37 94.93,55.21 94.51,55.04 94.04,54.87 93.58,54.69 93.11,54.49 92.65,54.3 
				92.19,54.08 91.74,53.84 91.29,53.57 90.86,53.29 90.47,52.98 90.1,52.62 89.75,52.24 89.44,51.82 89.16,51.36 88.93,50.85 
				88.74,50.31 88.6,49.71 88.52,49.05 88.51,48.33 88.55,47.56 88.55,47.56 88.6,47.08 88.66,46.63 88.74,46.18 88.83,45.76 
				88.93,45.35 89.05,44.94 89.19,44.56 89.34,44.18 89.52,43.84 89.7,43.49 89.91,43.18 90.15,42.87 90.39,42.58 90.65,42.3 
				90.93,42.04 91.24,41.79 91.57,41.57 91.91,41.35 92.29,41.15 92.68,40.95 93.09,40.8 93.53,40.63 94,40.5 94.49,40.36 
				95.01,40.25 95.55,40.15 96.1,40.07 96.69,40.01 97.32,39.96 97.97,39.93 98.65,39.89 99.35,39.89 99.35,39.89 100.22,39.89 
				101,39.91 101.71,39.93 102.37,39.96 102.94,39.99 103.46,40.02 103.94,40.07 104.35,40.1 104.73,40.15 105.06,40.21 
				105.37,40.24 105.63,40.29 105.86,40.32 106.06,40.35 106.26,40.38 106.45,40.4 105.26,45.7 			"/>
		</g>
	</g>
	<polygon fill="#FFFFFF" points="110.66,34.75 117.24,34.75 116.23,40.49 120.28,40.49 119.35,45.7 115.21,45.62 113.04,58.68 
		112.99,58.96 112.99,59.2 113.04,59.42 113.1,59.62 113.19,59.78 113.31,59.95 113.46,60.07 113.62,60.18 113.81,60.27 
		114.01,60.35 114.24,60.42 114.48,60.46 114.74,60.5 115,60.52 115.28,60.53 115.56,60.53 116.08,60.53 116.54,60.5 116.97,60.44 
		117.32,60.35 117.6,60.27 117.82,60.19 117.94,60.13 117.99,60.11 117.32,64.58 117.16,64.68 116.98,64.76 116.8,64.85 
		116.61,64.93 116.44,64.99 116.24,65.05 116.04,65.13 115.82,65.19 115.59,65.25 115.34,65.3 115.06,65.36 114.77,65.4 
		114.46,65.45 114.13,65.5 113.75,65.55 113.36,65.59 111.59,65.59 110.66,65.53 109.82,65.44 109.08,65.3 108.44,65.13 
		107.9,64.93 107.44,64.68 107.07,64.4 106.76,64.09 106.51,63.75 106.33,63.37 106.22,62.96 106.15,62.5 106.14,62.02 
		106.15,61.51 106.2,60.96 106.28,60.38 	"/>
	<g>
		<g>
			<polyline fill="none" stroke="#FFFFFF" stroke-width="0.215" points="110.66,34.75 117.24,34.75 116.23,40.49 120.28,40.49 
				119.35,45.7 115.21,45.62 113.04,58.68 113.04,58.68 112.99,58.96 112.99,59.2 113.04,59.42 113.1,59.62 113.19,59.78 
				113.31,59.95 113.46,60.07 113.62,60.18 113.81,60.27 114.01,60.35 114.24,60.42 114.48,60.46 114.74,60.5 115,60.52 
				115.28,60.53 115.56,60.53 115.56,60.53 116.08,60.53 116.54,60.5 116.97,60.44 117.32,60.35 117.6,60.27 117.82,60.19 
				117.94,60.13 117.99,60.11 117.32,64.58 117.32,64.58 117.16,64.68 116.98,64.76 116.8,64.85 116.61,64.93 116.44,64.99 
				116.24,65.05 116.04,65.13 115.82,65.19 115.59,65.25 115.34,65.3 115.06,65.36 114.77,65.4 114.46,65.45 114.13,65.5 
				113.75,65.55 113.36,65.59 111.59,65.59 111.59,65.59 110.66,65.53 109.82,65.44 109.08,65.3 108.44,65.13 107.9,64.93 
				107.44,64.68 107.07,64.4 106.76,64.09 106.51,63.75 106.33,63.37 106.22,62.96 106.15,62.5 106.14,62.02 106.15,61.51 
				106.2,60.96 106.28,60.38 110.66,34.75 			"/>
		</g>
	</g>
	<polygon fill="#FFFFFF" points="70.61,54.64 70.53,55.04 70.52,55.46 70.55,55.9 70.64,56.33 70.78,56.76 70.98,57.21 71.2,57.64 
		71.48,58.04 71.79,58.43 72.16,58.82 72.53,59.14 72.94,59.45 73.38,59.71 73.84,59.93 74.34,60.09 74.82,60.21 75.42,60.29 
		76.01,60.38 76.61,60.44 77.22,60.47 77.84,60.49 78.45,60.49 79.09,60.46 79.71,60.41 80.34,60.3 81,60.19 81.65,60.02 
		82.32,59.81 82.97,59.57 83.65,59.28 84.33,58.91 85.01,58.52 84,64.34 83.62,64.54 83.25,64.71 82.91,64.86 82.54,64.99 
		82.18,65.13 81.82,65.22 81.44,65.3 81.03,65.39 80.6,65.44 80.15,65.48 79.64,65.53 79.1,65.55 78.51,65.58 77.85,65.58 
		77.14,65.59 76.35,65.59 75.78,65.59 75.19,65.56 74.61,65.53 74.03,65.47 73.41,65.39 72.82,65.28 72.23,65.16 71.65,65.02 
		71.07,64.85 70.5,64.66 69.94,64.45 69.39,64.2 68.85,63.92 68.32,63.63 67.83,63.3 67.33,62.95 66.88,62.55 66.43,62.13 
		66.01,61.66 65.63,61.17 65.27,60.63 64.95,60.07 64.65,59.47 64.39,58.83 64.16,58.14 63.98,57.42 63.83,56.67 63.73,55.85 
		63.67,55 63.67,54.11 63.7,53.16 63.79,52.18 63.83,51.84 63.88,51.44 63.94,51.05 64.02,50.62 64.11,50.18 64.22,49.72 
		64.36,49.24 64.49,48.75 64.65,48.25 64.83,47.76 65.04,47.25 65.27,46.74 65.54,46.23 65.81,45.73 66.12,45.22 66.45,44.73 
		66.83,44.25 67.22,43.77 67.64,43.32 68.12,42.89 68.61,42.47 69.16,42.07 69.73,41.71 70.35,41.37 71.01,41.07 71.71,40.8 
		72.45,40.55 73.24,40.35 74.07,40.19 74.96,40.07 75.87,40.01 76.86,39.98 77.31,39.98 77.77,40.01 78.25,40.04 78.73,40.09 
		79.2,40.15 79.69,40.25 80.17,40.36 80.64,40.5 81.11,40.64 81.59,40.83 82.05,41.03 82.49,41.25 82.92,41.51 83.34,41.79 
		83.74,42.12 84.13,42.47 84.49,42.84 84.84,43.25 85.15,43.71 85.43,44.18 85.69,44.71 85.92,45.27 86.11,45.87 86.26,46.51 
		86.39,47.2 86.48,47.91 86.51,48.69 86.51,49.51 86.45,50.37 86.37,51.3 86.23,52.26 86.03,53.28 85.77,54.72 68.74,54.72 
		69.76,50.17 79.97,50.17 80.02,49.54 80.02,48.97 79.98,48.42 79.89,47.94 79.75,47.49 79.6,47.08 79.38,46.72 79.13,46.4 
		78.85,46.1 78.54,45.85 78.22,45.66 77.87,45.5 77.49,45.36 77.1,45.27 76.69,45.22 76.27,45.2 75.81,45.2 75.38,45.27 
		74.96,45.35 74.57,45.48 74.18,45.66 73.83,45.87 73.48,46.12 73.16,46.4 72.87,46.72 72.61,47.06 72.37,47.45 72.14,47.85 
		71.94,48.28 71.77,48.73 71.65,49.23 71.54,49.74 	"/>
	<g>
		<g>
			<polyline fill="none" stroke="#FFFFFF" stroke-width="0.215" points="70.61,54.64 70.61,54.64 70.53,55.04 70.52,55.46 
				70.55,55.9 70.64,56.33 70.78,56.76 70.98,57.21 71.2,57.64 71.48,58.04 71.79,58.43 72.16,58.82 72.53,59.14 72.94,59.45 
				73.38,59.71 73.84,59.93 74.34,60.09 74.82,60.21 74.82,60.21 75.42,60.29 76.01,60.38 76.61,60.44 77.22,60.47 77.84,60.49 
				78.45,60.49 79.09,60.46 79.71,60.41 80.34,60.3 81,60.19 81.65,60.02 82.32,59.81 82.97,59.57 83.65,59.28 84.33,58.91 
				85.01,58.52 84,64.34 84,64.34 83.62,64.54 83.25,64.71 82.91,64.86 82.54,64.99 82.18,65.13 81.82,65.22 81.44,65.3 
				81.03,65.39 80.6,65.44 80.15,65.48 79.64,65.53 79.1,65.55 78.51,65.58 77.85,65.58 77.14,65.59 76.35,65.59 76.35,65.59 
				75.78,65.59 75.19,65.56 74.61,65.53 74.03,65.47 73.41,65.39 72.82,65.28 72.23,65.16 71.65,65.02 71.07,64.85 70.5,64.66 
				69.94,64.45 69.39,64.2 68.85,63.92 68.32,63.63 67.83,63.3 67.33,62.95 66.88,62.55 66.43,62.13 66.01,61.66 65.63,61.17 
				65.27,60.63 64.95,60.07 64.65,59.47 64.39,58.83 64.16,58.14 63.98,57.42 63.83,56.67 63.73,55.85 63.67,55 63.67,54.11 
				63.7,53.16 63.79,52.18 63.79,52.18 63.83,51.84 63.88,51.44 63.94,51.05 64.02,50.62 64.11,50.18 64.22,49.72 64.36,49.24 
				64.49,48.75 64.65,48.25 64.83,47.76 65.04,47.25 65.27,46.74 65.54,46.23 65.81,45.73 66.12,45.22 66.45,44.73 66.83,44.25 
				67.22,43.77 67.64,43.32 68.12,42.89 68.61,42.47 69.16,42.07 69.73,41.71 70.35,41.37 71.01,41.07 71.71,40.8 72.45,40.55 
				73.24,40.35 74.07,40.19 74.96,40.07 75.87,40.01 76.86,39.98 76.86,39.98 77.31,39.98 77.77,40.01 78.25,40.04 78.73,40.09 
				79.2,40.15 79.69,40.25 80.17,40.36 80.64,40.5 81.11,40.64 81.59,40.83 82.05,41.03 82.49,41.25 82.92,41.51 83.34,41.79 
				83.74,42.12 84.13,42.47 84.49,42.84 84.84,43.25 85.15,43.71 85.43,44.18 85.69,44.71 85.92,45.27 86.11,45.87 86.26,46.51 
				86.39,47.2 86.48,47.91 86.51,48.69 86.51,49.51 86.45,50.37 86.37,51.3 86.23,52.26 86.03,53.28 85.77,54.72 68.74,54.72 
				69.76,50.17 79.97,50.17 79.97,50.17 80.02,49.54 80.02,48.97 79.98,48.42 79.89,47.94 79.75,47.49 79.6,47.08 79.38,46.72 
				79.13,46.4 78.85,46.1 78.54,45.85 78.22,45.66 77.87,45.5 77.49,45.36 77.1,45.27 76.69,45.22 76.27,45.2 76.27,45.2 
				75.81,45.2 75.38,45.27 74.96,45.35 74.57,45.48 74.18,45.66 73.83,45.87 73.48,46.12 73.16,46.4 72.87,46.72 72.61,47.06 
				72.37,47.45 72.14,47.85 71.94,48.28 71.77,48.73 71.65,49.23 71.54,49.74 70.61,54.64 			"/>
		</g>
	</g>
	<polygon fill="#FFFFFF" points="61.5,60.38 60.57,65.59 54.66,65.59 54.72,65.11 54.79,64.62 54.85,64.17 54.91,63.77 54.99,63.41 
		55.03,63.12 55.1,62.93 55.16,62.81 54.85,63.18 54.46,63.53 54.01,63.88 53.51,64.2 52.96,64.51 52.38,64.82 51.76,65.07 
		51.12,65.32 50.44,65.53 49.76,65.71 49.07,65.84 48.38,65.95 47.69,65.99 47.02,66.01 46.37,65.96 45.72,65.86 44.89,65.67 
		44.16,65.4 43.48,65.09 42.89,64.74 42.37,64.37 41.93,63.94 41.53,63.5 41.21,63.01 40.93,62.51 40.7,62.01 40.51,61.49 
		40.37,60.95 40.28,60.42 40.2,59.88 40.17,59.36 40.15,58.85 40.22,57.93 40.37,57.07 40.59,56.22 40.9,55.44 41.27,54.7 
		41.7,54.02 42.21,53.37 42.74,52.77 43.35,52.23 43.99,51.75 44.67,51.31 45.4,50.93 46.15,50.6 46.93,50.34 47.7,50.15 48.51,50 
		48.54,50 48.66,49.98 48.84,49.97 49.08,49.94 49.36,49.91 49.7,49.87 50.05,49.82 50.44,49.78 50.84,49.75 51.23,49.71 
		51.64,49.67 52.03,49.64 52.39,49.61 52.74,49.6 53.05,49.57 53.32,49.57 53.59,49.57 53.87,49.57 54.15,49.57 54.45,49.6 
		54.72,49.6 54.99,49.61 55.25,49.61 55.51,49.61 55.73,49.63 55.95,49.63 56.13,49.64 56.29,49.64 56.43,49.66 56.52,49.66 
		56.59,49.66 56.61,49.66 56.66,49.49 56.77,49.1 56.85,48.64 56.85,48.23 56.81,47.94 56.77,47.66 56.69,47.4 56.57,47.15 
		56.44,46.92 56.27,46.71 56.12,46.51 55.92,46.32 55.7,46.15 55.5,46.02 55.25,45.89 55,45.78 54.74,45.69 54.46,45.62 
		54.18,45.58 53.9,45.54 53.23,45.53 52.53,45.54 51.79,45.56 51.03,45.61 50.28,45.66 49.53,45.73 48.77,45.81 48.04,45.89 
		47.33,46.01 46.66,46.1 46.05,46.21 45.48,46.35 44.98,46.47 44.55,46.61 44.21,46.74 43.96,46.89 45.65,41.32 46.14,41.09 
		46.66,40.87 47.19,40.69 47.75,40.55 48.32,40.43 48.91,40.33 49.53,40.25 50.16,40.19 50.83,40.15 51.49,40.12 52.19,40.1 
		52.9,40.1 53.66,40.1 54.41,40.1 55.19,40.12 56.01,40.13 56.69,40.21 57.39,40.3 58.13,40.49 58.87,40.69 59.6,40.97 60.34,41.32 
		61.03,41.71 61.69,42.17 62.29,42.7 62.83,43.27 63.29,43.91 63.65,44.6 63.91,45.38 64.07,46.21 64.08,47.11 63.94,48.07 	"/>
	<g>
		<g>
			<polyline fill="none" stroke="#FFFFFF" stroke-width="0.215" points="61.5,60.38 60.57,65.59 54.66,65.59 54.66,65.59 
				54.72,65.11 54.79,64.62 54.85,64.17 54.91,63.77 54.99,63.41 55.03,63.12 55.1,62.93 55.16,62.81 55.16,62.81 54.85,63.18 
				54.46,63.53 54.01,63.88 53.51,64.2 52.96,64.51 52.38,64.82 51.76,65.07 51.12,65.32 50.44,65.53 49.76,65.71 49.07,65.84 
				48.38,65.95 47.69,65.99 47.02,66.01 46.37,65.96 45.72,65.86 45.72,65.86 44.89,65.67 44.16,65.4 43.48,65.09 42.89,64.74 
				42.37,64.37 41.93,63.94 41.53,63.5 41.21,63.01 40.93,62.51 40.7,62.01 40.51,61.49 40.37,60.95 40.28,60.42 40.2,59.88 
				40.17,59.36 40.15,58.85 40.15,58.85 40.22,57.93 40.37,57.07 40.59,56.22 40.9,55.44 41.27,54.7 41.7,54.02 42.21,53.37 
				42.74,52.77 43.35,52.23 43.99,51.75 44.67,51.31 45.4,50.93 46.15,50.6 46.93,50.34 47.7,50.15 48.51,50 48.51,50 48.54,50 
				48.66,49.98 48.84,49.97 49.08,49.94 49.36,49.91 49.7,49.87 50.05,49.82 50.44,49.78 50.84,49.75 51.23,49.71 51.64,49.67 
				52.03,49.64 52.39,49.61 52.74,49.6 53.05,49.57 53.32,49.57 53.32,49.57 53.59,49.57 53.87,49.57 54.15,49.57 54.45,49.6 
				54.72,49.6 54.99,49.61 55.25,49.61 55.51,49.61 55.73,49.63 55.95,49.63 56.13,49.64 56.29,49.64 56.43,49.66 56.52,49.66 
				56.59,49.66 56.61,49.66 56.61,49.66 56.66,49.49 56.77,49.1 56.85,48.64 56.85,48.23 56.85,48.23 56.81,47.94 56.77,47.66 
				56.69,47.4 56.57,47.15 56.44,46.92 56.27,46.71 56.12,46.51 55.92,46.32 55.7,46.15 55.5,46.02 55.25,45.89 55,45.78 
				54.74,45.69 54.46,45.62 54.18,45.58 53.9,45.54 53.9,45.54 53.23,45.53 52.53,45.54 51.79,45.56 51.03,45.61 50.28,45.66 
				49.53,45.73 48.77,45.81 48.04,45.89 47.33,46.01 46.66,46.1 46.05,46.21 45.48,46.35 44.98,46.47 44.55,46.61 44.21,46.74 
				43.96,46.89 45.65,41.32 45.65,41.32 46.14,41.09 46.66,40.87 47.19,40.69 47.75,40.55 48.32,40.43 48.91,40.33 49.53,40.25 
				50.16,40.19 50.83,40.15 51.49,40.12 52.19,40.1 52.9,40.1 53.66,40.1 54.41,40.1 55.19,40.12 56.01,40.13 56.01,40.13 
				56.69,40.21 57.39,40.3 58.13,40.49 58.87,40.69 59.6,40.97 60.34,41.32 61.03,41.71 61.69,42.17 62.29,42.7 62.83,43.27 
				63.29,43.91 63.65,44.6 63.91,45.38 64.07,46.21 64.08,47.11 63.94,48.07 61.5,60.38 			"/>
		</g>
	</g>
	<polygon fill="#0084C4" points="55.85,54.21 55.84,54.08 55.73,53.98 55.57,53.9 55.36,53.85 55.08,53.82 54.79,53.8 54.45,53.8 
		54.08,53.8 53.7,53.84 53.32,53.88 52.93,53.93 52.56,53.99 52.2,54.07 51.85,54.13 51.56,54.21 51.29,54.3 51.15,54.33 
		50.95,54.39 50.7,54.47 50.44,54.59 50.16,54.7 49.85,54.85 49.54,55.03 49.23,55.21 48.92,55.44 48.63,55.69 48.35,55.94 
		48.1,56.25 47.87,56.56 47.7,56.9 47.58,57.27 47.5,57.67 47.47,58.47 47.58,59.09 47.78,59.59 48.07,59.95 48.43,60.19 
		48.8,60.35 49.22,60.44 49.61,60.46 50.33,60.44 50.97,60.38 51.57,60.26 52.11,60.11 52.61,59.95 53.05,59.75 53.44,59.52 
		53.78,59.28 54.1,59.03 54.37,58.75 54.59,58.49 54.79,58.21 54.95,57.93 55.08,57.67 55.18,57.41 55.26,57.16 55.34,56.8 
		55.42,56.42 55.51,56.03 55.59,55.62 55.65,55.23 55.72,54.87 55.79,54.52 	"/>
	<polygon fill="#FFFFFF" points="12.06,65.59 5.65,65.59 11.04,34.75 22.18,34.75 23.28,53.11 30.87,34.75 42.43,34.75 37.03,65.59 
		30.62,65.59 34.66,42.5 34.42,42.5 24.89,65.59 17.71,65.59 17.65,64.63 17.5,62.06 17.28,58.42 17.04,54.24 16.8,50.03 
		16.58,46.32 16.43,43.63 16.37,42.5 16.35,42.5 16.29,42.5 16.22,42.5 16.13,42.5 16.07,42.5 16.04,42.5 16.04,42.5 16.1,42.5 	"/>
	<g>
		<g>
			<polyline fill="none" stroke="#FFFFFF" stroke-width="0.215" points="12.06,65.59 5.65,65.59 11.04,34.75 22.18,34.75 
				23.28,53.11 30.87,34.75 42.43,34.75 37.03,65.59 30.62,65.59 34.66,42.5 34.42,42.5 24.89,65.59 17.71,65.59 17.71,65.59 
				17.65,64.63 17.5,62.06 17.28,58.42 17.04,54.24 16.8,50.03 16.58,46.32 16.43,43.63 16.37,42.5 16.37,42.5 16.35,42.5 
				16.29,42.5 16.22,42.5 16.13,42.5 16.07,42.5 16.04,42.5 16.04,42.5 16.1,42.5 12.06,65.59 			"/>
		</g>
	</g>
	<polygon fill="#FFFFFF" points="119.09,65.59 125.77,65.59 125.77,65.59 128.04,52.28 128.14,51.75 128.26,51.24 128.38,50.74 
		128.55,50.26 128.72,49.78 128.96,49.35 129.23,48.92 129.54,48.51 129.93,48.15 130.35,47.82 130.86,47.53 131.41,47.26 
		132.07,47.05 132.81,46.89 133.63,46.78 134.54,46.72 134.63,46.72 134.72,46.74 134.85,46.75 134.99,46.75 135.1,46.77 
		135.2,46.78 135.27,46.8 135.3,46.8 135.31,46.71 135.38,46.43 135.46,46.01 135.59,45.47 135.76,44.85 135.93,44.2 136.15,43.55 
		136.39,42.92 136.58,42.47 136.78,42.02 137,41.58 137.23,41.17 137.43,40.83 137.59,40.55 137.71,40.36 137.74,40.3 137.71,40.3 
		137.62,40.27 137.51,40.25 137.34,40.22 137.18,40.19 136.98,40.17 136.8,40.13 136.64,40.13 135.92,40.19 135.27,40.27 
		134.66,40.4 134.1,40.55 133.58,40.75 133.1,40.95 132.64,41.22 132.23,41.49 131.82,41.8 131.45,42.16 131.1,42.51 130.75,42.9 
		130.39,43.32 130.07,43.75 129.73,44.22 129.39,44.69 130.15,40.49 123.48,40.4 	"/>
	<g>
		<g>
			<polyline fill="none" stroke="#FFFFFF" stroke-width="0.215" points="119.09,65.59 125.77,65.59 125.77,65.59 128.04,52.28 
				128.04,52.28 128.14,51.75 128.26,51.24 128.38,50.74 128.55,50.26 128.72,49.78 128.96,49.35 129.23,48.92 129.54,48.51 
				129.93,48.15 130.35,47.82 130.86,47.53 131.41,47.26 132.07,47.05 132.81,46.89 133.63,46.78 134.54,46.72 134.54,46.72 
				134.63,46.72 134.72,46.74 134.85,46.75 134.99,46.75 135.1,46.77 135.2,46.78 135.27,46.8 135.3,46.8 135.3,46.8 135.31,46.71 
				135.38,46.43 135.46,46.01 135.59,45.47 135.76,44.85 135.93,44.2 136.15,43.55 136.39,42.92 136.39,42.92 136.58,42.47 
				136.78,42.02 137,41.58 137.23,41.17 137.43,40.83 137.59,40.55 137.71,40.36 137.74,40.3 137.74,40.3 137.71,40.3 137.62,40.27 
				137.51,40.25 137.34,40.22 137.18,40.19 136.98,40.17 136.8,40.13 136.64,40.13 136.64,40.13 135.92,40.19 135.27,40.27 
				134.66,40.4 134.1,40.55 133.58,40.75 133.1,40.95 132.64,41.22 132.23,41.49 131.82,41.8 131.45,42.16 131.1,42.51 130.75,42.9 
				130.39,43.32 130.07,43.75 129.73,44.22 129.39,44.69 130.15,40.49 123.48,40.4 119.09,65.59 119.09,65.59 			"/>
		</g>
	</g>
	<polygon fill="#FFFFFF" points="147.95,40.13 148.68,40.15 149.4,40.21 150.11,40.27 150.8,40.36 151.45,40.5 152.09,40.66 
		152.7,40.84 153.3,41.06 153.87,41.3 154.42,41.57 154.96,41.85 155.45,42.16 155.94,42.5 156.4,42.85 156.83,43.24 157.23,43.64 
		157.63,44.07 157.99,44.53 158.31,44.99 158.62,45.48 158.92,45.98 159.16,46.52 159.41,47.06 159.61,47.64 159.79,48.22 
		159.94,48.82 160.07,49.44 160.17,50.08 160.23,50.72 160.26,51.39 160.28,52.09 160.26,52.77 160.22,53.6 160.12,54.41 160,55.18 
		159.86,55.93 159.69,56.65 159.47,57.34 159.25,58.01 159.01,58.65 158.71,59.25 158.42,59.85 158.07,60.41 157.73,60.92 
		157.35,61.43 156.94,61.91 156.52,62.36 156.07,62.78 155.61,63.18 155.14,63.55 154.63,63.89 154.12,64.2 153.58,64.5 
		153.02,64.76 152.47,65.01 151.88,65.22 151.29,65.42 150.67,65.58 150.04,65.71 149.42,65.82 148.77,65.9 148.11,65.98 
		147.44,66.01 146.76,66.02 146.09,66.01 145.43,65.98 144.78,65.9 144.14,65.81 143.52,65.7 142.89,65.56 142.31,65.4 141.73,65.2 
		141.16,64.99 140.62,64.74 140.09,64.48 139.59,64.19 139.1,63.88 138.64,63.53 138.18,63.18 137.76,62.78 137.36,62.37 
		136.97,61.93 136.63,61.46 136.28,60.98 135.99,60.47 135.69,59.93 135.45,59.37 135.22,58.8 135.02,58.2 134.83,57.55 
		134.69,56.9 134.57,56.22 134.49,55.52 134.45,54.8 134.43,54.05 134.45,53.28 134.49,52.49 134.57,51.73 134.69,51 134.83,50.29 
		135,49.61 135.2,48.93 135.41,48.3 135.65,47.68 135.92,47.06 136.21,46.49 136.55,45.95 136.89,45.41 137.25,44.92 137.63,44.43 
		138.05,43.98 138.48,43.55 138.93,43.13 139.41,42.76 139.9,42.4 140.4,42.07 140.94,41.77 141.5,41.48 142.08,41.23 142.66,41 
		143.26,40.81 143.88,40.63 144.52,40.49 145.18,40.35 145.85,40.27 146.54,40.19 147.24,40.15 	"/>
	<g>
		<g>
			<polyline fill="none" stroke="#FFFFFF" stroke-width="0.215" points="147.95,40.13 147.95,40.13 148.68,40.15 149.4,40.21 
				150.11,40.27 150.8,40.36 151.45,40.5 152.09,40.66 152.7,40.84 153.3,41.06 153.87,41.3 154.42,41.57 154.96,41.85 
				155.45,42.16 155.94,42.5 156.4,42.85 156.83,43.24 157.23,43.64 157.63,44.07 157.99,44.53 158.31,44.99 158.62,45.48 
				158.92,45.98 159.16,46.52 159.41,47.06 159.61,47.64 159.79,48.22 159.94,48.82 160.07,49.44 160.17,50.08 160.23,50.72 
				160.26,51.39 160.28,52.09 160.26,52.77 160.26,52.77 160.22,53.6 160.12,54.41 160,55.18 159.86,55.93 159.69,56.65 
				159.47,57.34 159.25,58.01 159.01,58.65 158.71,59.25 158.42,59.85 158.07,60.41 157.73,60.92 157.35,61.43 156.94,61.91 
				156.52,62.36 156.07,62.78 155.61,63.18 155.14,63.55 154.63,63.89 154.12,64.2 153.58,64.5 153.02,64.76 152.47,65.01 
				151.88,65.22 151.29,65.42 150.67,65.58 150.04,65.71 149.42,65.82 148.77,65.9 148.11,65.98 147.44,66.01 146.76,66.02 
				146.76,66.02 146.09,66.01 145.43,65.98 144.78,65.9 144.14,65.81 143.52,65.7 142.89,65.56 142.31,65.4 141.73,65.2 
				141.16,64.99 140.62,64.74 140.09,64.48 139.59,64.19 139.1,63.88 138.64,63.53 138.18,63.18 137.76,62.78 137.36,62.37 
				136.97,61.93 136.63,61.46 136.28,60.98 135.99,60.47 135.69,59.93 135.45,59.37 135.22,58.8 135.02,58.2 134.83,57.55 
				134.69,56.9 134.57,56.22 134.49,55.52 134.45,54.8 134.43,54.05 134.45,53.28 134.45,53.28 134.49,52.49 134.57,51.73 
				134.69,51 134.83,50.29 135,49.61 135.2,48.93 135.41,48.3 135.65,47.68 135.92,47.06 136.21,46.49 136.55,45.95 136.89,45.41 
				137.25,44.92 137.63,44.43 138.05,43.98 138.48,43.55 138.93,43.13 139.41,42.76 139.9,42.4 140.4,42.07 140.94,41.77 
				141.5,41.48 142.08,41.23 142.66,41 143.26,40.81 143.88,40.63 144.52,40.49 145.18,40.35 145.85,40.27 146.54,40.19 
				147.24,40.15 147.95,40.13 			"/>
		</g>
	</g>
	<polygon fill="#FFFFFF" points="157.74,64.34 159.67,64.34 159.67,64.58 158.92,64.58 158.92,66.18 158.5,66.18 158.5,64.58 
		157.74,64.58 	"/>
	<g>
		<g>
			<polyline fill="none" stroke="#FFFFFF" stroke-width="0.215" points="157.74,64.34 159.67,64.34 159.67,64.58 158.92,64.58 
				158.92,66.18 158.5,66.18 158.5,64.58 157.74,64.58 157.74,64.34 			"/>
		</g>
	</g>
	<polygon fill="#FFFFFF" points="159.92,64.34 160.51,64.34 161.2,65.76 161.2,65.76 161.87,64.34 162.46,64.34 162.46,66.18 
		162.04,66.18 162.04,64.76 162.04,64.76 161.36,66.18 161.02,66.18 160.35,64.76 160.35,64.76 160.35,66.18 159.92,66.18 	"/>
	<g>
		<g>
			<polyline fill="none" stroke="#FFFFFF" stroke-width="0.215" points="159.92,64.34 160.51,64.34 161.2,65.76 161.2,65.76 
				161.87,64.34 162.46,64.34 162.46,66.18 162.04,66.18 162.04,64.76 162.04,64.76 161.36,66.18 161.02,66.18 160.35,64.76 
				160.35,64.76 160.35,66.18 159.92,66.18 159.92,64.34 			"/>
		</g>
	</g>
	<polygon fill="#EC1C2E" points="142.72,52.18 142.63,53.09 142.57,53.95 142.57,54.72 142.63,55.44 142.72,56.09 142.86,56.67 
		143.05,57.19 143.28,57.67 143.56,58.08 143.87,58.42 144.21,58.72 144.59,58.94 145,59.13 145.46,59.25 145.93,59.33 
		146.43,59.36 146.99,59.34 147.53,59.28 148.04,59.16 148.54,58.97 149,58.75 149.43,58.46 149.85,58.11 150.24,57.7 150.58,57.24 
		150.91,56.71 151.23,56.13 151.49,55.49 151.73,54.78 151.94,54.02 152.11,53.17 152.25,52.28 152.34,51.58 152.39,50.9 
		152.39,50.25 152.34,49.63 152.25,49.05 152.12,48.5 151.94,47.99 151.73,47.51 151.46,47.08 151.17,46.72 150.83,46.4 
		150.45,46.13 150.02,45.92 149.57,45.79 149.08,45.7 148.54,45.7 147.86,45.76 147.24,45.87 146.67,46.07 146.12,46.32 
		145.63,46.64 145.18,47 144.76,47.42 144.41,47.87 144.07,48.36 143.77,48.89 143.51,49.41 143.29,49.97 143.09,50.53 
		142.94,51.08 142.81,51.64 	"/>
</g>
<g>
	<rect x="227.89" y="85.6" fill="#F7B600" width="160.57" height="14.4"/>
	<rect x="227.89" fill="#1A1F71" width="160.57" height="14.4"/>
	<path fill="#1A1F71" d="M292.17,30.26l-16.59,39.57h-10.82l-8.16-31.58c-0.49-1.94-0.93-2.66-2.43-3.48
		c-2.46-1.34-6.53-2.59-10.1-3.37l0.24-1.15h17.42c2.22,0,4.21,1.48,4.72,4.03l4.31,22.9l10.65-26.93h10.76V30.26z M334.57,56.91
		c0.05-10.44-14.44-11.02-14.34-15.69c0.03-1.42,1.38-2.93,4.34-3.31c1.47-0.19,5.51-0.34,10.1,1.77l1.79-8.39
		c-2.46-0.89-5.63-1.75-9.58-1.75c-10.12,0-17.24,5.38-17.3,13.08c-0.06,5.7,5.09,8.87,8.96,10.77c3.99,1.94,5.33,3.18,5.31,4.92
		c-0.03,2.65-3.18,3.83-6.12,3.87c-5.15,0.08-8.13-1.39-10.51-2.5l-1.86,8.67c2.4,1.1,6.81,2.05,11.38,2.1
		C327.5,70.45,334.53,65.14,334.57,56.91 M361.29,69.83h9.47l-8.27-39.57h-8.73c-1.97,0-3.63,1.14-4.36,2.9l-15.36,36.67h10.75
		l2.13-5.91h13.13L361.29,69.83z M349.86,55.81l5.39-14.86l3.1,14.86H349.86z M306.79,30.26l-8.46,39.57h-10.24l8.46-39.57
		C296.55,30.26,306.79,30.26,306.79,30.26z"/>
</g>
<g>
	<polygon fill="#005A9C" points="453.43,0 453.43,100 613.25,100 613.25,0 453.43,0 	"/>
	<polygon fill="#FFFFFF" points="611.38,1.87 611.38,98.13 455.3,98.13 455.3,1.87 611.38,1.87 	"/>
	<polygon fill="#005A9C" points="606.41,93.94 606.41,6.54 459.95,6.54 459.95,93.94 606.41,93.94 	"/>
	<path fill="#FBAA29" d="M500.03,59.34c15.53-6.65,37.31-12.69,66.17-6.65l0.32-7.32c-30.45-3.32-52.29,6.37-66.47,13.24v0.73l0,0
		L500.03,59.34z"/>
	<polygon fill="#FFFFFF" points="472,64.72 486.63,64.72 486.63,69.13 477.54,69.13 477.48,73.19 486.54,73.19 486.54,77.42 
		477.45,77.42 477.48,81.49 486.45,81.49 486.45,85.9 472.01,85.9 472,64.72 	"/>
	<polygon fill="#FFFFFF" points="490.31,62.94 495.64,62.94 495.65,85.9 490.32,85.9 490.31,62.94 	"/>
	<path fill="#FFFFFF" d="M513.95,84.15c-2.01,1.53-4.48,2.34-7.01,2.3c-5.6,0-8.14-3.98-8.14-7.93c-0.13-4.62,3.52-8.47,8.14-8.6
		c0.05,0,0.1,0,0.16,0c5.88,0,7.69,4.16,7.69,9.46h-10.63c0,1.2,0.77,3.21,3.71,3.21c1.58,0.01,3.12-0.53,4.35-1.53l1.78,3.09l0,0
		H513.95z M510.03,76.25c0-1.59-0.77-3.03-2.56-3.03c-1.67,0.14-3.03,1.39-3.31,3.04H510L510.03,76.25z"/>
	<path fill="#FFFFFF" d="M530.98,84.85c-1.73,0.99-3.67,1.53-5.66,1.59c-4.89,0-8.41-2.82-8.41-7.9s3.49-8.62,8.75-8.62
		c1.83,0,3.63,0.47,5.24,1.35l-1.71,3.49c-0.79-0.37-1.64-0.58-2.51-0.62c-2.67,0-4.44,1.59-4.44,4.13
		c-0.02,2.16,1.7,3.92,3.86,3.95c0.04,0,0.08,0,0.12,0c1.01-0.06,2-0.36,2.88-0.85l1.9,3.52l0,0L530.98,84.85z"/>
	<path fill="#FFFFFF" d="M532.94,70.47h2.41v-5.24h5.13l-0.12,5.24h4.37l-0.09,3.86h-4.37c0,2.14-0.15,4.41-0.15,5.72
		c0,1.32,0.33,1.96,1.53,1.96c0.71-0.06,1.38-0.31,1.96-0.73l1.16,3.61c-1.59,0.97-3.4,1.5-5.26,1.53c-4.31,0-4.53-2.73-4.53-6.28
		c0-1.9,0.15-3.79,0.15-5.84h-2.3l0.12-3.85l0,0V70.47z"/>
	<path fill="#FFFFFF" d="M547.46,70.47h5.33v2.15h0.06c0.79-1.32,1.84-2.56,3.92-2.56c0.57,0,1.15,0.06,1.71,0.18l-0.7,5.26
		c-0.61-0.2-1.25-0.3-1.9-0.31c-1.29,0.02-2.48,0.7-3.15,1.8l-0.09,8.91h-5.32l0.12-15.43l0,0L547.46,70.47z"/>
	<path fill="#FFFFFF" d="M568.16,69.92c5.7,0,8.64,3.61,8.64,8.26c0,4.65-2.94,8.27-8.64,8.27s-8.63-3.58-8.63-8.27
		S562.47,69.92,568.16,69.92L568.16,69.92L568.16,69.92z M568.16,82.41c2.56,0,3.31-2.2,3.31-4.23c0-2.02-0.77-4.22-3.31-4.22
		s-3.31,2.2-3.31,4.22C564.85,80.2,565.62,82.41,568.16,82.41L568.16,82.41z"/>
	<path fill="#FFFFFF" d="M579.69,70.47h5.32v1.71c1.32-1.34,3.1-2.14,4.99-2.24c3.27,0,5.05,1.8,5.05,6.03c0,3.15,0,6.55-0.06,9.95
		h-5.32c0-2.97,0.06-5.98,0.06-9.15c0-1.26-0.33-2.24-1.93-2.24c-1.06,0.16-2.03,0.65-2.78,1.41v9.98h-5.42l0.12-15.43l0,0
		L579.69,70.47z"/>
	<polygon fill="#FFFFFF" points="515.81,38.69 522.55,16.5 528.55,16.5 521.82,38.69 515.81,38.69 	"/>
	<path fill="#FFFFFF" d="M513.13,16.5l-5.4,9.4c-1.38,2.47-2.18,3.71-2.56,5.26h-0.09c0.09-1.97-0.18-4.4-0.21-5.77l-0.6-8.9h-10.11
		l-0.1,0.6c2.56,0,4.13,1.31,4.56,3.97l1.97,17.61h6.22l12.57-22.21h-6.27L513.13,16.5z"/>
	<path fill="#FFFFFF" d="M559.83,38.69l-0.15-3.3h-7.52l-1.53,3.31h-6.52l11.81-22.14h8.02l2,22.14h-6.11L559.83,38.69z
		 M559.13,25.64c-0.09-1.74-0.09-3.48,0-5.21h-0.09c-0.37,1.1-1.94,4.41-2.62,6.04l-2.24,4.86h5.26L559.13,25.64L559.13,25.64z"/>
	<path fill="#FFFFFF" d="M534.86,39.3c-3.2,0.03-6.35-0.86-9.06-2.56l2.86-4.37c1.8,1.01,3.22,2.17,6.48,2.17
		c1.04,0.12,2.05-0.35,2.63-1.22c0.85-1.44-0.19-2.22-2.56-3.55l-1.14-0.73c-3.48-2.37-4.98-4.63-3.35-8.54
		c1.05-2.52,3.81-4.43,8.37-4.43c2.82,0.06,5.55,1,7.81,2.69l-3.29,3.85c-1.71-1.36-3.07-2.04-4.66-2.04
		c-1-0.11-1.98,0.33-2.56,1.14c-0.62,1.24,0.21,2.08,2.02,3.22l1.38,0.85c4.22,2.67,5.23,5.45,4.17,8.06
		c-1.82,4.49-5.38,5.49-9.11,5.49l0,0L534.86,39.3z"/>
</g>
<g>
	<polygon fill="#FBB131" points="791.96,100 794.54,99.94 797.09,99.75 799.58,99.43 802.06,98.99 804.47,98.43 806.85,97.75 
		809.18,96.97 811.46,96.07 813.68,95.06 815.84,93.96 817.93,92.75 819.98,91.45 821.93,90.05 823.82,88.57 825.64,87 
		827.38,85.33 829.05,83.59 830.62,81.77 832.1,79.88 833.5,77.92 834.79,75.89 836.02,73.79 837.11,71.63 838.13,69.4 
		839.01,67.13 839.81,64.8 840.49,62.43 841.04,60.01 841.48,57.53 841.8,55.03 841.99,52.49 842.05,49.91 841.99,47.35 
		841.8,44.81 841.48,42.31 841.04,39.87 840.49,37.46 839.81,35.1 839.01,32.77 838.13,30.51 837.11,28.3 836.02,26.14 
		834.79,24.07 833.5,22.02 832.1,20.07 830.62,18.2 829.05,16.37 827.38,14.64 825.64,12.98 823.82,11.41 821.93,9.93 819.98,8.53 
		817.93,7.24 815.84,6.04 813.68,4.94 811.46,3.93 809.18,3.04 806.85,2.25 804.47,1.57 802.06,1.01 799.58,0.57 797.09,0.25 
		794.54,0.06 791.96,0 789.39,0.06 786.84,0.25 784.35,0.57 781.89,1.01 779.48,1.57 777.1,2.25 774.79,3.04 772.51,3.93 
		770.3,4.94 768.16,6.04 766.07,7.24 764.04,8.53 762.08,9.93 760.2,11.41 758.4,12.98 756.65,14.64 755,16.37 753.43,18.2 
		751.95,20.07 750.56,22.02 749.27,24.07 748.07,26.14 746.96,28.3 745.96,30.51 745.07,32.77 744.29,35.1 743.62,37.46 
		743.07,39.87 742.62,42.31 742.3,44.81 742.11,47.35 742.05,49.91 742.11,52.49 742.3,55.03 742.62,57.53 743.07,60.01 
		743.62,62.43 744.29,64.8 745.07,67.13 745.96,69.4 746.96,71.63 748.07,73.79 749.27,75.89 750.56,77.92 751.95,79.88 
		753.43,81.77 755,83.59 756.65,85.33 758.4,87 760.2,88.57 762.08,90.05 764.04,91.45 766.07,92.75 768.16,93.96 770.3,95.06 
		772.51,96.07 774.79,96.97 777.1,97.75 779.48,98.43 781.89,98.99 784.35,99.43 786.84,99.75 789.39,99.94 	"/>
	<polygon fill="#EC1C2E" points="725.06,100 727.63,99.94 730.17,99.75 732.67,99.43 735.13,98.99 737.54,98.43 739.92,97.75 
		742.23,96.97 744.51,96.07 746.72,95.06 748.86,93.96 750.95,92.75 752.98,91.45 754.94,90.05 756.82,88.57 758.63,87 
		760.37,85.33 762.02,83.59 763.59,81.77 765.07,79.88 766.46,77.92 767.75,75.89 768.95,73.79 770.06,71.63 771.06,69.4 
		771.95,67.13 772.73,64.8 773.4,62.43 773.96,60.01 774.39,57.53 774.72,55.03 774.91,52.49 774.97,49.91 774.91,47.35 
		774.72,44.81 774.39,42.31 773.96,39.87 773.4,37.46 772.73,35.1 771.95,32.77 771.06,30.51 770.06,28.3 768.95,26.14 
		767.75,24.07 766.46,22.02 765.07,20.07 763.59,18.2 762.02,16.37 760.37,14.64 758.63,12.98 756.82,11.41 754.94,9.93 
		752.98,8.53 750.95,7.24 748.86,6.04 746.72,4.94 744.51,3.93 742.23,3.04 739.92,2.25 737.54,1.57 735.13,1.01 732.67,0.57 
		730.17,0.25 727.63,0.06 725.06,0 722.48,0.06 719.93,0.25 717.44,0.57 714.96,1.01 712.55,1.57 710.17,2.25 707.84,3.04 
		705.57,3.93 703.34,4.94 701.18,6.04 699.09,7.24 697.04,8.53 695.09,9.93 693.2,11.41 691.38,12.98 689.64,14.64 687.97,16.37 
		686.4,18.2 684.92,20.07 683.52,22.02 682.23,24.07 681,26.14 679.91,28.3 678.89,30.51 678.01,32.77 677.21,35.1 676.53,37.46 
		675.98,39.87 675.54,42.31 675.22,44.81 675.03,47.35 674.97,49.91 675.03,52.49 675.22,55.03 675.54,57.53 675.98,60.01 
		676.53,62.43 677.21,64.8 678.01,67.13 678.89,69.4 679.91,71.63 681,73.79 682.23,75.89 683.52,77.92 684.92,79.88 686.4,81.77 
		687.97,83.59 689.64,85.33 691.38,87 693.2,88.57 695.09,90.05 697.04,91.45 699.09,92.75 701.18,93.96 703.34,95.06 705.57,96.07 
		707.84,96.97 710.17,97.75 712.55,98.43 714.96,98.99 717.44,99.43 719.93,99.75 722.48,99.94 	"/>
	<polygon fill="#FBB131" points="752.66,19.17 779.22,19.17 779.22,16.46 754.95,16.46 	"/>
	<polygon fill="#FBB131" points="748.67,25.22 779.22,25.22 779.22,22.49 750.28,22.49 	"/>
	<polygon fill="#FBB131" points="745.71,31.23 779.22,31.23 779.22,28.52 746.89,28.52 	"/>
	<polygon fill="#FBB131" points="743.67,37.27 779.22,37.27 779.22,34.56 744.51,34.56 	"/>
	<polygon fill="#FBB131" points="744.85,66.46 779.31,66.46 779.31,63.74 744.01,63.74 	"/>
	<polygon fill="#FBB131" points="747.4,72.49 779.31,72.49 779.31,69.78 746.13,69.78 	"/>
	<polygon fill="#FBB131" points="750.97,78.51 779.31,78.51 779.31,75.79 749.27,75.79 	"/>
	<polygon fill="#FBB131" points="755.9,84.56 779.31,84.56 779.31,81.82 753.52,81.82 	"/>
	<polygon fill="#FBB131" points="742.47,43.3 779.22,43.3 779.22,40.58 742.99,40.58 	"/>
	<polygon fill="#FBB131" points="764.87,60.43 778.88,60.43 778.88,57.72 765.37,57.72 	"/>
	<polygon fill="#FBB131" points="765.99,54.41 778.88,54.41 778.88,51.68 766.49,51.68 	"/>
	<polygon fill="#FBB131" points="741.54,51.68 745.19,51.68 745.19,54.41 741.71,54.41 	"/>
	<polygon fill="#FFFFFF" points="734.74,48.39 734.51,48.37 734.27,48.34 734.05,48.31 733.83,48.27 733.64,48.24 733.42,48.2 
		733.2,48.17 732.96,48.14 732.72,48.1 732.46,48.09 732.14,48.07 731.83,48.05 731.47,48.05 731.09,48.07 730.65,48.1 
		730.16,48.14 729.82,48.18 729.5,48.24 729.21,48.34 728.96,48.44 728.73,48.56 728.51,48.69 728.33,48.86 728.18,49.02 
		728.08,49.2 728,49.38 727.97,49.58 727.97,49.79 728.02,50.01 728.08,50.23 728.22,50.45 728.38,50.67 728.73,50.99 729.12,51.24 
		729.6,51.46 730.11,51.65 730.65,51.82 731.2,51.99 731.76,52.2 732.3,52.42 732.8,52.7 733.28,53.06 733.7,53.49 734.05,54.01 
		734.32,54.65 734.49,55.41 734.55,56.32 734.49,57.38 734.38,58.18 734.17,58.87 733.9,59.5 733.56,60.06 733.18,60.55 
		732.74,60.98 732.27,61.34 731.75,61.66 731.2,61.92 730.65,62.13 730.07,62.3 729.48,62.44 728.9,62.54 728.35,62.59 727.8,62.63 
		727.28,62.65 726.54,62.65 725.88,62.63 725.28,62.63 724.73,62.6 724.22,62.59 723.77,62.56 723.36,62.52 722.97,62.47 
		722.62,62.44 722.29,62.37 721.97,62.32 721.69,62.24 721.41,62.17 721.14,62.07 720.86,61.97 720.57,61.86 721.33,58.13 
		721.49,58.18 721.67,58.22 721.91,58.29 722.19,58.35 722.5,58.43 722.84,58.49 723.2,58.57 723.61,58.65 724.04,58.71 
		724.48,58.78 724.93,58.83 725.4,58.88 725.89,58.9 726.38,58.92 726.87,58.92 727.36,58.9 727.85,58.79 728.24,58.66 
		728.54,58.48 728.77,58.24 728.95,58 729.07,57.74 729.17,57.47 729.23,57.22 729.26,56.73 729.11,56.3 728.82,55.96 728.4,55.68 
		727.89,55.42 727.31,55.17 726.65,54.93 725.99,54.67 725.31,54.37 724.68,54.01 724.08,53.57 723.55,53.05 723.12,52.4 
		722.82,51.65 722.67,50.73 722.68,49.66 722.76,49 722.89,48.37 723.06,47.8 723.26,47.26 723.53,46.75 723.83,46.31 724.18,45.9 
		724.6,45.52 725.09,45.21 725.64,44.94 726.24,44.67 726.92,44.5 727.67,44.34 728.51,44.23 729.42,44.15 730.41,44.14 
		731.04,44.14 731.61,44.15 732.13,44.17 732.6,44.19 733.02,44.23 733.42,44.26 733.75,44.29 734.05,44.33 734.34,44.36 
		734.58,44.41 734.79,44.44 734.99,44.48 735.17,44.51 735.32,44.53 735.47,44.56 735.61,44.58 	"/>
	<g>
		<g>
			<polyline fill="none" stroke="#FFFFFF" stroke-width="0.215" points="734.74,48.39 734.74,48.39 734.51,48.37 734.27,48.34 
				734.05,48.31 733.83,48.27 733.64,48.24 733.42,48.2 733.2,48.17 732.96,48.14 732.72,48.1 732.46,48.09 732.14,48.07 
				731.83,48.05 731.47,48.05 731.09,48.07 730.65,48.1 730.16,48.14 730.16,48.14 729.82,48.18 729.5,48.24 729.21,48.34 
				728.96,48.44 728.73,48.56 728.51,48.69 728.33,48.86 728.18,49.02 728.08,49.2 728,49.38 727.97,49.58 727.97,49.79 
				728.02,50.01 728.08,50.23 728.22,50.45 728.38,50.67 728.38,50.67 728.73,50.99 729.12,51.24 729.6,51.46 730.11,51.65 
				730.65,51.82 731.2,51.99 731.76,52.2 732.3,52.42 732.8,52.7 733.28,53.06 733.7,53.49 734.05,54.01 734.32,54.65 734.49,55.41 
				734.55,56.32 734.49,57.38 734.49,57.38 734.38,58.18 734.17,58.87 733.9,59.5 733.56,60.06 733.18,60.55 732.74,60.98 
				732.27,61.34 731.75,61.66 731.2,61.92 730.65,62.13 730.07,62.3 729.48,62.44 728.9,62.54 728.35,62.59 727.8,62.63 
				727.28,62.65 727.28,62.65 726.54,62.65 725.88,62.63 725.28,62.63 724.73,62.6 724.22,62.59 723.77,62.56 723.36,62.52 
				722.97,62.47 722.62,62.44 722.29,62.37 721.97,62.32 721.69,62.24 721.41,62.17 721.14,62.07 720.86,61.97 720.57,61.86 
				721.33,58.13 721.33,58.13 721.49,58.18 721.67,58.22 721.91,58.29 722.19,58.35 722.5,58.43 722.84,58.49 723.2,58.57 
				723.61,58.65 724.04,58.71 724.48,58.78 724.93,58.83 725.4,58.88 725.89,58.9 726.38,58.92 726.87,58.92 727.36,58.9 
				727.36,58.9 727.85,58.79 728.24,58.66 728.54,58.48 728.77,58.24 728.95,58 729.07,57.74 729.17,57.47 729.23,57.22 
				729.23,57.22 729.26,56.73 729.11,56.3 728.82,55.96 728.4,55.68 727.89,55.42 727.31,55.17 726.65,54.93 725.99,54.67 
				725.31,54.37 724.68,54.01 724.08,53.57 723.55,53.05 723.12,52.4 722.82,51.65 722.67,50.73 722.68,49.66 722.68,49.66 
				722.76,49 722.89,48.37 723.06,47.8 723.26,47.26 723.53,46.75 723.83,46.31 724.18,45.9 724.6,45.52 725.09,45.21 725.64,44.94 
				726.24,44.67 726.92,44.5 727.67,44.34 728.51,44.23 729.42,44.15 730.41,44.14 730.41,44.14 731.04,44.14 731.61,44.15 
				732.13,44.17 732.6,44.19 733.02,44.23 733.42,44.26 733.75,44.29 734.05,44.33 734.34,44.36 734.58,44.41 734.79,44.44 
				734.99,44.48 735.17,44.51 735.32,44.53 735.47,44.56 735.61,44.58 734.74,48.39 			"/>
		</g>
	</g>
	<polygon fill="#FFFFFF" points="738.74,40.41 743.41,40.41 742.72,44.5 745.54,44.5 744.93,48.31 741.96,48.22 740.34,57.63 
		740.33,57.97 740.41,58.26 740.58,58.48 740.8,58.66 741.1,58.78 741.44,58.88 741.81,58.95 742.22,58.98 742.58,58.96 
		742.93,58.93 743.23,58.88 743.49,58.81 743.71,58.74 743.87,58.7 743.97,58.66 744.01,58.65 743.41,61.78 743.3,61.86 
		743.18,61.94 743.07,62 742.94,62.07 742.83,62.12 742.69,62.17 742.53,62.22 742.39,62.27 742.22,62.32 742.05,62.35 
		741.84,62.39 741.65,62.43 741.43,62.46 741.18,62.49 740.9,62.52 740.61,62.56 739.34,62.56 738.66,62.51 738.06,62.44 
		737.53,62.34 737.07,62.22 736.68,62.07 736.36,61.9 736.08,61.7 735.86,61.48 735.69,61.25 735.57,60.95 735.48,60.67 
		735.43,60.35 735.42,59.99 735.42,59.62 735.47,59.23 735.52,58.81 	"/>
	<g>
		<g>
			<polyline fill="none" stroke="#FFFFFF" stroke-width="0.215" points="738.74,40.41 743.41,40.41 742.72,44.5 745.54,44.5 
				744.93,48.31 741.96,48.22 740.34,57.63 740.34,57.63 740.33,57.97 740.41,58.26 740.58,58.48 740.8,58.66 741.1,58.78 
				741.44,58.88 741.81,58.95 742.22,58.98 742.22,58.98 742.58,58.96 742.93,58.93 743.23,58.88 743.49,58.81 743.71,58.74 
				743.87,58.7 743.97,58.66 744.01,58.65 743.41,61.78 743.41,61.78 743.3,61.86 743.18,61.94 743.07,62 742.94,62.07 
				742.83,62.12 742.69,62.17 742.53,62.22 742.39,62.27 742.22,62.32 742.05,62.35 741.84,62.39 741.65,62.43 741.43,62.46 
				741.18,62.49 740.9,62.52 740.61,62.56 739.34,62.56 739.34,62.56 738.66,62.51 738.06,62.44 737.53,62.34 737.07,62.22 
				736.68,62.07 736.36,61.9 736.08,61.7 735.86,61.48 735.69,61.25 735.57,60.95 735.48,60.67 735.43,60.35 735.42,59.99 
				735.42,59.62 735.47,59.23 735.52,58.81 738.74,40.41 			"/>
		</g>
	</g>
	<polygon fill="#FFFFFF" points="749.27,54.67 749.22,54.95 749.2,55.25 749.24,55.58 749.3,55.9 749.41,56.21 749.55,56.52 
		749.74,56.84 749.94,57.12 750.18,57.41 750.43,57.66 750.7,57.92 751,58.12 751.3,58.31 751.65,58.46 751.98,58.57 752.32,58.65 
		752.76,58.71 753.18,58.76 753.62,58.81 754.06,58.85 754.5,58.87 754.95,58.87 755.39,58.85 755.85,58.81 756.3,58.74 
		756.76,58.66 757.23,58.56 757.69,58.41 758.16,58.22 758.65,58.02 759.12,57.75 759.61,57.47 758.93,61.61 758.67,61.75 
		758.4,61.88 758.12,61.99 757.87,62.08 757.61,62.17 757.35,62.25 757.08,62.32 756.79,62.37 756.48,62.43 756.15,62.46 
		755.8,62.49 755.41,62.52 754.97,62.54 754.51,62.54 753.99,62.56 753.43,62.56 752.61,62.54 751.76,62.46 750.92,62.34 
		750.07,62.13 749.25,61.88 748.45,61.56 747.7,61.14 746.99,60.65 746.33,60.08 745.76,59.39 745.27,58.62 744.86,57.72 
		744.58,56.73 744.39,55.59 744.34,54.34 744.42,52.96 744.5,52.42 744.59,51.8 744.73,51.14 744.91,50.43 745.16,49.71 
		745.47,48.98 745.86,48.24 746.33,47.53 746.88,46.86 747.53,46.21 748.28,45.63 749.11,45.13 750.09,44.72 751.19,44.41 
		752.4,44.2 753.77,44.14 754.43,44.15 755.12,44.23 755.82,44.34 756.51,44.51 757.17,44.77 757.83,45.07 758.45,45.47 759,45.95 
		759.5,46.51 759.93,47.19 760.26,47.96 760.5,48.86 760.64,49.87 760.65,51.02 760.54,52.3 760.29,53.72 760.2,54.75 747.9,54.75 
		748.67,51.43 756.07,51.43 756.1,51 756.08,50.6 756.05,50.23 755.98,49.9 755.86,49.57 755.74,49.28 755.58,49.03 755.41,48.8 
		755.2,48.59 754.98,48.42 754.73,48.27 754.48,48.14 754.21,48.04 753.94,47.96 753.65,47.92 753.35,47.88 753.03,47.9 
		752.72,47.95 752.44,48.02 752.15,48.12 751.87,48.26 751.61,48.4 751.36,48.59 751.14,48.8 750.92,49.03 750.72,49.28 
		750.53,49.55 750.38,49.84 750.23,50.15 750.11,50.48 750.01,50.81 749.94,51.17 	"/>
	<g>
		<g>
			<polyline fill="none" stroke="#FFFFFF" stroke-width="0.215" points="749.27,54.67 749.27,54.67 749.22,54.95 749.2,55.25 
				749.24,55.58 749.3,55.9 749.41,56.21 749.55,56.52 749.74,56.84 749.94,57.12 750.18,57.41 750.43,57.66 750.7,57.92 751,58.12 
				751.3,58.31 751.65,58.46 751.98,58.57 752.32,58.65 752.32,58.65 752.76,58.71 753.18,58.76 753.62,58.81 754.06,58.85 
				754.5,58.87 754.95,58.87 755.39,58.85 755.85,58.81 756.3,58.74 756.76,58.66 757.23,58.56 757.69,58.41 758.16,58.22 
				758.65,58.02 759.12,57.75 759.61,57.47 758.93,61.61 758.93,61.61 758.67,61.75 758.4,61.88 758.12,61.99 757.87,62.08 
				757.61,62.17 757.35,62.25 757.08,62.32 756.79,62.37 756.48,62.43 756.15,62.46 755.8,62.49 755.41,62.52 754.97,62.54 
				754.51,62.54 753.99,62.56 753.43,62.56 753.43,62.56 752.61,62.54 751.76,62.46 750.92,62.34 750.07,62.13 749.25,61.88 
				748.45,61.56 747.7,61.14 746.99,60.65 746.33,60.08 745.76,59.39 745.27,58.62 744.86,57.72 744.58,56.73 744.39,55.59 
				744.34,54.34 744.42,52.96 744.42,52.96 744.5,52.42 744.59,51.8 744.73,51.14 744.91,50.43 745.16,49.71 745.47,48.98 
				745.86,48.24 746.33,47.53 746.88,46.86 747.53,46.21 748.28,45.63 749.11,45.13 750.09,44.72 751.19,44.41 752.4,44.2 
				753.77,44.14 753.77,44.14 754.43,44.15 755.12,44.23 755.82,44.34 756.51,44.51 757.17,44.77 757.83,45.07 758.45,45.47 
				759,45.95 759.5,46.51 759.93,47.19 760.26,47.96 760.5,48.86 760.64,49.87 760.65,51.02 760.54,52.3 760.29,53.72 760.2,54.75 
				747.9,54.75 748.67,51.43 756.07,51.43 756.07,51.43 756.1,51 756.08,50.6 756.05,50.23 755.98,49.9 755.86,49.57 755.74,49.28 
				755.58,49.03 755.41,48.8 755.2,48.59 754.98,48.42 754.73,48.27 754.48,48.14 754.21,48.04 753.94,47.96 753.65,47.92 
				753.35,47.88 753.35,47.88 753.03,47.9 752.72,47.95 752.44,48.02 752.15,48.12 751.87,48.26 751.61,48.4 751.36,48.59 
				751.14,48.8 750.92,49.03 750.72,49.28 750.53,49.55 750.38,49.84 750.23,50.15 750.11,50.48 750.01,50.81 749.94,51.17 
				749.27,54.67 			"/>
		</g>
	</g>
	<polygon fill="#FFFFFF" points="789.49,45.51 789.27,45.38 789.06,45.29 788.82,45.16 788.56,45.05 788.31,44.95 788.03,44.85 
		787.74,44.75 787.44,44.64 787.11,44.56 786.8,44.5 786.44,44.42 786.09,44.37 785.7,44.34 785.32,44.31 784.91,44.31 
		784.48,44.31 784.06,44.31 783.63,44.34 783.17,44.39 782.7,44.48 782.23,44.61 781.76,44.8 781.28,45.03 780.81,45.33 
		780.36,45.71 779.92,46.15 779.49,46.69 779.09,47.31 778.72,48.05 778.36,48.89 778.04,49.84 777.78,50.92 777.67,51.52 
		777.6,52.12 777.57,52.7 777.59,53.28 777.64,53.85 777.76,54.4 777.9,54.9 778.09,55.41 778.34,55.86 778.65,56.3 779,56.68 
		779.41,57.04 779.87,57.34 780.39,57.6 780.96,57.82 781.6,57.97 781.82,58.02 782.07,58.07 782.37,58.1 782.72,58.13 
		783.08,58.18 783.47,58.18 783.9,58.18 784.31,58.13 784.75,58.09 785.19,58 785.62,57.88 786.04,57.75 786.46,57.56 786.84,57.34 
		787.2,57.08 787.54,56.78 786.78,61.28 786.67,61.36 786.58,61.47 786.44,61.58 786.29,61.69 786.1,61.81 785.87,61.94 
		785.6,62.05 785.3,62.16 784.91,62.27 784.47,62.35 783.96,62.43 783.37,62.49 782.72,62.52 781.95,62.54 781.1,62.52 
		780.15,62.47 779.37,62.39 778.6,62.22 777.82,61.97 777.05,61.63 776.3,61.23 775.59,60.71 774.93,60.13 774.3,59.45 773.75,58.7 
		773.27,57.85 772.87,56.9 772.56,55.88 772.36,54.75 772.29,53.55 772.33,52.23 772.51,50.84 772.65,50.15 772.8,49.47 
		772.96,48.81 773.13,48.18 773.32,47.6 773.54,47 773.76,46.45 774,45.93 774.25,45.41 774.5,44.91 774.79,44.44 775.09,44.01 
		775.4,43.58 775.73,43.18 776.06,42.8 776.42,42.45 776.81,42.12 777.2,41.79 777.6,41.51 778.03,41.24 778.48,40.99 778.94,40.77 
		779.41,40.56 779.9,40.38 780.42,40.2 780.94,40.07 781.48,39.95 782.06,39.85 782.63,39.77 783.24,39.7 783.84,39.67 
		784.48,39.65 785.02,39.67 785.55,39.7 786.06,39.76 786.56,39.82 787.03,39.89 787.49,39.99 787.93,40.07 788.33,40.17 
		788.72,40.28 789.06,40.38 789.38,40.48 789.65,40.58 789.88,40.66 790.09,40.73 790.24,40.8 790.34,40.83 	"/>
	<g>
		<g>
			<polyline fill="none" stroke="#FFFFFF" stroke-width="0.215" points="789.49,45.51 789.49,45.51 789.27,45.38 789.06,45.29 
				788.82,45.16 788.56,45.05 788.31,44.95 788.03,44.85 787.74,44.75 787.44,44.64 787.11,44.56 786.8,44.5 786.44,44.42 
				786.09,44.37 785.7,44.34 785.32,44.31 784.91,44.31 784.48,44.31 784.48,44.31 784.06,44.31 783.63,44.34 783.17,44.39 
				782.7,44.48 782.23,44.61 781.76,44.8 781.28,45.03 780.81,45.33 780.36,45.71 779.92,46.15 779.49,46.69 779.09,47.31 
				778.72,48.05 778.36,48.89 778.04,49.84 777.78,50.92 777.78,50.92 777.67,51.52 777.6,52.12 777.57,52.7 777.59,53.28 
				777.64,53.85 777.76,54.4 777.9,54.9 778.09,55.41 778.34,55.86 778.65,56.3 779,56.68 779.41,57.04 779.87,57.34 780.39,57.6 
				780.96,57.82 781.6,57.97 781.6,57.97 781.82,58.02 782.07,58.07 782.37,58.1 782.72,58.13 783.08,58.18 783.47,58.18 
				783.9,58.18 784.31,58.13 784.75,58.09 785.19,58 785.62,57.88 786.04,57.75 786.46,57.56 786.84,57.34 787.2,57.08 
				787.54,56.78 786.78,61.28 786.78,61.28 786.67,61.36 786.58,61.47 786.44,61.58 786.29,61.69 786.1,61.81 785.87,61.94 
				785.6,62.05 785.3,62.16 784.91,62.27 784.47,62.35 783.96,62.43 783.37,62.49 782.72,62.52 781.95,62.54 781.1,62.52 
				780.15,62.47 780.15,62.47 779.37,62.39 778.6,62.22 777.82,61.97 777.05,61.63 776.3,61.23 775.59,60.71 774.93,60.13 
				774.3,59.45 773.75,58.7 773.27,57.85 772.87,56.9 772.56,55.88 772.36,54.75 772.29,53.55 772.33,52.23 772.51,50.84 
				772.51,50.84 772.65,50.15 772.8,49.47 772.96,48.81 773.13,48.18 773.32,47.6 773.54,47 773.76,46.45 774,45.93 774.25,45.41 
				774.5,44.91 774.79,44.44 775.09,44.01 775.4,43.58 775.73,43.18 776.06,42.8 776.42,42.45 776.81,42.12 777.2,41.79 
				777.6,41.51 778.03,41.24 778.48,40.99 778.94,40.77 779.41,40.56 779.9,40.38 780.42,40.2 780.94,40.07 781.48,39.95 
				782.06,39.85 782.63,39.77 783.24,39.7 783.84,39.67 784.48,39.65 784.48,39.65 785.02,39.67 785.55,39.7 786.06,39.76 
				786.56,39.82 787.03,39.89 787.49,39.99 787.93,40.07 788.33,40.17 788.72,40.28 789.06,40.38 789.38,40.48 789.65,40.58 
				789.88,40.66 790.09,40.73 790.24,40.8 790.34,40.83 789.49,45.51 			"/>
		</g>
	</g>
	<polygon fill="#FFFFFF" points="831.02,62.56 826.35,62.56 826.69,60.68 826.69,60.52 826.42,60.85 826.13,61.15 825.85,61.42 
		825.54,61.66 825.24,61.88 824.94,62.07 824.63,62.22 824.31,62.37 823.99,62.49 823.66,62.57 823.35,62.66 823,62.71 
		822.67,62.76 822.35,62.79 822.01,62.81 821.68,62.81 820.8,62.74 819.99,62.56 819.25,62.27 818.58,61.88 817.97,61.39 
		817.43,60.82 816.96,60.19 816.55,59.49 816.22,58.73 815.95,57.94 815.76,57.11 815.62,56.24 815.57,55.39 815.59,54.51 
		815.67,53.65 815.82,52.79 816.08,51.8 816.38,50.86 816.74,49.99 817.16,49.19 817.6,48.42 818.1,47.74 818.63,47.14 
		819.18,46.59 819.77,46.09 820.39,45.68 821.04,45.3 821.68,45.02 822.35,44.78 823.03,44.63 823.7,44.53 824.39,44.5 
		824.88,44.51 825.35,44.56 825.79,44.64 826.2,44.77 826.59,44.89 826.92,45.05 827.25,45.24 827.57,45.42 827.83,45.62 
		828.09,45.84 828.31,46.06 828.51,46.28 828.68,46.5 828.83,46.72 828.97,46.92 829.06,47.13 829.06,47.13 830.24,40.5 
		834.84,40.5 	"/>
	<g>
		<g>
			<polyline fill="none" stroke="#FFFFFF" stroke-width="0.215" points="831.02,62.56 826.35,62.56 826.69,60.68 826.69,60.52 
				826.69,60.52 826.42,60.85 826.13,61.15 825.85,61.42 825.54,61.66 825.24,61.88 824.94,62.07 824.63,62.22 824.31,62.37 
				823.99,62.49 823.66,62.57 823.35,62.66 823,62.71 822.67,62.76 822.35,62.79 822.01,62.81 821.68,62.81 821.68,62.81 
				820.8,62.74 819.99,62.56 819.25,62.27 818.58,61.88 817.97,61.39 817.43,60.82 816.96,60.19 816.55,59.49 816.22,58.73 
				815.95,57.94 815.76,57.11 815.62,56.24 815.57,55.39 815.59,54.51 815.67,53.65 815.82,52.79 815.82,52.79 816.08,51.8 
				816.38,50.86 816.74,49.99 817.16,49.19 817.6,48.42 818.1,47.74 818.63,47.14 819.18,46.59 819.77,46.09 820.39,45.68 
				821.04,45.3 821.68,45.02 822.35,44.78 823.03,44.63 823.7,44.53 824.39,44.5 824.39,44.5 824.88,44.51 825.35,44.56 
				825.79,44.64 826.2,44.77 826.59,44.89 826.92,45.05 827.25,45.24 827.57,45.42 827.83,45.62 828.09,45.84 828.31,46.06 
				828.51,46.28 828.68,46.5 828.83,46.72 828.97,46.92 829.06,47.13 829.06,47.13 830.24,40.5 834.84,40.5 831.02,62.56 			"/>
		</g>
	</g>
	<polygon fill="#FBB131" points="823.38,58.48 823.85,58.44 824.29,58.34 824.7,58.22 825.08,58.04 825.44,57.83 825.77,57.58 
		826.1,57.3 826.38,57 826.64,56.65 826.87,56.29 827.09,55.9 827.28,55.49 827.44,55.06 827.58,54.63 827.69,54.18 827.79,53.72 
		827.87,53.25 827.91,52.76 827.91,52.3 827.9,51.83 827.85,51.39 827.79,50.97 827.66,50.56 827.53,50.18 827.36,49.84 
		827.16,49.52 826.94,49.25 826.69,49.02 826.4,48.81 826.1,48.67 825.77,48.59 825.42,48.56 824.97,48.59 824.54,48.66 
		824.15,48.8 823.77,48.97 823.43,49.19 823.1,49.46 822.81,49.74 822.52,50.06 822.26,50.43 822.03,50.81 821.81,51.22 
		821.63,51.66 821.46,52.12 821.32,52.57 821.19,53.06 821.08,53.55 821,54.29 821.04,55.11 821.16,55.93 821.38,56.73 
		821.71,57.41 822.15,57.97 822.7,58.34 	"/>
	<polygon fill="#FFFFFF" points="719.8,58.81 719.13,62.56 714.88,62.56 715,61.86 715.08,61.25 715.14,60.77 715.21,60.52 
		714.97,60.79 714.7,61.06 714.39,61.31 714.03,61.55 713.63,61.78 713.21,61.99 712.77,62.19 712.31,62.35 711.82,62.51 
		711.33,62.63 710.84,62.73 710.34,62.79 709.85,62.82 709.36,62.84 708.89,62.79 708.44,62.73 707.84,62.57 707.3,62.41 
		706.83,62.19 706.41,61.94 706.04,61.66 705.7,61.36 705.43,61.04 705.19,60.7 704.99,60.35 704.82,59.97 704.69,59.61 
		704.58,59.23 704.52,58.85 704.47,58.46 704.44,58.09 704.44,57.72 704.49,57.06 704.58,56.43 704.75,55.85 704.97,55.27 
		705.24,54.73 705.54,54.24 705.9,53.77 706.31,53.35 706.72,52.96 707.2,52.61 707.69,52.29 708.2,52.02 708.74,51.78 709.29,51.6 
		709.87,51.44 710.45,51.34 710.49,51.34 710.58,51.33 710.69,51.31 710.88,51.29 711.08,51.25 711.32,51.24 711.57,51.21 
		711.85,51.17 712.14,51.14 712.43,51.11 712.73,51.09 713,51.05 713.27,51.03 713.52,51.02 713.76,51 713.95,51 714.34,51 
		714.74,51.02 715.11,51.03 715.49,51.03 715.79,51.05 716.02,51.08 716.19,51.09 716.24,51.09 716.28,50.97 716.37,50.67 
		716.46,50.31 716.5,49.99 716.43,49.62 716.28,49.28 716.07,48.98 715.8,48.73 715.49,48.51 715.13,48.36 714.72,48.26 
		714.29,48.22 713.82,48.2 713.3,48.18 712.78,48.18 712.25,48.2 711.68,48.24 711.15,48.29 710.61,48.34 710.09,48.4 709.58,48.48 
		709.08,48.56 708.66,48.64 708.25,48.73 707.87,48.83 707.57,48.92 707.34,49.05 707.15,49.14 708.34,45.08 708.72,44.94 
		709.08,44.8 709.49,44.67 709.9,44.59 710.31,44.51 710.74,44.44 711.18,44.37 711.63,44.34 712.11,44.31 712.59,44.29 
		713.1,44.28 713.63,44.28 714.17,44.28 714.72,44.28 715.32,44.29 715.9,44.31 716.37,44.34 716.89,44.42 717.41,44.55 
		717.94,44.7 718.47,44.89 718.97,45.13 719.48,45.42 719.96,45.74 720.37,46.12 720.75,46.51 721.08,46.97 721.33,47.48 
		721.5,48.02 721.61,48.59 721.61,49.24 721.5,49.91 	"/>
	<g>
		<g>
			<polyline fill="none" stroke="#FFFFFF" stroke-width="0.215" points="719.8,58.81 719.13,62.56 714.88,62.56 714.88,62.56 
				715,61.86 715.08,61.25 715.14,60.77 715.21,60.52 715.21,60.52 714.97,60.79 714.7,61.06 714.39,61.31 714.03,61.55 
				713.63,61.78 713.21,61.99 712.77,62.19 712.31,62.35 711.82,62.51 711.33,62.63 710.84,62.73 710.34,62.79 709.85,62.82 
				709.36,62.84 708.89,62.79 708.44,62.73 708.44,62.73 707.84,62.57 707.3,62.41 706.83,62.19 706.41,61.94 706.04,61.66 
				705.7,61.36 705.43,61.04 705.19,60.7 704.99,60.35 704.82,59.97 704.69,59.61 704.58,59.23 704.52,58.85 704.47,58.46 
				704.44,58.09 704.44,57.72 704.44,57.72 704.49,57.06 704.58,56.43 704.75,55.85 704.97,55.27 705.24,54.73 705.54,54.24 
				705.9,53.77 706.31,53.35 706.72,52.96 707.2,52.61 707.69,52.29 708.2,52.02 708.74,51.78 709.29,51.6 709.87,51.44 
				710.45,51.34 710.45,51.34 710.49,51.34 710.58,51.33 710.69,51.31 710.88,51.29 711.08,51.25 711.32,51.24 711.57,51.21 
				711.85,51.17 712.14,51.14 712.43,51.11 712.73,51.09 713,51.05 713.27,51.03 713.52,51.02 713.76,51 713.95,51 713.95,51 
				714.34,51 714.74,51.02 715.11,51.03 715.49,51.03 715.79,51.05 716.02,51.08 716.19,51.09 716.24,51.09 716.24,51.09 
				716.28,50.97 716.37,50.67 716.46,50.31 716.5,49.99 716.5,49.99 716.43,49.62 716.28,49.28 716.07,48.98 715.8,48.73 
				715.49,48.51 715.13,48.36 714.72,48.26 714.29,48.22 714.29,48.22 713.82,48.2 713.3,48.18 712.78,48.18 712.25,48.2 
				711.68,48.24 711.15,48.29 710.61,48.34 710.09,48.4 709.58,48.48 709.08,48.56 708.66,48.64 708.25,48.73 707.87,48.83 
				707.57,48.92 707.34,49.05 707.15,49.14 708.34,45.08 708.34,45.08 708.72,44.94 709.08,44.8 709.49,44.67 709.9,44.59 
				710.31,44.51 710.74,44.44 711.18,44.37 711.63,44.34 712.11,44.31 712.59,44.29 713.1,44.28 713.63,44.28 714.17,44.28 
				714.72,44.28 715.32,44.29 715.9,44.31 715.9,44.31 716.37,44.34 716.89,44.42 717.41,44.55 717.94,44.7 718.47,44.89 
				718.97,45.13 719.48,45.42 719.96,45.74 720.37,46.12 720.75,46.51 721.08,46.97 721.33,47.48 721.5,48.02 721.61,48.59 
				721.61,49.24 721.5,49.91 719.8,58.81 			"/>
		</g>
	</g>
	<polygon fill="#EC1C2E" points="715.74,54.41 715.72,54.32 715.65,54.24 715.55,54.19 715.38,54.16 715.19,54.12 714.97,54.1 
		714.72,54.1 714.47,54.1 714.2,54.12 713.91,54.16 713.65,54.19 713.38,54.23 713.13,54.26 712.89,54.31 712.69,54.37 712.5,54.41 
		712.37,54.45 712.25,54.49 712.06,54.56 711.87,54.65 711.65,54.75 711.43,54.87 711.19,54.98 710.97,55.12 710.74,55.28 
		710.53,55.46 710.32,55.66 710.14,55.86 709.96,56.08 709.85,56.32 709.74,56.59 709.7,56.86 709.68,57.44 709.76,57.88 
		709.93,58.22 710.15,58.48 710.4,58.65 710.69,58.74 710.96,58.79 711.24,58.81 711.74,58.79 712.2,58.74 712.64,58.68 
		713.02,58.57 713.36,58.46 713.68,58.31 713.96,58.16 714.22,57.97 714.44,57.8 714.64,57.6 714.81,57.41 714.94,57.22 
		715.06,57.01 715.16,56.81 715.25,56.62 715.3,56.43 715.43,55.94 715.55,55.39 715.65,54.85 	"/>
	<polygon fill="#FFFFFF" points="684.31,62.56 679.72,62.56 683.55,40.41 691.53,40.41 692.29,53.55 697.81,40.41 706.14,40.41 
		702.22,62.56 697.64,62.56 700.54,46.01 700.35,46.01 693.48,62.56 688.31,62.56 688.27,61.86 688.16,60.03 688.01,57.41 
		687.83,54.41 687.67,51.39 687.52,48.75 687.39,46.83 687.36,46.01 687.31,46.01 687.22,46.01 687.11,46.01 687.11,46.01 	"/>
	<g>
		<g>
			<polyline fill="none" stroke="#FFFFFF" stroke-width="0.215" points="684.31,62.56 679.72,62.56 683.55,40.41 691.53,40.41 
				692.29,53.55 697.81,40.41 706.14,40.41 702.22,62.56 697.64,62.56 700.54,46.01 700.35,46.01 693.48,62.56 688.31,62.56 
				688.31,62.56 688.27,61.86 688.16,60.03 688.01,57.41 687.83,54.41 687.67,51.39 687.52,48.75 687.39,46.83 687.36,46.01 
				687.36,46.01 687.31,46.01 687.22,46.01 687.11,46.01 687.11,46.01 684.31,62.56 			"/>
		</g>
	</g>
	<polygon fill="#FFFFFF" points="803.51,58.81 802.82,62.56 798.59,62.56 798.62,61.86 798.64,61.26 798.64,60.81 798.67,60.6 
		798.45,60.85 798.2,61.11 797.89,61.34 797.56,61.58 797.2,61.8 796.79,62 796.38,62.21 795.96,62.37 795.5,62.51 795.03,62.65 
		794.56,62.73 794.08,62.79 793.6,62.82 793.12,62.84 792.67,62.79 792.21,62.73 791.6,62.57 791.06,62.41 790.59,62.19 
		790.15,61.94 789.79,61.66 789.46,61.36 789.19,61.04 788.95,60.7 788.75,60.35 788.6,59.97 788.47,59.61 788.38,59.23 
		788.31,58.85 788.26,58.46 788.23,58.09 788.23,57.72 788.26,57.06 788.37,56.43 788.51,55.85 788.73,55.27 788.99,54.73 
		789.31,54.24 789.66,53.77 790.05,53.35 790.49,52.96 790.95,52.61 791.44,52.29 791.96,52.02 792.48,51.78 793.03,51.6 
		793.6,51.44 794.16,51.34 794.2,51.34 794.29,51.33 794.4,51.31 794.57,51.29 794.79,51.25 795.03,51.24 795.28,51.21 
		795.55,51.17 795.83,51.14 796.14,51.11 796.43,51.09 796.71,51.05 796.98,51.03 797.22,51.02 797.45,51 797.64,51 798.05,51 
		798.45,51.02 798.84,51.03 799.21,51.03 799.53,51.05 799.8,51.08 799.96,51.09 800.02,51.09 800.05,50.97 800.1,50.67 
		800.16,50.31 800.19,49.99 800.12,49.62 799.99,49.28 799.77,48.98 799.52,48.73 799.21,48.51 798.86,48.36 798.49,48.26 
		798.08,48.22 797.61,48.2 797.11,48.18 796.57,48.18 796.04,48.2 795.48,48.24 794.95,48.29 794.4,48.34 793.88,48.4 793.38,48.48 
		792.89,48.56 792.45,48.64 792.04,48.73 791.67,48.83 791.36,48.92 791.13,49.05 790.95,49.14 792.13,45.08 792.5,44.94 
		792.89,44.8 793.27,44.67 793.68,44.59 794.1,44.51 794.52,44.44 794.96,44.37 795.41,44.34 795.88,44.31 796.38,44.29 
		796.87,44.28 797.39,44.28 797.91,44.28 798.45,44.28 799.03,44.29 799.6,44.31 800.07,44.34 800.57,44.42 801.1,44.55 
		801.64,44.7 802.16,44.89 802.68,45.13 803.19,45.42 803.66,45.74 804.08,46.12 804.47,46.51 804.81,46.97 805.06,47.48 
		805.25,48.02 805.37,48.59 805.37,49.24 805.28,49.91 	"/>
	<polygon fill="#FFFFFF" points="802.82,62.68 802.92,62.57 803.61,58.83 803.41,58.79 802.71,62.54 802.82,62.44 802.82,62.68 
		802.9,62.66 802.92,62.57 	"/>
	<polygon fill="#FFFFFF" points="798.49,62.56 798.59,62.68 802.82,62.68 802.82,62.44 798.59,62.44 798.68,62.56 798.49,62.56 
		798.46,62.68 798.59,62.68 	"/>
	<polygon fill="#FFFFFF" points="798.76,60.67 798.6,60.54 798.54,60.81 798.52,61.26 798.52,61.86 798.49,62.56 798.68,62.56 
		798.73,61.86 798.76,61.26 798.74,60.81 798.74,60.67 798.59,60.54 	"/>
	<polygon fill="#FFFFFF" points="792.2,62.82 792.2,62.82 792.67,62.9 793.12,62.95 793.6,62.93 794.08,62.9 794.57,62.82 
		795.05,62.74 795.52,62.6 795.99,62.47 796.41,62.3 796.85,62.1 797.25,61.9 797.61,61.66 797.96,61.42 798.27,61.19 798.54,60.92 
		798.76,60.67 798.59,60.54 798.37,60.79 798.13,61.03 797.83,61.26 797.5,61.5 797.15,61.7 796.75,61.9 796.34,62.1 795.92,62.27 
		795.48,62.41 795.01,62.54 794.54,62.63 794.08,62.69 793.6,62.73 793.12,62.74 792.67,62.69 792.23,62.63 792.23,62.63 	"/>
	<polygon fill="#FFFFFF" points="788.12,57.72 788.12,57.72 788.13,58.09 788.16,58.46 788.21,58.87 788.28,59.25 788.37,59.62 
		788.5,60.01 788.65,60.4 788.87,60.76 789.11,61.11 789.38,61.42 789.71,61.75 790.1,62.02 790.54,62.29 791.03,62.51 
		791.58,62.68 792.2,62.82 792.23,62.63 791.62,62.47 791.1,62.3 790.64,62.08 790.2,61.85 789.85,61.58 789.55,61.29 789.27,60.98 
		789.03,60.65 788.86,60.3 788.7,59.94 788.56,59.59 788.48,59.22 788.42,58.83 788.37,58.46 788.33,58.09 788.35,57.72 
		788.35,57.72 	"/>
	<polygon fill="#FFFFFF" points="794.16,51.24 794.16,51.24 793.58,51.34 793,51.49 792.45,51.68 791.91,51.91 791.38,52.18 
		790.88,52.52 790.42,52.87 789.98,53.28 789.58,53.71 789.22,54.18 788.89,54.68 788.64,55.24 788.42,55.81 788.26,56.42 
		788.16,57.06 788.12,57.72 788.35,57.72 788.37,57.06 788.47,56.45 788.62,55.88 788.84,55.3 789.09,54.78 789.39,54.31 
		789.74,53.83 790.12,53.41 790.56,53.05 791.01,52.69 791.49,52.39 792.01,52.12 792.51,51.88 793.08,51.69 793.61,51.55 
		794.16,51.44 794.16,51.44 	"/>
	<polygon fill="#FFFFFF" points="797.64,50.89 797.64,50.89 797.45,50.89 797.22,50.92 796.98,50.94 796.71,50.95 796.43,50.99 
		796.14,51 795.83,51.03 795.55,51.08 795.28,51.11 795.03,51.14 794.79,51.16 794.57,51.19 794.4,51.21 794.27,51.22 794.2,51.24 
		794.16,51.24 794.16,51.44 794.2,51.44 794.3,51.43 794.4,51.41 794.57,51.39 794.79,51.36 795.03,51.34 795.28,51.31 
		795.55,51.27 795.83,51.24 796.14,51.21 796.43,51.19 796.71,51.16 796.98,51.14 797.22,51.12 797.45,51.12 797.64,51.12 
		797.64,51.12 	"/>
	<polygon fill="#FFFFFF" points="799.92,51.08 800.02,50.99 799.96,50.99 799.8,50.97 799.53,50.95 799.21,50.92 798.84,50.92 
		798.45,50.92 798.05,50.89 797.64,50.89 797.64,51.12 798.05,51.12 798.45,51.12 798.84,51.16 799.21,51.16 799.53,51.16 
		799.8,51.17 799.96,51.19 800.02,51.19 800.12,51.11 800.02,51.19 800.1,51.21 800.12,51.11 	"/>
	<polygon fill="#FFFFFF" points="800.08,49.99 800.07,49.99 800.05,50.31 800,50.65 799.96,50.95 799.92,51.08 800.12,51.11 
		800.16,50.99 800.21,50.68 800.26,50.31 800.3,49.99 800.29,49.99 	"/>
	<polygon fill="#FFFFFF" points="798.08,48.32 798.08,48.34 798.46,48.36 798.82,48.45 799.16,48.61 799.45,48.81 799.69,49.05 
		799.88,49.33 800.02,49.63 800.08,49.99 800.29,49.99 800.22,49.6 800.08,49.24 799.85,48.91 799.58,48.64 799.26,48.4 
		798.89,48.26 798.51,48.15 798.08,48.1 798.08,48.12 	"/>
	<polygon fill="#FFFFFF" points="790.84,49.13 791.01,49.24 791.19,49.14 791.4,49.03 791.69,48.92 792.06,48.83 792.46,48.75 
		792.9,48.66 793.39,48.58 793.88,48.51 794.4,48.44 794.95,48.39 795.48,48.34 796.04,48.31 796.57,48.31 797.11,48.31 
		797.61,48.31 798.08,48.32 798.08,48.12 797.61,48.1 797.11,48.07 796.57,48.07 796.04,48.1 795.48,48.14 794.95,48.18 
		794.4,48.24 793.88,48.31 793.36,48.37 792.87,48.45 792.43,48.54 792.02,48.62 791.66,48.73 791.33,48.83 791.08,48.95 
		790.88,49.06 791.05,49.16 	"/>
	<polygon fill="#FFFFFF" points="792.09,44.99 792.02,45.07 790.84,49.13 791.05,49.16 792.23,45.1 792.16,45.19 792.09,44.99 
		792.04,45 792.02,45.07 	"/>
	<polygon fill="#FFFFFF" points="799.6,44.2 799.6,44.2 799.03,44.17 798.45,44.15 797.91,44.15 797.39,44.15 796.87,44.15 
		796.38,44.19 795.88,44.2 795.41,44.24 794.96,44.28 794.51,44.34 794.08,44.41 793.66,44.5 793.25,44.58 792.86,44.7 
		792.46,44.83 792.09,44.99 792.16,45.19 792.53,45.03 792.92,44.89 793.3,44.78 793.69,44.7 794.12,44.61 794.54,44.55 
		794.96,44.48 795.41,44.44 795.88,44.41 796.38,44.39 796.87,44.39 797.39,44.39 797.91,44.39 798.45,44.39 799.03,44.41 
		799.6,44.41 799.6,44.41 	"/>
	<polygon fill="#FFFFFF" points="805.39,49.93 805.39,49.93 805.47,49.24 805.47,48.59 805.35,48.01 805.17,47.44 804.9,46.92 
		804.55,46.45 804.16,46.03 803.73,45.66 803.24,45.33 802.74,45.03 802.19,44.8 801.67,44.59 801.12,44.44 800.59,44.33 
		800.07,44.24 799.6,44.2 799.6,44.41 800.07,44.44 800.56,44.53 801.09,44.64 801.61,44.8 802.13,45 802.63,45.24 803.14,45.51 
		803.59,45.82 804.02,46.2 804.39,46.59 804.73,47.02 804.96,47.51 805.15,48.04 805.26,48.59 805.26,49.24 805.18,49.9 
		805.18,49.9 	"/>
	<polygon fill="#FFFFFF" points="803.61,58.83 803.61,58.83 805.39,49.93 805.18,49.9 803.41,58.79 803.41,58.79 	"/>
	<polygon fill="#FBB131" points="799.42,54.41 799.39,54.31 799.33,54.23 799.21,54.18 799.04,54.12 798.86,54.1 798.64,54.09 
		798.38,54.09 798.13,54.1 797.86,54.15 797.59,54.18 797.33,54.21 797.06,54.24 796.81,54.29 796.59,54.32 796.38,54.38 
		796.21,54.41 796.09,54.43 795.96,54.48 795.79,54.53 795.6,54.59 795.38,54.7 795.17,54.8 794.95,54.92 794.73,55.06 
		794.51,55.22 794.29,55.41 794.1,55.59 793.91,55.81 793.76,56.05 793.64,56.3 793.55,56.57 793.49,56.86 793.47,57.44 
		793.56,57.88 793.69,58.22 793.9,58.48 794.15,58.65 794.43,58.74 794.73,58.79 795.01,58.81 795.52,58.79 795.99,58.74 
		796.43,58.66 796.81,58.54 797.19,58.41 797.5,58.26 797.81,58.09 798.08,57.88 798.32,57.7 798.52,57.48 798.7,57.28 
		798.86,57.06 798.98,56.86 799.06,56.65 799.12,56.45 799.17,56.27 799.25,55.8 799.33,55.3 799.39,54.84 	"/>
	<g>
		<g>
			<polygon fill="#FFFFFF" points="834.18,60.24 834.21,59.86 834.35,59.4 834.58,59 834.87,58.65 835.22,58.35 835.63,58.16 
				836.07,58.02 836.54,57.97 837.01,58.02 837.45,58.16 837.85,58.35 838.21,58.65 838.49,59 838.73,59.4 838.87,59.86 
				838.9,60.24 838.4,60.24 838.38,59.94 838.27,59.58 838.1,59.23 837.89,58.95 837.61,58.71 837.3,58.54 836.92,58.43 
				836.54,58.4 836.15,58.43 835.78,58.54 835.45,58.71 835.19,58.95 834.97,59.23 834.79,59.58 834.7,59.94 834.67,60.24 			"/>
			<polygon fill="#FFFFFF" points="835.69,60.24 835.69,59.23 836.62,59.23 836.82,59.25 837.01,59.28 837.14,59.34 837.26,59.4 
				837.34,59.5 837.42,59.61 837.45,59.72 837.47,59.84 837.45,59.99 837.42,60.11 837.36,60.21 837.33,60.24 836.62,60.24 
				836.68,60.23 836.81,60.21 836.9,60.18 836.99,60.15 837.06,60.1 837.09,60.05 837.12,59.96 837.12,59.84 837.11,59.75 
				837.08,59.69 837.03,59.66 836.98,59.62 836.89,59.61 836.81,59.59 836.73,59.59 836.62,59.59 836.11,59.59 836.11,60.24 			"/>
			<polygon fill="#FFFFFF" points="834.18,60.24 834.16,60.35 834.21,60.84 834.35,61.29 834.58,61.7 834.87,62.03 835.22,62.32 
				835.63,62.54 836.07,62.68 836.54,62.73 837.01,62.68 837.45,62.54 837.85,62.32 838.21,62.03 838.49,61.7 838.73,61.29 
				838.87,60.84 838.92,60.35 838.9,60.24 838.4,60.24 838.41,60.35 838.38,60.76 838.27,61.12 838.1,61.45 837.89,61.73 
				837.61,61.97 837.3,62.16 836.92,62.27 836.54,62.3 836.15,62.27 835.78,62.16 835.45,61.97 835.19,61.73 834.97,61.45 
				834.79,61.12 834.7,60.76 834.67,60.35 834.67,60.24 			"/>
			<polygon fill="#FFFFFF" points="835.69,60.24 835.69,61.28 836.11,61.28 836.11,60.43 836.54,60.43 837.04,61.28 837.38,61.28 
				836.87,60.43 836.99,60.43 837.11,60.4 837.21,60.37 837.3,60.3 837.33,60.24 836.62,60.24 836.54,60.27 836.11,60.27 
				836.11,60.24 			"/>
		</g>
	</g>
	<g>
		<g>
			<polyline fill="none" stroke="#FFFFFF" stroke-width="0.215" points="834.16,60.35 834.16,60.35 834.21,59.86 834.35,59.4 
				834.58,59 834.87,58.65 835.22,58.35 835.63,58.16 836.07,58.02 836.54,57.97 836.54,57.97 837.01,58.02 837.45,58.16 
				837.85,58.35 838.21,58.65 838.49,59 838.73,59.4 838.87,59.86 838.92,60.35 838.92,60.35 838.87,60.84 838.73,61.29 
				838.49,61.7 838.21,62.03 837.85,62.32 837.45,62.54 837.01,62.68 836.54,62.73 836.54,62.73 836.07,62.68 835.63,62.54 
				835.22,62.32 834.87,62.03 834.58,61.7 834.35,61.29 834.21,60.84 834.16,60.35 			"/>
		</g>
	</g>
	<g>
		<g>
			<polyline fill="none" stroke="#FFFFFF" stroke-width="0.215" points="836.11,61.28 835.69,61.28 835.69,59.23 836.62,59.23 
				836.62,59.23 836.82,59.25 837.01,59.28 837.14,59.34 837.26,59.4 837.34,59.5 837.42,59.61 837.45,59.72 837.47,59.84 
				837.47,59.84 837.45,59.99 837.42,60.11 837.36,60.21 837.3,60.3 837.21,60.37 837.11,60.4 836.99,60.43 836.87,60.43 
				837.38,61.28 837.04,61.28 836.54,60.43 836.11,60.43 836.11,61.28 			"/>
		</g>
	</g>
	<g>
		<g>
			<polyline fill="none" stroke="#FFFFFF" stroke-width="0.215" points="836.54,60.27 836.54,60.27 836.68,60.23 836.81,60.21 
				836.9,60.18 836.99,60.15 837.06,60.1 837.09,60.05 837.12,59.96 837.12,59.84 837.12,59.84 837.11,59.75 837.08,59.69 
				837.03,59.66 836.98,59.62 836.89,59.61 836.81,59.59 836.73,59.59 836.62,59.59 836.11,59.59 836.11,60.27 836.54,60.27 			"/>
		</g>
	</g>
	<g>
		<g>
			<polyline fill="none" stroke="#FFFFFF" stroke-width="0.215" points="836.54,62.3 836.54,62.3 836.92,62.27 837.3,62.16 
				837.61,61.97 837.89,61.73 838.1,61.45 838.27,61.12 838.38,60.76 838.41,60.35 838.41,60.35 838.38,59.94 838.27,59.58 
				838.1,59.23 837.89,58.95 837.61,58.71 837.3,58.54 836.92,58.43 836.54,58.4 836.54,58.4 836.15,58.43 835.78,58.54 
				835.45,58.71 835.19,58.95 834.97,59.23 834.79,59.58 834.7,59.94 834.67,60.35 834.67,60.35 834.7,60.76 834.79,61.12 
				834.97,61.45 835.19,61.73 835.45,61.97 835.78,62.16 836.15,62.27 836.54,62.3 			"/>
		</g>
	</g>
	<polygon fill="#FFFFFF" points="804.77,62.56 809.53,62.56 809.53,62.56 811.24,52.96 811.31,52.59 811.4,52.21 811.51,51.85 
		811.64,51.47 811.81,51.11 812.01,50.75 812.23,50.42 812.5,50.09 812.8,49.8 813.15,49.54 813.53,49.28 813.97,49.08 
		814.46,48.91 815,48.78 815.59,48.67 816.25,48.64 816.48,48.64 816.61,48.64 816.67,48.64 816.67,48.64 817.43,44.31 
		816.96,44.34 816.5,44.39 816.08,44.48 815.67,44.59 815.3,44.73 814.94,44.89 814.61,45.08 814.29,45.29 813.98,45.52 
		813.7,45.76 813.43,46.03 813.16,46.29 812.91,46.59 812.66,46.91 812.41,47.21 812.17,47.55 812.67,44.5 807.93,44.5 	"/>
	<g>
		<g>
			<polyline fill="none" stroke="#FFFFFF" stroke-width="0.215" points="804.77,62.56 809.53,62.56 809.53,62.56 811.24,52.96 
				811.24,52.96 811.31,52.59 811.4,52.21 811.51,51.85 811.64,51.47 811.81,51.11 812.01,50.75 812.23,50.42 812.5,50.09 
				812.8,49.8 813.15,49.54 813.53,49.28 813.97,49.08 814.46,48.91 815,48.78 815.59,48.67 816.25,48.64 816.25,48.64 
				816.48,48.64 816.61,48.64 816.67,48.64 816.67,48.64 817.43,44.31 817.43,44.31 816.96,44.34 816.5,44.39 816.08,44.48 
				815.67,44.59 815.3,44.73 814.94,44.89 814.61,45.08 814.29,45.29 813.98,45.52 813.7,45.76 813.43,46.03 813.16,46.29 
				812.91,46.59 812.66,46.91 812.41,47.21 812.17,47.55 812.67,44.5 807.93,44.5 804.77,62.56 804.77,62.56 			"/>
		</g>
	</g>
	<polygon fill="#FFFFFF" points="760.11,62.56 764.87,62.56 764.95,62.56 766.57,52.96 766.65,52.59 766.73,52.23 766.81,51.88 
		766.93,51.55 767.06,51.21 767.23,50.89 767.43,50.58 767.67,50.29 767.94,50.04 768.24,49.79 768.61,49.58 769.02,49.4 
		769.49,49.25 770.02,49.11 770.58,49.03 771.24,48.98 771.29,48.98 771.37,49 771.45,49.02 771.53,49.02 771.62,49.03 
		771.68,49.05 771.73,49.06 771.75,49.06 771.77,49 771.81,48.8 771.89,48.49 771.97,48.12 772.09,47.68 772.21,47.21 772.36,46.73 
		772.51,46.26 772.65,45.95 772.82,45.62 772.98,45.3 773.15,45.02 773.31,44.77 773.42,44.56 773.51,44.44 773.54,44.39 
		773.53,44.39 773.45,44.37 773.37,44.36 773.26,44.34 773.13,44.34 772.99,44.33 772.88,44.31 772.76,44.31 772.24,44.34 
		771.77,44.39 771.33,44.48 770.93,44.58 770.54,44.72 770.19,44.88 769.86,45.05 769.56,45.25 769.27,45.47 769.01,45.73 
		768.74,45.98 768.49,46.26 768.24,46.55 768,46.87 767.75,47.21 767.5,47.55 768.11,44.5 763.26,44.5 	"/>
	<g>
		<g>
			<polyline fill="none" stroke="#FFFFFF" stroke-width="0.215" points="760.11,62.56 764.87,62.56 764.95,62.56 766.57,52.96 
				766.57,52.96 766.65,52.59 766.73,52.23 766.81,51.88 766.93,51.55 767.06,51.21 767.23,50.89 767.43,50.58 767.67,50.29 
				767.94,50.04 768.24,49.79 768.61,49.58 769.02,49.4 769.49,49.25 770.02,49.11 770.58,49.03 771.24,48.98 771.24,48.98 
				771.29,48.98 771.37,49 771.45,49.02 771.53,49.02 771.62,49.03 771.68,49.05 771.73,49.06 771.75,49.06 771.75,49.06 771.77,49 
				771.81,48.8 771.89,48.49 771.97,48.12 772.09,47.68 772.21,47.21 772.36,46.73 772.51,46.26 772.51,46.26 772.65,45.95 
				772.82,45.62 772.98,45.3 773.15,45.02 773.31,44.77 773.42,44.56 773.51,44.44 773.54,44.39 773.54,44.39 773.53,44.39 
				773.45,44.37 773.37,44.36 773.26,44.34 773.13,44.34 772.99,44.33 772.88,44.31 772.76,44.31 772.76,44.31 772.24,44.34 
				771.77,44.39 771.33,44.48 770.93,44.58 770.54,44.72 770.19,44.88 769.86,45.05 769.56,45.25 769.27,45.47 769.01,45.73 
				768.74,45.98 768.49,46.26 768.24,46.55 768,46.87 767.75,47.21 767.5,47.55 768.11,44.5 763.26,44.5 760.11,62.56 760.11,62.56 
							"/>
		</g>
	</g>
	<g>
		<g>
			<polygon fill="#FBB131" points="834.21,80.3 834.21,80.23 834.35,79.79 834.58,79.41 834.87,79.07 835.22,78.8 835.63,78.6 
				836.07,78.48 836.54,78.43 837.01,78.48 837.45,78.6 837.85,78.8 838.21,79.07 838.49,79.41 838.73,79.79 838.87,80.23 
				838.87,80.3 838.38,80.3 838.27,79.95 838.1,79.63 837.89,79.34 837.61,79.1 837.3,78.92 836.92,78.8 836.54,78.77 836.15,78.8 
				835.78,78.92 835.45,79.1 835.19,79.34 834.97,79.63 834.79,79.95 834.7,80.3 			"/>
			<polygon fill="#FBB131" points="835.69,80.3 835.69,79.71 836.62,79.71 836.82,79.71 837.01,79.74 837.14,79.78 837.26,79.85 
				837.34,79.93 837.42,80.03 837.45,80.15 837.47,80.3 837.12,80.3 837.12,80.22 837.11,80.14 837.08,80.06 837.03,80.03 
				836.98,80 836.89,79.98 836.81,79.96 836.73,79.96 836.62,79.96 836.11,79.96 836.11,80.3 			"/>
			<polygon fill="#FBB131" points="834.16,80.67 834.21,80.3 834.7,80.3 834.7,80.32 834.67,80.67 			"/>
			<polygon fill="#FBB131" points="835.69,80.67 835.69,80.3 836.11,80.3 836.11,80.64 836.54,80.64 836.68,80.61 836.81,80.59 
				836.9,80.56 836.99,80.52 837.06,80.47 837.09,80.42 837.12,80.34 837.12,80.3 837.47,80.3 837.47,80.3 837.45,80.42 
				837.42,80.52 837.36,80.61 837.3,80.67 			"/>
			<polygon fill="#FBB131" points="838.41,80.67 838.38,80.32 838.38,80.3 838.87,80.3 838.92,80.67 			"/>
			<polygon fill="#FBB131" points="834.16,80.67 834.16,80.72 834.21,81.21 834.35,81.67 834.58,82.07 834.87,82.42 835.22,82.72 
				835.63,82.92 836.07,83.05 836.54,83.1 837.01,83.05 837.45,82.92 837.85,82.72 838.21,82.42 838.49,82.07 838.73,81.67 
				838.87,81.21 838.92,80.72 838.92,80.67 838.41,80.67 838.41,80.72 838.38,81.13 838.27,81.5 838.1,81.82 837.89,82.11 
				837.61,82.34 837.3,82.53 836.92,82.64 836.54,82.68 836.15,82.64 835.78,82.53 835.45,82.34 835.19,82.11 834.97,81.82 
				834.79,81.5 834.7,81.13 834.67,80.72 834.67,80.67 			"/>
			<polygon fill="#FBB131" points="835.69,80.67 835.69,81.65 836.11,81.65 836.11,80.81 836.54,80.81 837.04,81.65 837.38,81.65 
				836.87,80.81 836.99,80.81 837.11,80.77 837.21,80.74 837.3,80.67 837.3,80.67 			"/>
		</g>
	</g>
</g>
</svg>
