<?xml version="1.0" encoding="utf-8"?>
<!-- Generator: Adobe Illustrator 19.2.1, SVG Export Plug-In . SVG Version: 6.00 Build 0)  -->
<svg version="1.1" id="Layer_1" xmlns="http://www.w3.org/2000/svg" xmlns:xlink="http://www.w3.org/1999/xlink" x="0px" y="0px"
	 viewBox="0 0 160 100" enable-background="new 0 0 160 100" xml:space="preserve">
<rect x="-0.29" y="85.6" fill="#F7B600" width="160.57" height="14.4"/>
<rect x="-0.29" fill="#1A1F71" width="160.57" height="14.4"/>
<path fill="#1A1F71" d="M63.99,30.26L47.4,69.83H36.58l-8.16-31.58c-0.49-1.94-0.93-2.66-2.43-3.48c-2.46-1.34-6.53-2.59-10.1-3.37
	l0.24-1.15h17.42c2.22,0,4.21,1.48,4.72,4.03l4.31,22.9l10.65-26.93H63.99z M106.39,56.91c0.05-10.44-14.44-11.02-14.34-15.69
	c0.03-1.42,1.38-2.93,4.34-3.31c1.47-0.19,5.51-0.34,10.1,1.77l1.79-8.39c-2.46-0.89-5.63-1.75-9.58-1.75
	c-10.12,0-17.24,5.38-17.3,13.08c-0.06,5.7,5.09,8.87,8.96,10.77c3.99,1.94,5.33,3.18,5.31,4.92c-0.03,2.65-3.18,3.83-6.12,3.87
	c-5.15,0.08-8.13-1.39-10.51-2.5l-1.86,8.67c2.4,1.1,6.81,2.05,11.38,2.1C99.32,70.45,106.35,65.14,106.39,56.91 M133.11,69.83h9.47
	l-8.27-39.57h-8.73c-1.97,0-3.63,1.14-4.36,2.9l-15.36,36.67h10.75l2.13-5.91h13.13L133.11,69.83z M121.68,55.81l5.39-14.86
	l3.1,14.86H121.68z M78.61,30.26l-8.46,39.57H59.91l8.46-39.57H78.61z"/>
</svg>
