<?xml version="1.0" encoding="utf-8"?>
<!-- Generator: Adobe Illustrator 19.2.1, SVG Export Plug-In . SVG Version: 6.00 Build 0)  -->
<svg version="1.1" id="Layer_1" xmlns="http://www.w3.org/2000/svg" xmlns:xlink="http://www.w3.org/1999/xlink" x="0px" y="0px"
	 viewBox="0 0 46 46" enable-background="new 0 0 46 46" width="46" height="46" xml:space="preserve">
<g opacity="0.5">
	<polygon fill-rule="evenodd" clip-rule="evenodd" fill="#FDFEFF" points="13.46,31.7 0,31.7 0,14.25 6.77,14.25 6.77,26.36 
		13.46,26.36 13.46,31.7 	"/>
	<polygon fill-rule="evenodd" clip-rule="evenodd" fill="#FDFEFF" points="45.94,31.7 32.49,31.7 32.49,26.48 38.53,19.33 
		32.56,19.33 32.56,14.25 45.92,14.25 45.92,19.33 40.41,26.36 45.94,26.36 45.94,31.7 	"/>
	<path fill-rule="evenodd" clip-rule="evenodd" fill="#FDFEFF" d="M14.09,6.26c9.27,0,16.83,7.56,16.83,16.83
		s-7.56,16.83-16.83,16.83c-0.23,0-0.47-0.01-0.7-0.02v-5.78c0.2,0.01,0.4,0.02,0.61,0.02c6.09,0,11.05-4.97,11.05-11.05
		c0-6.09-4.97-11.05-11.05-11.05c-0.2,0-0.41,0.01-0.61,0.02V6.27C13.62,6.26,13.85,6.26,14.09,6.26L14.09,6.26z M14.69,14.31
		c4.84,0,8.79,3.95,8.79,8.79c0,4.84-3.95,8.79-8.79,8.79c-0.12,0-0.24,0-0.36-0.01v-5.36c0.06,0,0.11,0,0.17,0
		c1.88,0,3.42-1.54,3.42-3.42c0-1.88-1.54-3.42-3.42-3.42c-0.06,0-0.12,0-0.17,0v-5.36C14.45,14.31,14.57,14.31,14.69,14.31
		L14.69,14.31z"/>
	<path fill="#FDFEFF" d="M7.84,0.76h30.45c4.24,0,7.71,3.47,7.71,7.71v3.47h-2.29V8.47c0-2.99-2.44-5.43-5.43-5.43H7.84
		c-2.99,0-5.43,2.44-5.43,5.43v3.47H0.12V8.47C0.12,4.23,3.59,0.76,7.84,0.76L7.84,0.76z M46,34.06v3.47c0,4.24-3.47,7.71-7.71,7.71
		H7.84c-4.24,0-7.71-3.47-7.71-7.71v-3.47h2.29v3.47c0,2.99,2.44,5.43,5.43,5.43h30.45c2.99,0,5.43-2.44,5.43-5.43v-3.47H46
		L46,34.06z"/>
</g>
</svg>
