<?xml version="1.0" encoding="utf-8"?>
<!-- Generator: Adobe Illustrator 19.2.1, SVG Export Plug-In . SVG Version: 6.00 Build 0)  -->
<svg version="1.1" id="Layer_1" xmlns="http://www.w3.org/2000/svg" xmlns:xlink="http://www.w3.org/1999/xlink" x="0px" y="0px"
	 viewBox="0 0 114 38" enable-background="new 0 0 114 38" xml:space="preserve">
<g>
	<g>
		<line fill="#FCFCFC" x1="1.1" y1="37" x2="111.7" y2="37"/>
		<path fill="#FCFCFC" d="M111.7,37.7H1.1c-0.4,0-0.7-0.3-0.7-0.7c0-0.4,0.3-0.7,0.7-0.7h110.6c0.4,0,0.7,0.3,0.7,0.7
			C112.4,37.4,112.1,37.7,111.7,37.7"/>
		<path fill="#FCFCFC" d="M2.7,19.9c0.2,0,0.4,0.1,0.5,0.4l2.4,10.3h0.1L8,20.4c0.1-0.3,0.3-0.4,0.5-0.4h0.8c0,0,0.6,0,0.4,0.6
			l-2.9,12C6.8,33,6.3,33,6.3,33H4.8c0,0-0.4,0-0.5-0.5l-2.9-12c-0.1-0.6,0.4-0.6,0.4-0.6H2.7z"/>
		<path fill="#FCFCFC" d="M17.9,19.9c0.5,0,0.5,0.5,0.5,0.5v0.7c0,0,0,0.5-0.5,0.5h-4.6v3.8h3.4c0.5,0,0.5,0.5,0.5,0.5v0.7
			c0,0,0,0.5-0.5,0.5h-3.4v3.9h4.6c0.5,0,0.5,0.5,0.5,0.5v0.7c0,0,0,0.5-0.5,0.5h-6.3V19.9H17.9z"/>
		<path fill="#FCFCFC" d="M21.7,19.9c0,0,0.5,0,0.5,0.5v10.7h3.5c0.5,0,0.5,0.5,0.5,0.5v0.7c0,0,0,0.5-0.5,0.5h-5.3V20.5
			c0-0.5,0.5-0.5,0.5-0.5H21.7z"/>
		<path fill="#FCFCFC" d="M35.3,24.1v4.8c0,2.4-1,4.2-3.7,4.2c-2.7,0-3.7-1.9-3.7-4.2v-4.8c0-2.4,1-4.3,3.7-4.3
			C34.3,19.8,35.3,21.7,35.3,24.1 M29.6,24.1v4.8c0,1.7,0.8,2.5,2,2.5c1.2,0,2-0.7,2-2.5v-4.8c0-1.7-0.7-2.5-2-2.5
			C30.4,21.6,29.6,22.3,29.6,24.1"/>
		<path fill="#FCFCFC" d="M39.1,19.9c0,0,0.4,0,0.6,0.4l2,4.9l2-4.9c0.2-0.4,0.6-0.4,0.6-0.4h1c0,0,0.5,0,0.5,0.5v12
			c0,0,0,0.5-0.5,0.5h-0.7c0,0-0.5,0-0.5-0.5l0.2-9.2l-1.6,4.2c-0.1,0.4-0.3,0.4-0.5,0.4h-0.8c-0.2,0-0.4,0-0.5-0.4l-1.7-4.3
			l0.2,9.3c0,0,0,0.5-0.5,0.5h-0.7c0,0-0.5,0-0.5-0.5v-12c0,0,0-0.5,0.5-0.5H39.1z"/>
		<path fill="#FCFCFC" d="M52.8,19.9c0,0,0.4,0,0.5,0.4l3.2,12c0.2,0.6-0.4,0.6-0.4,0.6h-0.8c-0.2,0-0.4-0.1-0.5-0.4l-1.1-4.2h-3.2
			l-1.2,4.2C49.2,32.8,49,33,48.8,33H48c0,0-0.6,0-0.4-0.6l3.2-12c0.1-0.4,0.5-0.4,0.5-0.4H52.8z M52,21.9l-1.1,4.7h2.3L52,21.9
			L52,21.9z"/>
		<path fill="#FCFCFC" d="M61.6,19.9c2.7,0,3.7,1.5,3.7,3.9c0,2.1-0.7,3.1-2.2,3.7l1.3,2.8c0.3,0.6,0.6,0.9,0.9,0.9h0.3
			c0.5,0,0.5,0.6,0.5,0.6v0.7c0,0,0,0.6-0.5,0.6h-0.4c-1.1,0-1.7-0.6-2.4-2l-1.4-3.2h-1.2v4.6c0,0.5-0.5,0.5-0.5,0.5H59
			c0,0-0.5,0-0.5-0.5V19.9H61.6z M60.2,26h1.4c1.4,0,2-0.7,2-2.3c0-1.7-0.8-2.1-2-2.1h-1.4V26z"/>
		<path fill="#FCFCFC" d="M72.8,19.9c0,0,0.4,0,0.5,0.4l3.2,12c0.2,0.6-0.4,0.6-0.4,0.6h-0.8c-0.2,0-0.4-0.1-0.5-0.4l-1.1-4.2h-3.2
			l-1.2,4.2c-0.1,0.3-0.3,0.4-0.5,0.4H68c0,0-0.6,0-0.4-0.6l3.2-12c0.1-0.4,0.5-0.4,0.5-0.4H72.8z M72.1,21.9L71,26.6h2.3L72.1,21.9
			L72.1,21.9z"/>
		<path fill="#FCFCFC" d="M83.6,19.9c0.5,0,0.5,0.5,0.5,0.5v0.7c0,0,0,0.5-0.5,0.5h-2.3v10.7c0,0.5-0.5,0.5-0.5,0.5h-0.7
			c0,0-0.5,0-0.5-0.5V21.7h-2.3c-0.5,0-0.5-0.5-0.5-0.5v-0.7c0,0,0-0.5,0.5-0.5H83.6z"/>
		<path fill="#FCFCFC" d="M93.1,24.1v4.8c0,2.4-1,4.2-3.7,4.2c-2.6,0-3.7-1.9-3.7-4.2v-4.8c0-2.4,1.1-4.3,3.7-4.3
			C92.1,19.8,93.1,21.7,93.1,24.1 M87.5,24.1v4.8c0,1.7,0.8,2.5,2,2.5c1.2,0,2-0.7,2-2.5v-4.8c0-1.7-0.7-2.5-2-2.5
			C88.2,21.6,87.5,22.3,87.5,24.1"/>
		<path fill="#FCFCFC" d="M96.9,19.9c0,0,0.4,0,0.6,0.4l3.8,9.4l-0.1-9.3c0,0,0-0.5,0.5-0.5h0.7c0,0,0.5,0,0.5,0.5v12
			c0,0,0,0.5-0.5,0.5h-1.1c0,0-0.4,0-0.6-0.4L97,23.2l0.1,9.3c0,0,0,0.5-0.5,0.5h-0.7c0,0-0.5,0-0.5-0.5v-12c0,0,0-0.5,0.5-0.5H96.9
			z"/>
		<path fill="#FCFCFC" d="M112,22.9c0,0.2,0,0.5-0.4,0.6l-0.6,0.2c-0.3,0.1-0.6,0-0.7-0.4c-0.3-1.2-0.8-1.6-1.9-1.6
			c-1.4,0-1.8,0.9-1.8,1.6c0,0.6,0.2,1.2,0.7,1.5l3.1,1.7c1.1,0.6,1.7,1.8,1.7,3c0,2.1-1.3,3.7-3.7,3.7c-1.5,0-3.6-0.9-3.6-3.8
			c0-0.5,0.5-0.5,0.5-0.5h0.7c0,0,0.5,0,0.5,0.5c0,1.7,1,2.1,1.9,2.1c1.4,0,2-1.1,2-1.9c0-0.6-0.2-1.2-1.1-1.7l-2.6-1.4
			c-1.6-0.9-1.8-2.3-1.8-3.2c0-2.1,1.6-3.3,3.5-3.3C110.6,19.8,111.8,21.1,112,22.9"/>
	</g>
	<path fill="#FCFCFC" d="M63.1,0.3c0.3,0,0.4,0.2,0.4,0.4v0.4c0,0.2-0.2,0.4-0.4,0.4H57c-0.3,0-0.4-0.2-0.4-0.4V0.7
		c0-0.2,0.2-0.4,0.4-0.4H63.1z"/>
	<path fill="#FCFCFC" d="M63.2,2.9c0.5,0,0.5,0.5,0.5,0.5v0.8c0,0,0,0.5-0.5,0.5h-4.7v4H62c0.5,0,0.5,0.5,0.5,0.5V10
		c0,0,0,0.5-0.5,0.5h-3.5v4.1h4.7c0.5,0,0.5,0.5,0.5,0.5v0.8c0,0,0,0.5-0.5,0.5h-6.5V2.9H63.2z"/>
	<path fill="#FCFCFC" d="M68.4,2.9c2.8,0,3.9,1.5,3.9,4c0,2.1-0.8,3.2-2.2,3.8l1.3,2.9c0.3,0.6,0.6,0.9,1,0.9h0.3
		c0.5,0,0.5,0.6,0.5,0.6v0.7c0,0,0,0.6-0.5,0.6h-0.4c-1.1,0-1.7-0.6-2.5-2.1l-1.4-3.3h-1.3v4.8c0,0.6-0.5,0.6-0.5,0.6h-0.7
		c0,0-0.5,0-0.5-0.6v-13H68.4z M66.9,9.3h1.5c1.5,0,2.1-0.8,2.1-2.3c0-1.8-0.8-2.2-2.1-2.2h-1.5V9.3z"/>
	<path fill="#FCFCFC" d="M76.6,2.9c0,0,0.4,0,0.6,0.4l3.9,9.8l-0.1-9.6c0,0,0-0.6,0.5-0.6h0.7c0,0,0.5,0,0.5,0.6v12.4
		c0,0,0,0.6-0.5,0.6h-1.1c0,0-0.4,0-0.6-0.4l-3.9-9.8l0.1,9.6c0,0,0,0.6-0.5,0.6h-0.7c0,0-0.5,0-0.5-0.6V3.5c0,0,0-0.6,0.5-0.6H76.6
		z"/>
	<path fill="#FCFCFC" d="M14,0.7c0.2,0,0.4,0.2,0.4,0.4v0.4C14.5,1.8,14.3,2,14,2H9.3C9.1,2,8.9,1.8,8.9,1.5V1.1
		c0-0.2,0.2-0.4,0.4-0.4H14z"/>
	<path fill="#FCFCFC" d="M4.6,3.7c2.7,0,3.8,1.5,3.8,4c0,2.1-0.8,3.2-2.2,3.8l1.3,2.9c0.3,0.6,0.6,0.9,0.9,0.9h0.3
		c0.5,0,0.5,0.6,0.5,0.6v0.7c0,0,0,0.6-0.5,0.6H8.4c-1.1,0-1.7-0.6-2.5-2.1l-1.4-3.2H3.2v4.8C3.2,17,2.7,17,2.7,17H1.9
		c0,0-0.5,0-0.5-0.6V3.7H4.6z M3.2,9.9h1.4c1.5,0,2-0.8,2-2.3c0-1.7-0.8-2.1-2-2.1H3.2V9.9z"/>
	<path fill="#FCFCFC" d="M12,3.7c0,0,0.5,0,0.5,0.6v12.3c0,0.6-0.5,0.6-0.5,0.6h-0.7c0,0-0.5,0-0.5-0.6V4.2c0-0.6,0.5-0.6,0.5-0.6
		H12z"/>
	<path fill="#FCFCFC" d="M22,6.8c0,0.2,0,0.6-0.4,0.7l-0.7,0.2c-0.3,0.1-0.6-0.1-0.7-0.4c-0.2-1.1-0.8-1.8-1.9-1.8
		c-1.4,0-1.9,0.7-1.9,2.5v4.9c0,1.8,0.6,2.5,2,2.5c1.2,0,2-0.8,2-2.5v-0.7h-2.2c-0.5,0-0.5-0.6-0.5-0.6v-0.7c0,0,0-0.6,0.5-0.6h3.5
		c0,0,0.5,0,0.5,0.6v2c0,2.4-1,4.4-3.7,4.4c-2.5,0-3.8-1.8-3.8-4.4V7.9c0-2.5,1.2-4.3,3.7-4.3C20.7,3.5,21.7,5,22,6.8"/>
	<path fill="#FCFCFC" d="M28.6,3.7c0,0,0.4,0,0.5,0.5l3.3,12.3C32.6,17,32,17,32,17h-0.8c-0.2,0-0.4-0.2-0.5-0.5l-1.1-4.3h-3.2
		l-1.2,4.3C25,16.9,24.8,17,24.6,17h-0.9c0,0-0.6,0-0.4-0.6l3.3-12.3c0.1-0.5,0.5-0.5,0.5-0.5H28.6z M27.9,5.7l-1.2,4.8h2.4
		L27.9,5.7L27.9,5.7z"/>
	<path fill="#FCFCFC" d="M40.5,6.7c0,0.2,0,0.5-0.4,0.7l-0.6,0.2c-0.3,0.1-0.7,0-0.7-0.4c-0.3-1.2-0.8-1.7-1.9-1.7
		C35.5,5.4,35,6.3,35,7c0,0.6,0.2,1.2,0.8,1.5l3.1,1.7c1.1,0.6,1.7,1.9,1.7,3.1c0,2.2-1.4,3.8-3.8,3.8c-1.5,0-3.7-0.9-3.7-3.9
		c0-0.6,0.5-0.6,0.5-0.6h0.7c0,0,0.5,0,0.5,0.6c0,1.7,1.1,2.1,2,2.1c1.5,0,2-1.1,2-2c0-0.6-0.3-1.2-1.2-1.7l-2.6-1.4
		C33.5,9.4,33.3,8,33.3,7c0-2.2,1.7-3.4,3.6-3.4C39.1,3.5,40.3,4.9,40.5,6.7"/>
	<g>
		<path fill="#FCFCFC" d="M107.8,10.3c-0.1,0.3-0.2,0.8-0.4,1.4c0,0.2-0.1,0.3-0.1,0.4c0,0.1,0,0.2,0,0.3c0,0.2,0.1,0.3,0.2,0.4
			c0.1,0.1,0.2,0.2,0.4,0.2c0.2,0,0.3-0.1,0.5-0.2c0.1-0.2,0.2-0.4,0.3-0.8c0.2-0.7,0.4-1.3,0.5-1.7c0.1-0.5,0.2-0.8,0.2-0.9
			c0-0.1,0-0.3-0.1-0.3c-0.1-0.1-0.2-0.1-0.4-0.1c-0.2,0-0.4,0.1-0.5,0.2c-0.1,0.1-0.3,0.4-0.4,0.7C108,9.8,107.9,9.9,107.8,10.3z"
			/>
		<path fill="#FCFCFC" d="M105.5,0.9c-4.5,0-8.1,3.8-8.1,8.5c0,4.7,3.6,8.5,8.1,8.5c4.5,0,8.1-3.8,8.1-8.5
			C113.6,4.7,109.9,0.9,105.5,0.9z M99.1,7.2c0-0.8,0.6-1.6,1.8-2l0.1,0.2c-1,0.5-1.5,1-1.5,1.6c0,0.1,0,0.2,0.1,0.3
			c0.1-0.3,0.3-0.5,0.6-0.5c0.4,0,0.7,0.3,0.7,0.7c0,0.5-0.3,0.8-0.8,0.8C99.5,8.3,99.1,7.8,99.1,7.2z M104.4,12.8l0,0.2h-4.1
			l0.1-0.2h0.9l1.6-5.9l-1.4,0.5l0-0.2l3.7-1.4l-1.9,7H104.4z M108.8,8.6c0.2-0.1,0.5-0.1,0.7-0.1c0.5,0,0.8,0.2,1.1,0.5
			c0.3,0.3,0.4,0.7,0.4,1.3c0,0.9-0.3,1.6-0.8,2.1c-0.5,0.6-1.2,0.8-2.1,0.8c-0.7,0-1.3-0.2-1.7-0.7c-0.4-0.4-0.6-1-0.6-1.8
			c0-0.6,0.1-1.2,0.3-1.9c0.2-0.6,0.5-1.2,0.8-1.6c0.3-0.4,0.7-0.8,1.1-1c0.4-0.2,0.9-0.3,1.4-0.3c0.4,0,0.7,0,1,0.1
			c0.3,0.1,0.5,0.2,0.8,0.4L111,6.5c-0.1-0.1-0.3-0.2-0.4-0.3c-0.2-0.1-0.3-0.1-0.5-0.1c-0.4,0-0.8,0.2-1.1,0.7
			c-0.3,0.5-0.6,1.2-0.8,2.2C108.4,8.8,108.6,8.7,108.8,8.6z"/>
	</g>
	<g>
		<path fill="#FCFCFC" d="M50.6,9c2.7,0,3.9,1,4,3.4c0.1,2.9-1,3.6-2.4,3.9c-0.9,0.2-0.9,0.2-1.8,0.2c-0.7,0-2.5,0-2.5,0L47.4,9
			H50.6z M49.2,14.6h1.4c2,0,2.2-0.4,2.2-2.3c0-1.7-1-1.6-2.2-1.6h-1.4V14.6z"/>
		<path fill="#FCFCFC" d="M50.6,3.1c2.7,0,3.8,1.5,3.8,4c0,2.1-0.8,2.8-2.2,3.4c0,0-0.8,0.3-1.8,0.3c-0.7,0-1.3,0-1.3,0v5.1
			c0,0.6-0.5,0.6-0.5,0.6H48c0,0-0.5,0-0.5-0.6V3.1H50.6z M49.2,9h1.4c1.5,0,2-0.4,2-1.9c0-1.7-0.8-2.1-2-2.1h-1.4V9z"/>
	</g>
	<g>
		<path fill="#FCFCFC" d="M90.8,4v8c0,1.8-0.8,2.6-2,2.6c-1.3,0-2-0.8-2-2.6V4h-1.8v8c0,2.5,1.1,4.4,3.8,4.4c2.7,0,3.8-1.9,3.8-4.4
			V4H90.8z"/>
		<g>
			<path fill="#FCFCFC" d="M92.6,5.2V3.3c0-0.6-0.5-0.6-0.5-0.6h-0.7c-0.5,0-0.5,0.6-0.5,0.6l0,1.9H92.6z"/>
		</g>
		<g>
			<path fill="#FCFCFC" d="M86.7,5.2V3.3c0-0.6-0.5-0.6-0.5-0.6h-0.7c-0.5,0-0.5,0.6-0.5,0.6l0,1.9H86.7z"/>
		</g>
	</g>
</g>
</svg>
