<?xml version="1.0" encoding="utf-8"?>
<!-- Generator: Adobe Illustrator 19.2.1, SVG Export Plug-In . SVG Version: 6.00 Build 0)  -->
<svg version="1.1" id="Layer_1" xmlns="http://www.w3.org/2000/svg" xmlns:xlink="http://www.w3.org/1999/xlink" x="0px" y="0px"
	 viewBox="0 0 90 44" enable-background="new 0 0 90 44" xml:space="preserve">
<g id="XMLID_2157_">
	<line id="XMLID_2251_" fill="#FFFFFF" x1="0.2" y1="43.5" x2="89.4" y2="43.5"/>
	<g id="XMLID_2192_">
		<path id="XMLID_2250_" fill="#FFFFFF" d="M21,0.5c0.4,0,0.7,0.3,0.7,0.7v0.7c0,0.4-0.3,0.7-0.7,0.7h-7.4c-0.4,0-0.7-0.3-0.7-0.7
			V1.2c0-0.4,0.3-0.7,0.7-0.7H21z"/>
		<path id="XMLID_2247_" fill="#FFFFFF" d="M6.1,5.3c4.3,0,6,2.4,6,6.3c0,3.3-1.2,5-3.5,6l2.1,4.6c0.5,0.9,1,1.4,1.5,1.4h0.4
			c0.8,0,0.8,0.9,0.8,0.9v1.1c0,0,0,0.9-0.8,0.9H12c-1.7,0-2.7-0.9-3.9-3.2L5.9,18h-2v7.5c0,0.9-0.8,0.9-0.8,0.9H1.9
			c0,0-0.8,0-0.8-0.9V5.3H6.1z M3.9,15.1h2.3c2.3,0,3.2-1.2,3.2-3.6c0-2.7-1.3-3.4-3.2-3.4H3.9V15.1z"/>
		<path id="XMLID_2245_" fill="#FFFFFF" d="M17.8,5.3c0,0,0.9,0,0.9,0.9v19.3c0,0.9-0.8,0.9-0.8,0.9h-1.1c0,0-0.8,0-0.8-0.9V6.1
			c0-0.9,0.8-0.9,0.8-0.9H17.8z"/>
		<path id="XMLID_2244_" fill="#FFFFFF" d="M33.5,10.1c0.1,0.4,0,0.9-0.6,1l-1.1,0.3c-0.5,0.1-1-0.2-1.1-0.7c-0.3-1.7-1.2-2.9-3-2.9
			c-2.1,0-3,1.2-3,4v7.8c0,2.8,1,4,3.2,4c1.9,0,3.1-1.2,3.1-4v-1.1h-3.5c-0.8,0-0.8-0.9-0.8-0.9v-1.1c0,0,0-0.9,0.8-0.9h5.5
			c0,0,0.8,0,0.8,0.9v3.1c0,3.8-1.6,6.9-5.9,6.9c-4,0-6-2.9-6-6.9v-7.8c0-4,1.8-6.8,5.8-6.8C31.4,5.1,33,7.3,33.5,10.1"/>
		<path id="XMLID_2229_" fill="#FFFFFF" d="M44,5.3c0,0,0.7,0,0.9,0.7L50,25.4c0.3,1-0.7,1-0.7,1H48c-0.3,0-0.7-0.2-0.8-0.7
			l-1.8-6.7h-5.1l-1.9,6.7c-0.1,0.5-0.5,0.7-0.8,0.7h-1.3c0,0-0.9,0-0.7-1L40.8,6c0.2-0.7,0.8-0.7,0.8-0.7H44z M42.8,8.4L41,16h3.7
			L42.8,8.4L42.8,8.4z"/>
		<path id="XMLID_2221_" fill="#FFFFFF" d="M62.7,10c0.1,0.4,0,0.8-0.6,1l-1,0.3c-0.5,0.2-1,0-1.2-0.7C59.5,8.7,58.7,8,57,8
			c-2.2,0-2.9,1.4-2.9,2.5c0,1,0.3,1.9,1.2,2.4l4.9,2.7c1.8,1,2.8,2.9,2.8,4.9c0,3.4-2.2,6-6,6c-2.3,0-5.9-1.4-5.9-6.2
			c0-0.9,0.8-0.9,0.8-0.9h1.1c0,0,0.8,0,0.8,0.9c0,2.7,1.7,3.3,3.1,3.3c2.3,0,3.2-1.7,3.2-3.1c0-1-0.4-1.9-1.8-2.7l-4.1-2.2
			c-2.6-1.4-3-3.6-3-5.2c0-3.5,2.6-5.4,5.7-5.4C60.4,5.1,62.3,7.2,62.7,10"/>
	</g>
	<path id="XMLID_2191_" fill="#FFFFFF" d="M1.5,29.7c0.2,0,0.3,0.1,0.4,0.4l1.9,8.3h0.1L5.7,30c0.1-0.2,0.2-0.4,0.4-0.4h0.6
		c0,0,0.5,0,0.4,0.5l-2.3,9.7c-0.1,0.4-0.4,0.4-0.4,0.4H3.2c0,0-0.4,0-0.4-0.4l-2.3-9.7c-0.1-0.5,0.4-0.5,0.4-0.5H1.5z"/>
	<path id="XMLID_2190_" fill="#FFFFFF" d="M13.8,29.7c0.4,0,0.4,0.4,0.4,0.4v0.6c0,0,0,0.4-0.4,0.4h-3.7v3.1h2.7
		c0.4,0,0.4,0.4,0.4,0.4v0.6c0,0,0,0.4-0.4,0.4h-2.7v3.2h3.7c0.4,0,0.4,0.4,0.4,0.4v0.6c0,0,0,0.4-0.4,0.4H8.7V29.7H13.8z"/>
	<path id="XMLID_2186_" fill="#FFFFFF" d="M16.8,29.7c0,0,0.4,0,0.4,0.4v8.7h2.9c0.4,0,0.4,0.4,0.4,0.4v0.6c0,0,0,0.4-0.4,0.4h-4.2
		V30.1c0-0.4,0.4-0.4,0.4-0.4H16.8z"/>
	<path id="XMLID_2182_" fill="#FFFFFF" d="M27.8,33v3.9c0,1.9-0.8,3.4-3,3.4c-2.1,0-3-1.5-3-3.4V33c0-1.9,0.8-3.4,3-3.4
		C26.9,29.6,27.8,31.1,27.8,33 M23.2,33v3.9c0,1.4,0.6,2,1.6,2c1,0,1.6-0.6,1.6-2V33c0-1.4-0.6-2-1.6-2C23.8,31,23.2,31.6,23.2,33"
		/>
	<path id="XMLID_2181_" fill="#FFFFFF" d="M30.9,29.7c0,0,0.3,0,0.4,0.3l1.6,3.9l1.6-3.9c0.1-0.3,0.4-0.3,0.4-0.3h0.8
		c0,0,0.4,0,0.4,0.4v9.7c0,0,0,0.4-0.4,0.4h-0.5c0,0-0.4,0-0.4-0.4l0.1-7.4l-1.3,3.4C33.6,36,33.4,36,33.3,36h-0.6
		c-0.2,0-0.3,0-0.4-0.3l-1.3-3.4l0.1,7.5c0,0,0,0.4-0.4,0.4H30c0,0-0.4,0-0.4-0.4v-9.7c0,0,0-0.4,0.4-0.4H30.9z"/>
	<path id="XMLID_2178_" fill="#FFFFFF" d="M41.9,29.7c0,0,0.3,0,0.4,0.4l2.6,9.7c0.1,0.5-0.4,0.5-0.4,0.5h-0.7
		c-0.2,0-0.3-0.1-0.4-0.4l-0.9-3.4H40l-0.9,3.4c-0.1,0.2-0.2,0.4-0.4,0.4H38c0,0-0.5,0-0.3-0.5l2.6-9.7c0.1-0.4,0.4-0.4,0.4-0.4
		H41.9z M41.3,31.3L40.3,35h1.9L41.3,31.3L41.3,31.3z"/>
	<path id="XMLID_2175_" fill="#FFFFFF" d="M49,29.7c2.1,0,3,1.2,3,3.1c0,1.7-0.6,2.5-1.7,3l1,2.3c0.3,0.5,0.5,0.7,0.7,0.7h0.2
		c0.4,0,0.4,0.5,0.4,0.5v0.5c0,0,0,0.5-0.4,0.5h-0.3c-0.9,0-1.3-0.5-2-1.6L48.8,36h-1v3.7c0,0.4-0.4,0.4-0.4,0.4h-0.6
		c0,0-0.4,0-0.4-0.4V29.7H49z M47.8,34.6H49c1.1,0,1.6-0.6,1.6-1.8c0-1.4-0.6-1.7-1.6-1.7h-1.1V34.6z"/>
	<path id="XMLID_2172_" fill="#FFFFFF" d="M58.1,29.7c0,0,0.3,0,0.4,0.4l2.6,9.7c0.1,0.5-0.4,0.5-0.4,0.5h-0.7
		c-0.2,0-0.3-0.1-0.4-0.4l-0.9-3.4h-2.6l-0.9,3.4c-0.1,0.2-0.2,0.4-0.4,0.4h-0.7c0,0-0.5,0-0.3-0.5l2.6-9.7c0.1-0.4,0.4-0.4,0.4-0.4
		H58.1z M57.5,31.3L56.5,35h1.9L57.5,31.3L57.5,31.3z"/>
	<path id="XMLID_2171_" fill="#FFFFFF" d="M66.8,29.7c0.4,0,0.4,0.4,0.4,0.4v0.6c0,0,0,0.4-0.4,0.4h-1.9v8.7c0,0.4-0.4,0.4-0.4,0.4
		h-0.6c0,0-0.4,0-0.4-0.4v-8.7h-1.9c-0.4,0-0.4-0.4-0.4-0.4v-0.6c0,0,0-0.4,0.4-0.4H66.8z"/>
	<path id="XMLID_2168_" fill="#FFFFFF" d="M74.4,33v3.9c0,1.9-0.8,3.4-3,3.4s-3-1.5-3-3.4V33c0-1.9,0.8-3.4,3-3.4S74.4,31.1,74.4,33
		 M69.8,33v3.9c0,1.4,0.6,2,1.6,2c1,0,1.6-0.6,1.6-2V33c0-1.4-0.6-2-1.6-2C70.5,31,69.8,31.6,69.8,33"/>
	<path id="XMLID_2167_" fill="#FFFFFF" d="M77.5,29.7c0,0,0.3,0,0.4,0.3l3,7.6l-0.1-7.5c0,0,0-0.4,0.4-0.4h0.6c0,0,0.4,0,0.4,0.4
		v9.7c0,0,0,0.4-0.4,0.4H81c0,0-0.3,0-0.4-0.3l-3-7.6l0.1,7.5c0,0,0,0.4-0.4,0.4h-0.6c0,0-0.4,0-0.4-0.4v-9.7c0,0,0-0.4,0.4-0.4
		H77.5z"/>
	<path id="XMLID_2166_" fill="#FFFFFF" d="M89.7,32c0,0.2,0,0.4-0.3,0.5l-0.5,0.1c-0.3,0.1-0.5,0-0.6-0.3c-0.2-0.9-0.6-1.3-1.5-1.3
		c-1.1,0-1.4,0.7-1.4,1.3c0,0.5,0.1,0.9,0.6,1.2l2.5,1.4c0.9,0.5,1.4,1.5,1.4,2.5c0,1.7-1.1,3-3,3c-1.2,0-2.9-0.7-2.9-3.1
		c0-0.4,0.4-0.4,0.4-0.4h0.6c0,0,0.4,0,0.4,0.4c0,1.4,0.8,1.7,1.5,1.7c1.2,0,1.6-0.9,1.6-1.6c0-0.5-0.2-1-0.9-1.3l-2.1-1.1
		C84.1,34.2,84,33,84,32.3c0-1.7,1.3-2.7,2.8-2.7C88.5,29.6,89.5,30.6,89.7,32"/>
	<g>
		<path fill="#FFFFFF" d="M78.5,3.9c-6,0-10.9,5.1-10.9,11.4c0,6.3,4.9,11.4,10.9,11.4c6,0,10.9-5.1,10.9-11.4
			C89.4,9,84.6,3.9,78.5,3.9z M69.9,12.3c0-1.1,0.8-2.1,2.4-2.8l0.1,0.3c-1.3,0.6-2,1.3-2,2.2c0,0.2,0,0.3,0.2,0.5
			c0.1-0.4,0.4-0.7,0.8-0.7c0.5,0,1,0.4,1,1c0,0.7-0.4,1.1-1.1,1.1C70.5,13.9,69.9,13.3,69.9,12.3z M77.1,19.9L77,20.2h-5.5l0.1-0.2
			h1.2L75,12l-1.9,0.6L73,12.4l5-1.9l-2.6,9.4H77.1z M83,14.2c0.3-0.1,0.6-0.2,0.9-0.2c0.6,0,1.1,0.2,1.5,0.7c0.4,0.4,0.6,1,0.6,1.7
			c0,1.2-0.4,2.1-1.1,2.8c-0.7,0.7-1.6,1.1-2.8,1.1c-1,0-1.7-0.3-2.3-0.9c-0.5-0.6-0.8-1.4-0.8-2.5c0-0.8,0.1-1.7,0.4-2.5
			c0.3-0.9,0.6-1.6,1.1-2.2c0.4-0.6,0.9-1,1.4-1.3c0.5-0.3,1.2-0.4,1.9-0.4c0.5,0,1,0.1,1.3,0.2c0.4,0.1,0.7,0.3,1,0.6L86,11.5
			c-0.2-0.2-0.4-0.3-0.6-0.4c-0.2-0.1-0.4-0.1-0.7-0.1c-0.6,0-1.1,0.3-1.5,0.9s-0.8,1.6-1.1,2.9C82.4,14.5,82.7,14.4,83,14.2z"/>
		<path fill="#FFFFFF" d="M81.7,16.5c-0.1,0.5-0.3,1.1-0.5,1.8c-0.1,0.2-0.1,0.4-0.1,0.5c0,0.1,0,0.3,0,0.4c0,0.2,0.1,0.4,0.2,0.6
			c0.1,0.1,0.3,0.2,0.5,0.2c0.2,0,0.5-0.1,0.6-0.3c0.2-0.2,0.3-0.6,0.5-1.1c0.3-0.9,0.5-1.7,0.6-2.3c0.2-0.6,0.2-1,0.2-1.2
			c0-0.2-0.1-0.3-0.2-0.5c-0.1-0.1-0.3-0.2-0.5-0.2c-0.3,0-0.5,0.1-0.7,0.3c-0.2,0.2-0.4,0.5-0.5,0.9C81.9,15.8,81.8,16.1,81.7,16.5
			z"/>
	</g>
</g>
</svg>
