<?xml version="1.0" encoding="utf-8"?>
<!-- Generator: Adobe Illustrator 19.2.1, SVG Export Plug-In . SVG Version: 6.00 Build 0)  -->
<svg version="1.1" id="Layer_1" xmlns="http://www.w3.org/2000/svg" xmlns:xlink="http://www.w3.org/1999/xlink" x="0px" y="0px"
	 viewBox="0 0 100 88" enable-background="new 0 0 100 88" xml:space="preserve">
<g id="XMLID_6_">
	<g>
		<g id="XMLID_968_">
			<path id="XMLID_977_" fill="#FFFFFF" d="M37.62,75.23h-8.06v-1.11c0-3.77,6.41-3.68,6.41-6.07c0-0.96-0.55-1.72-2.23-1.72
				c-1.72,0-2.3,0.47-2.3,1.88h-1.65c0-2.42,1.27-3.42,3.95-3.42c2.46,0,3.89,1.22,3.89,3.26c0,3.52-5.51,3.5-6.28,5.6h6.28V75.23z"
				/>
			<path id="XMLID_974_" fill="#FFFFFF" d="M43.76,75.39c-2.86,0-4.37-1.3-4.37-5.36c0-3.36,1.25-5.23,4.37-5.23
				c3.13,0,4.38,1.88,4.38,5.23C48.14,74.09,46.63,75.39,43.76,75.39z M43.76,66.37c-1.91,0-2.71,0.79-2.71,3.66
				c0,3.29,1.01,3.79,2.71,3.79c1.72,0,2.73-0.5,2.73-3.79C46.49,67.16,45.68,66.37,43.76,66.37z"/>
			<path id="XMLID_972_" fill="#FFFFFF" d="M54.47,75.23h-3.9v-1.57h1.14v-7.13h-1.16v-1.57h2.79v8.7h1.12V75.23z"/>
			<path id="XMLID_969_" fill="#FFFFFF" d="M61.25,75.39c-2.97,0-4.37-1.45-4.37-3.63v-3.34c0-2.42,1.69-3.63,4.14-3.63
				c2.71,0,3.95,0.96,3.95,3.23h-1.65c0-1.32-0.5-1.7-2.3-1.7c-1.65,0-2.49,0.71-2.49,2.1v0.82c0.79-0.45,1.83-0.77,2.95-0.77
				c2.52,0,3.92,1.16,3.92,3.34C65.4,73.96,64.02,75.39,61.25,75.39z M61.49,69.92c-1.01,0-1.94,0.34-2.95,0.88v0.96
				c0,1.36,0.84,2.1,2.71,2.1c1.65,0,2.5-0.63,2.5-2.06C63.75,70.56,63.11,69.92,61.49,69.92z"/>
		</g>
		<polygon id="XMLID_967_" fill="#FFFFFF" points="0,0.42 0,87.58 13.07,79.5 19.37,5.18 		"/>
		<g id="XMLID_841_">
			<path id="XMLID_966_" fill="#FFFFFF" d="M40.92,36.7h-1.46l-1.7-3.47h-2.14v3.47h-1.33v-8.07h1.33v3.47h1.73
				c1.45,0,1.98-0.4,1.98-2.48v-0.98h1.32v0.97c0,2-0.33,2.79-1.6,3.4L40.92,36.7z"/>
			<path id="XMLID_963_" fill="#FFFFFF" d="M41.21,36.88h-1.87l-1.7-3.47h-1.85v3.47h-1.68v-8.43h1.68v3.47h1.55
				c1.35,0,1.8-0.33,1.8-2.3v-1.16h1.68v1.15c0,2.03-0.35,2.85-1.54,3.48L41.21,36.88z M39.57,36.52h1.06l-1.83-3.6l0.16-0.08
				c1.18-0.57,1.5-1.27,1.5-3.24v-0.79H39.5v0.8c0,2.04-0.5,2.66-2.16,2.66h-1.91v-3.47h-0.97v7.71h0.97v-3.47h2.43L39.57,36.52z"/>
			<path id="XMLID_960_" fill="#FFFFFF" d="M47.16,34.21h-3.18l-1.02,2.49h-1.41l3.43-8.07h1.18l3.42,8.07h-1.4L47.16,34.21z
				 M44.5,32.95h2.14l-1.07-2.61L44.5,32.95z"/>
			<path id="XMLID_955_" fill="#FFFFFF" d="M49.85,36.88h-1.79l-1.02-2.49h-2.94l-1.02,2.49h-1.8l3.58-8.43h1.42l0.05,0.11
				L49.85,36.88z M48.3,36.52h1.01l-3.26-7.71H45.1l-3.28,7.71h1.02l1.02-2.5h3.42L48.3,36.52z M46.91,33.13h-2.68l1.34-3.26
				L46.91,33.13z M44.77,32.77h1.61l-0.8-1.96L44.77,32.77z"/>
			<polygon id="XMLID_954_" fill="#FFFFFF" points="56.67,36.7 50.78,36.7 50.78,28.64 52.1,28.64 52.1,35.47 56.67,35.47 			"/>
			<path id="XMLID_951_" fill="#FFFFFF" d="M56.85,36.88H50.6v-8.43h1.68v6.83h4.56V36.88z M50.96,36.52h5.53v-0.88h-4.56v-6.83
				h-0.97V36.52z"/>
			<polygon id="XMLID_950_" fill="#FFFFFF" points="64.86,36.7 63.62,36.7 59.31,30.84 59.31,36.7 57.99,36.7 57.99,28.64 
				59.22,28.64 63.54,34.5 63.54,28.64 64.86,28.64 			"/>
			<path id="XMLID_947_" fill="#FFFFFF" d="M65.04,36.88h-1.5l-4.04-5.5v5.5h-1.68v-8.43h1.51l4.04,5.49v-5.49h1.68V36.88z
				 M63.71,36.52h0.97v-7.71h-0.96v6.23l-4.58-6.23h-0.97v7.71h0.97V30.3L63.71,36.52z"/>
			<path id="XMLID_946_" fill="#FFFFFF" d="M73.56,33.55c0,2.21-0.9,3.28-3.44,3.28c-2.38,0-3.43-1.07-3.43-3.28v-4.92h1.32v4.78
				c0,1.51,0.55,2.18,2.1,2.18c1.65,0,2.12-0.64,2.12-2.18v-4.78h1.32V33.55z"/>
			<path id="XMLID_943_" fill="#FFFFFF" d="M70.12,37.01c-2.43,0-3.61-1.13-3.61-3.46v-5.1h1.68v4.96c0,1.46,0.52,2,1.93,2
				c1.47,0,1.94-0.49,1.94-2v-4.96h1.68v5.1C73.74,35.97,72.65,37.01,70.12,37.01 M66.87,28.81v4.74c0,2.14,1,3.1,3.25,3.1
				c2.35,0,3.26-0.87,3.26-3.1v-4.74h-0.97v4.6c0,1.72-0.62,2.36-2.3,2.36c-1.6,0-2.28-0.71-2.28-2.36v-4.6H66.87z"/>
			<path id="XMLID_942_" fill="#FFFFFF" d="M99.82,45.64c0,2.21-0.9,3.28-3.44,3.28c-2.38,0-3.43-1.07-3.43-3.28v-4.92h1.32v4.78
				c0,1.51,0.55,2.18,2.11,2.18c1.65,0,2.12-0.64,2.12-2.18v-4.78h1.32V45.64z"/>
			<path id="XMLID_939_" fill="#FFFFFF" d="M96.38,49.1c-2.43,0-3.61-1.13-3.61-3.46v-5.1h1.68v4.96c0,1.46,0.52,2,1.93,2
				c1.47,0,1.94-0.49,1.94-2v-4.96H100v5.1C100,48.06,98.92,49.1,96.38,49.1 M93.13,40.9v4.74c0,2.14,1,3.1,3.25,3.1
				c2.35,0,3.26-0.87,3.26-3.1V40.9h-0.97v4.6c0,1.72-0.62,2.36-2.3,2.36c-1.6,0-2.28-0.71-2.28-2.36v-4.6H93.13z"/>
			<path id="XMLID_936_" fill="#FFFFFF" d="M36.23,48.84h-3.62v-8.07h3.08c2.37,0,3.82,0.92,3.82,3.9
				C39.51,47.42,38.32,48.84,36.23,48.84 M35.84,42h-1.9v5.6h2.47c0.77,0,1.74-0.59,1.74-2.94C38.15,42.38,37.24,42,35.84,42"/>
			<path id="XMLID_931_" fill="#FFFFFF" d="M36.23,49.02h-3.8v-8.43h3.26c2.77,0,4,1.26,4,4.08C39.69,47.47,38.46,49.02,36.23,49.02
				 M32.79,48.66h3.44c2.03,0,3.1-1.38,3.1-3.99c0-2.61-1.09-3.72-3.64-3.72h-2.9V48.66z M36.41,47.78h-2.65v-5.95h2.08
				c1.54,0,2.49,0.47,2.49,2.84C38.32,47.55,36.86,47.78,36.41,47.78 M34.11,47.42h2.29c0.47,0,1.56-0.27,1.56-2.76
				c0-2.09-0.75-2.48-2.13-2.48h-1.72V47.42z"/>
			<polygon id="XMLID_930_" fill="#FFFFFF" points="44.25,48.84 40.83,48.84 40.83,47.6 41.88,47.6 41.88,42 40.83,42 40.83,40.77 
				44.25,40.77 44.25,42 43.2,42 43.2,47.6 44.25,47.6 			"/>
			<path id="XMLID_927_" fill="#FFFFFF" d="M44.43,49.02h-3.78v-1.59h1.05v-5.24h-1.05v-1.59h3.78v1.59h-1.05v5.24h1.05V49.02z
				 M41.01,48.66h3.06v-0.88h-1.05v-5.95h1.05v-0.88h-3.06v0.88h1.05v5.95h-1.05V48.66z"/>
			<polygon id="XMLID_926_" fill="#FFFFFF" points="53.35,40.77 49.96,48.84 48.85,48.84 45.44,40.77 46.92,40.77 49.4,46.93 
				51.89,40.77 			"/>
			<path id="XMLID_923_" fill="#FFFFFF" d="M50.08,49.02h-1.35l-3.56-8.43h1.87l2.36,5.86l2.36-5.86h1.85L50.08,49.02z M48.97,48.66
				h0.87l3.24-7.71h-1.07l-2.6,6.46l-2.61-6.46h-1.08L48.97,48.66z"/>
			<path id="XMLID_920_" fill="#FFFFFF" d="M61.18,48.84h-1.4l-1.53-3.29h-2.41v3.29h-1.3v-8.07h3.64c1.79,0,2.64,0.86,2.64,2.39
				c0,0.86-0.42,1.69-1.36,2.09L61.18,48.84z M58.04,42h-2.19v2.32h2.41c0.66,0,1.25-0.43,1.25-1.16C59.5,42.36,59.08,42,58.04,42"
				/>
			<path id="XMLID_915_" fill="#FFFFFF" d="M61.46,49.02h-1.8l-1.53-3.29h-2.11v3.29h-1.66v-8.43h3.82c1.84,0,2.81,0.89,2.81,2.57
				c0,0.96-0.48,1.76-1.3,2.18L61.46,49.02z M59.89,48.66h1l-1.67-3.49l0.17-0.07c0.8-0.34,1.25-1.04,1.25-1.93
				c0-1.49-0.8-2.22-2.46-2.22h-3.46v7.71h0.94v-3.29h2.7L59.89,48.66z M58.25,44.5h-2.59v-2.68h2.37c1.13,0,1.64,0.41,1.64,1.34
				C59.68,44.04,58.96,44.5,58.25,44.5 M56.02,44.14h2.23c0.53,0,1.07-0.34,1.07-0.98c0-0.6-0.21-0.98-1.28-0.98h-2.02V44.14z"/>
			<polygon id="XMLID_914_" fill="#FFFFFF" points="66.04,48.84 62.63,48.84 62.63,47.6 63.67,47.6 63.67,42 62.63,42 62.63,40.77 
				66.04,40.77 66.04,42 64.99,42 64.99,47.6 66.04,47.6 			"/>
			<path id="XMLID_911_" fill="#FFFFFF" d="M66.22,49.02h-3.77v-1.59h1.05v-5.24h-1.05v-1.59h3.77v1.59h-1.05v5.24h1.05V49.02z
				 M62.8,48.66h3.06v-0.88h-1.05v-5.95h1.05v-0.88H62.8v0.88h1.05v5.95H62.8V48.66z"/>
			<polygon id="XMLID_910_" fill="#FFFFFF" points="74.56,42 71.69,42 71.69,48.84 70.36,48.84 70.36,42 67.49,42 67.49,40.77 
				74.56,40.77 			"/>
			<path id="XMLID_907_" fill="#FFFFFF" d="M71.87,49.02h-1.68v-6.83h-2.87v-1.59h7.43v1.59h-2.87V49.02z M70.54,48.66h0.97v-6.83
				h2.87v-0.88h-6.71v0.88h2.87V48.66z"/>
			<polygon id="XMLID_906_" fill="#FFFFFF" points="81.85,48.84 76.07,48.84 76.07,40.77 81.85,40.77 81.85,42 77.4,42 77.4,43.98 
				81.31,43.98 81.31,45.12 77.4,45.12 77.4,47.6 81.85,47.6 			"/>
			<path id="XMLID_903_" fill="#FFFFFF" d="M82.03,49.02H75.9v-8.43h6.13v1.59h-4.45v1.62h3.91v1.49h-3.91v2.13h4.45V49.02z
				 M76.25,48.66h5.41v-0.88h-4.45v-2.84h3.91v-0.78h-3.91v-2.34h4.45v-0.88h-5.41V48.66z"/>
			<path id="XMLID_900_" fill="#FFFFFF" d="M90.42,48.84h-1.24l-4.31-5.86v5.86h-1.32v-8.07h1.23l4.31,5.86v-5.86h1.32V48.84z
				 M87.2,50.85h-0.96l0.13-1.58h1.34L87.2,50.85z"/>
			<path id="XMLID_895_" fill="#FFFFFF" d="M87.34,51.03h-1.3l0.16-1.94h1.73L87.34,51.03z M86.44,50.68h0.62l0.42-1.22h-0.95
				L86.44,50.68z M90.6,49.02h-1.51l-4.04-5.5v5.5h-1.68v-8.43h1.51l4.04,5.5v-5.5h1.68V49.02z M89.27,48.66h0.97v-7.71h-0.97v6.23
				l-4.58-6.23h-0.97v7.71h0.97v-6.23L89.27,48.66z"/>
			<polygon id="XMLID_894_" fill="#FFFFFF" points="38.96,60.97 37.64,60.97 37.64,55.21 35.43,58.46 34.69,58.46 32.48,55.19 
				32.48,60.97 31.16,60.97 31.16,52.9 32.38,52.9 35.07,56.92 37.74,52.9 38.96,52.9 			"/>
			<path id="XMLID_891_" fill="#FFFFFF" d="M39.14,61.15h-1.68v-5.36l-1.93,2.85h-0.93l-1.93-2.86v5.37h-1.68v-8.43h1.5l2.59,3.88
				l2.58-3.88h1.5V61.15z M37.82,60.79h0.97v-7.71h-0.95l-2.77,4.17l-2.78-4.17h-0.95v7.71h0.97v-6.18l2.48,3.67h0.55l2.48-3.66
				V60.79z"/>
			<path id="XMLID_888_" fill="#FFFFFF" d="M45.77,58.47h-3.18l-1.02,2.5h-1.41l3.43-8.07h1.18l3.42,8.07h-1.4L45.77,58.47z
				 M43.11,57.21h2.14l-1.07-2.61L43.11,57.21z"/>
			<path id="XMLID_883_" fill="#FFFFFF" d="M48.46,61.15h-1.79l-1.02-2.5h-2.94l-1.02,2.5h-1.8l3.58-8.43h1.42l0.05,0.11
				L48.46,61.15z M46.91,60.79h1.01l-3.26-7.71H43.7l-3.28,7.71h1.02l1.02-2.5h3.42L46.91,60.79z M45.52,57.39h-2.68l1.34-3.26
				L45.52,57.39z M43.38,57.03h1.61l-0.8-1.96L43.38,57.03z"/>
			<path id="XMLID_880_" fill="#FFFFFF" d="M56.02,60.97h-1.4l-1.53-3.29h-2.41v3.29h-1.3V52.9h3.64c1.79,0,2.63,0.86,2.63,2.4
				c0,0.86-0.42,1.69-1.36,2.09L56.02,60.97z M52.88,54.14h-2.19v2.32h2.41c0.66,0,1.25-0.43,1.25-1.16
				C54.34,54.49,53.92,54.14,52.88,54.14"/>
			<path id="XMLID_875_" fill="#FFFFFF" d="M56.3,61.15h-1.8l-1.53-3.29h-2.11v3.29h-1.66v-8.43h3.82c1.84,0,2.81,0.89,2.81,2.57
				c0,0.96-0.48,1.76-1.3,2.18L56.3,61.15z M54.73,60.79h1l-1.67-3.49l0.17-0.07c0.8-0.34,1.25-1.04,1.25-1.93
				c0-1.49-0.8-2.22-2.46-2.22h-3.46v7.71h0.94V57.5h2.7L54.73,60.79z M53.09,56.63H50.5v-2.68h2.37c1.14,0,1.64,0.41,1.64,1.34
				C54.52,56.18,53.8,56.63,53.09,56.63 M50.86,56.28h2.23c0.53,0,1.07-0.34,1.07-0.98c0-0.61-0.21-0.98-1.28-0.98h-2.01V56.28z"/>
			<path id="XMLID_872_" fill="#FFFFFF" d="M62.38,58.47H59.2l-1.02,2.5h-1.41l3.43-8.07h1.18l3.42,8.07h-1.4L62.38,58.47z
				 M59.72,57.21h2.14l-1.07-2.61L59.72,57.21z"/>
			<path id="XMLID_867_" fill="#FFFFFF" d="M65.07,61.15h-1.79l-1.02-2.5h-2.94l-1.02,2.5h-1.8l3.58-8.43h1.42l0.05,0.11
				L65.07,61.15z M63.52,60.79h1.01l-3.26-7.71h-0.95l-3.28,7.71h1.02l1.02-2.5h3.42L63.52,60.79z M62.13,57.39h-2.68l1.34-3.26
				L62.13,57.39z M59.99,57.03h1.61l-0.81-1.96L59.99,57.03z"/>
			<polygon id="XMLID_866_" fill="#FFFFFF" points="71.24,54.14 68.37,54.14 68.37,60.97 67.05,60.97 67.05,54.14 64.17,54.14 
				64.17,52.9 71.24,52.9 			"/>
			<path id="XMLID_863_" fill="#FFFFFF" d="M68.55,61.15h-1.68v-6.83h-2.87v-1.59h7.43v1.59h-2.87V61.15z M67.22,60.79h0.97v-6.83
				h2.87v-0.88h-6.71v0.88h2.87V60.79z"/>
			<path id="XMLID_860_" fill="#FFFFFF" d="M75.76,61.09c-2.18,0-3.82-0.82-3.82-4.25c0-2.51,1.22-4.07,3.82-4.07
				c2.61,0,3.83,1.56,3.83,4.07C79.59,60.27,77.94,61.09,75.76,61.09 M75.76,54.01c-1.55,0-2.5,0.79-2.5,2.82
				c0,2.63,1.08,3.03,2.5,3.03c1.42,0,2.51-0.35,2.51-3.03C78.26,54.8,77.32,54.01,75.76,54.01"/>
			<path id="XMLID_855_" fill="#FFFFFF" d="M75.76,61.27c-2.77,0-4-1.37-4-4.43c0-2.74,1.42-4.25,4-4.25c2.59,0,4.01,1.51,4.01,4.25
				C79.77,59.91,78.53,61.27,75.76,61.27 M75.76,52.95c-3.01,0-3.64,2.12-3.64,3.89c0,3.59,1.84,4.07,3.64,4.07
				c1.81,0,3.65-0.48,3.65-4.07C79.41,55.07,78.77,52.95,75.76,52.95 M75.76,60.04c-1.61,0-2.68-0.54-2.68-3.2c0-1.99,0.9-3,2.68-3
				c1.78,0,2.69,1.01,2.69,3C78.44,59.49,77.37,60.04,75.76,60.04 M75.76,54.19c-1.58,0-2.32,0.84-2.32,2.64
				c0,2.63,1.1,2.85,2.32,2.85c1.27,0,2.33-0.21,2.33-2.85C78.08,55.03,77.34,54.19,75.76,54.19"/>
			<polygon id="XMLID_854_" fill="#FFFFFF" points="87.97,60.97 86.73,60.97 82.42,55.11 82.42,60.97 81.1,60.97 81.1,52.9 
				82.33,52.9 86.65,58.76 86.65,52.9 87.97,52.9 			"/>
			<path id="XMLID_851_" fill="#FFFFFF" d="M88.15,61.15h-1.51l-4.04-5.5v5.5h-1.68v-8.43h1.51l4.04,5.5v-5.5h1.68V61.15z
				 M86.83,60.79h0.97v-7.71h-0.96v6.23l-4.58-6.23h-0.97v7.71h0.97v-6.23L86.83,60.79z"/>
			<path id="XMLID_850_" fill="#FFFFFF" d="M92.71,61.09c-1.01,0-2.07-0.24-3.04-0.87v-1.49c1.03,0.74,2.11,1.12,3.04,1.12
				c1.51,0,1.97-0.58,1.97-1.16c0-1.85-5-0.45-5-3.68c0-1.4,1.06-2.24,3.05-2.24c2.08,0,3.08,0.72,3.08,2.57h-1.31
				c0-0.94-0.39-1.37-1.77-1.37c-1.3,0-1.73,0.47-1.73,1.05c0,1.93,5.02,0.67,5.02,3.64C96.01,60.25,94.73,61.09,92.71,61.09"/>
			<path id="XMLID_849_" fill="#FFFFFF" d="M92.71,61.27c-1.16,0-2.22-0.3-3.14-0.9l-0.08-0.05v-1.93l0.28,0.2
				c0.98,0.7,2.02,1.09,2.93,1.09c1.15,0,1.79-0.35,1.79-0.98c0-0.62-0.7-0.8-1.85-1.04c-1.41-0.29-3.16-0.66-3.16-2.64
				c0-1.54,1.18-2.42,3.23-2.42c2.25,0,3.25,0.85,3.25,2.75v0.18h-1.67v-0.18c0-0.79-0.24-1.2-1.58-1.2c-1.03,0-1.55,0.29-1.55,0.87
				c0,0.67,0.74,0.88,1.96,1.16c1.36,0.31,3.05,0.69,3.05,2.48C96.19,60.3,94.89,61.27,92.71,61.27"/>
			<g id="XMLID_842_">
				<path id="XMLID_848_" fill="#FFFFFF" d="M43.22,20.28c-0.33-0.38-0.75-0.68-1.24-0.9c-0.5-0.22-1.04-0.39-1.62-0.51
					c-0.59-0.12-1.13-0.25-1.62-0.39c-0.5-0.14-0.91-0.32-1.24-0.55c-0.33-0.23-0.5-0.55-0.5-0.98c0-0.19,0.04-0.37,0.12-0.54
					c0.08-0.17,0.21-0.32,0.39-0.45c0.18-0.13,0.42-0.23,0.71-0.3c0.29-0.07,0.66-0.11,1.1-0.11c0.46,0,0.85,0.04,1.15,0.11
					c0.3,0.07,0.55,0.19,0.73,0.34c0.18,0.15,0.31,0.34,0.38,0.57c0.07,0.23,0.11,0.5,0.11,0.82h1.76c0-1.24-0.34-2.12-1.01-2.65
					c-0.68-0.53-1.71-0.79-3.11-0.79c-1.34,0-2.36,0.27-3.05,0.79c-0.69,0.53-1.04,1.27-1.04,2.21c0,0.72,0.17,1.29,0.5,1.7
					c0.33,0.41,0.75,0.73,1.24,0.96c0.5,0.23,1.03,0.39,1.61,0.51c0.58,0.11,1.12,0.23,1.61,0.35c0.5,0.12,0.91,0.29,1.24,0.49
					c0.33,0.2,0.5,0.51,0.5,0.93c0,0.19-0.04,0.38-0.13,0.57c-0.08,0.19-0.23,0.35-0.43,0.5c-0.2,0.15-0.47,0.26-0.81,0.36
					c-0.34,0.09-0.76,0.14-1.27,0.14c-0.63,0-1.29-0.12-1.99-0.37c-0.69-0.25-1.39-0.63-2.09-1.13v1.99
					c0.65,0.43,1.33,0.73,2.02,0.91c0.69,0.17,1.38,0.26,2.05,0.26c0.68,0,1.29-0.07,1.83-0.21c0.55-0.14,1.01-0.35,1.39-0.63
					c0.38-0.28,0.68-0.62,0.89-1.02c0.21-0.41,0.31-0.87,0.31-1.4C43.72,21.18,43.55,20.66,43.22,20.28z"/>
				<polygon id="XMLID_847_" fill="#FFFFFF" points="52.98,23.28 47.02,23.28 47.02,19.95 52.25,19.95 52.25,18.43 47.02,18.43 
					47.02,15.78 52.98,15.78 52.98,14.12 45.24,14.12 45.24,24.94 52.98,24.94 				"/>
				<path id="XMLID_843_" fill="#FFFFFF" d="M59.76,23.28h-3.48v-3.33h3.63c0.21,0,0.42,0.03,0.62,0.08
					c0.2,0.05,0.37,0.14,0.52,0.28c0.15,0.14,0.27,0.32,0.36,0.55c0.09,0.23,0.14,0.52,0.14,0.87
					C61.55,22.76,60.95,23.28,59.76,23.28z M60.79,18.08c-0.24,0.23-0.48,0.35-0.73,0.35h-3.79v-2.65h3.03
					c0.64,0,1.11,0.11,1.4,0.32c0.29,0.21,0.44,0.55,0.44,1C61.15,17.52,61.03,17.85,60.79,18.08z M62.92,20.02
					c-0.3-0.45-0.69-0.79-1.17-1.01c0.35-0.2,0.63-0.5,0.84-0.88c0.21-0.38,0.32-0.79,0.32-1.23c0-0.98-0.3-1.69-0.9-2.12
					c-0.6-0.43-1.46-0.65-2.56-0.65H54.5v10.82h5.29c1.23,0,2.13-0.29,2.71-0.86c0.58-0.57,0.87-1.36,0.87-2.37
					C63.38,21.03,63.22,20.47,62.92,20.02z"/>
			</g>
		</g>
	</g>
</g>
</svg>
