<?xml version="1.0" encoding="utf-8"?>
<!-- Generator: Adobe Illustrator 19.2.1, SVG Export Plug-In . SVG Version: 6.00 Build 0)  -->
<svg version="1.1" id="Layer_1" xmlns="http://www.w3.org/2000/svg" xmlns:xlink="http://www.w3.org/1999/xlink" x="0px" y="0px"
	 viewBox="0 0 72 32" width="72" height="32" enable-background="new 0 0 72 32" xml:space="preserve">
<g opacity="0.5">
	<path fill="#FFFFFF" d="M51.38,26.82L51.38,26.82V5.19h12.71c3.66,0,6.62,2.14,6.62,5.48c0,2.64-1.63,4.19-3.1,4.77
		c0,0-0.1,0.02-0.25,0.04c0.14,0.01,0.25,0.03,0.25,0.03c2.57,0.82,4.4,2.68,4.4,5.47c0,3.59-3.01,5.83-6.73,5.83H51.38L51.38,26.82
		z M57.48,9.69L57.48,9.69v3.79h4.85c1.12,0,2.03-0.89,2.03-1.9c0-1.01-0.91-1.89-2.03-1.89H57.48L57.48,9.69z M63.42,22.01
		c1.05,0,1.91-0.85,1.91-1.97c0-1.12-0.85-1.98-1.91-1.98h-5.93v3.95H63.42L63.42,22.01z M48.25,31.8H46.9V0.2h1.35V31.8L48.25,31.8
		z M23.89,31.8h-1.34V0.2h1.34V31.8L23.89,31.8z M44.32,5.19v4.94H33.1v3.44h7.94v4.77H33.1v3.48h11.54v4.98H27.03V5.19H44.32
		L44.32,5.19z M19.58,8.26c0,0-3.48-3.4-9.41-3.4c-5.79,0-8.96,3.5-8.96,6.9c0,2.47,1.34,5.22,6.07,6.46
		c1.75,0.46,3.31,0.81,5.16,1.23c1.64,0.38,2.36,1.07,2.18,1.95c-0.23,1.08-2.03,1.49-3.95,1.49c-1.68,0-3.68-0.35-6.56-2.87
		L0,23.08c1.17,1.39,5.07,4.38,10.81,4.38c5.74,0,10.01-2.5,10.01-7.33c0-3.5-2.39-5-5.87-6c-2.34-0.67-3.87-1.07-5.53-1.52
		c-1.47-0.4-2.32-1.11-2.11-2.02c0.21-0.95,1.59-1.33,2.91-1.33c1.3,0,3.66,0.31,5.5,1.88L19.58,8.26L19.58,8.26z"/>
</g>
</svg>
