<?xml version="1.0" encoding="utf-8"?>
<!-- Generator: Adobe Illustrator 19.2.1, SVG Export Plug-In . SVG Version: 6.00 Build 0)  -->
<svg version="1.1" id="Layer_1" xmlns="http://www.w3.org/2000/svg" xmlns:xlink="http://www.w3.org/1999/xlink" x="0px" y="0px"
	 viewBox="0 0 194 32" enable-background="new 0 0 194 32" width="194" height="32" xml:space="preserve">
<g opacity="0.5">
	<path fill-rule="evenodd" clip-rule="evenodd" fill="#FFFFFF" d="M24.99,25.29c2.02,0.02,3.65-4.07,3.69-9.19l0,0l0,0.07
		c-1.2,0.06-2.47,0.13-3.74,0.12c-1.27-0.01-2.55-0.09-3.75-0.18l0,0l0-0.07C21.3,21.16,22.97,25.27,24.99,25.29L24.99,25.29
		L24.99,25.29z M24.92,12.2c1.2,0.01,2.32,0.02,3.44-0.05l0,0l0,0c-0.54-3.59-1.91-6.09-3.48-6.1c-1.57-0.01-2.91,2.46-3.41,6.04
		l0,0l0,0C22.6,12.18,23.72,12.19,24.92,12.2L24.92,12.2z M26.59,30.2c11.23-0.43,19.96-6.79,19.91-14.62
		c-0.01-2.71-1-5.2-2.81-7.34l0,0V8.17c-0.13,3.66-5.36,6.61-12.69,7.73l0,0l0,0c0,0.22,0.08,0.44,0.08,0.66
		C31.12,23.14,29.2,28.68,26.59,30.2L26.59,30.2L26.59,30.2L26.59,30.2z M24.87,2.4c2.7,0.02,4.96,3.99,5.82,9.48l0,0l0,0
		c5.16-0.76,8.75-2.57,8.74-4.69c-0.01-2.78-6.54-5.17-14.56-5.23c-8.01-0.06-14.52,2.23-14.5,5.01c0.01,2.12,3.62,3.98,8.79,4.82
		l0,0l0,0C19.94,6.31,22.17,2.38,24.87,2.4L24.87,2.4L24.87,2.4z M0,15.81C-0.05,7.03,11.07,0.02,24.85,0.13
		c13.78,0.11,24.98,7.28,25.03,16.06c0.05,8.7-11.07,15.78-24.85,15.68C11.25,31.77,0.05,24.51,0,15.81L0,15.81L0,15.81z
		 M23.45,30.18c-2.63-1.56-4.61-7.13-4.64-13.71c0-0.22,0-0.44,0.07-0.66l0,0l0,0C11.53,14.58,6.27,11.54,6.1,7.88l0,0v0.07
		c-1.79,2.11-2.75,4.59-2.73,7.29c0.04,7.83,8.84,14.33,20,14.92l0,0L23.45,30.18L23.45,30.18z M114.92,26.96v-8.31l8.98-13.61
		h-6.02l-5.59,9.3l-5.7-9.3h-6.02l9.11,13.61v8.31H114.92L114.92,26.96z M88.06,23.37c3.86,0.03,6.89-3.23,6.87-7.28
		c-0.02-4.05-3.09-7.35-6.95-7.38c-3.79-0.03-6.82,3.23-6.79,7.28C81.2,20.03,84.27,23.34,88.06,23.37L88.06,23.37z M75.76,15.95
		c-0.04-6.42,5.43-11.55,12.19-11.5c6.83,0.05,12.36,5.26,12.4,11.68c0.04,6.35-5.43,11.48-12.26,11.43
		C81.69,27.51,75.8,22.59,75.76,15.95L75.76,15.95z M67.2,9.15V26.9l-5.3-0.04V9.15H54.7L54.67,5.1h19.68l0.02,4.05H67.2L67.2,9.15z
		 M184.37,18.33l-3.24-8.05h-0.07l-3.22,8.01L184.37,18.33L184.37,18.33z M176.37,22.04l-1.98,4.9h-6.02l9.46-21.88h6.46L194,26.94
		h-6.09l-2.03-4.9H176.37L176.37,22.04z M136.56,23.37c3.79,0.03,6.89-3.23,6.87-7.28c-0.02-4.05-3.16-7.36-6.95-7.38
		c-3.79-0.03-6.81,3.23-6.79,7.28C129.71,19.79,132.58,23.34,136.56,23.37L136.56,23.37z M124.19,15.94
		c-0.04-6.42,5.5-11.55,12.26-11.5c6.83,0.05,12.36,5.26,12.4,11.68c0.04,6.36-5.43,11.48-12.26,11.43
		C130.21,27.51,124.23,22.6,124.19,15.94L124.19,15.94z M162.91,9.15V26.9l-5.3-0.04V9.15h-7.21l-0.02-4.05h19.68l0.02,4.05H162.91
		L162.91,9.15z"/>
</g>
</svg>
