<?xml version="1.0" encoding="utf-8"?>
<!-- Generator: Adobe Illustrator 19.2.1, SVG Export Plug-In . SVG Version: 6.00 Build 0)  -->
<svg version="1.1" id="Layer_1" xmlns="http://www.w3.org/2000/svg" xmlns:xlink="http://www.w3.org/1999/xlink" x="0px" y="0px"
	 viewBox="0 0 55 24" enable-background="new 0 0 55 24" xml:space="preserve">
<g id="XMLID_984_">
	<g id="XMLID_985_">
		<path id="XMLID_1034_" fill-rule="evenodd" clip-rule="evenodd" fill="#F9E103" d="M20.8,0.8c0.1-0.2-0.2-0.3-0.5-0.4
			c-0.3-0.1-0.6-0.1-0.9-0.1c-0.6,0-1.1,0.1-1.7,0.3c-0.9,0.3-1.9,0.9-2.5,1.4l-1,0.9c-0.4,0.4-0.8,0.8-1.2,1.3
			c-0.1,0.1-0.1,0.2-0.2,0.3c-0.1,0.2-0.3,0.4-0.4,0.5c-0.3,0.4-0.6,0.8-0.8,1.2c-2.2,3.4-3.9,7.8-3.7,12c0.1,2,0.7,4.4,2.6,5.2
			c2.1,1,4.5-0.4,5.7-1.4c1-0.8,1.7-1.5,2.4-2.4c0.1-0.2,0.3-0.3,0.4-0.5c2.1-2.8,3.4-6,4.3-9.5c0-0.1,0.3-0.8,0-0.7
			c-0.2,0-0.3,0.5-0.3,0.7c-0.2,0.5-0.4,1-0.5,1.4c-0.9,2.3-1.9,4.4-3.4,6.4c-0.3,0.4-0.6,0.7-0.9,1.1c-0.7,0.8-0.7,0.8-1.5,1.5
			c-0.2,0.1-0.4,0.3-0.6,0.4c-0.7,0.5-1.7,1.1-2.7,1.1c-1.3,0.1-2.2-0.6-2.7-1.3c-1.2-1.7-1.1-4.4-0.6-6.6c0.5-2.1,1.2-4,2.1-5.7
			c0.4-0.8,1-1.7,1.5-2.4c0.1-0.2,0.3-0.4,0.4-0.6c1.4-1.7,3.5-3.8,5.7-4.2C20.1,0.9,20.6,0.9,20.8,0.8L20.8,0.8z"/>
		<path id="XMLID_1033_" fill-rule="evenodd" clip-rule="evenodd" fill="#F9E103" d="M36.2,8.9h-2.8c-0.3,0.9-1.8,5.3-2.2,6
			c-0.3,0.5-0.8,1.1-1.5,1.3c-0.9,0.2-1.6-0.2-1.6-1.1c0-0.7,0.4-1.5,0.6-2.1c0.1-0.2,1.4-3.9,1.4-4h-2.8c-0.2,0.5-0.4,1-0.5,1.5
			c-0.3,0.8-1.4,3.8-1.6,4.5c-0.8,3,1.6,3.7,4.3,3.4c2.4-0.2,3.6-1.3,4.6-3.4c0.2-0.5,0.9-2.4,1.1-2.9C35.3,11.6,36.2,9.1,36.2,8.9
			L36.2,8.9z"/>
		<path id="XMLID_1032_" fill-rule="evenodd" clip-rule="evenodd" fill="#F9E103" d="M43.4,16.1c-0.2,0-0.6,0.1-0.8,0.1
			c-0.3,0-0.6,0.1-0.9,0.1c-0.7,0.1-2.1,0.1-2.8-0.1c-0.3-0.1-0.4-0.3-0.3-0.6c0.1-0.5,0.4-1,0.6-1.5l3.8-0.1l0.6-1.6l-3.8,0
			l0.6-1.6l4.5,0c0.1,0,0.1-0.1,0.1-0.2c0.2-0.4,0.6-1.5,0.7-1.8l-7.4,0c-0.1,0.3-0.3,0.7-0.4,1c-0.1,0.3-0.2,0.7-0.4,1L35.8,15
			c-0.2,0.6-0.6,1.5-0.4,2.2c0.2,0.6,1,0.9,1.8,1c1.6,0.2,3.8,0,5.4-0.5c0.3-0.1,0.2-0.1,0.4-0.7C43.1,16.8,43.3,16.5,43.4,16.1
			L43.4,16.1z"/>
		<path id="XMLID_1031_" fill-rule="evenodd" clip-rule="evenodd" fill="#F9E103" d="M53,16.1c-0.3,0-2.8,0.4-4.1,0.1
			c-1.3-0.4-1.6-1.5-1-2.9c0.5-1,1.2-1.7,2.4-2.1c1.4-0.4,2.6-0.3,4-0.2L55,9.2c-0.2-0.1-1.4-0.3-1.6-0.3c-3.6-0.3-7.3,1.2-8.5,4.9
			c-0.8,2.5,0.6,4.1,2.8,4.5c1,0.2,2.5,0,3.6-0.2c0.3,0,0.9-0.2,1.1-0.3c0.1-0.1,0.1-0.1,0.2-0.3C52.7,17,52.8,16.5,53,16.1L53,16.1
			z"/>
		<path id="XMLID_1029_" fill-rule="evenodd" clip-rule="evenodd" fill="#F9E103" d="M9.3,23.1c-0.1-0.1-0.4-0.5-0.7-0.9
			c-0.1-0.1-0.1-0.2-0.2-0.3c-0.8,0-1.2-0.1-1.7-0.5c-0.4-0.3-0.7-0.7-1-1.2c-0.5-1-0.6-2.4-0.5-3.7C5.5,12,8.4,6,11.5,2.9
			c0.1-0.1,0.2-0.2,0.3-0.3L12.7,2C12.8,1.9,13,1.8,13,1.7c0.1-0.1,0.1-0.3-0.1-0.2c-0.4,0.1-1.5,0.8-1.8,1
			c-0.2,0.2-0.4,0.3-0.6,0.5C10,3.4,9,4.3,8.6,4.8L7.9,5.7c-1.5,2-2.8,4.5-3.6,7.2c-0.7,2.3-1,5-0.3,7.5c0.3,1.1,1,2,1.8,2.5
			C7,23.5,7.9,23.3,9.3,23.1L9.3,23.1z"/>
		<path id="XMLID_1028_" fill-rule="evenodd" clip-rule="evenodd" fill="#F9E103" d="M5.1,22.8L5,22.6c-0.3-0.2-0.6-0.6-0.7-0.9
			c-0.2-0.3-0.1-0.1-0.7-0.3c-1-0.3-1.7-1.5-2-2.7c-0.5-2.1-0.1-4.6,0.5-6.6c0.6-2,1.4-3.6,2.4-5.1c0.3-0.4,0.8-1.2,1.2-1.6l0.4-0.5
			c0.3-0.4,0.8-0.8,1.2-1.1l0.5-0.4C7.9,3.3,8,3.2,8,3.1C7.7,2.9,6.8,3.6,6.6,3.7C6.4,3.9,6.2,4,6,4.2L5.5,4.7
			c-2.2,2.1-3.7,4.8-4.7,7.7c-0.7,2.1-1.1,4.9-0.5,7.2c0.4,1.7,1.4,2.9,3,3.2C4,23,4.5,22.9,5.1,22.8L5.1,22.8z"/>
		<path id="XMLID_1027_" fill-rule="evenodd" clip-rule="evenodd" fill="#F9E103" d="M17.6,4.3c0.1,0.1,0.9,1,1,1.1
			c0.1,0.1,0.2,0.2,0.4,0.4C19,6,17.3,8.3,17.2,8.5c0.4-0.3,1-0.6,1.4-0.9L20,6.8l1.3,1.5l0.2-2.4l2.5-1.5h-2.5L21.7,2
			c-0.1,0.1-1.2,1.7-1.3,1.9c-0.2,0.2-0.2,0.4-0.4,0.4C19.8,4.4,18.1,4.3,17.6,4.3L17.6,4.3z"/>
		<path id="XMLID_1026_" fill-rule="evenodd" clip-rule="evenodd" fill="#F9E103" d="M11.5,20.6l0.2,0.1c0.2,0.1,0.4,0.2,0.7,0.3
			c0.4,0.1,0.3,0.1,0.8-0.4l0.5-0.5c1.1-1.3,2-2.4,2.8-4c0.6-1.1,1.2-2.2,1.7-3.5c0.2-0.5,1.4-3.4,1.3-3.8c-0.3,0-0.3,0.3-0.5,0.7
			c-0.4,0.9-0.7,1.7-1.2,2.5c-1.2,2.4-2.6,4.7-4.4,6.7c-0.4,0.5-1.1,1.1-1.6,1.5C11.8,20.4,11.6,20.5,11.5,20.6L11.5,20.6z"/>
		<path id="XMLID_1024_" fill-rule="evenodd" clip-rule="evenodd" fill="#F9E103" d="M10.4,18.7c0,0,1.3-1.8,1.5-2.2
			c0.5-0.9,0.9-1.5,1.4-2.4c0.2-0.4,2.4-4.7,2.3-5.2c-0.2,0-0.2,0-0.3,0.2c-0.8,1.6-1.7,3.2-2.6,4.7c-0.2,0.4-0.5,0.8-0.7,1.2
			c-0.5,0.8-0.6,1-1.2,1.7c-0.7,0.8-0.7,0.7-0.6,1.3L10.4,18.7C10.4,18.7,10.4,18.7,10.4,18.7L10.4,18.7z"/>
		<path id="XMLID_1022_" fill-rule="evenodd" clip-rule="evenodd" fill="#F9E103" d="M29.6,3.7h-1.7l0.9,1c-0.1,0.2-1,1.4-1.2,1.8
			L29,5.6c0.1-0.1,0.4-0.2,0.5-0.3c0.1,0.1,0.1,0.1,0.2,0.2l0.7,0.8c0-0.3,0-0.7,0.1-1c0-0.6-0.1-0.5,0.4-0.8
			c0.2-0.1,1.3-0.7,1.4-0.9l-1.6,0l0.1-1.6c0,0,0,0,0,0l-0.1,0.1c0,0,0,0.1-0.1,0.1L29.6,3.7L29.6,3.7z"/>
		<path id="XMLID_1020_" fill-rule="evenodd" clip-rule="evenodd" fill="#F9E103" d="M26,1.4l-1.3,0c0.2,0.2,0.6,0.6,0.7,0.8l-0.7,1
			c-0.1,0.1-0.2,0.2-0.2,0.4c0.4-0.1,1.2-0.7,1.5-0.9l0.7,0.8l0.1-1.2l1.3-0.8l-1.3,0l0.1-1.2L26,1.4L26,1.4z"/>
		<path id="XMLID_996_" fill-rule="evenodd" clip-rule="evenodd" fill="#F9E103" d="M38,20.2c0.2,0,0.3,0,0.4-0.1
			c0.1,0,0.2-0.2,0.1-0.3c-0.1-0.1-0.3,0-0.4,0L38,20.2L38,20.2z M42,20.2l0.1,0l0.1,0c0.2,0,0.5-0.2,0.4-0.4c-0.1-0.1-0.3,0-0.4,0
			L42,20.2L42,20.2z M23.9,23.3l0.1,0h0c0.4,0,0.6-0.2,0.7-0.5c0.2-0.5,0-0.6-0.5-0.6L23.9,23.3L23.9,23.3z M28,21.2l0.4,0l0.7-1.8
			l-0.4,0L28,21.2L28,21.2z M30.1,19.7c-0.7,0.2-1,1.2-0.2,1.1c0.3-0.1,0.5-0.3,0.6-0.5C30.7,20,30.5,19.7,30.1,19.7L30.1,19.7z
			 M40.2,19.8c-0.8,0.2-0.9,1.3-0.1,1.1C40.8,20.6,41,19.6,40.2,19.8L40.2,19.8z M44.1,21.2l0.1-0.4l-0.8,0c0,0,0,0,0-0.1l0.1-0.3
			h0.8l0.1-0.3l-0.8,0l0.1-0.3l0.8,0l0.1-0.4l-0.5,0l0.2-0.3h-0.4L44,19.4l-0.5,0c-0.1,0.4-0.3,0.8-0.5,1.2c0,0.1,0,0.1-0.1,0.2
			c-0.1,0.2-0.1,0.3,0.2,0.4L44.1,21.2L44.1,21.2z M34.9,21.2l0.1-0.4l-0.8,0c0,0,0,0,0-0.1l0.1-0.3h0.8l0.1-0.3l-0.8,0l0.1-0.3
			l0.8,0l0.1-0.4l-1.3,0c-0.1,0.4-0.3,0.8-0.5,1.2c0,0.1,0,0.1-0.1,0.2c-0.1,0.2-0.1,0.3,0.2,0.4L34.9,21.2L34.9,21.2z M51.2,21.2
			l0.1-0.4l-0.8,0c0,0,0,0,0-0.1l0.1-0.3h0.8l0.1-0.3l-0.8,0l0.1-0.3l0.8,0l0.1-0.4l-1.3,0c-0.1,0.4-0.3,0.8-0.5,1.2
			c0,0.1,0,0.1-0.1,0.2C50,21,50,21.1,50.3,21.2L51.2,21.2L51.2,21.2z M45.8,21.2l0.1-0.4l-0.8,0c0,0,0,0,0-0.1l0.1-0.3H46l0.1-0.3
			l-0.8,0l0.1-0.3l0.8,0l0.1-0.4l-1.3,0c-0.1,0.4-0.3,0.8-0.5,1.2c0,0.1,0,0.1-0.1,0.2c-0.1,0.2-0.1,0.3,0.2,0.4L45.8,21.2
			L45.8,21.2z M26.5,23.7l0.1-0.4l-0.8,0c0,0,0-0.1,0-0.1l0.1-0.3h0.8l0.1-0.3l-0.7,0l0.1-0.3l0.8,0l0.1-0.4l-1.3,0
			c-0.1,0.4-0.3,0.8-0.5,1.2c0,0.1,0,0.1-0.1,0.2c-0.1,0.2-0.1,0.3,0.2,0.4L26.5,23.7L26.5,23.7z M37.5,19.4l-0.4,0
			c-0.1,0.3-0.4,1.2-0.6,1.3c-0.1,0.1-0.4,0.1-0.5,0c-0.1-0.2,0.3-1,0.4-1.3c-0.5,0-0.4-0.1-0.6,0.5c-0.2,0.5-0.7,1.4,0.5,1.3
			c0.4-0.1,0.7-0.3,0.8-0.7C37.2,20.1,37.3,19.7,37.5,19.4L37.5,19.4z M26.3,19.4l-0.4,0c-0.1,0.3-0.2,0.5-0.3,0.8
			c-0.1,0.3-0.2,0.6-0.5,0.6c-0.7,0.1,0-0.9,0.1-1.4l-0.4,0l-0.4,1.1c-0.2,0.6,0.1,0.8,0.7,0.7c0.4-0.1,0.7-0.3,0.8-0.7
			C26,20.2,26.2,19.7,26.3,19.4L26.3,19.4z M41.2,21.2c0.5,0,0.4,0.1,0.5-0.3c0-0.1,0.1-0.2,0.1-0.3c0.4,0,0.9,0,1.1-0.6
			c0.2-0.7-0.6-0.6-1.1-0.6c-0.1,0.1-0.2,0.3-0.2,0.4C41.6,20.1,41.2,20.9,41.2,21.2L41.2,21.2z M37.3,21.2l0.4,0
			c0-0.1,0.1-0.2,0.1-0.3l0.1-0.2c0.1-0.1,0,0,0.1-0.1c0.2,0,0.2,0.1,0.2,0.3c0,0.1,0.1,0.2,0.1,0.4h0.5c0-0.2-0.1-0.5-0.2-0.7
			c0.2-0.1,0.3-0.1,0.4-0.3c0.1-0.1,0.2-0.3,0.2-0.5c-0.1-0.4-0.8-0.3-1.2-0.3L37.3,21.2L37.3,21.2z M26.1,21.2l0.4,0l0.4-1
			c0.1,0.2,0.2,0.8,0.2,1l0.4,0l0.7-1.8l-0.4,0l-0.4,0.9c0-0.4-0.1-0.6-0.2-0.9l-0.4,0L26.1,21.2L26.1,21.2z M31.1,21.2l0.4,0l0.4-1
			c0.1,0.2,0.2,0.8,0.2,1l0.4,0l0.7-1.8l-0.4,0l-0.4,0.9c0-0.4-0.1-0.6-0.2-0.9l-0.4,0L31.1,21.2L31.1,21.2z M46.2,21.2l0.4,0l0.4-1
			c0.1,0.2,0.2,0.8,0.2,1l0.4,0l0.7-1.8l-0.4,0l-0.4,0.9c0-0.4-0.1-0.6-0.2-0.9l-0.4,0L46.2,21.2L46.2,21.2z M48.1,21.2l0.4,0l0.4-1
			c0.1,0.2,0.2,0.8,0.2,1l0.4,0l0.7-1.8l-0.4,0l-0.4,0.9c0-0.4-0.1-0.6-0.2-0.9l-0.4,0L48.1,21.2L48.1,21.2z M23.4,23.7
			c0.2,0,0.4,0,0.6,0c0.5,0,0.9-0.1,1.2-0.7c0.1-0.3,0.3-0.7,0-0.9c-0.1-0.1-0.2-0.2-0.4-0.2l-0.7,0L23.4,23.7L23.4,23.7z
			 M40.4,19.4c-1.3,0.2-1.8,2-0.4,1.8C41.2,21,41.8,19.2,40.4,19.4L40.4,19.4z M30.2,19.4c-0.5,0.1-0.9,0.4-1.1,0.8
			c-0.3,0.7,0.1,1.1,0.8,1C31.1,21,31.6,19.2,30.2,19.4L30.2,19.4z"/>
		<path id="XMLID_987_" fill-rule="evenodd" clip-rule="evenodd" fill="#F9E103" d="M34.3,23.7l0.5,0l0.7-1.8l-0.4,0L34.3,23.7
			L34.3,23.7z M34,23.7l0.1-0.4l-0.8,0c0-0.2,0.4-1.1,0.5-1.4l-0.4,0l-0.5,1.3c-0.1,0.2-0.1,0.4,0.2,0.4
			C33.3,23.7,33.8,23.7,34,23.7L34,23.7z M29.8,23.7l0.4,0l0.3-0.7l0.2-0.3l0.7-0.8l-0.5,0l-0.5,0.6l-0.1-0.6l-0.5,0
			c0,0.3,0.2,0.7,0.2,1c0,0,0,0.1,0,0.1L29.8,23.7L29.8,23.7z M32.6,23.3c-0.2,0-0.6,0.1-0.8,0c-0.3-0.1-0.1-0.8,0.4-1
			c0.3-0.1,0.5,0,0.8,0l0.1-0.4c-0.2,0-0.4-0.1-0.6-0.1c-0.2,0-0.4,0-0.6,0.2c-0.7,0.4-1,1.5-0.3,1.7c0.2,0,0.5,0,0.7,0l0.2,0
			L32.6,23.3L32.6,23.3z M29.2,23.3c-0.2,0-0.6,0.1-0.8,0c-0.1,0-0.2-0.1-0.2-0.2c0-0.1,0-0.2,0.1-0.4c0.3-0.6,1-0.4,1.2-0.4
			l0.1-0.3c-1.6-0.5-2.5,1.5-1.5,1.7c0.2,0.1,0.5,0,0.7,0c0.1,0,0.2,0,0.2,0L29.2,23.3L29.2,23.3z M36.2,23.1
			c-0.1,0.4-0.7,0.2-0.9,0.1l-0.2,0.4c0.4,0.2,1,0.3,1.4-0.2c0.1-0.2,0.2-0.3,0.2-0.4c0-0.3-0.7-0.4-0.7-0.5c0-0.4,0.6-0.1,0.8-0.1
			L37,22c-0.9-0.5-1.8,0.4-1.4,0.8C35.7,22.9,36.2,23,36.2,23.1L36.2,23.1z M40.5,23.7l0.2-0.4c-0.1,0-0.3,0-0.4,0
			c-0.1,0-0.1,0-0.2,0l-0.1,0c-0.1,0-0.1,0-0.1-0.1l0.1-0.3h0.8l0.1-0.4l-0.7,0l0.1-0.2c0,0,0-0.1,0.1-0.1l0.8,0l0.1-0.4l-1.3,0
			l-0.6,1.4c-0.1,0.2,0,0.4,0.3,0.4C39.9,23.7,40.3,23.7,40.5,23.7L40.5,23.7z M36.7,23.7l0.4,0l0.5-1l0.1,0.8l0.3,0l0.6-0.8
			l-0.3,0.9l0.4,0l0.5-1.8l-0.5,0l-0.9,1l-0.1-1h-0.4L36.7,23.7L36.7,23.7z"/>
		<path id="XMLID_986_" fill-rule="evenodd" clip-rule="evenodd" fill="#F9E103" d="M6.6,20.8c0.1,0.1,0.9,0.8,1.1,0.6
			c0.1-0.1,0.2-0.2,0.4-0.3c0-0.1-0.4-1.2-0.4-1.2c-0.2,0.2-0.3,0.3-0.6,0.4C7,20.5,6.6,20.7,6.6,20.8L6.6,20.8z"/>
	</g>
</g>
</svg>
