<?xml version="1.0" encoding="utf-8"?>
<!-- Generator: Adobe Illustrator 19.2.1, SVG Export Plug-In . SVG Version: 6.00 Build 0)  -->
<svg version="1.1" id="Layer_1" xmlns="http://www.w3.org/2000/svg" xmlns:xlink="http://www.w3.org/1999/xlink" x="0px" y="0px"
	 viewBox="0 0 96 41" enable-background="new 0 0 96 41" xml:space="preserve">
<g id="XMLID_2254_">
	<path id="XMLID_2411_" fill-rule="evenodd" clip-rule="evenodd" fill="#FFFFFF" d="M36.4,1.1c0.1-0.4-0.3-0.5-0.9-0.6
		c-0.5-0.1-1-0.2-1.5-0.2c-1.1,0-1.9,0.2-2.9,0.5c-1.6,0.5-3.3,1.6-4.4,2.5l-1.8,1.6c-0.7,0.7-1.4,1.3-2,2.2
		c-0.1,0.2-0.3,0.3-0.4,0.5c-0.3,0.3-0.5,0.6-0.7,0.9c-0.5,0.6-1,1.3-1.4,2c-3.8,6-6.7,13.5-6.3,20.9c0.2,3.4,1.3,7.6,4.5,9.1
		c3.7,1.7,7.8-0.7,10-2.4c1.7-1.3,2.9-2.6,4.2-4.2c0.3-0.3,0.5-0.6,0.7-0.9c3.6-4.8,5.9-10.4,7.4-16.5c0.1-0.2,0.4-1.3,0-1.2
		c-0.3,0.1-0.5,0.8-0.6,1.1c-0.3,0.9-0.6,1.7-0.9,2.5c-1.6,4-3.3,7.7-5.9,11.1c-0.5,0.7-1,1.3-1.5,1.9c-1.3,1.4-1.2,1.4-2.5,2.5
		c-0.3,0.2-0.7,0.5-1,0.8c-1.2,0.9-2.9,1.9-4.8,2c-2.2,0.2-3.8-1-4.6-2.2c-2-2.9-1.9-7.6-1.1-11.4c0.8-3.7,2.1-6.9,3.7-9.9
		c0.8-1.4,1.7-3,2.6-4.2c0.3-0.3,0.5-0.6,0.7-1c2.4-3,6-6.7,9.8-7.2C35.2,1.1,36,1.2,36.4,1.1L36.4,1.1z"/>
	<path id="XMLID_2410_" fill-rule="evenodd" clip-rule="evenodd" fill="#FFFFFF" d="M63.2,15.1h-4.9c-0.6,1.6-3.1,9.2-3.9,10.4
		c-0.6,0.9-1.3,1.9-2.6,2.2c-1.6,0.4-2.8-0.3-2.7-1.8c0-1.1,0.7-2.7,1.1-3.7c0.2-0.4,2.4-6.7,2.5-7h-4.8c-0.3,0.8-0.6,1.7-0.9,2.5
		c-0.5,1.5-2.4,6.6-2.7,7.8c-1.4,5.3,2.8,6.4,7.4,6c4.2-0.3,6.3-2.3,8-6c0.4-0.8,1.5-4.1,1.9-5.1C61.5,19.8,63.2,15.5,63.2,15.1
		L63.2,15.1z"/>
	<path id="XMLID_2409_" fill-rule="evenodd" clip-rule="evenodd" fill="#FFFFFF" d="M75.6,27.7c-0.3,0-1.1,0.2-1.5,0.2
		c-0.5,0.1-1.1,0.2-1.6,0.2c-1.3,0.1-3.7,0.2-5-0.1c-0.5-0.1-0.7-0.5-0.6-1.1c0.2-0.8,0.8-1.8,1-2.6l6.7-0.2l1-2.8l-6.6,0l1-2.8
		l7.7,0c0.2-0.1,0.2-0.2,0.2-0.4c0.3-0.8,1-2.6,1.2-3.1l-12.8,0c-0.2,0.5-0.4,1.2-0.6,1.7c-0.2,0.6-0.4,1.2-0.7,1.8l-2.6,7.1
		c-0.4,1.1-1.1,2.7-0.7,3.9c0.4,1.1,1.7,1.6,3.1,1.7c2.8,0.3,6.6,0,9.4-0.8c0.5-0.1,0.4-0.2,0.7-1.1C75.2,28.9,75.4,28.2,75.6,27.7
		L75.6,27.7z"/>
	<path id="XMLID_2408_" fill-rule="evenodd" clip-rule="evenodd" fill="#FFFFFF" d="M92.3,27.6c-0.5-0.1-4.9,0.7-7.1,0.1
		c-2.3-0.7-2.8-2.6-1.8-5c0.8-1.8,2.1-2.9,4.1-3.6c2.4-0.8,4.6-0.6,7-0.3l1.1-3.2c-0.3-0.2-2.4-0.4-2.8-0.5
		c-6.3-0.5-12.7,2-14.7,8.5c-1.4,4.3,1,7.1,4.8,7.8c1.8,0.3,4.4,0.1,6.2-0.3c0.5-0.1,1.5-0.3,2-0.5c0.2-0.1,0.2-0.2,0.3-0.5
		C91.8,29.2,92.1,28.4,92.3,27.6L92.3,27.6z"/>
	<path id="XMLID_2407_" fill-rule="evenodd" clip-rule="evenodd" fill="#FFFFFF" d="M16.4,39.8c-0.1-0.2-0.8-0.8-1.2-1.6
		c-0.1-0.2-0.2-0.4-0.3-0.6c-1.3,0-2.1-0.2-2.9-0.8c-0.7-0.5-1.2-1.2-1.7-2.1c-0.9-1.8-1.1-4.2-0.9-6.4C9.7,20.4,14.8,10,20.2,4.8
		c0.1-0.1,0.3-0.3,0.5-0.5L22.3,3c0.1-0.1,0.5-0.3,0.6-0.4C23,2.5,23,2.2,22.6,2.3C22,2.4,20,3.6,19.6,3.9c-0.4,0.3-0.7,0.5-1.1,0.8
		c-0.9,0.7-2.7,2.4-3.3,3.2l-1.3,1.5C11.2,13,9,17.3,7.7,21.9c-1.2,4.1-1.8,8.8-0.6,13c0.6,2,1.7,3.5,3.1,4.3
		C12.3,40.5,13.9,40.2,16.4,39.8L16.4,39.8z"/>
	<path id="XMLID_2406_" fill-rule="evenodd" clip-rule="evenodd" fill="#FFFFFF" d="M9.1,39.2L8.9,39c-0.5-0.4-1-1-1.3-1.6
		c-0.3-0.5-0.2-0.2-1.2-0.5c-1.8-0.6-3-2.6-3.5-4.7c-0.8-3.7-0.2-8,0.9-11.4c1.1-3.4,2.4-6.2,4.1-8.9c0.5-0.8,1.4-2.1,2-2.8l0.8-0.9
		c0.5-0.7,1.4-1.4,2-2l0.9-0.7C13.9,5.3,14.1,5.3,14,5c-0.4-0.2-2,0.9-2.3,1.1c-0.3,0.2-0.7,0.5-1,0.8l-1,0.8
		c-3.8,3.6-6.5,8.4-8.1,13.5c-1.2,3.7-2,8.5-0.9,12.5c0.8,3,2.4,5,5.2,5.6C7.1,39.6,7.9,39.4,9.1,39.2L9.1,39.2z"/>
	<path id="XMLID_2405_" fill-rule="evenodd" clip-rule="evenodd" fill="#FFFFFF" d="M30.8,7.2c0.1,0.2,1.5,1.7,1.8,2
		c0.2,0.2,0.4,0.4,0.6,0.6c-0.1,0.4-3.1,4.4-3.2,4.7c0.8-0.5,1.7-1,2.5-1.5l2.5-1.5l2.3,2.6l0.3-4.2l4.4-2.7h-4.3l0.2-4
		c-0.2,0.2-2,3-2.3,3.3c-0.3,0.4-0.4,0.7-0.6,0.7C34.6,7.2,31.7,7.1,30.8,7.2L30.8,7.2z"/>
	<path id="XMLID_2404_" fill-rule="evenodd" clip-rule="evenodd" fill="#FFFFFF" d="M20.2,35.5l0.3,0.3c0.3,0.2,0.7,0.4,1.1,0.6
		c0.6,0.2,0.6,0.2,1.4-0.6l0.8-0.9c2-2.2,3.4-4.2,4.9-7c1.1-2,2.1-3.9,3-6.1c0.4-0.9,2.5-5.9,2.3-6.7c-0.5-0.1-0.5,0.6-0.8,1.3
		c-0.6,1.5-1.3,2.9-2,4.4c-2,4.1-4.6,8.2-7.6,11.6c-0.8,0.9-1.9,1.9-2.8,2.6C20.6,35.1,20.4,35.3,20.2,35.5L20.2,35.5z"/>
	<path id="XMLID_2403_" fill-rule="evenodd" clip-rule="evenodd" fill="#FFFFFF" d="M18.3,32.1c0,0,2.3-3.2,2.7-3.8
		c0.9-1.5,1.5-2.6,2.4-4.2c0.4-0.8,4.2-8.2,4-9c-0.3,0-0.4,0.1-0.5,0.3c-1.3,2.9-2.9,5.5-4.5,8.2c-0.4,0.7-0.9,1.4-1.3,2
		c-1,1.4-1.1,1.7-2.2,2.9c-1.2,1.5-1.2,1.2-1,2.2l0.3,1.2C18.3,32.2,18.2,32.1,18.3,32.1L18.3,32.1z"/>
	<path id="XMLID_2402_" fill-rule="evenodd" clip-rule="evenodd" fill="#FFFFFF" d="M51.7,6h-3l1.6,1.7c-0.1,0.4-1.8,2.5-2.2,3.2
		l2.5-1.5c0.2-0.2,0.6-0.4,0.9-0.5c0.1,0.1,0.3,0.2,0.4,0.4l1.2,1.3c0-0.6,0.1-1.2,0.1-1.8c0.1-1-0.1-0.9,0.6-1.3
		c0.4-0.2,2.2-1.3,2.4-1.5l-2.8,0l0.1-2.7c0,0,0,0,0,0l-0.1,0.1c0,0-0.1,0.1-0.1,0.2L51.7,6L51.7,6z"/>
	<path id="XMLID_2380_" fill-rule="evenodd" clip-rule="evenodd" fill="#FFFFFF" d="M45.5,2.1l-2.3,0c0.3,0.4,1.1,1.1,1.3,1.4
		l-1.2,1.8c-0.2,0.2-0.3,0.4-0.4,0.6c0.6-0.3,2-1.3,2.6-1.5l1.2,1.3l0.1-2.2L49,2.1l-2.2,0L46.9,0L45.5,2.1L45.5,2.1z"/>
	<path id="XMLID_2281_" fill-rule="evenodd" clip-rule="evenodd" fill="#FFFFFF" d="M66.3,34.7c0.3,0,0.6,0,0.8-0.1
		c0.1-0.1,0.4-0.4,0.2-0.5c-0.1-0.1-0.4-0.1-0.7-0.1L66.3,34.7L66.3,34.7z M73.2,34.7l0.2,0l0.1,0c0.4,0,0.8-0.3,0.6-0.7
		c-0.2-0.1-0.5-0.1-0.7-0.1L73.2,34.7L73.2,34.7z M41.8,40.1l0.2,0H42c0.6,0,1-0.4,1.2-0.8c0.4-0.8,0-1-0.8-1L41.8,40.1L41.8,40.1z
		 M48.8,36.4l0.7,0l1.1-3.1l-0.7,0L48.8,36.4L48.8,36.4z M52.6,34c-1.2,0.3-1.7,2.1-0.3,1.9c0.5-0.1,0.9-0.5,1-0.9
		C53.6,34.3,53.3,33.8,52.6,34L52.6,34z M70.2,34c-1.3,0.3-1.6,2.3-0.2,1.8C71.2,35.5,71.5,33.6,70.2,34L70.2,34z M76.9,36.4
		l0.2-0.6l-1.3,0c0,0-0.1-0.1,0-0.1l0.2-0.5h1.3l0.2-0.6l-1.3,0l0.2-0.6l1.5,0l0.2-0.6l-0.8,0l0.4-0.4H77l-0.4,0.4l-0.8,0
		c-0.2,0.7-0.5,1.4-0.8,2.1c0,0.1-0.1,0.2-0.1,0.3c-0.1,0.3-0.1,0.6,0.4,0.7L76.9,36.4L76.9,36.4z M60.9,36.4l0.2-0.6l-1.3,0
		c0,0-0.1-0.1,0-0.1l0.2-0.5h1.3l0.2-0.6l-1.3,0l0.2-0.6l1.5,0l0.2-0.6l-2.2,0c-0.2,0.7-0.5,1.4-0.8,2.1c0,0.1-0.1,0.2-0.1,0.3
		c-0.1,0.3-0.1,0.6,0.4,0.7L60.9,36.4L60.9,36.4z M89.2,36.4l0.2-0.6l-1.3,0c0,0-0.1-0.1,0-0.1l0.2-0.5h1.3l0.2-0.6l-1.3,0l0.2-0.6
		l1.5,0l0.2-0.6l-2.2,0c-0.2,0.7-0.5,1.4-0.8,2.1c0,0.1-0.1,0.2-0.1,0.3c-0.1,0.3-0.1,0.6,0.4,0.7L89.2,36.4L89.2,36.4z M79.8,36.4
		l0.2-0.6l-1.3,0c0,0-0.1-0.1,0-0.1l0.2-0.5h1.3l0.2-0.6l-1.3,0l0.2-0.6l1.5,0l0.2-0.6l-2.2,0c-0.2,0.7-0.5,1.4-0.8,2.1
		c0,0.1-0.1,0.2-0.1,0.3c-0.1,0.3-0.1,0.6,0.4,0.7L79.8,36.4L79.8,36.4z M46.3,40.8l0.2-0.6l-1.3,0c0-0.1,0-0.1,0-0.2l0.2-0.5h1.3
		l0.2-0.6l-1.3,0l0.2-0.5l1.4,0l0.2-0.6l-2.2,0c-0.2,0.7-0.5,1.4-0.8,2.1c0,0.1-0.1,0.2-0.1,0.3c-0.1,0.3-0.1,0.6,0.4,0.7L46.3,40.8
		L46.3,40.8z M65.3,33.4l-0.7,0c-0.1,0.5-0.7,2-1,2.3c-0.2,0.2-0.6,0.2-0.8,0c-0.1-0.4,0.6-1.8,0.7-2.3c-0.9,0-0.6-0.2-1.1,0.9
		c-0.3,0.9-1.1,2.5,0.8,2.2c0.8-0.1,1.2-0.6,1.4-1.2C64.9,34.7,65.1,34,65.3,33.4L65.3,33.4z M45.8,33.4l-0.7,0
		c-0.1,0.4-0.3,0.9-0.5,1.4c-0.2,0.5-0.3,1-0.8,1.1c-1.2,0.2,0-1.6,0.2-2.5l-0.7,0l-0.7,1.9c-0.3,1,0.1,1.4,1.1,1.2
		c0.7-0.1,1.2-0.6,1.5-1.2C45.3,34.7,45.7,33.9,45.8,33.4L45.8,33.4z M71.8,36.4c0.9,0,0.7,0.1,0.9-0.5c0.1-0.2,0.1-0.4,0.2-0.6
		c0.6,0,1.6,0.1,2-1c0.4-1.2-1-1-1.9-1c-0.2,0.1-0.3,0.5-0.3,0.7C72.4,34.7,71.9,36,71.8,36.4L71.8,36.4z M65,36.4l0.7,0
		c0-0.2,0.1-0.4,0.2-0.6l0.2-0.4c0.1-0.2,0,0,0.1-0.1c0.3,0.1,0.3,0.2,0.4,0.5c0.1,0.2,0.1,0.4,0.2,0.7h0.8
		c-0.1-0.4-0.2-0.9-0.4-1.2c0.4-0.2,0.5-0.2,0.7-0.5c0.2-0.2,0.3-0.6,0.3-0.9c-0.1-0.6-1.4-0.4-2-0.4L65,36.4L65,36.4z M45.5,36.4
		l0.7,0l0.7-1.8c0.2,0.3,0.4,1.3,0.4,1.8l0.7,0l1.2-3.1l-0.7,0L47.8,35c-0.1-0.7-0.2-1.1-0.4-1.6l-0.7,0L45.5,36.4L45.5,36.4z
		 M54.2,36.4l0.7,0l0.6-1.8c0.2,0.3,0.4,1.3,0.4,1.8l0.7,0l1.2-3.1l-0.7,0L56.5,35c-0.1-0.7-0.2-1.1-0.4-1.6l-0.7,0L54.2,36.4
		L54.2,36.4z M80.5,36.4l0.7,0l0.6-1.8c0.2,0.3,0.4,1.3,0.4,1.8l0.7,0l1.2-3.1l-0.7,0L82.7,35c-0.1-0.7-0.2-1.1-0.4-1.6l-0.7,0
		L80.5,36.4L80.5,36.4z M83.8,36.4l0.7,0l0.6-1.8c0.2,0.3,0.4,1.3,0.4,1.8l0.7,0l1.2-3.1l-0.7,0L86,35c-0.1-0.7-0.2-1.1-0.4-1.6
		l-0.7,0L83.8,36.4L83.8,36.4z M40.8,40.8c0.3,0,0.7,0,1,0c0.8,0,1.5-0.2,2.1-1.2c0.3-0.5,0.4-1.2,0-1.6c-0.2-0.2-0.4-0.3-0.7-0.3
		l-1.3,0L40.8,40.8L40.8,40.8z M70.4,33.3c-2.2,0.3-3.1,3.4-0.7,3.1C71.9,36.2,72.8,33,70.4,33.3L70.4,33.3z M52.7,33.3
		c-0.9,0.2-1.6,0.7-1.9,1.5c-0.5,1.1,0.1,1.8,1.4,1.7C54.3,36.1,55.1,32.9,52.7,33.3L52.7,33.3z"/>
	<path id="XMLID_2258_" fill-rule="evenodd" clip-rule="evenodd" fill="#FFFFFF" d="M59.8,40.8l0.8,0l1.2-3.1l-0.8,0L59.8,40.8
		L59.8,40.8z M59.3,40.8l0.3-0.7l-1.3,0c0-0.3,0.7-2,0.8-2.5l-0.7,0L57.4,40c-0.2,0.4-0.1,0.7,0.4,0.8
		C58.1,40.8,58.9,40.8,59.3,40.8L59.3,40.8z M51.9,40.8l0.8,0l0.5-1.3l0.4-0.5l1.3-1.4l-0.9,0l-0.9,1.1l-0.2-1l-0.8,0
		c0.1,0.5,0.3,1.2,0.4,1.7c0,0.1,0,0.1,0,0.2L51.9,40.8L51.9,40.8z M56.8,40.1c-0.4,0-1.1,0.2-1.4,0c-0.5-0.2-0.2-1.4,0.7-1.7
		c0.4-0.2,0.9,0,1.3,0l0.2-0.6c-0.4-0.1-0.7-0.1-1-0.1c-0.4,0-0.7,0.1-1.1,0.3c-1.3,0.7-1.7,2.6-0.5,2.9c0.3,0.1,0.9,0,1.2,0l0.3,0
		L56.8,40.1L56.8,40.1z M50.9,40.1c-0.4,0-1,0.1-1.3,0c-0.2-0.1-0.3-0.2-0.3-0.4c0-0.2,0-0.4,0.2-0.6c0.6-1.1,1.8-0.7,2.1-0.7
		l0.2-0.6c-2.8-0.9-4.3,2.6-2.6,3c0.3,0.1,0.8,0,1.2,0c0.1,0,0.3,0,0.4-0.1L50.9,40.1L50.9,40.1z M63.1,39.8
		c-0.1,0.6-1.1,0.3-1.5,0.1l-0.3,0.7c0.8,0.3,1.8,0.5,2.4-0.3c0.2-0.3,0.3-0.4,0.3-0.7c0-0.6-1.1-0.7-1.2-0.9c0-0.7,1-0.2,1.5-0.2
		l0.3-0.6c-1.5-0.8-3.1,0.7-2.4,1.4C62.3,39.5,63.1,39.6,63.1,39.8L63.1,39.8z M70.7,40.8l0.3-0.7c-0.2,0-0.5,0-0.7,0
		c-0.1,0-0.3,0-0.4,0l-0.2,0c-0.1,0-0.1-0.1-0.1-0.2l0.2-0.4h1.3l0.2-0.6l-1.3,0l0.1-0.4c0-0.1,0-0.1,0.1-0.1l1.4,0l0.2-0.7l-2.2,0
		l-1,2.4c-0.1,0.4,0,0.6,0.5,0.7C69.6,40.8,70.2,40.8,70.7,40.8L70.7,40.8z M64.1,40.8l0.7,0l0.8-1.7l0.1,1.4l0.6,0l1.1-1.4L67,40.8
		l0.8,0l0.9-3.1l-0.8,0l-1.5,1.8l-0.2-1.8h-0.7L64.1,40.8L64.1,40.8z"/>
	<path id="XMLID_2257_" fill-rule="evenodd" clip-rule="evenodd" fill="#FFFFFF" d="M11.6,35.9c0.2,0.2,1.5,1.4,2,1.1
		c0.2-0.2,0.4-0.3,0.6-0.5c0-0.1-0.6-2.1-0.6-2.1c-0.3,0.3-0.6,0.5-1,0.8C12.4,35.3,11.7,35.7,11.6,35.9L11.6,35.9z"/>
</g>
</svg>
