<?xml version="1.0" encoding="utf-8"?><svg xmlns="http://www.w3.org/2000/svg" xmlns:xlink="http://www.w3.org/1999/xlink"><symbol viewBox="0 0 30 30" id="arrow--down"><path d="M15 30l6.32-7.89H16.4V0h-2.8v22.11H8.68z"/></symbol><symbol viewBox="0 0 30 30" id="arrow--left"><path d="M0 15l7.89 6.32V16.4H30v-2.8H7.89V8.68z"/></symbol><symbol viewBox="0 0 30 30" id="arrow--right"><path d="M30 15l-7.89-6.32v4.92H0v2.8h22.11v4.92z"/></symbol><symbol viewBox="0 0 30 30" id="arrow-2--left"><path d="M7.5 15l15 15V0z"/></symbol><symbol viewBox="0 0 30 30" id="arrow-2--right"><path d="M22.5 15L7.5 0v30z"/></symbol><symbol viewBox="0 0 30 30" id="arrow-3--down"><path d="M14.74 24.64c-.62 0-1.21-.27-1.61-.73L.53 9.51c-.78-.89-.69-2.24.2-3.02.89-.78 2.25-.69 3.02.2l10.98 12.55L26.24 6.09c.78-.89 2.13-.98 3.02-.2.89.78.98 2.13.2 3.02l-13.12 15c-.4.47-.98.73-1.6.73"/></symbol><symbol viewBox="0 0 30 30" id="checkbox--checked"><path fill="#1a2937" d="M0 0h30v30H0z"/><path fill="#fff" d="M29 1v28H1V1h28m1-1H0v30h30V0z" opacity=".3"/><path fill="#f9e103" d="M21.24 9.65l-8.47 9.18-4.1-4.76-1.52 1.3 5.57 6.46 9.99-10.82z"/></symbol><symbol viewBox="0 0 30 30" id="checkbox--default"><path fill="#1a2937" d="M0 0h30v30H0z"/><path fill="#fff" d="M29 1v28H1V1h28m1-1H0v30h30V0z" opacity=".3"/></symbol><symbol viewBox="0 0 30 30" id="cross"><path d="M30 4.29L25.71 0 15 10.71 4.29 0 0 4.29 10.71 15 0 25.71 4.29 30 15 19.29 25.71 30 30 25.71 19.29 15z"/></symbol><symbol viewBox="0 0 30 30" id="draugiem"><g fill-rule="evenodd"><path d="M17.92 8.13c.13 0 .24-.02.35-.04.76-.19 1.13-1 1.17-1.97.03-1.02-.33-1.87-1.17-1.99-.07-.02-.15-.02-.23-.02-.67 0-1.1.4-1.33.99-.11.3-.18.65-.19 1.02-.02.44.04.86.19 1.19.23.5.61.82 1.21.82M17.9 8.46c-.34 0-.62.03-.87.1l.07.1.13.23.1.24.09.25.06.26.04.26.03.27v.54l-.02.27-.02.27-.07.54-.05.27-.05.27-.05.26-.06.26-.05.25-.06.24-.06.23-.07.22-.05.22-.05.21-.03.13-.03.15-.03.16-.03.16-.03.17-.03.15v.03l-.03.19-.03.19-.03.2-.03.21-.03.21-.03.21-.03.22-.03.21-.03.22-.03.22-.03.22c.05.62.1 1.15.12 1.45.03.35.1.6.21.76.16.25.43.34.81.37.32-.03.56-.1.74-.27.17-.16.28-.43.35-.87.14-.89.54-3.82.88-5.07.49-1.81 1.68-5.1-1.23-5.35-.11-.04-.24-.04-.37-.04M14.37 7.54h.02c1.13 0 1.65-1.04 1.65-2.3 0-1.26-.53-2.3-1.65-2.31h-.02c-1.14 0-1.67 1.04-1.67 2.31s.53 2.3 1.67 2.3M10.15 18.91c.06.43.17.7.35.87.18.17.42.23.74.27.38-.03.64-.12.81-.37.1-.16.17-.42.21-.76.03-.3.07-.83.12-1.45v-.02l-.03-.22-.03-.22-.03-.22-.03-.21-.03-.22-.03-.21-.03-.21-.03-.21-.03-.2-.03-.19-.03-.19v-.03l-.03-.16-.03-.17-.03-.16-.03-.16-.03-.15-.03-.13-.04-.21-.06-.22-.05-.23-.06-.23-.06-.24-.06-.25-.05-.26-.06-.26-.05-.27-.04-.27-.07-.54-.03-.27v-.81l.03-.27.04-.26.06-.26.08-.25.11-.24.13-.23.07-.1c-.25-.06-.55-.1-.87-.1-.13 0-.25 0-.37.02-2.91.25-1.72 3.54-1.23 5.35.32 1.3.72 4.22.86 5.12"/><path d="M30 14.81v-.91c-.31-3-3.82-4.77-8.59-4.29 5.38.07 8.51 3.37 4.95 7.88-1.64 2.08-4.4 4.13-8.09 5.45-.17.06-.35.12-.53.18-.35.11-.69.22-1.03.32-.8.23-1.58.42-2.33.57-.81.16-1.58.29-2.34.37-.54.05-1.06.09-1.56.1-3.43.09-6.01-.85-6.85-2.86-1.01-2.4 1.04-5.74 5.14-8.29-3.04 1.23-8.55 4.1-8.79 8.23v.52c.03.42.1.84.24 1.28.87 2.78 5 4.08 10.25 3.61.51-.04 1.03-.1 1.56-.18.76-.11 1.54-.27 2.34-.45.76-.18 1.54-.4 2.33-.64.17-.06.35-.11.52-.17.35-.11.7-.23 1.04-.36 4.55-1.65 7.93-3.85 9.9-6.38 1.15-1.44 1.73-2.79 1.84-3.98"/><path d="M12.05 12.88c.1.44.21.85.29 1.21.35 1.45.7 4.81.83 5.82.12 1.02.48 1.24 1.21 1.31.72-.07 1.08-.29 1.2-1.31.12-1.01.48-4.37.82-5.82.09-.36.2-.77.3-1.21.32-1.32.58-2.88 0-3.89-.37-.64-1.08-1.06-2.33-1.06-1.26 0-1.97.42-2.34 1.06-.56 1.01-.3 2.56.02 3.89M10.49 8.08c.11.03.23.04.35.04.6 0 .99-.32 1.2-.81.14-.34.2-.75.19-1.19-.02-.37-.08-.72-.19-1.02-.23-.59-.68-.99-1.33-.99-.08 0-.16 0-.23.02-.83.12-1.19.97-1.16 1.99.03.96.41 1.77 1.17 1.96"/></g></symbol><symbol viewBox="0 0 30 30" id="facebook"><path d="M22.5 0h-3.89c-4.37 0-7.2 2.9-7.2 7.38v3.4H7.5c-.34 0-.61.27-.61.61v4.93c0 .34.27.61.61.61h3.91v12.45c0 .34.27.61.61.61h5.1c.34 0 .61-.27.61-.61V16.94h4.57c.34 0 .61-.27.61-.61V11.4c0-.16-.06-.32-.18-.43s-.27-.18-.43-.18h-4.58V7.9c0-1.39.33-2.09 2.14-2.09h2.62c.34 0 .61-.27.61-.61V.62a.578.578 0 0 0-.59-.61"/></symbol><symbol viewBox="0 0 30 30" id="finish"><path d="M5.23 29.15c0 .46-.5.85-1.11.85S3 29.62 3 29.15V.85C3 .38 3.5 0 4.12 0s1.11.38 1.11.85v28.3M14.58 10.31c-1.66.39-2.49.57-4.15.54V6.7c1.66.04 2.49-.14 4.15-.54v4.15M18.72 5.08c-1.66.39-2.49.68-4.15 1.08V2.01c1.66-.39 2.49-.68 4.15-1.08v4.15M22.87 8.7c-1.66-.04-2.49.14-4.15.53V5.08c1.66-.39 2.49-.57 4.15-.53V8.7"/><path d="M18.72 13.38c-1.66.39-2.49.68-4.15 1.08v-4.15c1.66-.39 2.49-.68 4.15-1.07v4.14M26.18 1.1c-.18-.08-.27-.11-.45-.17-.81-.29-1.22-.37-2.03-.46-.33-.03-.49-.04-.82-.05v4.12c.33 0 .49.02.82.05.18.02.27.03.45.06.63.1.95.17 1.58.4.18.06.27.1.45.17.32.15.49.23.82.4V4.8 2.77v-.45c0-.46-.37-1.03-.82-1.22M26.18 13.51c-.18-.08-.27-.11-.45-.17-.81-.29-1.22-.37-2.03-.46-.33-.03-.49-.04-.82-.05v-.82-.45-1.58-.45-.82c.33 0 .49.02.82.05.18.02.27.03.45.06.63.1.95.17 1.58.4.18.06.27.1.45.17.32.12.49.2.82.38v3.3c0 .46-.37.62-.82.44M7.1 14.31c.18.08.27.11.45.17.81.29 1.22.37 2.03.46.33.03.49.04.82.05v-.82-.45-1.58-.45-.82c-.33 0-.49-.02-.82-.05-.18-.02-.27-.03-.45-.06-.63-.1-.95-.17-1.58-.4-.18-.06-.27-.1-.45-.17-.33-.14-.49-.21-.82-.39v3.3c0 .45.37 1.02.82 1.21M7.1 1.9c.18.08.27.11.45.17.81.29 1.22.37 2.03.46.33.03.49.04.82.05V6.7c-.32 0-.48 0-.81-.04-.18-.02-.27-.03-.45-.06-.63-.1-.95-.17-1.58-.4-.18-.06-.27-.09-.46-.17a6.73 6.73 0 0 1-.82-.39v-.82-2.03-.45c0-.46.37-.62.82-.44"/></symbol><symbol viewBox="0 0 30 30" id="gpx"><path d="M7.26 6.34v-1.7h2.8v4.99c-1.35.22-2.44.33-3.28.33-1.5 0-2.53-.4-3.09-1.2s-.84-2.08-.84-3.82.29-3 .88-3.78C4.31.39 5.31 0 6.71 0c.88 0 1.82.1 2.84.3l.51.1L10 1.91c-1.12-.12-2.05-.18-2.77-.18-.72 0-1.23.08-1.52.25-.3.17-.51.48-.65.94-.13.46-.2 1.24-.2 2.35S5 7.15 5.27 7.6c.27.44.84.67 1.7.67l1.17-.07V6.34h-.88M15.58 6.99H14v2.8h-1.95V.17h3.54c2.28 0 3.42 1.11 3.42 3.34 0 1.12-.29 1.98-.87 2.58-.59.6-1.44.9-2.56.9M14 5.32h1.57c.97 0 1.46-.6 1.46-1.81 0-.59-.12-1.02-.35-1.28-.24-.26-.6-.39-1.1-.39H14v3.48M21.52.17l1.78 3.54L25.13.17h2.02l-2.77 4.91 2.77 4.71h-2.16L23.2 6.46l-1.83 3.32h-2.02l2.77-4.61L19.35.16h2.17zM16.35 20.57v-6.31h-2.31v6.31H12.1l3.1 3.83 3.09-3.83z"/><path d="M23.82 23.69v3.99H6.57v-3.99H4.25V30h21.89v-6.31z"/></symbol><symbol viewBox="0 0 30 30" id="minus"><path d="M0 18.47v-6.93h30v6.93H0z"/></symbol><symbol viewBox="0 0 30 30" id="pdf"><path d="M6.6 6.86H5.01v2.82H3.04V0H6.6c2.3 0 3.44 1.12 3.44 3.36 0 1.13-.29 1.99-.87 2.6-.59.6-1.44.9-2.57.9M5.01 5.18h1.58c.98 0 1.47-.61 1.47-1.82 0-.6-.12-1.03-.36-1.29s-.61-.39-1.12-.39H5.01v3.5M14.82 9.67h-3.26V0h3.26c.83 0 1.52.09 2.06.26.54.18.96.47 1.26.87.3.4.51.88.62 1.42.11.55.17 1.25.17 2.13s-.05 1.6-.16 2.17c-.1.57-.3 1.09-.59 1.54-.29.45-.71.78-1.26.98-.54.2-1.24.3-2.1.3m2.07-3.84c.02-.3.03-.72.03-1.26s-.02-.96-.06-1.29c-.04-.32-.13-.62-.27-.88s-.35-.45-.63-.55c-.28-.1-.66-.15-1.13-.15h-1.29v6.26h1.29c.71 0 1.23-.18 1.55-.54.27-.29.44-.82.51-1.59M20.78 9.67V0h6.17v1.71h-4.21v2.85h3.44v1.71h-3.44v3.41h-1.96zM15.34 20.51v-6.34h-2.33v6.34h-1.95l3.11 3.86 3.11-3.86z"/><path d="M22.85 23.66v4.01H5.49v-4.01H3.16V30h22.02v-6.34z"/></symbol><symbol viewBox="0 0 30 30" id="plus"><path d="M17.5 12.5V0h-5v12.5H0v5h12.5V30h5V17.5H30v-5z"/></symbol><symbol viewBox="0 0 20 20" id="radio--checked"><path d="M10 20a10 10 0 1 1 10-10 10 10 0 0 1-10 10" fill="#fff" opacity=".1"/><rect x="4" y="4" width="12" height="12" rx="6" fill="#fcee21"/></symbol><symbol viewBox="0 0 20 20" id="radio--default"><path d="M10 20a10 10 0 1 1 10-10 10 10 0 0 1-10 10" fill="#fff" opacity=".1"/></symbol><symbol viewBox="0 0 30 30" id="search"><path d="M30 26.79l-7.71-7.71a12.06 12.06 0 0 0 2.04-6.73C24.33 5.64 18.87.19 12.17.19 5.46.19 0 5.63 0 12.34S5.46 24.5 12.16 24.5c2.67 0 5.13-.88 7.14-2.34l7.66 7.66L30 26.79M4.29 12.34c0-4.34 3.53-7.87 7.87-7.87s7.87 3.53 7.87 7.87-3.53 7.87-7.87 7.87-7.87-3.53-7.87-7.87"/></symbol><symbol viewBox="0 0 30 30" id="stripes"><path d="M0 6.43h4.29v17.14H0zM12.86 6.43h4.29v17.14h-4.29zM25.71 6.43H30v17.14h-4.29z"/></symbol><symbol viewBox="0 0 30 30" id="swipe"><path d="M24.86 13.14c-.39 0-.77.09-1.11.27-.4-.83-1.24-1.37-2.17-1.37-.39 0-.77.09-1.11.27-.4-.83-1.24-1.37-2.17-1.37-.3 0-.6.06-.88.16V6.79a2.41 2.41 0 0 0-2.41-2.41 2.41 2.41 0 0 0-2.41 2.41v7.77c-.59.37-1.13.83-1.4 1.08-1.22 1.11-1.89 2.45-1.89 3.76v1.63c0 1.17.75 2.97 2.23 5.33l.08.12c.56.9 1.48 2.23 2.23 3.22a.72.72 0 0 0 .6.29c.17 0 .33-.06.47-.16.33-.26.4-.74.14-1.07-.57-.75-1.66-2.32-2.17-3.13-1.32-2.1-2.05-3.74-2.05-4.6v-1.64c0-.88.47-1.77 1.4-2.64.09-.09.22-.19.35-.3v2.92c0 .42.34.77.76.77.45 0 .77-.31.77-.77V6.78c0-.48.39-.88.88-.88s.88.39.88.88v9.31a.77.77 0 0 0 1.54 0v-2.74c0-.48.39-.88.88-.88.48 0 .88.39.88.88v2.74a.77.77 0 0 0 1.54 0v-1.64c0-.48.39-.88.88-.88.48 0 .88.39.88.88v2.74a.77.77 0 0 0 1.54 0v-1.64c0-.48.39-.88.88-.88.48 0 .88.39.88.88v3.83c0 1.86-.6 3.67-1.18 5.42-.52 1.57-1.01 3.06-1.01 4.44a.77.77 0 0 0 1.54 0c0-1.08.45-2.47.93-3.95.59-1.83 1.26-3.9 1.26-5.91v-3.83c-.06-1.34-1.14-2.42-2.46-2.42M4.26 3.72h6.91a.77.77 0 0 0 0-1.54H4.26l.88-.88a.773.773 0 0 0 0-1.08.76.76 0 0 0-1.08 0L1.87 2.41a.773.773 0 0 0-.01 1.09l2.19 2.19c.16.15.35.22.55.22s.39-.07.54-.22c.3-.3.3-.79 0-1.08l-.88-.89M28.13 2.41L25.94.22a.76.76 0 0 0-1.3.54c0 .2.08.4.22.54l.88.88h-6.91a.77.77 0 0 0 0 1.54h6.91l-.88.88a.76.76 0 0 0 .54 1.3c.2 0 .39-.07.54-.22l2.19-2.19a.773.773 0 0 0 0-1.08"/></symbol><symbol viewBox="0 0 30 30" id="tick"><path d="M10.74 26.74L0 14.28l2.92-2.51 7.92 9.18L27.16 3.26 30 5.87z"/></symbol><symbol viewBox="0 0 30 30" id="triangle"><path d="M0 5.72l15 18.56L30 5.72z"/></symbol><symbol viewBox="0 0 30 30" id="twitter"><path d="M26.48 6.69c1.35-.83 2.24-1.95 2.67-3.39-1.31.69-2.61 1.17-3.92 1.43-1.17-1.26-2.65-1.9-4.43-1.9-1.74 0-3.21.61-4.4 1.8-1.19 1.19-1.79 2.65-1.79 4.34 0 .51.06.97.19 1.36-5.13-.17-9.37-2.3-12.71-6.39-.57 1-.85 2.02-.85 3.08 0 2.17.91 3.89 2.74 5.15-1.04-.09-1.96-.35-2.74-.78 0 1.55.45 2.84 1.37 3.98.91 1.13 2.09 1.84 3.52 2.15-.52.13-1.07.2-1.63.2-.52 0-.89-.04-1.11-.14.38 1.26 1.11 2.28 2.15 3.07 1.04.79 2.24 1.2 3.59 1.24-2.22 1.74-4.76 2.6-7.63 2.6-.7 0-1.2 0-1.5-.06 2.83 1.84 5.98 2.75 9.46 2.75 3.56 0 6.71-.9 9.46-2.71 2.74-1.8 4.76-4.01 6.06-6.62 1.31-2.61 1.95-5.32 1.95-8.15v-.8c1.27-.95 2.29-2.02 3.07-3.2-1.13.49-2.3.82-3.52.99"/></symbol><symbol viewBox="0 0 30 30" id="velo"><path d="M0 17.83c0 3.41 2.77 6.18 6.18 6.18 3.41 0 6.18-2.77 6.18-6.18 0-2.53-1.53-4.71-3.72-5.67l.3-.87 7.17 7.43s.02 0 .03.02l.03.03c.02 0 .03.02.05.03 0 0 .02 0 .03.02.02 0 .04 0 .06.02h.03c.03.002.06.002.09.002h.03l1.23-.09a6.186 6.186 0 0 0 6.12 5.29c3.41 0 6.18-2.78 6.18-6.18 0-3.41-2.77-6.19-6.18-6.19-.9 0-1.76.19-2.54.54l-1.67-3.1.6-2.07h.99c.24 0 .44-.3.44-.54 0-.24-.2-.55-.44-.55h-3.33c-.24 0-.44.3-.44.55 0 .24.2.54.44.54h1.43l-.48 1.44H9.6l.17-.66c.03-.13 0-.18-.09-.29-.08-.11-.2-.14-.34-.14H6.6c-.24 0-.44.12-.44.36s.2.36.44.36h2.2l-.17.88v.05l-.27 1.28-.53 1.52A6.195 6.195 0 0 0 0 17.812m18.56-8.24l-2.33 7.93-6.98-7.18.16-.75h9.15m.16 9.09l5.13-.38c.15 0 .28-.1.35-.23.07-.13.07-.29 0-.42l-2.44-4.53c.63-.27 1.32-.43 2.05-.43a5.16 5.16 0 0 1 0 10.32c-2.56.02-4.69-1.87-5.09-4.33m4.39-1.2l-4.45.33c.02-1.78.95-3.35 2.34-4.26l2.11 3.93m-6.05.45l2.22-7.6 1.27 2.32a6.168 6.168 0 0 0-2.86 5.22v.02l-.63.04m-16.04-.1a5.16 5.16 0 0 1 5.16-5.16c.45 0 .88.06 1.3.17l-1.71 4.89c-.08.23.04.48.27.56.05.02.1.02.14.02.18 0 .35-.11.41-.29l1.71-4.88c1.79.81 3.04 2.61 3.04 4.7 0 2.85-2.31 5.16-5.16 5.16s-5.16-2.33-5.16-5.17"/></symbol><symbol viewBox="0 0 30 30" id="zoom"><path d="M29.9 27.78l-6.09-6.09c1.86-2.29 2.98-5.2 2.98-8.37C26.79 5.99 20.83.03 13.5.03S.21 5.99.21 13.32 6.18 26.6 13.5 26.6c3.01 0 5.78-1.02 8.01-2.71l6.14 6.14 2.25-2.25M2.64 13.32c0-5.99 4.88-10.87 10.87-10.87 5.99 0 10.87 4.87 10.87 10.87S19.49 24.18 13.5 24.18c-5.99 0-10.86-4.87-10.86-10.86"/><path d="M17.75 12.25h-3.19V9.07h-2.12v3.18H9.25v2.13h3.19v3.19h2.12v-3.19h3.19z"/></symbol></svg>