<svg xmlns="http://www.w3.org/2000/svg" viewBox="0 0 76 15" width="76" height="15" enable-background="new 0 0 76 15"><g fill="#fff"><path d="M9.05,0.26h3.08L8.77,14.7H3.36L0,0.26h3.08l2.51,11.89h0.96L9.05,0.26z"/><path d="M14.25,14.7V0.26h9.34V2.8h-6.41v3.38h5.14v2.51h-5.14v3.46h6.41v2.55H14.25z"/><path d="M34.44,14.7h-8.22V0.26h2.93V12.1h5.29V14.7z"/><path d="m46.32 13.16c-.9 1.2-2.45 1.79-4.64 1.79s-3.74-.6-4.64-1.79c-.9-1.2-1.35-3.07-1.35-5.62s.45-4.44 1.35-5.68c.9-1.24 2.45-1.86 4.64-1.86s3.74.62 4.64 1.86c.9 1.24 1.35 3.13 1.35 5.68s-.45 4.42-1.35 5.62m-6.98-1.87c.42.74 1.2 1.11 2.35 1.11s1.93-.37 2.35-1.11c.42-.74.63-1.99.63-3.74s-.21-3.02-.64-3.81c-.42-.79-1.2-1.19-2.34-1.19s-1.91.4-2.34 1.19-.64 2.06-.64 3.81.21 2.99.63 3.74"/><path d="m50.01 14.7v-3.53h3.06v3.53h-3.06"/><path d="M64.26,14.7h-8.22V0.26h2.93V12.1h5.29V14.7z"/><path d="m72.92.26h3.08l-3.36 14.44h-5.41l-3.36-14.44h3.08l2.51 11.89h.96l2.5-11.89"/></g></svg>