<svg xmlns="http://www.w3.org/2000/svg" viewBox="0 0 30 30" enable-background="new 0 0 30 30"><g fill-rule="evenodd"><path d="m17.92 8.13c.13 0 .24-.02.35-.04.76-.19 1.13-1 1.17-1.97.03-1.02-.33-1.87-1.17-1.99-.07-.02-.15-.02-.23-.02-.67 0-1.1.4-1.33.99-.11.3-.18.65-.19 1.02-.02.44.04.86.19 1.19.23.5.61.82 1.21.82"/><path d="m17.9 8.46c-.34 0-.62.03-.87.1l.07.1.13.23.1.24.09.25.06.26.04.26.03.27.001.26v.28l-.02.27-.02.27-.07.54-.05.27-.05.27-.05.26-.06.26-.05.25-.06.24-.06.23-.07.22-.05.22-.05.21-.03.13-.03.15-.03.16-.03.16-.03.17-.03.15v.03l-.03.19-.03.19-.03.2-.03.21-.03.21-.03.21-.03.22-.03.21-.03.22-.03.22-.03.22v.001c.05.62.1 1.15.12 1.45.03.35.1.6.21.76.16.25.43.34.81.37.32-.03.56-.1.74-.27.17-.16.28-.43.35-.87.14-.89.54-3.82.88-5.07.49-1.81 1.68-5.1-1.23-5.35-.11-.04-.24-.04-.37-.04"/><path d="m14.37 7.54h.02c1.13-.001 1.65-1.04 1.65-2.3 0-1.26-.53-2.3-1.65-2.31h-.02c-1.14 0-1.67 1.04-1.67 2.31 0 1.27.53 2.3 1.67 2.3"/><path d="m10.15 18.91c.06.43.17.7.35.87.18.17.42.23.74.27.38-.03.64-.12.81-.37.1-.16.17-.42.21-.76.03-.3.07-.83.12-1.45v-.02l-.03-.22-.03-.22-.03-.22-.03-.21-.03-.22-.03-.21-.03-.21-.03-.21-.03-.2-.03-.19-.03-.19v-.03l-.03-.16-.03-.17-.03-.16-.03-.16-.03-.15-.03-.13-.04-.21-.06-.22-.05-.23-.06-.23-.06-.24-.06-.25-.05-.26-.06-.26-.05-.27-.04-.27-.07-.54-.03-.27-.001-.28v-.27l.001-.26.03-.27.04-.26.06-.26.08-.25.11-.24.13-.23.07-.1c-.25-.06-.55-.1-.87-.1-.13 0-.25 0-.37.02-2.91.25-1.72 3.54-1.23 5.35.32 1.3.72 4.22.86 5.12"/><path d="m30 14.81v-.91c-.31-3-3.82-4.77-8.59-4.29 5.38.07 8.51 3.37 4.95 7.88-1.64 2.08-4.4 4.13-8.09 5.45-.17.06-.35.12-.53.18-.35.11-.69.22-1.03.32-.8.23-1.58.42-2.33.57-.81.16-1.58.29-2.34.37-.54.05-1.06.09-1.56.1-3.43.09-6.01-.85-6.85-2.86-1.01-2.4 1.04-5.74 5.14-8.29-3.04 1.23-8.55 4.1-8.79 8.23v.52c.03.42.1.84.24 1.28.87 2.78 5 4.08 10.25 3.61.51-.04 1.03-.1 1.56-.18.76-.11 1.54-.27 2.34-.45.76-.18 1.54-.4 2.33-.64.17-.06.35-.11.52-.17.35-.11.7-.23 1.04-.36 4.55-1.65 7.93-3.85 9.9-6.38 1.15-1.44 1.73-2.79 1.84-3.98"/><path d="m12.05 12.88c.1.44.21.85.29 1.21.35 1.45.7 4.81.83 5.82.12 1.02.48 1.24 1.21 1.31.72-.07 1.08-.29 1.2-1.31.12-1.01.48-4.37.82-5.82.09-.36.2-.77.3-1.21.32-1.32.58-2.88 0-3.89-.37-.64-1.08-1.06-2.33-1.06-1.26 0-1.97.42-2.34 1.06-.56 1.01-.3 2.56.02 3.89"/><path d="m10.49 8.08c.11.03.23.04.35.04.6 0 .99-.32 1.2-.81.14-.34.2-.75.19-1.19-.02-.37-.08-.72-.19-1.02-.23-.59-.68-.99-1.33-.99-.08 0-.16 0-.23.02-.83.12-1.19.97-1.16 1.99.03.96.41 1.77 1.17 1.96"/></g></svg>