<svg xmlns="http://www.w3.org/2000/svg" viewBox="0 0 30 30" enable-background="new 0 0 30 30"><path d="m5.23 29.15c0 .46-.5.85-1.11.85s-1.12-.38-1.12-.85v-28.3c0-.47.5-.85 1.12-.85s1.11.38 1.11.85v28.3"/><path d="m14.58 10.31c-1.66.39-2.49.57-4.15.54 0-1.66 0-2.49 0-4.15 1.66.04 2.49-.14 4.15-.54 0 1.66 0 2.49 0 4.15"/><path d="m18.72 5.08c-1.66.39-2.49.68-4.15 1.08 0-1.66 0-2.49 0-4.15 1.66-.39 2.49-.68 4.15-1.08 0 1.67 0 2.49 0 4.15"/><path d="m22.87 8.7c-1.66-.04-2.49.14-4.15.53 0-1.66 0-2.49 0-4.15 1.66-.39 2.49-.57 4.15-.53 0 1.66 0 2.49 0 4.15"/><path d="m18.72 13.38c-1.66.39-2.49.68-4.15 1.08 0-1.66 0-2.49 0-4.15 1.66-.39 2.49-.68 4.15-1.07 0 1.65 0 2.48 0 4.14"/><path d="m26.18 1.1c-.18-.08-.27-.11-.45-.17-.81-.29-1.22-.37-2.03-.46-.33-.03-.49-.04-.82-.05 0 .33 0 .49 0 .82 0 .18 0 .27 0 .45 0 .63 0 .95 0 1.58 0 .18 0 .27 0 .45 0 .33 0 .49 0 .82.33.001.49.02.82.05.18.02.27.03.45.06.63.1.95.17 1.58.4.18.06.27.1.45.17.32.15.49.23.82.4 0-.33 0-.49 0-.82 0-.81 0-1.22 0-2.03 0-.18 0-.27 0-.45 0-.46-.37-1.03-.82-1.22"/><path d="m26.18 13.51c-.18-.08-.27-.11-.45-.17-.81-.29-1.22-.37-2.03-.46-.33-.03-.49-.04-.82-.05 0-.33 0-.49 0-.82 0-.18 0-.27 0-.45 0-.63 0-.95 0-1.58 0-.18 0-.27 0-.45 0-.33 0-.49 0-.82.33.001.49.02.82.05.18.02.27.03.45.06.63.1.95.17 1.58.4.18.06.27.1.45.17.32.12.49.2.82.38 0 .33 0 .49 0 .82 0 .81 0 1.22 0 2.03 0 .18 0 .27 0 .45 0 .46-.37.62-.82.44"/><path d="m7.1 14.31c.18.08.27.11.45.17.81.29 1.22.37 2.03.46.33.03.49.04.82.05 0-.33 0-.49 0-.82 0-.18 0-.27 0-.45 0-.63 0-.95 0-1.58 0-.18 0-.27 0-.45 0-.33 0-.49 0-.82-.33-.001-.49-.02-.82-.05-.18-.02-.27-.03-.45-.06-.63-.1-.95-.17-1.58-.4-.18-.06-.27-.1-.45-.17-.33-.14-.49-.21-.82-.39 0 .33 0 .49 0 .82 0 .81 0 1.22 0 2.03 0 .18 0 .27 0 .45 0 .45.37 1.02.82 1.21"/><path d="m7.1 1.9c.18.08.27.11.45.17.81.29 1.22.37 2.03.46.33.03.49.04.82.05 0 .33 0 .49 0 .82 0 .18 0 .27 0 .45 0 .63 0 .95 0 1.58 0 .18 0 .27 0 .45 0 .33 0 .49 0 .82-.32.001-.48 0-.81-.04-.18-.02-.27-.03-.45-.06-.63-.1-.95-.17-1.58-.4-.18-.06-.27-.09-.46-.17-.32-.13-.49-.21-.82-.39 0-.33 0-.49 0-.82 0-.81 0-1.22 0-2.03 0-.18 0-.27 0-.45 0-.46.37-.62.82-.44"/></svg>