<svg xmlns="http://www.w3.org/2000/svg" viewBox="0 0 30 30" enable-background="new 0 0 30 30"><path d="m7.26 6.34v-1.7h2.8v4.99c-1.35.22-2.44.33-3.28.33-1.5 0-2.53-.4-3.09-1.2s-.84-2.08-.84-3.82.29-3 .88-3.78c.58-.77 1.58-1.16 2.98-1.16.88 0 1.82.1 2.84.3l.51.1-.06 1.51c-1.12-.12-2.05-.18-2.77-.18-.72 0-1.23.08-1.52.25-.3.17-.51.48-.65.94-.13.46-.2 1.24-.2 2.35 0 1.11.14 1.88.41 2.33.27.44.84.67 1.7.67l1.17-.07v-1.86h-.88"/><path d="m15.58 6.99h-1.58v2.8h-1.95v-9.62h3.54c2.28 0 3.42 1.11 3.42 3.34 0 1.12-.29 1.98-.87 2.58-.59.6-1.44.9-2.56.9m-1.58-1.67h1.57c.97 0 1.46-.6 1.46-1.81 0-.59-.12-1.02-.35-1.28-.24-.26-.6-.39-1.1-.39h-1.58v3.48"/><path d="m21.52.17l1.78 3.54 1.83-3.54h2.02l-2.77 4.91 2.77 4.71h-2.16l-1.79-3.33-1.83 3.32h-2.02l2.77-4.61-2.77-5.01h2.17z"/><path d="m16.35 20.57v-6.31h-2.31v6.31h-1.94l3.1 3.83 3.09-3.83z"/><path d="m23.82 23.69v3.99h-17.25v-3.99h-2.32v6.31h21.89v-6.31z"/></svg>