<svg xmlns="http://www.w3.org/2000/svg" viewBox="0 0 30 30" enable-background="new 0 0 30 30"><path d="m6.6 6.86h-1.59v2.82h-1.97v-9.68h3.56c2.3 0 3.44 1.12 3.44 3.36 0 1.13-.29 1.99-.87 2.6-.59.6-1.44.9-2.57.9m-1.59-1.68h1.58c.98 0 1.47-.61 1.47-1.82 0-.6-.12-1.03-.36-1.29-.24-.26-.61-.39-1.12-.39h-1.57v3.5"/><path d="m14.82 9.67h-3.26v-9.67h3.26c.83 0 1.52.09 2.06.26.54.18.96.47 1.26.87.3.4.51.88.62 1.42.11.55.17 1.25.17 2.13s-.05 1.6-.16 2.17c-.1.57-.3 1.09-.59 1.54-.29.45-.71.78-1.26.98-.54.2-1.24.3-2.1.3m2.07-3.84c.02-.3.03-.72.03-1.26s-.02-.96-.06-1.29c-.04-.32-.13-.62-.27-.88s-.35-.45-.63-.55c-.28-.1-.66-.15-1.13-.15h-1.29v6.26h1.29c.71 0 1.23-.18 1.55-.54.27-.29.44-.82.51-1.59"/><path d="M20.78,9.67V0h6.17v1.71h-4.21v2.85h3.44v1.71h-3.44v3.41H20.78z"/><path d="m15.34 20.51v-6.34h-2.33v6.34h-1.95l3.11 3.86 3.11-3.86z"/><path d="m22.85 23.66v4.01h-17.36v-4.01h-2.33v6.34h22.02v-6.34z"/></svg>