<svg xmlns="http://www.w3.org/2000/svg" viewBox="0 0 30 30" enable-background="new 0 0 30 30"><path d="m24.86 13.14c-.39 0-.77.09-1.11.27-.4-.83-1.24-1.37-2.17-1.37-.39 0-.77.09-1.11.27-.4-.83-1.24-1.37-2.17-1.37-.3 0-.6.06-.88.16v-4.31c0-1.33-1.08-2.41-2.41-2.41-1.33 0-2.41 1.08-2.41 2.41v7.77c-.59.37-1.13.83-1.4 1.08-1.22 1.11-1.89 2.45-1.89 3.76v1.63c0 1.17.75 2.97 2.23 5.33l.08.12c.56.9 1.48 2.23 2.23 3.22.12.16.3.27.51.29.02.001.06.001.09.001.17 0 .33-.06.47-.16.33-.26.4-.74.14-1.07-.57-.75-1.66-2.32-2.17-3.13-1.32-2.1-2.05-3.74-2.05-4.6v-1.64c0-.88.47-1.77 1.4-2.64.09-.09.22-.19.35-.3v2.92c0 .42.34.77.76.77.45 0 .77-.31.77-.77v-12.59c0-.48.39-.88.88-.88s.88.39.88.88v9.31c0 .42.34.77.77.77s.77-.34.77-.77v-2.74c0-.48.39-.88.88-.88.48 0 .88.39.88.88v2.74c0 .42.34.77.77.77s.77-.34.77-.77v-1.64c0-.48.39-.88.88-.88.48 0 .88.39.88.88v2.74c0 .42.34.77.77.77s.77-.34.77-.77v-1.64c0-.48.39-.88.88-.88.48 0 .88.39.88.88v3.83c0 1.86-.6 3.67-1.18 5.42-.52 1.57-1.01 3.06-1.01 4.44 0 .42.34.77.77.77s.77-.34.77-.77c0-1.08.45-2.47.93-3.95.59-1.83 1.26-3.9 1.26-5.91v-3.83c-.06-1.34-1.14-2.42-2.46-2.42"/><path d="m4.26 3.72h6.91c.42 0 .77-.34.77-.77s-.34-.77-.77-.77h-6.91l.88-.88c.14-.14.22-.34.22-.54s-.08-.4-.22-.54c-.3-.3-.79-.3-1.08 0l-2.19 2.19c-.15.15-.23.34-.23.55 0 .2.08.4.22.54l2.19 2.19c.16.15.35.22.55.22s.39-.07.54-.22c.3-.3.3-.79 0-1.08l-.88-.89"/><path d="m28.13 2.41l-2.19-2.19c-.3-.3-.78-.3-1.08 0-.14.14-.22.34-.22.54 0 .2.08.4.22.54l.88.88h-6.91c-.42 0-.77.34-.77.77s.34.77.77.77h6.91l-.88.88c-.3.3-.3.79 0 1.08.15.15.35.22.54.22.2 0 .39-.07.54-.22l2.19-2.19c.14-.14.22-.34.22-.54.001-.2-.07-.39-.22-.54"/></svg>