<svg xmlns="http://www.w3.org/2000/svg" viewBox="0 0 30 30" enable-background="new 0 0 30 30"><path d="m26.48 6.69c1.35-.83 2.24-1.95 2.67-3.39-1.31.69-2.61 1.17-3.92 1.43-1.17-1.26-2.65-1.9-4.43-1.9-1.74 0-3.21.61-4.4 1.8-1.19 1.19-1.79 2.65-1.79 4.34 0 .51.06.97.19 1.36-5.13-.17-9.37-2.3-12.71-6.39-.57 1-.85 2.02-.85 3.08 0 2.17.91 3.89 2.74 5.15-1.04-.09-1.96-.35-2.74-.78 0 1.55.45 2.84 1.37 3.98.91 1.13 2.09 1.84 3.52 2.15-.52.13-1.07.2-1.63.2-.52 0-.89-.04-1.11-.14.38 1.26 1.11 2.28 2.15 3.07 1.04.79 2.24 1.2 3.59 1.24-2.22 1.74-4.76 2.6-7.63 2.6-.7 0-1.2-.001-1.5-.06 2.83 1.84 5.98 2.75 9.46 2.75 3.56 0 6.71-.9 9.46-2.71 2.74-1.8 4.76-4.01 6.06-6.62 1.31-2.61 1.95-5.32 1.95-8.15v-.8c1.27-.95 2.29-2.02 3.07-3.2-1.13.49-2.3.82-3.52.99"/></svg>