<svg xmlns="http://www.w3.org/2000/svg" viewBox="0 0 30 30" enable-background="new 0 0 30 30"><path d="m0 17.83c0 3.41 2.77 6.18 6.18 6.18 3.41 0 6.18-2.77 6.18-6.18 0-2.53-1.53-4.71-3.72-5.67l.3-.87 7.17 7.43c.001.001.02.001.03.02.001.001.02.02.03.03.02.001.03.02.05.03.001.001.02.001.03.02.02.001.04.001.06.02.001 0 .02.001.03.001.03.001.06.001.09.001.001 0 .02 0 .03 0l1.23-.09c.43 2.99 3.01 5.29 6.12 5.29 3.41 0 6.18-2.78 6.18-6.18 0-3.41-2.77-6.19-6.18-6.19-.9 0-1.76.19-2.54.54l-1.67-3.1.6-2.07h.99c.24 0 .44-.3.44-.54 0-.24-.2-.55-.44-.55h-3.33c-.24 0-.44.3-.44.55 0 .24.2.54.44.54h1.43l-.48 1.44h-9.21l.17-.66c.03-.13 0-.18-.09-.29-.08-.11-.2-.14-.34-.14h-2.74c-.24 0-.44.12-.44.36 0 .24.2.36.44.36h2.2l-.17.88c0 0 0 .04 0 .05l-.27 1.28-.53 1.52c-.52-.14-1.07-.22-1.64-.22-3.42 0-6.19 2.78-6.19 6.19m18.56-8.24l-2.33 7.93-6.98-7.18.16-.75h9.15m.16 9.09l5.13-.38c.15-.001.28-.1.35-.23.07-.13.07-.29 0-.42l-2.44-4.53c.63-.27 1.32-.43 2.05-.43 2.85 0 5.16 2.31 5.16 5.16 0 2.84-2.31 5.16-5.16 5.16-2.56.02-4.69-1.87-5.09-4.33m4.39-1.2l-4.45.33c.02-1.78.95-3.35 2.34-4.26l2.11 3.93m-6.05.45l2.22-7.6 1.27 2.32c-1.73 1.1-2.86 3.03-2.86 5.22 0 .001 0 .001 0 .02l-.63.04m-16.04-.1c0-2.85 2.31-5.16 5.16-5.16.45 0 .88.06 1.3.17l-1.71 4.89c-.08.23.04.48.27.56.05.02.1.02.14.02.18 0 .35-.11.41-.29l1.71-4.88c1.79.81 3.04 2.61 3.04 4.7 0 2.85-2.31 5.16-5.16 5.16s-5.16-2.33-5.16-5.17"/></svg>