<svg xmlns="http://www.w3.org/2000/svg" viewBox="0 0 30 30" enable-background="new 0 0 30 30"><path d="m29.9 27.78l-6.09-6.09c1.86-2.29 2.98-5.2 2.98-8.37 0-7.33-5.96-13.29-13.29-13.29s-13.29 5.96-13.29 13.29 5.97 13.28 13.29 13.28c3.01 0 5.78-1.02 8.01-2.71l6.14 6.14 2.25-2.25m-27.26-14.46c0-5.99 4.88-10.87 10.87-10.87 5.99 0 10.87 4.87 10.87 10.87s-4.89 10.86-10.88 10.86c-5.99 0-10.86-4.87-10.86-10.86"/><path d="m17.75 12.25h-3.19v-3.18h-2.12v3.18h-3.19v2.13h3.19v3.19h2.12v-3.19h3.19z"/></svg>