<svg id="Layer_1" data-name="Layer 1" xmlns="http://www.w3.org/2000/svg" viewBox="0 0 150 150"><title>velo-placeholder--1x1</title><rect width="150" height="150" fill="#1a2937"/><g opacity="0.3"><polygon points="45.05 86.66 51.19 75.81 56.62 52.03 56.62 52.03 58.59 54.49 53.53 76.73 47.22 87.88 45.05 86.66" fill="#fff"/><path d="M-143.12,67.24a6.25,6.25,0,0,1-4-5.82h0a6.1,6.1,0,0,1,3.07-5.68h0a11,11,0,0,1,4.11-1h0l0.51,0h7.77l0.34,2.48H-140a6.3,6.3,0,0,0-2.9.67h0c-1,.59-1.75,1.38-1.79,3.51h0a3.42,3.42,0,0,0,1.56,3h0a7.91,7.91,0,0,0,3,1.17h0a7.24,7.24,0,0,0,.88.12h0l-0.15,2.49a11.65,11.65,0,0,1-3.73-.94h0Z" transform="translate(189.94 -2.77)" fill="#fff"/><path d="M-136,67.89l1.77-1.75,24.44,27.34,25.48-4.1-17-24.65h-33V62.24H-100l20,29-30.64,4.92L-136,67.89h0Zm1.72-3.16h0Z" transform="translate(189.94 -2.77)" fill="#fff"/><polygon points="78.56 91.67 91.58 48.99 93.96 49.72 80.94 92.4 78.56 91.67" fill="#fff"/><path d="M-162.94,90.3a19.19,19.19,0,0,1,19.19-19.19h0A19.19,19.19,0,0,1-124.55,90.3h0a19.19,19.19,0,0,1-19.19,19.19h0A19.19,19.19,0,0,1-162.94,90.3h0Zm2.49,0a16.73,16.73,0,0,0,16.7,16.7h0A16.72,16.72,0,0,0-127,90.3h0a16.72,16.72,0,0,0-16.7-16.7h0a16.72,16.72,0,0,0-16.7,16.7h0Z" transform="translate(189.94 -2.77)" fill="#fff"/><circle cx="46.19" cy="87.53" r="2.7" fill="#fff"/><path d="M-101.32,90.3A19.2,19.2,0,0,1-82.13,71.11h0A19.2,19.2,0,0,1-62.94,90.3h0a19.19,19.19,0,0,1-19.19,19.19h0A19.2,19.2,0,0,1-101.32,90.3h0Zm2.49,0A16.72,16.72,0,0,0-82.13,107h0a16.72,16.72,0,0,0,16.7-16.7h0a16.72,16.72,0,0,0-16.7-16.7h0a16.72,16.72,0,0,0-16.7,16.7h0Z" transform="translate(189.94 -2.77)" fill="#fff"/><circle cx="107.81" cy="87.53" r="2.7" fill="#fff"/><circle cx="79.75" cy="91.21" r="2.7" fill="#fff"/><polygon points="76.88 83.21 78.71 82.86 81.93 99.77 80.09 100.11 76.88 83.21" fill="#fff"/><polygon points="75.41 83.7 75.41 81.83 80.08 81.83 80.08 83.7 75.41 83.7" fill="#fff"/><polygon points="78.52 100.31 78.52 98.44 83.19 98.44 83.19 100.31 78.52 100.31" fill="#fff"/><path d="M-103.77,50.42s-1.62.32-1.62,1.29a1.23,1.23,0,0,0,1.46,1.13,42.26,42.26,0,0,1,8.41.49c2.59,0.65,3.89,1.13,4.69-.16s1-4-2.43-3.89S-103.77,50.42-103.77,50.42Z" transform="translate(189.94 -2.77)" fill="#fff"/></g></svg>