<svg id="Layer_1" data-name="Layer 1" xmlns="http://www.w3.org/2000/svg" viewBox="0 0 340 150"><title>velo-placeholder--340x150</title><rect width="340" height="150" fill="#1a2937"/><g opacity="0.3"><polygon points="138.06 86.47 144.19 75.63 149.62 51.84 149.62 51.84 151.59 54.3 146.53 76.54 140.22 87.69 138.06 86.47" fill="#fff"/><path d="M139.81,64.28a6.25,6.25,0,0,1-4-5.82h0a6.1,6.1,0,0,1,3.07-5.68h0a11,11,0,0,1,4.11-1h0l0.51,0h7.77l0.34,2.48H143a6.3,6.3,0,0,0-2.9.67h0c-1,.59-1.75,1.38-1.79,3.51h0a3.42,3.42,0,0,0,1.56,3h0a7.91,7.91,0,0,0,3,1.17h0a7.24,7.24,0,0,0,.88.12h0l-0.15,2.49a11.65,11.65,0,0,1-3.73-.94h0Z" transform="translate(0)" fill="#fff"/><path d="M147,64.92l1.77-1.75,24.44,27.34,25.48-4.1-17-24.65h-33V59.28h34.26l20,29-30.64,4.92L147,64.92h0Zm1.72-3.16h0Z" transform="translate(0)" fill="#fff"/><polygon points="171.56 91.48 184.58 48.8 186.96 49.53 173.94 92.21 171.56 91.48" fill="#fff"/><path d="M120,87.34a19.19,19.19,0,0,1,19.19-19.19h0a19.19,19.19,0,0,1,19.19,19.19h0a19.19,19.19,0,0,1-19.19,19.19h0A19.19,19.19,0,0,1,120,87.34h0Zm2.49,0a16.73,16.73,0,0,0,16.7,16.7h0a16.72,16.72,0,0,0,16.7-16.7h0a16.72,16.72,0,0,0-16.7-16.7h0a16.72,16.72,0,0,0-16.7,16.7h0Z" transform="translate(0)" fill="#fff"/><circle cx="139.19" cy="87.34" r="2.7" fill="#fff"/><path d="M181.62,87.34a19.2,19.2,0,0,1,19.19-19.19h0A19.2,19.2,0,0,1,220,87.34h0a19.19,19.19,0,0,1-19.19,19.19h0a19.2,19.2,0,0,1-19.19-19.19h0Zm2.49,0a16.72,16.72,0,0,0,16.7,16.7h0a16.72,16.72,0,0,0,16.7-16.7h0a16.72,16.72,0,0,0-16.7-16.7h0a16.72,16.72,0,0,0-16.7,16.7h0Z" transform="translate(0)" fill="#fff"/><circle cx="200.81" cy="87.34" r="2.7" fill="#fff"/><circle cx="172.75" cy="91.02" r="2.7" fill="#fff"/><polygon points="169.88 83.02 171.71 82.67 174.93 99.58 173.09 99.92 169.88 83.02" fill="#fff"/><polygon points="168.41 83.51 168.41 81.64 173.08 81.64 173.08 83.51 168.41 83.51" fill="#fff"/><polygon points="171.52 100.12 171.52 98.25 176.19 98.25 176.19 100.12 171.52 100.12" fill="#fff"/><path d="M179.17,47.46s-1.62.32-1.62,1.29A1.23,1.23,0,0,0,179,49.88a42.26,42.26,0,0,1,8.41.49c2.59,0.65,3.89,1.13,4.69-.16s1-4-2.43-3.89S179.17,47.46,179.17,47.46Z" transform="translate(0)" fill="#fff"/></g></svg>