<?xml version="1.0" standalone="no"?>
<!DOCTYPE svg PUBLIC "-//W3C//DTD SVG 20010904//EN"
 "http://www.w3.org/TR/2001/REC-SVG-20010904/DTD/svg10.dtd">
<svg version="1.0" xmlns="http://www.w3.org/2000/svg"
 width="500.000000pt" height="500.000000pt" viewBox="0 0 500.000000 500.000000"
 preserveAspectRatio="xMidYMid meet">
<metadata>
Created by potrace 1.11, written by Peter Selinger 2001-2013
</metadata>
<g transform="translate(0.000000,500.000000) scale(0.100000,-0.100000)"
fill="#000000" stroke="none">
<path d="M615 4733 c10 -51 59 -268 75 -333 11 -41 21 -86 24 -100 3 -14 7
-34 10 -45 2 -11 20 -87 40 -170 19 -82 49 -211 66 -285 33 -142 35 -151 49
-215 5 -22 41 -176 80 -342 39 -166 73 -313 75 -325 6 -28 106 -457 172 -734
18 -78 35 -152 38 -165 12 -60 79 -349 131 -564 15 -60 29 -119 31 -130 10
-51 31 -144 79 -345 15 -63 28 -123 30 -133 3 -10 7 -27 10 -37 3 -10 8 -27
10 -37 18 -87 39 -177 64 -285 34 -142 41 -171 48 -211 l5 -27 848 0 848 0 5
28 c3 15 22 97 42 182 19 85 45 196 56 245 11 50 23 98 25 107 2 10 6 28 9 40
3 13 12 52 21 88 9 36 18 74 20 85 7 38 12 60 38 165 14 58 28 120 31 139 3
19 8 37 10 41 2 3 6 17 9 31 2 13 17 76 31 139 15 63 28 122 30 130 2 8 16 67
30 130 15 63 28 122 30 130 9 40 147 631 164 703 19 77 109 465 116 497 2 8
11 48 20 89 9 40 18 78 19 85 2 6 6 22 9 36 12 45 59 245 63 265 4 22 74 325
104 450 10 44 21 91 24 105 4 21 17 75 41 170 2 8 13 58 25 110 12 52 23 102
25 110 2 8 10 47 19 85 9 39 18 80 21 93 l5 22 -479 0 c-448 0 -480 -1 -485
-17 -3 -10 -31 -137 -61 -283 -31 -146 -79 -373 -106 -505 -28 -132 -53 -249
-55 -260 -2 -11 -6 -31 -9 -45 -3 -14 -7 -34 -9 -45 -3 -11 -21 -94 -40 -185
-19 -91 -37 -176 -40 -190 -2 -14 -20 -99 -40 -190 -19 -91 -37 -177 -40 -193
-3 -15 -7 -35 -10 -45 -3 -9 -7 -28 -10 -42 -3 -14 -17 -81 -31 -150 -15 -69
-28 -134 -30 -145 -2 -11 -20 -96 -40 -190 -20 -93 -61 -287 -91 -430 -30
-143 -59 -280 -65 -305 -5 -25 -12 -56 -15 -70 -19 -98 -34 -169 -39 -190 -4
-14 -9 -38 -11 -55 -3 -16 -13 -61 -22 -100 l-17 -70 -143 0 c-79 0 -146 4
-149 9 -5 7 -16 56 -39 176 -3 14 -7 33 -10 42 -3 10 -7 30 -10 45 -3 16 -14
71 -25 123 -11 52 -22 104 -25 115 -10 52 -88 423 -110 525 -14 63 -31 147
-39 185 -8 39 -33 158 -55 265 -58 273 -89 420 -96 455 -3 17 -14 68 -24 115
-10 47 -39 184 -65 305 -25 121 -49 238 -55 260 -5 22 -11 54 -15 72 -3 18
-21 103 -40 190 -18 87 -36 169 -39 183 -2 14 -16 79 -30 145 -14 66 -27 131
-30 145 -3 14 -14 68 -26 120 -11 52 -23 109 -26 125 -3 17 -9 47 -15 68 l-10
37 -479 0 c-451 0 -479 -1 -475 -17z"/>
</g>
</svg>
