<?xml version="1.0" encoding="utf-8"?>
<!-- Generator: Adobe Illustrator 19.2.1, SVG Export Plug-In . SVG Version: 6.00 Build 0)  -->
<svg version="1.1" id="Layer_1" xmlns="http://www.w3.org/2000/svg" xmlns:xlink="http://www.w3.org/1999/xlink" x="0px" y="0px"
	 viewBox="0 0 30 30" enable-background="new 0 0 30 30" xml:space="preserve">
<g>
	<path fill-rule="evenodd" clip-rule="evenodd" d="M17.92,8.13c0.13,0,0.24-0.02,0.35-0.04c0.76-0.19,1.13-1,1.17-1.97
		c0.03-1.02-0.33-1.87-1.17-1.99c-0.07-0.02-0.15-0.02-0.23-0.02c-0.67,0-1.1,0.4-1.33,0.99c-0.11,0.3-0.18,0.65-0.19,1.02
		c-0.02,0.44,0.04,0.86,0.19,1.19C16.94,7.81,17.32,8.13,17.92,8.13z"/>
	<path fill-rule="evenodd" clip-rule="evenodd" d="M17.9,8.46c-0.34,0-0.62,0.03-0.87,0.1l0.07,0.1l0.13,0.23l0.1,0.24l0.09,0.25
		l0.06,0.26l0.04,0.26l0.03,0.27l0.01,0.26v0.28l-0.02,0.27l-0.02,0.27l-0.07,0.54l-0.05,0.27l-0.05,0.27l-0.05,0.26l-0.06,0.26
		l-0.05,0.25l-0.06,0.24l-0.06,0.23L17,13.79l-0.05,0.22l-0.05,0.21l-0.03,0.13l-0.03,0.15l-0.03,0.16l-0.03,0.16l-0.03,0.17
		l-0.03,0.15v0.03l-0.03,0.19l-0.03,0.19l-0.03,0.2l-0.03,0.21l-0.03,0.21l-0.03,0.21l-0.03,0.22l-0.03,0.21l-0.03,0.22l-0.03,0.22
		l-0.03,0.22v0.01c0.05,0.62,0.1,1.15,0.12,1.45c0.03,0.35,0.1,0.6,0.21,0.76c0.16,0.25,0.43,0.34,0.81,0.37
		c0.32-0.03,0.56-0.1,0.74-0.27c0.17-0.16,0.28-0.43,0.35-0.87c0.14-0.89,0.54-3.82,0.88-5.07c0.49-1.81,1.68-5.1-1.23-5.35
		C18.16,8.46,18.03,8.46,17.9,8.46z"/>
	<path fill-rule="evenodd" clip-rule="evenodd" d="M14.37,7.54h0.02c1.13-0.01,1.65-1.04,1.65-2.3c0-1.26-0.53-2.3-1.65-2.31h-0.02
		c-1.14,0-1.67,1.04-1.67,2.31C12.7,6.51,13.23,7.54,14.37,7.54z"/>
	<path fill-rule="evenodd" clip-rule="evenodd" d="M10.15,18.91c0.06,0.43,0.17,0.7,0.35,0.87c0.18,0.17,0.42,0.23,0.74,0.27
		c0.38-0.03,0.64-0.12,0.81-0.37c0.1-0.16,0.17-0.42,0.21-0.76c0.03-0.3,0.07-0.83,0.12-1.45v-0.02l-0.03-0.22l-0.03-0.22
		l-0.03-0.22l-0.03-0.21l-0.03-0.22l-0.03-0.21l-0.03-0.21l-0.03-0.21l-0.03-0.2l-0.03-0.19l-0.03-0.19v-0.03l-0.03-0.16l-0.03-0.17
		l-0.03-0.16l-0.03-0.16l-0.03-0.15l-0.03-0.13l-0.04-0.21l-0.06-0.22l-0.05-0.23l-0.06-0.23l-0.06-0.24l-0.06-0.25l-0.05-0.26
		l-0.06-0.26l-0.05-0.27l-0.04-0.27l-0.07-0.54l-0.03-0.27l-0.01-0.28v-0.27l0.01-0.26l0.03-0.27l0.04-0.26l0.06-0.26l0.08-0.25
		l0.11-0.24l0.13-0.23l0.07-0.1c-0.25-0.06-0.55-0.1-0.87-0.1c-0.13,0-0.25,0-0.37,0.02c-2.91,0.25-1.72,3.54-1.23,5.35
		C9.61,15.09,10.01,18.01,10.15,18.91z"/>
	<path fill-rule="evenodd" clip-rule="evenodd" d="M30,14.81V13.9c-0.31-3-3.82-4.77-8.59-4.29c5.38,0.07,8.51,3.37,4.95,7.88
		c-1.64,2.08-4.4,4.13-8.09,5.45c-0.17,0.06-0.35,0.12-0.53,0.18c-0.35,0.11-0.69,0.22-1.03,0.32c-0.8,0.23-1.58,0.42-2.33,0.57
		c-0.81,0.16-1.58,0.29-2.34,0.37c-0.54,0.05-1.06,0.09-1.56,0.1c-3.43,0.09-6.01-0.85-6.85-2.86c-1.01-2.4,1.04-5.74,5.14-8.29
		c-3.04,1.23-8.55,4.1-8.79,8.23v0.52c0.03,0.42,0.1,0.84,0.24,1.28c0.87,2.78,5,4.08,10.25,3.61c0.51-0.04,1.03-0.1,1.56-0.18
		c0.76-0.11,1.54-0.27,2.34-0.45c0.76-0.18,1.54-0.4,2.33-0.64c0.17-0.06,0.35-0.11,0.52-0.17c0.35-0.11,0.7-0.23,1.04-0.36
		c4.55-1.65,7.93-3.85,9.9-6.38C29.31,17.35,29.89,16,30,14.81z"/>
	<path fill-rule="evenodd" clip-rule="evenodd" d="M12.05,12.88c0.1,0.44,0.21,0.85,0.29,1.21c0.35,1.45,0.7,4.81,0.83,5.82
		c0.12,1.02,0.48,1.24,1.21,1.31c0.72-0.07,1.08-0.29,1.2-1.31c0.12-1.01,0.48-4.37,0.82-5.82c0.09-0.36,0.2-0.77,0.3-1.21
		c0.32-1.32,0.58-2.88,0-3.89c-0.37-0.64-1.08-1.06-2.33-1.06c-1.26,0-1.97,0.42-2.34,1.06C11.47,10,11.73,11.55,12.05,12.88z"/>
	<path fill-rule="evenodd" clip-rule="evenodd" d="M10.49,8.08c0.11,0.03,0.23,0.04,0.35,0.04c0.6,0,0.99-0.32,1.2-0.81
		c0.14-0.34,0.2-0.75,0.19-1.19c-0.02-0.37-0.08-0.72-0.19-1.02c-0.23-0.59-0.68-0.99-1.33-0.99c-0.08,0-0.16,0-0.23,0.02
		C9.65,4.25,9.29,5.1,9.32,6.12C9.35,7.08,9.73,7.89,10.49,8.08z"/>
</g>
</svg>
