<?xml version="1.0" encoding="utf-8"?>
<!-- Generator: Adobe Illustrator 19.2.1, SVG Export Plug-In . SVG Version: 6.00 Build 0)  -->
<svg version="1.1" id="Layer_1" xmlns="http://www.w3.org/2000/svg" xmlns:xlink="http://www.w3.org/1999/xlink" x="0px" y="0px"
	 viewBox="0 0 30 30" enable-background="new 0 0 30 30" xml:space="preserve">
<g id="XMLID_4251_">
	<path id="XMLID_4252_" d="M22.5,0.01L18.61,0c-4.37,0-7.2,2.9-7.2,7.38v3.4H7.5c-0.34,0-0.61,0.27-0.61,0.61v4.93
		c0,0.34,0.27,0.61,0.61,0.61h3.91v12.45c0,0.34,0.27,0.61,0.61,0.61h5.1c0.34,0,0.61-0.27,0.61-0.61V16.94h4.57
		c0.34,0,0.61-0.27,0.61-0.61l0-4.93c0-0.16-0.06-0.32-0.18-0.43s-0.27-0.18-0.43-0.18h-4.58V7.9c0-1.39,0.33-2.09,2.14-2.09l2.62,0
		c0.34,0,0.61-0.27,0.61-0.61V0.62C23.11,0.28,22.84,0.01,22.5,0.01z"/>
</g>
</svg>
