<?xml version="1.0" encoding="utf-8"?>
<!-- Generator: Adobe Illustrator 19.2.1, SVG Export Plug-In . SVG Version: 6.00 Build 0)  -->
<svg version="1.1" id="Layer_1" xmlns="http://www.w3.org/2000/svg" xmlns:xlink="http://www.w3.org/1999/xlink" x="0px" y="0px"
	 viewBox="0 0 30 30" enable-background="new 0 0 30 30" xml:space="preserve">
<g>
	<g>
		<path d="M5.23,29.15c0,0.46-0.5,0.85-1.11,0.85S3,29.62,3,29.15V0.85C3,0.38,3.5,0,4.12,0s1.11,0.38,1.11,0.85V29.15z"/>
	</g>
	<path d="M14.58,10.31c-1.66,0.39-2.49,0.57-4.15,0.54c0-1.66,0-2.49,0-4.15c1.66,0.04,2.49-0.14,4.15-0.54
		C14.58,7.82,14.58,8.65,14.58,10.31z"/>
	<path d="M18.72,5.08c-1.66,0.39-2.49,0.68-4.15,1.08c0-1.66,0-2.49,0-4.15c1.66-0.39,2.49-0.68,4.15-1.08
		C18.72,2.6,18.72,3.42,18.72,5.08z"/>
	<path d="M22.87,8.7c-1.66-0.04-2.49,0.14-4.15,0.53c0-1.66,0-2.49,0-4.15c1.66-0.39,2.49-0.57,4.15-0.53
		C22.87,6.21,22.87,7.04,22.87,8.7z"/>
	<path d="M18.72,13.38c-1.66,0.39-2.49,0.68-4.15,1.08c0-1.66,0-2.49,0-4.15c1.66-0.39,2.49-0.68,4.15-1.07
		C18.72,10.89,18.72,11.72,18.72,13.38z"/>
	<path d="M26.18,1.1c-0.18-0.08-0.27-0.11-0.45-0.17c-0.81-0.29-1.22-0.37-2.03-0.46c-0.33-0.03-0.49-0.04-0.82-0.05
		c0,0.33,0,0.49,0,0.82c0,0.18,0,0.27,0,0.45c0,0.63,0,0.95,0,1.58c0,0.18,0,0.27,0,0.45c0,0.33,0,0.49,0,0.82
		c0.33,0.01,0.49,0.02,0.82,0.05c0.18,0.02,0.27,0.03,0.45,0.06c0.63,0.1,0.95,0.17,1.58,0.4c0.18,0.06,0.27,0.1,0.45,0.17
		C26.5,5.37,26.67,5.45,27,5.62c0-0.33,0-0.49,0-0.82c0-0.81,0-1.22,0-2.03c0-0.18,0-0.27,0-0.45C27,1.86,26.63,1.29,26.18,1.1z"/>
	<path d="M26.18,13.51c-0.18-0.08-0.27-0.11-0.45-0.17c-0.81-0.29-1.22-0.37-2.03-0.46c-0.33-0.03-0.49-0.04-0.82-0.05
		c0-0.33,0-0.49,0-0.82c0-0.18,0-0.27,0-0.45c0-0.63,0-0.95,0-1.58c0-0.18,0-0.27,0-0.45c0-0.33,0-0.49,0-0.82
		c0.33,0.01,0.49,0.02,0.82,0.05c0.18,0.02,0.27,0.03,0.45,0.06c0.63,0.1,0.95,0.17,1.58,0.4c0.18,0.06,0.27,0.1,0.45,0.17
		C26.5,9.51,26.67,9.59,27,9.77c0,0.33,0,0.49,0,0.82c0,0.81,0,1.22,0,2.03c0,0.18,0,0.27,0,0.45C27,13.53,26.63,13.69,26.18,13.51z
		"/>
	<g>
		<path d="M7.1,14.31c0.18,0.08,0.27,0.11,0.45,0.17c0.81,0.29,1.22,0.37,2.03,0.46c0.33,0.03,0.49,0.04,0.82,0.05
			c0-0.33,0-0.49,0-0.82c0-0.18,0-0.27,0-0.45c0-0.63,0-0.95,0-1.58c0-0.18,0-0.27,0-0.45c0-0.33,0-0.49,0-0.82
			c-0.33-0.01-0.49-0.02-0.82-0.05c-0.18-0.02-0.27-0.03-0.45-0.06c-0.63-0.1-0.95-0.17-1.58-0.4c-0.18-0.06-0.27-0.1-0.45-0.17
			c-0.33-0.14-0.49-0.21-0.82-0.39c0,0.33,0,0.49,0,0.82c0,0.81,0,1.22,0,2.03c0,0.18,0,0.27,0,0.45
			C6.28,13.55,6.65,14.12,7.1,14.31z"/>
		<path d="M7.1,1.9c0.18,0.08,0.27,0.11,0.45,0.17c0.81,0.29,1.22,0.37,2.03,0.46c0.33,0.03,0.49,0.04,0.82,0.05
			c0,0.33,0,0.49,0,0.82c0,0.18,0,0.27,0,0.45c0,0.63,0,0.95,0,1.58c0,0.18,0,0.27,0,0.45c0,0.33,0,0.49,0,0.82
			C10.08,6.71,9.92,6.7,9.59,6.66C9.41,6.64,9.32,6.63,9.14,6.6c-0.63-0.1-0.95-0.17-1.58-0.4C7.38,6.14,7.29,6.11,7.1,6.03
			C6.78,5.9,6.61,5.82,6.28,5.64c0-0.33,0-0.49,0-0.82c0-0.81,0-1.22,0-2.03c0-0.18,0-0.27,0-0.45C6.28,1.88,6.65,1.72,7.1,1.9z"/>
	</g>
</g>
</svg>
