<?xml version="1.0" encoding="utf-8"?>
<!-- Generator: Adobe Illustrator 19.2.1, SVG Export Plug-In . SVG Version: 6.00 Build 0)  -->
<svg version="1.1" id="Layer_1" xmlns="http://www.w3.org/2000/svg" xmlns:xlink="http://www.w3.org/1999/xlink" x="0px" y="0px"
	 viewBox="0 0 30 30" enable-background="new 0 0 30 30" xml:space="preserve">
<g>
	<path d="M7.26,6.34v-1.7h2.8v4.99C8.71,9.85,7.62,9.96,6.78,9.96c-1.5,0-2.53-0.4-3.09-1.2S2.85,6.68,2.85,4.94s0.29-3,0.88-3.78
		C4.31,0.39,5.31,0,6.71,0c0.88,0,1.82,0.1,2.84,0.3l0.51,0.1l-0.06,1.51C8.88,1.79,7.95,1.73,7.23,1.73C6.51,1.73,6,1.81,5.71,1.98
		C5.41,2.15,5.2,2.46,5.06,2.92C4.93,3.38,4.86,4.16,4.86,5.27C4.86,6.38,5,7.15,5.27,7.6c0.27,0.44,0.84,0.67,1.7,0.67L8.14,8.2
		V6.34H7.26z"/>
	<path d="M15.58,6.99H14v2.8h-1.95V0.17h3.54c2.28,0,3.42,1.11,3.42,3.34c0,1.12-0.29,1.98-0.87,2.58
		C17.55,6.69,16.7,6.99,15.58,6.99z M14,5.32h1.57c0.97,0,1.46-0.6,1.46-1.81c0-0.59-0.12-1.02-0.35-1.28
		c-0.24-0.26-0.6-0.39-1.1-0.39H14V5.32z"/>
	<path d="M21.52,0.17l1.78,3.54l1.83-3.54h2.02l-2.77,4.91l2.77,4.71h-2.16L23.2,6.46l-1.83,3.32h-2.02l2.77-4.61l-2.77-5.01H21.52z
		"/>
</g>
<g>
	<polygon points="16.35,20.57 16.35,14.26 14.04,14.26 14.04,20.57 12.1,20.57 15.2,24.4 18.29,20.57 	"/>
	<polygon points="23.82,23.69 23.82,27.68 6.57,27.68 6.57,23.69 4.25,23.69 4.25,30 26.14,30 26.14,23.69 	"/>
</g>
</svg>
