<?xml version="1.0" encoding="utf-8"?>
<!-- Generator: Adobe Illustrator 19.2.1, SVG Export Plug-In . SVG Version: 6.00 Build 0)  -->
<svg version="1.1" id="Layer_1" xmlns="http://www.w3.org/2000/svg" xmlns:xlink="http://www.w3.org/1999/xlink" x="0px" y="0px"
	 viewBox="0 0 30 30" enable-background="new 0 0 30 30" xml:space="preserve">
<g>
	<g>
		<path d="M6.6,6.86H5.01v2.82H3.04V0H6.6c2.3,0,3.44,1.12,3.44,3.36c0,1.13-0.29,1.99-0.87,2.6C8.58,6.56,7.73,6.86,6.6,6.86z
			 M5.01,5.18h1.58c0.98,0,1.47-0.61,1.47-1.82c0-0.6-0.12-1.03-0.36-1.29C7.46,1.81,7.09,1.68,6.58,1.68H5.01V5.18z"/>
		<path d="M14.82,9.67h-3.26V0h3.26c0.83,0,1.52,0.09,2.06,0.26c0.54,0.18,0.96,0.47,1.26,0.87c0.3,0.4,0.51,0.88,0.62,1.42
			c0.11,0.55,0.17,1.25,0.17,2.13s-0.05,1.6-0.16,2.17c-0.1,0.57-0.3,1.09-0.59,1.54c-0.29,0.45-0.71,0.78-1.26,0.98
			C16.38,9.57,15.68,9.67,14.82,9.67z M16.89,5.83c0.02-0.3,0.03-0.72,0.03-1.26s-0.02-0.96-0.06-1.29
			c-0.04-0.32-0.13-0.62-0.27-0.88s-0.35-0.45-0.63-0.55c-0.28-0.1-0.66-0.15-1.13-0.15h-1.29v6.26h1.29c0.71,0,1.23-0.18,1.55-0.54
			C16.65,7.13,16.82,6.6,16.89,5.83z"/>
		<path d="M20.78,9.67V0h6.17v1.71h-4.21v2.85h3.44v1.71h-3.44v3.41H20.78z"/>
	</g>
	<g>
		<polygon points="15.34,20.51 15.34,14.17 13.01,14.17 13.01,20.51 11.06,20.51 14.17,24.37 17.28,20.51 		"/>
		<polygon points="22.85,23.66 22.85,27.67 5.49,27.67 5.49,23.66 3.16,23.66 3.16,30 25.18,30 25.18,23.66 		"/>
	</g>
</g>
</svg>
