<?xml version="1.0" encoding="utf-8"?>
<!-- Generator: Adobe Illustrator 19.2.1, SVG Export Plug-In . SVG Version: 6.00 Build 0)  -->
<svg version="1.1" id="Layer_1" xmlns="http://www.w3.org/2000/svg" xmlns:xlink="http://www.w3.org/1999/xlink" x="0px" y="0px"
	 viewBox="0 0 30 30" enable-background="new 0 0 30 30" xml:space="preserve">
<path d="M30,26.79l-7.71-7.71c1.29-1.93,2.04-4.24,2.04-6.73c0-6.71-5.46-12.16-12.16-12.16C5.46,0.18,0,5.63,0,12.34
	c0,6.71,5.46,12.16,12.16,12.16c2.67,0,5.13-0.88,7.14-2.34l7.66,7.66L30,26.79z M4.29,12.34c0-4.34,3.53-7.87,7.87-7.87
	s7.87,3.53,7.87,7.87s-3.53,7.87-7.87,7.87S4.29,16.68,4.29,12.34z"/>
</svg>
