<?xml version="1.0" encoding="utf-8"?>
<!-- Generator: Adobe Illustrator 19.2.1, SVG Export Plug-In . SVG Version: 6.00 Build 0)  -->
<svg version="1.1" id="Layer_1" xmlns="http://www.w3.org/2000/svg" xmlns:xlink="http://www.w3.org/1999/xlink" x="0px" y="0px"
	 viewBox="0 0 30 30" enable-background="new 0 0 30 30" xml:space="preserve">
<g>
	<path d="M24.86,13.14c-0.39,0-0.77,0.09-1.11,0.27c-0.4-0.83-1.24-1.37-2.17-1.37c-0.39,0-0.77,0.09-1.11,0.27
		c-0.4-0.83-1.24-1.37-2.17-1.37c-0.3,0-0.6,0.06-0.88,0.16V6.79c0-1.33-1.08-2.41-2.41-2.41c-1.33,0-2.41,1.08-2.41,2.41v7.77
		c-0.59,0.37-1.13,0.83-1.4,1.08c-1.22,1.11-1.89,2.45-1.89,3.76v1.63c0,1.17,0.75,2.97,2.23,5.33l0.08,0.12
		c0.56,0.9,1.48,2.23,2.23,3.22c0.12,0.16,0.3,0.27,0.51,0.29C14.38,30,14.42,30,14.45,30c0.17,0,0.33-0.06,0.47-0.16
		c0.33-0.26,0.4-0.74,0.14-1.07c-0.57-0.75-1.66-2.32-2.17-3.13c-1.32-2.1-2.05-3.74-2.05-4.6V19.4c0-0.88,0.47-1.77,1.4-2.64
		c0.09-0.09,0.22-0.19,0.35-0.3l0,2.92c0,0.42,0.34,0.77,0.76,0.77c0.45,0,0.77-0.31,0.77-0.77V6.79c0-0.48,0.39-0.88,0.88-0.88
		s0.88,0.39,0.88,0.88v9.31c0,0.42,0.34,0.77,0.77,0.77s0.77-0.34,0.77-0.77v-2.74c0-0.48,0.39-0.88,0.88-0.88
		c0.48,0,0.88,0.39,0.88,0.88v2.74c0,0.42,0.34,0.77,0.77,0.77s0.77-0.34,0.77-0.77v-1.64c0-0.48,0.39-0.88,0.88-0.88
		c0.48,0,0.88,0.39,0.88,0.88v2.74c0,0.42,0.34,0.77,0.77,0.77s0.77-0.34,0.77-0.77v-1.64c0-0.48,0.39-0.88,0.88-0.88
		c0.48,0,0.88,0.39,0.88,0.88v3.83c0,1.86-0.6,3.67-1.18,5.42c-0.52,1.57-1.01,3.06-1.01,4.44c0,0.42,0.34,0.77,0.77,0.77
		s0.77-0.34,0.77-0.77c0-1.08,0.45-2.47,0.93-3.95c0.59-1.83,1.26-3.9,1.26-5.91v-3.83C27.26,14.22,26.18,13.14,24.86,13.14z"/>
	<path d="M4.26,3.72h6.91c0.42,0,0.77-0.34,0.77-0.77s-0.34-0.77-0.77-0.77H4.26l0.88-0.88c0.14-0.14,0.22-0.34,0.22-0.54
		s-0.08-0.4-0.22-0.54c-0.3-0.3-0.79-0.3-1.08,0L1.87,2.41C1.72,2.56,1.64,2.75,1.64,2.96c0,0.2,0.08,0.4,0.22,0.54l2.19,2.19
		C4.21,5.84,4.4,5.91,4.6,5.91s0.39-0.07,0.54-0.22c0.3-0.3,0.3-0.79,0-1.08L4.26,3.72z"/>
	<path d="M28.13,2.41l-2.19-2.19c-0.3-0.3-0.78-0.3-1.08,0c-0.14,0.14-0.22,0.34-0.22,0.54c0,0.2,0.08,0.4,0.22,0.54l0.88,0.88
		h-6.91c-0.42,0-0.77,0.34-0.77,0.77s0.34,0.77,0.77,0.77h6.91L24.86,4.6c-0.3,0.3-0.3,0.79,0,1.08c0.15,0.15,0.35,0.22,0.54,0.22
		c0.2,0,0.39-0.07,0.54-0.22l2.19-2.19c0.14-0.14,0.22-0.34,0.22-0.54C28.36,2.75,28.28,2.56,28.13,2.41z"/>
</g>
</svg>
