<?xml version="1.0" encoding="utf-8"?>
<!-- Generator: Adobe Illustrator 19.2.1, SVG Export Plug-In . SVG Version: 6.00 Build 0)  -->
<svg version="1.1" id="Layer_1" xmlns="http://www.w3.org/2000/svg" xmlns:xlink="http://www.w3.org/1999/xlink" x="0px" y="0px"
	 viewBox="0 0 30 30" enable-background="new 0 0 30 30" xml:space="preserve">
<g id="XMLID_4243_">
	<g id="XMLID_4244_">
		<path id="XMLID_4245_" d="M26.48,6.69c1.35-0.83,2.24-1.95,2.67-3.39c-1.31,0.69-2.61,1.17-3.92,1.43
			c-1.17-1.26-2.65-1.9-4.43-1.9c-1.74,0-3.21,0.61-4.4,1.8c-1.19,1.19-1.79,2.65-1.79,4.34c0,0.51,0.06,0.97,0.19,1.36
			c-5.13-0.17-9.37-2.3-12.71-6.39c-0.57,1-0.85,2.02-0.85,3.08c0,2.17,0.91,3.89,2.74,5.15c-1.04-0.09-1.96-0.35-2.74-0.78
			c0,1.55,0.45,2.84,1.37,3.98c0.91,1.13,2.09,1.84,3.52,2.15c-0.52,0.13-1.07,0.2-1.63,0.2c-0.52,0-0.89-0.04-1.11-0.14
			c0.38,1.26,1.11,2.28,2.15,3.07c1.04,0.79,2.24,1.2,3.59,1.24c-2.22,1.74-4.76,2.6-7.63,2.6c-0.7,0-1.2-0.01-1.5-0.06
			c2.83,1.84,5.98,2.75,9.46,2.75c3.56,0,6.71-0.9,9.46-2.71c2.74-1.8,4.76-4.01,6.06-6.62c1.31-2.61,1.95-5.32,1.95-8.15V8.9
			C28.2,7.95,29.22,6.88,30,5.7C28.87,6.19,27.7,6.52,26.48,6.69z"/>
	</g>
</g>
</svg>
