<?xml version="1.0" encoding="utf-8"?>
<!-- Generator: Adobe Illustrator 19.2.1, SVG Export Plug-In . SVG Version: 6.00 Build 0)  -->
<svg version="1.1" id="Layer_1" xmlns="http://www.w3.org/2000/svg" xmlns:xlink="http://www.w3.org/1999/xlink" x="0px" y="0px"
	 viewBox="0 0 30 30" enable-background="new 0 0 30 30" xml:space="preserve">
<g>
	<g>
		<path d="M0,17.83c0,3.41,2.77,6.18,6.18,6.18c3.41,0,6.18-2.77,6.18-6.18c0-2.53-1.53-4.71-3.72-5.67l0.3-0.87l7.17,7.43
			c0.01,0.01,0.02,0.01,0.03,0.02c0.01,0.01,0.02,0.02,0.03,0.03c0.02,0.01,0.03,0.02,0.05,0.03c0.01,0.01,0.02,0.01,0.03,0.02
			c0.02,0.01,0.04,0.01,0.06,0.02c0.01,0,0.02,0.01,0.03,0.01c0.03,0.01,0.06,0.01,0.09,0.01c0.01,0,0.02,0,0.03,0l1.23-0.09
			c0.43,2.99,3.01,5.29,6.12,5.29c3.41,0,6.18-2.78,6.18-6.18c0-3.41-2.77-6.19-6.18-6.19c-0.9,0-1.76,0.19-2.54,0.54l-1.67-3.1
			l0.6-2.07h0.99c0.24,0,0.44-0.3,0.44-0.54c0-0.24-0.2-0.55-0.44-0.55h-3.33c-0.24,0-0.44,0.3-0.44,0.55c0,0.24,0.2,0.54,0.44,0.54
			h1.43L18.81,8.5H9.6l0.17-0.66c0.03-0.13,0-0.18-0.09-0.29C9.6,7.44,9.48,7.41,9.34,7.41H6.6c-0.24,0-0.44,0.12-0.44,0.36
			c0,0.24,0.2,0.36,0.44,0.36H8.8L8.63,9.01c0,0,0,0.04,0,0.05l-0.27,1.28l-0.53,1.52c-0.52-0.14-1.07-0.22-1.64-0.22
			C2.77,11.64,0,14.42,0,17.83z M18.56,9.59l-2.33,7.93l-6.98-7.18l0.16-0.75H18.56z M18.72,18.68l5.13-0.38
			c0.15-0.01,0.28-0.1,0.35-0.23c0.07-0.13,0.07-0.29,0-0.42l-2.44-4.53c0.63-0.27,1.32-0.43,2.05-0.43c2.85,0,5.16,2.31,5.16,5.16
			c0,2.84-2.31,5.16-5.16,5.16C21.25,23.03,19.12,21.14,18.72,18.68z M23.11,17.48l-4.45,0.33c0.02-1.78,0.95-3.35,2.34-4.26
			L23.11,17.48z M17.06,17.93l2.22-7.6l1.27,2.32c-1.73,1.1-2.86,3.03-2.86,5.22c0,0.01,0,0.01,0,0.02L17.06,17.93z M1.02,17.83
			c0-2.85,2.31-5.16,5.16-5.16c0.45,0,0.88,0.06,1.3,0.17l-1.71,4.89c-0.08,0.23,0.04,0.48,0.27,0.56c0.05,0.02,0.1,0.02,0.14,0.02
			c0.18,0,0.35-0.11,0.41-0.29l1.71-4.88c1.79,0.81,3.04,2.61,3.04,4.7c0,2.85-2.31,5.16-5.16,5.16S1.02,20.67,1.02,17.83z"/>
	</g>
</g>
</svg>
