<?xml version="1.0" encoding="utf-8"?>
<!-- Generator: Adobe Illustrator 19.2.1, SVG Export Plug-In . SVG Version: 6.00 Build 0)  -->
<svg version="1.1" id="Layer_1" xmlns="http://www.w3.org/2000/svg" xmlns:xlink="http://www.w3.org/1999/xlink" x="0px" y="0px"
	 viewBox="0 0 30 30" enable-background="new 0 0 30 30" xml:space="preserve">
<g id="XMLID_2491_">
	<g>
		<path d="M29.9,27.78l-6.09-6.09c1.86-2.29,2.98-5.2,2.98-8.37c0-7.33-5.96-13.29-13.29-13.29S0.21,5.99,0.21,13.32
			S6.18,26.6,13.5,26.6c3.01,0,5.78-1.02,8.01-2.71l6.14,6.14L29.9,27.78z M2.64,13.32c0-5.99,4.88-10.87,10.87-10.87
			c5.99,0,10.87,4.87,10.87,10.87S19.49,24.18,13.5,24.18C7.51,24.18,2.64,19.31,2.64,13.32z"/>
		<polygon points="17.75,12.25 14.56,12.25 14.56,9.07 12.44,9.07 12.44,12.25 9.25,12.25 9.25,14.38 12.44,14.38 12.44,17.57 
			14.56,17.57 14.56,14.38 17.75,14.38 		"/>
	</g>
</g>
</svg>
